%TF.GenerationSoftware,KiCad,Pcbnew,9.0.7*%
%TF.CreationDate,2026-02-15T18:00:21+01:00*%
%TF.ProjectId,Articulated-Robot,41727469-6375-46c6-9174-65642d526f62,rev?*%
%TF.SameCoordinates,Original*%
%TF.FileFunction,Drillmap*%
%TF.FilePolarity,Positive*%
%FSLAX45Y45*%
G04 Gerber Fmt 4.5, Leading zero omitted, Abs format (unit mm)*
G04 Created by KiCad (PCBNEW 9.0.7) date 2026-02-15 18:00:21*
%MOMM*%
%LPD*%
G01*
G04 APERTURE LIST*
%ADD10C,0.038100*%
%ADD11C,0.200000*%
%ADD12C,0.178000*%
%ADD13C,0.220000*%
G04 APERTURE END LIST*
D10*
X8500000Y-6050000D02*
X8500000Y-12100000D01*
X13400000Y-6050000D02*
X8500000Y-6050000D01*
X13400000Y-12100000D02*
X13400000Y-6050000D01*
X8500000Y-12100000D02*
X13400000Y-12100000D01*
D11*
D12*
X11214000Y-6643000D02*
X11392000Y-6821000D01*
X11392000Y-6643000D02*
X11214000Y-6821000D01*
X11214000Y-10707000D02*
X11392000Y-10885000D01*
X11392000Y-10707000D02*
X11214000Y-10885000D01*
X12738000Y-6643000D02*
X12916000Y-6821000D01*
X12916000Y-6643000D02*
X12738000Y-6821000D01*
X12738000Y-10707000D02*
X12916000Y-10885000D01*
X12916000Y-10707000D02*
X12738000Y-10885000D01*
D13*
X8910000Y-6350000D02*
G75*
G02*
X8690000Y-6350000I-110000J0D01*
G01*
X8690000Y-6350000D02*
G75*
G02*
X8910000Y-6350000I110000J0D01*
G01*
X8910000Y-11800000D02*
G75*
G02*
X8690000Y-11800000I-110000J0D01*
G01*
X8690000Y-11800000D02*
G75*
G02*
X8910000Y-11800000I110000J0D01*
G01*
X13210000Y-6350000D02*
G75*
G02*
X12990000Y-6350000I-110000J0D01*
G01*
X12990000Y-6350000D02*
G75*
G02*
X13210000Y-6350000I110000J0D01*
G01*
X13210000Y-11800000D02*
G75*
G02*
X12990000Y-11800000I-110000J0D01*
G01*
X12990000Y-11800000D02*
G75*
G02*
X13210000Y-11800000I110000J0D01*
G01*
D11*
X8758872Y-12413389D02*
X8758872Y-12213389D01*
X8758872Y-12213389D02*
X8806491Y-12213389D01*
X8806491Y-12213389D02*
X8835062Y-12222913D01*
X8835062Y-12222913D02*
X8854110Y-12241960D01*
X8854110Y-12241960D02*
X8863634Y-12261008D01*
X8863634Y-12261008D02*
X8873158Y-12299103D01*
X8873158Y-12299103D02*
X8873158Y-12327674D01*
X8873158Y-12327674D02*
X8863634Y-12365770D01*
X8863634Y-12365770D02*
X8854110Y-12384817D01*
X8854110Y-12384817D02*
X8835062Y-12403865D01*
X8835062Y-12403865D02*
X8806491Y-12413389D01*
X8806491Y-12413389D02*
X8758872Y-12413389D01*
X8958872Y-12413389D02*
X8958872Y-12280055D01*
X8958872Y-12318151D02*
X8968396Y-12299103D01*
X8968396Y-12299103D02*
X8977919Y-12289579D01*
X8977919Y-12289579D02*
X8996967Y-12280055D01*
X8996967Y-12280055D02*
X9016015Y-12280055D01*
X9082681Y-12413389D02*
X9082681Y-12280055D01*
X9082681Y-12213389D02*
X9073158Y-12222913D01*
X9073158Y-12222913D02*
X9082681Y-12232436D01*
X9082681Y-12232436D02*
X9092205Y-12222913D01*
X9092205Y-12222913D02*
X9082681Y-12213389D01*
X9082681Y-12213389D02*
X9082681Y-12232436D01*
X9206491Y-12413389D02*
X9187443Y-12403865D01*
X9187443Y-12403865D02*
X9177919Y-12384817D01*
X9177919Y-12384817D02*
X9177919Y-12213389D01*
X9311253Y-12413389D02*
X9292205Y-12403865D01*
X9292205Y-12403865D02*
X9282681Y-12384817D01*
X9282681Y-12384817D02*
X9282681Y-12213389D01*
X9539824Y-12413389D02*
X9539824Y-12213389D01*
X9539824Y-12213389D02*
X9606491Y-12356246D01*
X9606491Y-12356246D02*
X9673158Y-12213389D01*
X9673158Y-12213389D02*
X9673158Y-12413389D01*
X9854110Y-12413389D02*
X9854110Y-12308627D01*
X9854110Y-12308627D02*
X9844586Y-12289579D01*
X9844586Y-12289579D02*
X9825539Y-12280055D01*
X9825539Y-12280055D02*
X9787443Y-12280055D01*
X9787443Y-12280055D02*
X9768396Y-12289579D01*
X9854110Y-12403865D02*
X9835062Y-12413389D01*
X9835062Y-12413389D02*
X9787443Y-12413389D01*
X9787443Y-12413389D02*
X9768396Y-12403865D01*
X9768396Y-12403865D02*
X9758872Y-12384817D01*
X9758872Y-12384817D02*
X9758872Y-12365770D01*
X9758872Y-12365770D02*
X9768396Y-12346722D01*
X9768396Y-12346722D02*
X9787443Y-12337198D01*
X9787443Y-12337198D02*
X9835062Y-12337198D01*
X9835062Y-12337198D02*
X9854110Y-12327674D01*
X9949348Y-12280055D02*
X9949348Y-12480055D01*
X9949348Y-12289579D02*
X9968396Y-12280055D01*
X9968396Y-12280055D02*
X10006491Y-12280055D01*
X10006491Y-12280055D02*
X10025539Y-12289579D01*
X10025539Y-12289579D02*
X10035062Y-12299103D01*
X10035062Y-12299103D02*
X10044586Y-12318151D01*
X10044586Y-12318151D02*
X10044586Y-12375293D01*
X10044586Y-12375293D02*
X10035062Y-12394341D01*
X10035062Y-12394341D02*
X10025539Y-12403865D01*
X10025539Y-12403865D02*
X10006491Y-12413389D01*
X10006491Y-12413389D02*
X9968396Y-12413389D01*
X9968396Y-12413389D02*
X9949348Y-12403865D01*
X10130300Y-12394341D02*
X10139824Y-12403865D01*
X10139824Y-12403865D02*
X10130300Y-12413389D01*
X10130300Y-12413389D02*
X10120777Y-12403865D01*
X10120777Y-12403865D02*
X10130300Y-12394341D01*
X10130300Y-12394341D02*
X10130300Y-12413389D01*
X10130300Y-12289579D02*
X10139824Y-12299103D01*
X10139824Y-12299103D02*
X10130300Y-12308627D01*
X10130300Y-12308627D02*
X10120777Y-12299103D01*
X10120777Y-12299103D02*
X10130300Y-12289579D01*
X10130300Y-12289579D02*
X10130300Y-12308627D01*
D12*
X8320095Y-12652905D02*
X8498095Y-12830905D01*
X8498095Y-12652905D02*
X8320095Y-12830905D01*
D11*
X8863634Y-12833389D02*
X8749348Y-12833389D01*
X8806491Y-12833389D02*
X8806491Y-12633389D01*
X8806491Y-12633389D02*
X8787443Y-12661960D01*
X8787443Y-12661960D02*
X8768396Y-12681008D01*
X8768396Y-12681008D02*
X8749348Y-12690532D01*
X8949348Y-12814341D02*
X8958872Y-12823865D01*
X8958872Y-12823865D02*
X8949348Y-12833389D01*
X8949348Y-12833389D02*
X8939824Y-12823865D01*
X8939824Y-12823865D02*
X8949348Y-12814341D01*
X8949348Y-12814341D02*
X8949348Y-12833389D01*
X9025539Y-12633389D02*
X9158872Y-12633389D01*
X9158872Y-12633389D02*
X9073158Y-12833389D01*
X9263634Y-12719103D02*
X9244586Y-12709579D01*
X9244586Y-12709579D02*
X9235062Y-12700055D01*
X9235062Y-12700055D02*
X9225539Y-12681008D01*
X9225539Y-12681008D02*
X9225539Y-12671484D01*
X9225539Y-12671484D02*
X9235062Y-12652436D01*
X9235062Y-12652436D02*
X9244586Y-12642913D01*
X9244586Y-12642913D02*
X9263634Y-12633389D01*
X9263634Y-12633389D02*
X9301729Y-12633389D01*
X9301729Y-12633389D02*
X9320777Y-12642913D01*
X9320777Y-12642913D02*
X9330300Y-12652436D01*
X9330300Y-12652436D02*
X9339824Y-12671484D01*
X9339824Y-12671484D02*
X9339824Y-12681008D01*
X9339824Y-12681008D02*
X9330300Y-12700055D01*
X9330300Y-12700055D02*
X9320777Y-12709579D01*
X9320777Y-12709579D02*
X9301729Y-12719103D01*
X9301729Y-12719103D02*
X9263634Y-12719103D01*
X9263634Y-12719103D02*
X9244586Y-12728627D01*
X9244586Y-12728627D02*
X9235062Y-12738151D01*
X9235062Y-12738151D02*
X9225539Y-12757198D01*
X9225539Y-12757198D02*
X9225539Y-12795293D01*
X9225539Y-12795293D02*
X9235062Y-12814341D01*
X9235062Y-12814341D02*
X9244586Y-12823865D01*
X9244586Y-12823865D02*
X9263634Y-12833389D01*
X9263634Y-12833389D02*
X9301729Y-12833389D01*
X9301729Y-12833389D02*
X9320777Y-12823865D01*
X9320777Y-12823865D02*
X9330300Y-12814341D01*
X9330300Y-12814341D02*
X9339824Y-12795293D01*
X9339824Y-12795293D02*
X9339824Y-12757198D01*
X9339824Y-12757198D02*
X9330300Y-12738151D01*
X9330300Y-12738151D02*
X9320777Y-12728627D01*
X9320777Y-12728627D02*
X9301729Y-12719103D01*
X9463634Y-12633389D02*
X9482681Y-12633389D01*
X9482681Y-12633389D02*
X9501729Y-12642913D01*
X9501729Y-12642913D02*
X9511253Y-12652436D01*
X9511253Y-12652436D02*
X9520777Y-12671484D01*
X9520777Y-12671484D02*
X9530300Y-12709579D01*
X9530300Y-12709579D02*
X9530300Y-12757198D01*
X9530300Y-12757198D02*
X9520777Y-12795293D01*
X9520777Y-12795293D02*
X9511253Y-12814341D01*
X9511253Y-12814341D02*
X9501729Y-12823865D01*
X9501729Y-12823865D02*
X9482681Y-12833389D01*
X9482681Y-12833389D02*
X9463634Y-12833389D01*
X9463634Y-12833389D02*
X9444586Y-12823865D01*
X9444586Y-12823865D02*
X9435062Y-12814341D01*
X9435062Y-12814341D02*
X9425539Y-12795293D01*
X9425539Y-12795293D02*
X9416015Y-12757198D01*
X9416015Y-12757198D02*
X9416015Y-12709579D01*
X9416015Y-12709579D02*
X9425539Y-12671484D01*
X9425539Y-12671484D02*
X9435062Y-12652436D01*
X9435062Y-12652436D02*
X9444586Y-12642913D01*
X9444586Y-12642913D02*
X9463634Y-12633389D01*
X9616015Y-12833389D02*
X9616015Y-12700055D01*
X9616015Y-12719103D02*
X9625539Y-12709579D01*
X9625539Y-12709579D02*
X9644586Y-12700055D01*
X9644586Y-12700055D02*
X9673158Y-12700055D01*
X9673158Y-12700055D02*
X9692205Y-12709579D01*
X9692205Y-12709579D02*
X9701729Y-12728627D01*
X9701729Y-12728627D02*
X9701729Y-12833389D01*
X9701729Y-12728627D02*
X9711253Y-12709579D01*
X9711253Y-12709579D02*
X9730300Y-12700055D01*
X9730300Y-12700055D02*
X9758872Y-12700055D01*
X9758872Y-12700055D02*
X9777920Y-12709579D01*
X9777920Y-12709579D02*
X9787443Y-12728627D01*
X9787443Y-12728627D02*
X9787443Y-12833389D01*
X9882681Y-12833389D02*
X9882681Y-12700055D01*
X9882681Y-12719103D02*
X9892205Y-12709579D01*
X9892205Y-12709579D02*
X9911253Y-12700055D01*
X9911253Y-12700055D02*
X9939824Y-12700055D01*
X9939824Y-12700055D02*
X9958872Y-12709579D01*
X9958872Y-12709579D02*
X9968396Y-12728627D01*
X9968396Y-12728627D02*
X9968396Y-12833389D01*
X9968396Y-12728627D02*
X9977920Y-12709579D01*
X9977920Y-12709579D02*
X9996967Y-12700055D01*
X9996967Y-12700055D02*
X10025539Y-12700055D01*
X10025539Y-12700055D02*
X10044586Y-12709579D01*
X10044586Y-12709579D02*
X10054110Y-12728627D01*
X10054110Y-12728627D02*
X10054110Y-12833389D01*
X10444586Y-12623865D02*
X10273158Y-12881008D01*
X10701729Y-12633389D02*
X10720777Y-12633389D01*
X10720777Y-12633389D02*
X10739824Y-12642913D01*
X10739824Y-12642913D02*
X10749348Y-12652436D01*
X10749348Y-12652436D02*
X10758872Y-12671484D01*
X10758872Y-12671484D02*
X10768396Y-12709579D01*
X10768396Y-12709579D02*
X10768396Y-12757198D01*
X10768396Y-12757198D02*
X10758872Y-12795293D01*
X10758872Y-12795293D02*
X10749348Y-12814341D01*
X10749348Y-12814341D02*
X10739824Y-12823865D01*
X10739824Y-12823865D02*
X10720777Y-12833389D01*
X10720777Y-12833389D02*
X10701729Y-12833389D01*
X10701729Y-12833389D02*
X10682682Y-12823865D01*
X10682682Y-12823865D02*
X10673158Y-12814341D01*
X10673158Y-12814341D02*
X10663634Y-12795293D01*
X10663634Y-12795293D02*
X10654110Y-12757198D01*
X10654110Y-12757198D02*
X10654110Y-12709579D01*
X10654110Y-12709579D02*
X10663634Y-12671484D01*
X10663634Y-12671484D02*
X10673158Y-12652436D01*
X10673158Y-12652436D02*
X10682682Y-12642913D01*
X10682682Y-12642913D02*
X10701729Y-12633389D01*
X10854110Y-12814341D02*
X10863634Y-12823865D01*
X10863634Y-12823865D02*
X10854110Y-12833389D01*
X10854110Y-12833389D02*
X10844586Y-12823865D01*
X10844586Y-12823865D02*
X10854110Y-12814341D01*
X10854110Y-12814341D02*
X10854110Y-12833389D01*
X10987443Y-12633389D02*
X11006491Y-12633389D01*
X11006491Y-12633389D02*
X11025539Y-12642913D01*
X11025539Y-12642913D02*
X11035063Y-12652436D01*
X11035063Y-12652436D02*
X11044586Y-12671484D01*
X11044586Y-12671484D02*
X11054110Y-12709579D01*
X11054110Y-12709579D02*
X11054110Y-12757198D01*
X11054110Y-12757198D02*
X11044586Y-12795293D01*
X11044586Y-12795293D02*
X11035063Y-12814341D01*
X11035063Y-12814341D02*
X11025539Y-12823865D01*
X11025539Y-12823865D02*
X11006491Y-12833389D01*
X11006491Y-12833389D02*
X10987443Y-12833389D01*
X10987443Y-12833389D02*
X10968396Y-12823865D01*
X10968396Y-12823865D02*
X10958872Y-12814341D01*
X10958872Y-12814341D02*
X10949348Y-12795293D01*
X10949348Y-12795293D02*
X10939824Y-12757198D01*
X10939824Y-12757198D02*
X10939824Y-12709579D01*
X10939824Y-12709579D02*
X10949348Y-12671484D01*
X10949348Y-12671484D02*
X10958872Y-12652436D01*
X10958872Y-12652436D02*
X10968396Y-12642913D01*
X10968396Y-12642913D02*
X10987443Y-12633389D01*
X11120777Y-12633389D02*
X11254110Y-12633389D01*
X11254110Y-12633389D02*
X11168396Y-12833389D01*
X11368396Y-12633389D02*
X11387443Y-12633389D01*
X11387443Y-12633389D02*
X11406491Y-12642913D01*
X11406491Y-12642913D02*
X11416015Y-12652436D01*
X11416015Y-12652436D02*
X11425539Y-12671484D01*
X11425539Y-12671484D02*
X11435062Y-12709579D01*
X11435062Y-12709579D02*
X11435062Y-12757198D01*
X11435062Y-12757198D02*
X11425539Y-12795293D01*
X11425539Y-12795293D02*
X11416015Y-12814341D01*
X11416015Y-12814341D02*
X11406491Y-12823865D01*
X11406491Y-12823865D02*
X11387443Y-12833389D01*
X11387443Y-12833389D02*
X11368396Y-12833389D01*
X11368396Y-12833389D02*
X11349348Y-12823865D01*
X11349348Y-12823865D02*
X11339824Y-12814341D01*
X11339824Y-12814341D02*
X11330301Y-12795293D01*
X11330301Y-12795293D02*
X11320777Y-12757198D01*
X11320777Y-12757198D02*
X11320777Y-12709579D01*
X11320777Y-12709579D02*
X11330301Y-12671484D01*
X11330301Y-12671484D02*
X11339824Y-12652436D01*
X11339824Y-12652436D02*
X11349348Y-12642913D01*
X11349348Y-12642913D02*
X11368396Y-12633389D01*
X11625539Y-12833389D02*
X11511253Y-12833389D01*
X11568396Y-12833389D02*
X11568396Y-12633389D01*
X11568396Y-12633389D02*
X11549348Y-12661960D01*
X11549348Y-12661960D02*
X11530301Y-12681008D01*
X11530301Y-12681008D02*
X11511253Y-12690532D01*
X11701729Y-12633389D02*
X11701729Y-12671484D01*
X11777920Y-12633389D02*
X11777920Y-12671484D01*
X12073158Y-12909579D02*
X12063634Y-12900055D01*
X12063634Y-12900055D02*
X12044586Y-12871484D01*
X12044586Y-12871484D02*
X12035063Y-12852436D01*
X12035063Y-12852436D02*
X12025539Y-12823865D01*
X12025539Y-12823865D02*
X12016015Y-12776246D01*
X12016015Y-12776246D02*
X12016015Y-12738151D01*
X12016015Y-12738151D02*
X12025539Y-12690532D01*
X12025539Y-12690532D02*
X12035063Y-12661960D01*
X12035063Y-12661960D02*
X12044586Y-12642913D01*
X12044586Y-12642913D02*
X12063634Y-12614341D01*
X12063634Y-12614341D02*
X12073158Y-12604817D01*
X12235063Y-12700055D02*
X12235063Y-12833389D01*
X12187443Y-12623865D02*
X12139824Y-12766722D01*
X12139824Y-12766722D02*
X12263634Y-12766722D01*
X12492205Y-12833389D02*
X12492205Y-12633389D01*
X12577920Y-12833389D02*
X12577920Y-12728627D01*
X12577920Y-12728627D02*
X12568396Y-12709579D01*
X12568396Y-12709579D02*
X12549348Y-12700055D01*
X12549348Y-12700055D02*
X12520777Y-12700055D01*
X12520777Y-12700055D02*
X12501729Y-12709579D01*
X12501729Y-12709579D02*
X12492205Y-12719103D01*
X12701729Y-12833389D02*
X12682682Y-12823865D01*
X12682682Y-12823865D02*
X12673158Y-12814341D01*
X12673158Y-12814341D02*
X12663634Y-12795293D01*
X12663634Y-12795293D02*
X12663634Y-12738151D01*
X12663634Y-12738151D02*
X12673158Y-12719103D01*
X12673158Y-12719103D02*
X12682682Y-12709579D01*
X12682682Y-12709579D02*
X12701729Y-12700055D01*
X12701729Y-12700055D02*
X12730301Y-12700055D01*
X12730301Y-12700055D02*
X12749348Y-12709579D01*
X12749348Y-12709579D02*
X12758872Y-12719103D01*
X12758872Y-12719103D02*
X12768396Y-12738151D01*
X12768396Y-12738151D02*
X12768396Y-12795293D01*
X12768396Y-12795293D02*
X12758872Y-12814341D01*
X12758872Y-12814341D02*
X12749348Y-12823865D01*
X12749348Y-12823865D02*
X12730301Y-12833389D01*
X12730301Y-12833389D02*
X12701729Y-12833389D01*
X12882682Y-12833389D02*
X12863634Y-12823865D01*
X12863634Y-12823865D02*
X12854110Y-12804817D01*
X12854110Y-12804817D02*
X12854110Y-12633389D01*
X13035063Y-12823865D02*
X13016015Y-12833389D01*
X13016015Y-12833389D02*
X12977920Y-12833389D01*
X12977920Y-12833389D02*
X12958872Y-12823865D01*
X12958872Y-12823865D02*
X12949348Y-12804817D01*
X12949348Y-12804817D02*
X12949348Y-12728627D01*
X12949348Y-12728627D02*
X12958872Y-12709579D01*
X12958872Y-12709579D02*
X12977920Y-12700055D01*
X12977920Y-12700055D02*
X13016015Y-12700055D01*
X13016015Y-12700055D02*
X13035063Y-12709579D01*
X13035063Y-12709579D02*
X13044586Y-12728627D01*
X13044586Y-12728627D02*
X13044586Y-12747674D01*
X13044586Y-12747674D02*
X12949348Y-12766722D01*
X13120777Y-12823865D02*
X13139825Y-12833389D01*
X13139825Y-12833389D02*
X13177920Y-12833389D01*
X13177920Y-12833389D02*
X13196967Y-12823865D01*
X13196967Y-12823865D02*
X13206491Y-12804817D01*
X13206491Y-12804817D02*
X13206491Y-12795293D01*
X13206491Y-12795293D02*
X13196967Y-12776246D01*
X13196967Y-12776246D02*
X13177920Y-12766722D01*
X13177920Y-12766722D02*
X13149348Y-12766722D01*
X13149348Y-12766722D02*
X13130301Y-12757198D01*
X13130301Y-12757198D02*
X13120777Y-12738151D01*
X13120777Y-12738151D02*
X13120777Y-12728627D01*
X13120777Y-12728627D02*
X13130301Y-12709579D01*
X13130301Y-12709579D02*
X13149348Y-12700055D01*
X13149348Y-12700055D02*
X13177920Y-12700055D01*
X13177920Y-12700055D02*
X13196967Y-12709579D01*
X13273158Y-12909579D02*
X13282682Y-12900055D01*
X13282682Y-12900055D02*
X13301729Y-12871484D01*
X13301729Y-12871484D02*
X13311253Y-12852436D01*
X13311253Y-12852436D02*
X13320777Y-12823865D01*
X13320777Y-12823865D02*
X13330301Y-12776246D01*
X13330301Y-12776246D02*
X13330301Y-12738151D01*
X13330301Y-12738151D02*
X13320777Y-12690532D01*
X13320777Y-12690532D02*
X13311253Y-12661960D01*
X13311253Y-12661960D02*
X13301729Y-12642913D01*
X13301729Y-12642913D02*
X13282682Y-12614341D01*
X13282682Y-12614341D02*
X13273158Y-12604817D01*
X13635063Y-12909579D02*
X13625539Y-12900055D01*
X13625539Y-12900055D02*
X13606491Y-12871484D01*
X13606491Y-12871484D02*
X13596967Y-12852436D01*
X13596967Y-12852436D02*
X13587444Y-12823865D01*
X13587444Y-12823865D02*
X13577920Y-12776246D01*
X13577920Y-12776246D02*
X13577920Y-12738151D01*
X13577920Y-12738151D02*
X13587444Y-12690532D01*
X13587444Y-12690532D02*
X13596967Y-12661960D01*
X13596967Y-12661960D02*
X13606491Y-12642913D01*
X13606491Y-12642913D02*
X13625539Y-12614341D01*
X13625539Y-12614341D02*
X13635063Y-12604817D01*
X13711253Y-12700055D02*
X13711253Y-12833389D01*
X13711253Y-12719103D02*
X13720777Y-12709579D01*
X13720777Y-12709579D02*
X13739825Y-12700055D01*
X13739825Y-12700055D02*
X13768396Y-12700055D01*
X13768396Y-12700055D02*
X13787444Y-12709579D01*
X13787444Y-12709579D02*
X13796967Y-12728627D01*
X13796967Y-12728627D02*
X13796967Y-12833389D01*
X13920777Y-12833389D02*
X13901729Y-12823865D01*
X13901729Y-12823865D02*
X13892206Y-12814341D01*
X13892206Y-12814341D02*
X13882682Y-12795293D01*
X13882682Y-12795293D02*
X13882682Y-12738151D01*
X13882682Y-12738151D02*
X13892206Y-12719103D01*
X13892206Y-12719103D02*
X13901729Y-12709579D01*
X13901729Y-12709579D02*
X13920777Y-12700055D01*
X13920777Y-12700055D02*
X13949348Y-12700055D01*
X13949348Y-12700055D02*
X13968396Y-12709579D01*
X13968396Y-12709579D02*
X13977920Y-12719103D01*
X13977920Y-12719103D02*
X13987444Y-12738151D01*
X13987444Y-12738151D02*
X13987444Y-12795293D01*
X13987444Y-12795293D02*
X13977920Y-12814341D01*
X13977920Y-12814341D02*
X13968396Y-12823865D01*
X13968396Y-12823865D02*
X13949348Y-12833389D01*
X13949348Y-12833389D02*
X13920777Y-12833389D01*
X14044587Y-12700055D02*
X14120777Y-12700055D01*
X14073158Y-12633389D02*
X14073158Y-12804817D01*
X14073158Y-12804817D02*
X14082682Y-12823865D01*
X14082682Y-12823865D02*
X14101729Y-12833389D01*
X14101729Y-12833389D02*
X14120777Y-12833389D01*
X14339825Y-12700055D02*
X14339825Y-12900055D01*
X14339825Y-12709579D02*
X14358872Y-12700055D01*
X14358872Y-12700055D02*
X14396968Y-12700055D01*
X14396968Y-12700055D02*
X14416015Y-12709579D01*
X14416015Y-12709579D02*
X14425539Y-12719103D01*
X14425539Y-12719103D02*
X14435063Y-12738151D01*
X14435063Y-12738151D02*
X14435063Y-12795293D01*
X14435063Y-12795293D02*
X14425539Y-12814341D01*
X14425539Y-12814341D02*
X14416015Y-12823865D01*
X14416015Y-12823865D02*
X14396968Y-12833389D01*
X14396968Y-12833389D02*
X14358872Y-12833389D01*
X14358872Y-12833389D02*
X14339825Y-12823865D01*
X14549348Y-12833389D02*
X14530301Y-12823865D01*
X14530301Y-12823865D02*
X14520777Y-12804817D01*
X14520777Y-12804817D02*
X14520777Y-12633389D01*
X14711253Y-12833389D02*
X14711253Y-12728627D01*
X14711253Y-12728627D02*
X14701729Y-12709579D01*
X14701729Y-12709579D02*
X14682682Y-12700055D01*
X14682682Y-12700055D02*
X14644587Y-12700055D01*
X14644587Y-12700055D02*
X14625539Y-12709579D01*
X14711253Y-12823865D02*
X14692206Y-12833389D01*
X14692206Y-12833389D02*
X14644587Y-12833389D01*
X14644587Y-12833389D02*
X14625539Y-12823865D01*
X14625539Y-12823865D02*
X14616015Y-12804817D01*
X14616015Y-12804817D02*
X14616015Y-12785770D01*
X14616015Y-12785770D02*
X14625539Y-12766722D01*
X14625539Y-12766722D02*
X14644587Y-12757198D01*
X14644587Y-12757198D02*
X14692206Y-12757198D01*
X14692206Y-12757198D02*
X14711253Y-12747674D01*
X14777920Y-12700055D02*
X14854110Y-12700055D01*
X14806491Y-12633389D02*
X14806491Y-12804817D01*
X14806491Y-12804817D02*
X14816015Y-12823865D01*
X14816015Y-12823865D02*
X14835063Y-12833389D01*
X14835063Y-12833389D02*
X14854110Y-12833389D01*
X14996968Y-12823865D02*
X14977920Y-12833389D01*
X14977920Y-12833389D02*
X14939825Y-12833389D01*
X14939825Y-12833389D02*
X14920777Y-12823865D01*
X14920777Y-12823865D02*
X14911253Y-12804817D01*
X14911253Y-12804817D02*
X14911253Y-12728627D01*
X14911253Y-12728627D02*
X14920777Y-12709579D01*
X14920777Y-12709579D02*
X14939825Y-12700055D01*
X14939825Y-12700055D02*
X14977920Y-12700055D01*
X14977920Y-12700055D02*
X14996968Y-12709579D01*
X14996968Y-12709579D02*
X15006491Y-12728627D01*
X15006491Y-12728627D02*
X15006491Y-12747674D01*
X15006491Y-12747674D02*
X14911253Y-12766722D01*
X15177920Y-12833389D02*
X15177920Y-12633389D01*
X15177920Y-12823865D02*
X15158872Y-12833389D01*
X15158872Y-12833389D02*
X15120777Y-12833389D01*
X15120777Y-12833389D02*
X15101729Y-12823865D01*
X15101729Y-12823865D02*
X15092206Y-12814341D01*
X15092206Y-12814341D02*
X15082682Y-12795293D01*
X15082682Y-12795293D02*
X15082682Y-12738151D01*
X15082682Y-12738151D02*
X15092206Y-12719103D01*
X15092206Y-12719103D02*
X15101729Y-12709579D01*
X15101729Y-12709579D02*
X15120777Y-12700055D01*
X15120777Y-12700055D02*
X15158872Y-12700055D01*
X15158872Y-12700055D02*
X15177920Y-12709579D01*
X15254110Y-12909579D02*
X15263634Y-12900055D01*
X15263634Y-12900055D02*
X15282682Y-12871484D01*
X15282682Y-12871484D02*
X15292206Y-12852436D01*
X15292206Y-12852436D02*
X15301729Y-12823865D01*
X15301729Y-12823865D02*
X15311253Y-12776246D01*
X15311253Y-12776246D02*
X15311253Y-12738151D01*
X15311253Y-12738151D02*
X15301729Y-12690532D01*
X15301729Y-12690532D02*
X15292206Y-12661960D01*
X15292206Y-12661960D02*
X15282682Y-12642913D01*
X15282682Y-12642913D02*
X15263634Y-12614341D01*
X15263634Y-12614341D02*
X15254110Y-12604817D01*
X8498095Y-13039905D02*
G75*
G02*
X8298095Y-13039905I-100000J0D01*
G01*
X8298095Y-13039905D02*
G75*
G02*
X8498095Y-13039905I100000J0D01*
G01*
X8749348Y-12950436D02*
X8758872Y-12940913D01*
X8758872Y-12940913D02*
X8777919Y-12931389D01*
X8777919Y-12931389D02*
X8825539Y-12931389D01*
X8825539Y-12931389D02*
X8844586Y-12940913D01*
X8844586Y-12940913D02*
X8854110Y-12950436D01*
X8854110Y-12950436D02*
X8863634Y-12969484D01*
X8863634Y-12969484D02*
X8863634Y-12988532D01*
X8863634Y-12988532D02*
X8854110Y-13017103D01*
X8854110Y-13017103D02*
X8739824Y-13131389D01*
X8739824Y-13131389D02*
X8863634Y-13131389D01*
X8949348Y-13112341D02*
X8958872Y-13121865D01*
X8958872Y-13121865D02*
X8949348Y-13131389D01*
X8949348Y-13131389D02*
X8939824Y-13121865D01*
X8939824Y-13121865D02*
X8949348Y-13112341D01*
X8949348Y-13112341D02*
X8949348Y-13131389D01*
X9035062Y-12950436D02*
X9044586Y-12940913D01*
X9044586Y-12940913D02*
X9063634Y-12931389D01*
X9063634Y-12931389D02*
X9111253Y-12931389D01*
X9111253Y-12931389D02*
X9130300Y-12940913D01*
X9130300Y-12940913D02*
X9139824Y-12950436D01*
X9139824Y-12950436D02*
X9149348Y-12969484D01*
X9149348Y-12969484D02*
X9149348Y-12988532D01*
X9149348Y-12988532D02*
X9139824Y-13017103D01*
X9139824Y-13017103D02*
X9025539Y-13131389D01*
X9025539Y-13131389D02*
X9149348Y-13131389D01*
X9273158Y-12931389D02*
X9292205Y-12931389D01*
X9292205Y-12931389D02*
X9311253Y-12940913D01*
X9311253Y-12940913D02*
X9320777Y-12950436D01*
X9320777Y-12950436D02*
X9330300Y-12969484D01*
X9330300Y-12969484D02*
X9339824Y-13007579D01*
X9339824Y-13007579D02*
X9339824Y-13055198D01*
X9339824Y-13055198D02*
X9330300Y-13093293D01*
X9330300Y-13093293D02*
X9320777Y-13112341D01*
X9320777Y-13112341D02*
X9311253Y-13121865D01*
X9311253Y-13121865D02*
X9292205Y-13131389D01*
X9292205Y-13131389D02*
X9273158Y-13131389D01*
X9273158Y-13131389D02*
X9254110Y-13121865D01*
X9254110Y-13121865D02*
X9244586Y-13112341D01*
X9244586Y-13112341D02*
X9235062Y-13093293D01*
X9235062Y-13093293D02*
X9225539Y-13055198D01*
X9225539Y-13055198D02*
X9225539Y-13007579D01*
X9225539Y-13007579D02*
X9235062Y-12969484D01*
X9235062Y-12969484D02*
X9244586Y-12950436D01*
X9244586Y-12950436D02*
X9254110Y-12940913D01*
X9254110Y-12940913D02*
X9273158Y-12931389D01*
X9463634Y-12931389D02*
X9482681Y-12931389D01*
X9482681Y-12931389D02*
X9501729Y-12940913D01*
X9501729Y-12940913D02*
X9511253Y-12950436D01*
X9511253Y-12950436D02*
X9520777Y-12969484D01*
X9520777Y-12969484D02*
X9530300Y-13007579D01*
X9530300Y-13007579D02*
X9530300Y-13055198D01*
X9530300Y-13055198D02*
X9520777Y-13093293D01*
X9520777Y-13093293D02*
X9511253Y-13112341D01*
X9511253Y-13112341D02*
X9501729Y-13121865D01*
X9501729Y-13121865D02*
X9482681Y-13131389D01*
X9482681Y-13131389D02*
X9463634Y-13131389D01*
X9463634Y-13131389D02*
X9444586Y-13121865D01*
X9444586Y-13121865D02*
X9435062Y-13112341D01*
X9435062Y-13112341D02*
X9425539Y-13093293D01*
X9425539Y-13093293D02*
X9416015Y-13055198D01*
X9416015Y-13055198D02*
X9416015Y-13007579D01*
X9416015Y-13007579D02*
X9425539Y-12969484D01*
X9425539Y-12969484D02*
X9435062Y-12950436D01*
X9435062Y-12950436D02*
X9444586Y-12940913D01*
X9444586Y-12940913D02*
X9463634Y-12931389D01*
X9616015Y-13131389D02*
X9616015Y-12998055D01*
X9616015Y-13017103D02*
X9625539Y-13007579D01*
X9625539Y-13007579D02*
X9644586Y-12998055D01*
X9644586Y-12998055D02*
X9673158Y-12998055D01*
X9673158Y-12998055D02*
X9692205Y-13007579D01*
X9692205Y-13007579D02*
X9701729Y-13026627D01*
X9701729Y-13026627D02*
X9701729Y-13131389D01*
X9701729Y-13026627D02*
X9711253Y-13007579D01*
X9711253Y-13007579D02*
X9730300Y-12998055D01*
X9730300Y-12998055D02*
X9758872Y-12998055D01*
X9758872Y-12998055D02*
X9777920Y-13007579D01*
X9777920Y-13007579D02*
X9787443Y-13026627D01*
X9787443Y-13026627D02*
X9787443Y-13131389D01*
X9882681Y-13131389D02*
X9882681Y-12998055D01*
X9882681Y-13017103D02*
X9892205Y-13007579D01*
X9892205Y-13007579D02*
X9911253Y-12998055D01*
X9911253Y-12998055D02*
X9939824Y-12998055D01*
X9939824Y-12998055D02*
X9958872Y-13007579D01*
X9958872Y-13007579D02*
X9968396Y-13026627D01*
X9968396Y-13026627D02*
X9968396Y-13131389D01*
X9968396Y-13026627D02*
X9977920Y-13007579D01*
X9977920Y-13007579D02*
X9996967Y-12998055D01*
X9996967Y-12998055D02*
X10025539Y-12998055D01*
X10025539Y-12998055D02*
X10044586Y-13007579D01*
X10044586Y-13007579D02*
X10054110Y-13026627D01*
X10054110Y-13026627D02*
X10054110Y-13131389D01*
X10444586Y-12921865D02*
X10273158Y-13179008D01*
X10701729Y-12931389D02*
X10720777Y-12931389D01*
X10720777Y-12931389D02*
X10739824Y-12940913D01*
X10739824Y-12940913D02*
X10749348Y-12950436D01*
X10749348Y-12950436D02*
X10758872Y-12969484D01*
X10758872Y-12969484D02*
X10768396Y-13007579D01*
X10768396Y-13007579D02*
X10768396Y-13055198D01*
X10768396Y-13055198D02*
X10758872Y-13093293D01*
X10758872Y-13093293D02*
X10749348Y-13112341D01*
X10749348Y-13112341D02*
X10739824Y-13121865D01*
X10739824Y-13121865D02*
X10720777Y-13131389D01*
X10720777Y-13131389D02*
X10701729Y-13131389D01*
X10701729Y-13131389D02*
X10682682Y-13121865D01*
X10682682Y-13121865D02*
X10673158Y-13112341D01*
X10673158Y-13112341D02*
X10663634Y-13093293D01*
X10663634Y-13093293D02*
X10654110Y-13055198D01*
X10654110Y-13055198D02*
X10654110Y-13007579D01*
X10654110Y-13007579D02*
X10663634Y-12969484D01*
X10663634Y-12969484D02*
X10673158Y-12950436D01*
X10673158Y-12950436D02*
X10682682Y-12940913D01*
X10682682Y-12940913D02*
X10701729Y-12931389D01*
X10854110Y-13112341D02*
X10863634Y-13121865D01*
X10863634Y-13121865D02*
X10854110Y-13131389D01*
X10854110Y-13131389D02*
X10844586Y-13121865D01*
X10844586Y-13121865D02*
X10854110Y-13112341D01*
X10854110Y-13112341D02*
X10854110Y-13131389D01*
X10987443Y-12931389D02*
X11006491Y-12931389D01*
X11006491Y-12931389D02*
X11025539Y-12940913D01*
X11025539Y-12940913D02*
X11035063Y-12950436D01*
X11035063Y-12950436D02*
X11044586Y-12969484D01*
X11044586Y-12969484D02*
X11054110Y-13007579D01*
X11054110Y-13007579D02*
X11054110Y-13055198D01*
X11054110Y-13055198D02*
X11044586Y-13093293D01*
X11044586Y-13093293D02*
X11035063Y-13112341D01*
X11035063Y-13112341D02*
X11025539Y-13121865D01*
X11025539Y-13121865D02*
X11006491Y-13131389D01*
X11006491Y-13131389D02*
X10987443Y-13131389D01*
X10987443Y-13131389D02*
X10968396Y-13121865D01*
X10968396Y-13121865D02*
X10958872Y-13112341D01*
X10958872Y-13112341D02*
X10949348Y-13093293D01*
X10949348Y-13093293D02*
X10939824Y-13055198D01*
X10939824Y-13055198D02*
X10939824Y-13007579D01*
X10939824Y-13007579D02*
X10949348Y-12969484D01*
X10949348Y-12969484D02*
X10958872Y-12950436D01*
X10958872Y-12950436D02*
X10968396Y-12940913D01*
X10968396Y-12940913D02*
X10987443Y-12931389D01*
X11168396Y-13017103D02*
X11149348Y-13007579D01*
X11149348Y-13007579D02*
X11139824Y-12998055D01*
X11139824Y-12998055D02*
X11130301Y-12979008D01*
X11130301Y-12979008D02*
X11130301Y-12969484D01*
X11130301Y-12969484D02*
X11139824Y-12950436D01*
X11139824Y-12950436D02*
X11149348Y-12940913D01*
X11149348Y-12940913D02*
X11168396Y-12931389D01*
X11168396Y-12931389D02*
X11206491Y-12931389D01*
X11206491Y-12931389D02*
X11225539Y-12940913D01*
X11225539Y-12940913D02*
X11235062Y-12950436D01*
X11235062Y-12950436D02*
X11244586Y-12969484D01*
X11244586Y-12969484D02*
X11244586Y-12979008D01*
X11244586Y-12979008D02*
X11235062Y-12998055D01*
X11235062Y-12998055D02*
X11225539Y-13007579D01*
X11225539Y-13007579D02*
X11206491Y-13017103D01*
X11206491Y-13017103D02*
X11168396Y-13017103D01*
X11168396Y-13017103D02*
X11149348Y-13026627D01*
X11149348Y-13026627D02*
X11139824Y-13036151D01*
X11139824Y-13036151D02*
X11130301Y-13055198D01*
X11130301Y-13055198D02*
X11130301Y-13093293D01*
X11130301Y-13093293D02*
X11139824Y-13112341D01*
X11139824Y-13112341D02*
X11149348Y-13121865D01*
X11149348Y-13121865D02*
X11168396Y-13131389D01*
X11168396Y-13131389D02*
X11206491Y-13131389D01*
X11206491Y-13131389D02*
X11225539Y-13121865D01*
X11225539Y-13121865D02*
X11235062Y-13112341D01*
X11235062Y-13112341D02*
X11244586Y-13093293D01*
X11244586Y-13093293D02*
X11244586Y-13055198D01*
X11244586Y-13055198D02*
X11235062Y-13036151D01*
X11235062Y-13036151D02*
X11225539Y-13026627D01*
X11225539Y-13026627D02*
X11206491Y-13017103D01*
X11416015Y-12931389D02*
X11377920Y-12931389D01*
X11377920Y-12931389D02*
X11358872Y-12940913D01*
X11358872Y-12940913D02*
X11349348Y-12950436D01*
X11349348Y-12950436D02*
X11330301Y-12979008D01*
X11330301Y-12979008D02*
X11320777Y-13017103D01*
X11320777Y-13017103D02*
X11320777Y-13093293D01*
X11320777Y-13093293D02*
X11330301Y-13112341D01*
X11330301Y-13112341D02*
X11339824Y-13121865D01*
X11339824Y-13121865D02*
X11358872Y-13131389D01*
X11358872Y-13131389D02*
X11396967Y-13131389D01*
X11396967Y-13131389D02*
X11416015Y-13121865D01*
X11416015Y-13121865D02*
X11425539Y-13112341D01*
X11425539Y-13112341D02*
X11435062Y-13093293D01*
X11435062Y-13093293D02*
X11435062Y-13045674D01*
X11435062Y-13045674D02*
X11425539Y-13026627D01*
X11425539Y-13026627D02*
X11416015Y-13017103D01*
X11416015Y-13017103D02*
X11396967Y-13007579D01*
X11396967Y-13007579D02*
X11358872Y-13007579D01*
X11358872Y-13007579D02*
X11339824Y-13017103D01*
X11339824Y-13017103D02*
X11330301Y-13026627D01*
X11330301Y-13026627D02*
X11320777Y-13045674D01*
X11606491Y-12931389D02*
X11568396Y-12931389D01*
X11568396Y-12931389D02*
X11549348Y-12940913D01*
X11549348Y-12940913D02*
X11539824Y-12950436D01*
X11539824Y-12950436D02*
X11520777Y-12979008D01*
X11520777Y-12979008D02*
X11511253Y-13017103D01*
X11511253Y-13017103D02*
X11511253Y-13093293D01*
X11511253Y-13093293D02*
X11520777Y-13112341D01*
X11520777Y-13112341D02*
X11530301Y-13121865D01*
X11530301Y-13121865D02*
X11549348Y-13131389D01*
X11549348Y-13131389D02*
X11587443Y-13131389D01*
X11587443Y-13131389D02*
X11606491Y-13121865D01*
X11606491Y-13121865D02*
X11616015Y-13112341D01*
X11616015Y-13112341D02*
X11625539Y-13093293D01*
X11625539Y-13093293D02*
X11625539Y-13045674D01*
X11625539Y-13045674D02*
X11616015Y-13026627D01*
X11616015Y-13026627D02*
X11606491Y-13017103D01*
X11606491Y-13017103D02*
X11587443Y-13007579D01*
X11587443Y-13007579D02*
X11549348Y-13007579D01*
X11549348Y-13007579D02*
X11530301Y-13017103D01*
X11530301Y-13017103D02*
X11520777Y-13026627D01*
X11520777Y-13026627D02*
X11511253Y-13045674D01*
X11701729Y-12931389D02*
X11701729Y-12969484D01*
X11777920Y-12931389D02*
X11777920Y-12969484D01*
X12073158Y-13207579D02*
X12063634Y-13198055D01*
X12063634Y-13198055D02*
X12044586Y-13169484D01*
X12044586Y-13169484D02*
X12035063Y-13150436D01*
X12035063Y-13150436D02*
X12025539Y-13121865D01*
X12025539Y-13121865D02*
X12016015Y-13074246D01*
X12016015Y-13074246D02*
X12016015Y-13036151D01*
X12016015Y-13036151D02*
X12025539Y-12988532D01*
X12025539Y-12988532D02*
X12035063Y-12959960D01*
X12035063Y-12959960D02*
X12044586Y-12940913D01*
X12044586Y-12940913D02*
X12063634Y-12912341D01*
X12063634Y-12912341D02*
X12073158Y-12902817D01*
X12235063Y-12998055D02*
X12235063Y-13131389D01*
X12187443Y-12921865D02*
X12139824Y-13064722D01*
X12139824Y-13064722D02*
X12263634Y-13064722D01*
X12492205Y-13131389D02*
X12492205Y-12931389D01*
X12577920Y-13131389D02*
X12577920Y-13026627D01*
X12577920Y-13026627D02*
X12568396Y-13007579D01*
X12568396Y-13007579D02*
X12549348Y-12998055D01*
X12549348Y-12998055D02*
X12520777Y-12998055D01*
X12520777Y-12998055D02*
X12501729Y-13007579D01*
X12501729Y-13007579D02*
X12492205Y-13017103D01*
X12701729Y-13131389D02*
X12682682Y-13121865D01*
X12682682Y-13121865D02*
X12673158Y-13112341D01*
X12673158Y-13112341D02*
X12663634Y-13093293D01*
X12663634Y-13093293D02*
X12663634Y-13036151D01*
X12663634Y-13036151D02*
X12673158Y-13017103D01*
X12673158Y-13017103D02*
X12682682Y-13007579D01*
X12682682Y-13007579D02*
X12701729Y-12998055D01*
X12701729Y-12998055D02*
X12730301Y-12998055D01*
X12730301Y-12998055D02*
X12749348Y-13007579D01*
X12749348Y-13007579D02*
X12758872Y-13017103D01*
X12758872Y-13017103D02*
X12768396Y-13036151D01*
X12768396Y-13036151D02*
X12768396Y-13093293D01*
X12768396Y-13093293D02*
X12758872Y-13112341D01*
X12758872Y-13112341D02*
X12749348Y-13121865D01*
X12749348Y-13121865D02*
X12730301Y-13131389D01*
X12730301Y-13131389D02*
X12701729Y-13131389D01*
X12882682Y-13131389D02*
X12863634Y-13121865D01*
X12863634Y-13121865D02*
X12854110Y-13102817D01*
X12854110Y-13102817D02*
X12854110Y-12931389D01*
X13035063Y-13121865D02*
X13016015Y-13131389D01*
X13016015Y-13131389D02*
X12977920Y-13131389D01*
X12977920Y-13131389D02*
X12958872Y-13121865D01*
X12958872Y-13121865D02*
X12949348Y-13102817D01*
X12949348Y-13102817D02*
X12949348Y-13026627D01*
X12949348Y-13026627D02*
X12958872Y-13007579D01*
X12958872Y-13007579D02*
X12977920Y-12998055D01*
X12977920Y-12998055D02*
X13016015Y-12998055D01*
X13016015Y-12998055D02*
X13035063Y-13007579D01*
X13035063Y-13007579D02*
X13044586Y-13026627D01*
X13044586Y-13026627D02*
X13044586Y-13045674D01*
X13044586Y-13045674D02*
X12949348Y-13064722D01*
X13120777Y-13121865D02*
X13139825Y-13131389D01*
X13139825Y-13131389D02*
X13177920Y-13131389D01*
X13177920Y-13131389D02*
X13196967Y-13121865D01*
X13196967Y-13121865D02*
X13206491Y-13102817D01*
X13206491Y-13102817D02*
X13206491Y-13093293D01*
X13206491Y-13093293D02*
X13196967Y-13074246D01*
X13196967Y-13074246D02*
X13177920Y-13064722D01*
X13177920Y-13064722D02*
X13149348Y-13064722D01*
X13149348Y-13064722D02*
X13130301Y-13055198D01*
X13130301Y-13055198D02*
X13120777Y-13036151D01*
X13120777Y-13036151D02*
X13120777Y-13026627D01*
X13120777Y-13026627D02*
X13130301Y-13007579D01*
X13130301Y-13007579D02*
X13149348Y-12998055D01*
X13149348Y-12998055D02*
X13177920Y-12998055D01*
X13177920Y-12998055D02*
X13196967Y-13007579D01*
X13273158Y-13207579D02*
X13282682Y-13198055D01*
X13282682Y-13198055D02*
X13301729Y-13169484D01*
X13301729Y-13169484D02*
X13311253Y-13150436D01*
X13311253Y-13150436D02*
X13320777Y-13121865D01*
X13320777Y-13121865D02*
X13330301Y-13074246D01*
X13330301Y-13074246D02*
X13330301Y-13036151D01*
X13330301Y-13036151D02*
X13320777Y-12988532D01*
X13320777Y-12988532D02*
X13311253Y-12959960D01*
X13311253Y-12959960D02*
X13301729Y-12940913D01*
X13301729Y-12940913D02*
X13282682Y-12912341D01*
X13282682Y-12912341D02*
X13273158Y-12902817D01*
X13635063Y-13207579D02*
X13625539Y-13198055D01*
X13625539Y-13198055D02*
X13606491Y-13169484D01*
X13606491Y-13169484D02*
X13596967Y-13150436D01*
X13596967Y-13150436D02*
X13587444Y-13121865D01*
X13587444Y-13121865D02*
X13577920Y-13074246D01*
X13577920Y-13074246D02*
X13577920Y-13036151D01*
X13577920Y-13036151D02*
X13587444Y-12988532D01*
X13587444Y-12988532D02*
X13596967Y-12959960D01*
X13596967Y-12959960D02*
X13606491Y-12940913D01*
X13606491Y-12940913D02*
X13625539Y-12912341D01*
X13625539Y-12912341D02*
X13635063Y-12902817D01*
X13711253Y-12998055D02*
X13711253Y-13131389D01*
X13711253Y-13017103D02*
X13720777Y-13007579D01*
X13720777Y-13007579D02*
X13739825Y-12998055D01*
X13739825Y-12998055D02*
X13768396Y-12998055D01*
X13768396Y-12998055D02*
X13787444Y-13007579D01*
X13787444Y-13007579D02*
X13796967Y-13026627D01*
X13796967Y-13026627D02*
X13796967Y-13131389D01*
X13920777Y-13131389D02*
X13901729Y-13121865D01*
X13901729Y-13121865D02*
X13892206Y-13112341D01*
X13892206Y-13112341D02*
X13882682Y-13093293D01*
X13882682Y-13093293D02*
X13882682Y-13036151D01*
X13882682Y-13036151D02*
X13892206Y-13017103D01*
X13892206Y-13017103D02*
X13901729Y-13007579D01*
X13901729Y-13007579D02*
X13920777Y-12998055D01*
X13920777Y-12998055D02*
X13949348Y-12998055D01*
X13949348Y-12998055D02*
X13968396Y-13007579D01*
X13968396Y-13007579D02*
X13977920Y-13017103D01*
X13977920Y-13017103D02*
X13987444Y-13036151D01*
X13987444Y-13036151D02*
X13987444Y-13093293D01*
X13987444Y-13093293D02*
X13977920Y-13112341D01*
X13977920Y-13112341D02*
X13968396Y-13121865D01*
X13968396Y-13121865D02*
X13949348Y-13131389D01*
X13949348Y-13131389D02*
X13920777Y-13131389D01*
X14044587Y-12998055D02*
X14120777Y-12998055D01*
X14073158Y-12931389D02*
X14073158Y-13102817D01*
X14073158Y-13102817D02*
X14082682Y-13121865D01*
X14082682Y-13121865D02*
X14101729Y-13131389D01*
X14101729Y-13131389D02*
X14120777Y-13131389D01*
X14339825Y-12998055D02*
X14339825Y-13198055D01*
X14339825Y-13007579D02*
X14358872Y-12998055D01*
X14358872Y-12998055D02*
X14396968Y-12998055D01*
X14396968Y-12998055D02*
X14416015Y-13007579D01*
X14416015Y-13007579D02*
X14425539Y-13017103D01*
X14425539Y-13017103D02*
X14435063Y-13036151D01*
X14435063Y-13036151D02*
X14435063Y-13093293D01*
X14435063Y-13093293D02*
X14425539Y-13112341D01*
X14425539Y-13112341D02*
X14416015Y-13121865D01*
X14416015Y-13121865D02*
X14396968Y-13131389D01*
X14396968Y-13131389D02*
X14358872Y-13131389D01*
X14358872Y-13131389D02*
X14339825Y-13121865D01*
X14549348Y-13131389D02*
X14530301Y-13121865D01*
X14530301Y-13121865D02*
X14520777Y-13102817D01*
X14520777Y-13102817D02*
X14520777Y-12931389D01*
X14711253Y-13131389D02*
X14711253Y-13026627D01*
X14711253Y-13026627D02*
X14701729Y-13007579D01*
X14701729Y-13007579D02*
X14682682Y-12998055D01*
X14682682Y-12998055D02*
X14644587Y-12998055D01*
X14644587Y-12998055D02*
X14625539Y-13007579D01*
X14711253Y-13121865D02*
X14692206Y-13131389D01*
X14692206Y-13131389D02*
X14644587Y-13131389D01*
X14644587Y-13131389D02*
X14625539Y-13121865D01*
X14625539Y-13121865D02*
X14616015Y-13102817D01*
X14616015Y-13102817D02*
X14616015Y-13083770D01*
X14616015Y-13083770D02*
X14625539Y-13064722D01*
X14625539Y-13064722D02*
X14644587Y-13055198D01*
X14644587Y-13055198D02*
X14692206Y-13055198D01*
X14692206Y-13055198D02*
X14711253Y-13045674D01*
X14777920Y-12998055D02*
X14854110Y-12998055D01*
X14806491Y-12931389D02*
X14806491Y-13102817D01*
X14806491Y-13102817D02*
X14816015Y-13121865D01*
X14816015Y-13121865D02*
X14835063Y-13131389D01*
X14835063Y-13131389D02*
X14854110Y-13131389D01*
X14996968Y-13121865D02*
X14977920Y-13131389D01*
X14977920Y-13131389D02*
X14939825Y-13131389D01*
X14939825Y-13131389D02*
X14920777Y-13121865D01*
X14920777Y-13121865D02*
X14911253Y-13102817D01*
X14911253Y-13102817D02*
X14911253Y-13026627D01*
X14911253Y-13026627D02*
X14920777Y-13007579D01*
X14920777Y-13007579D02*
X14939825Y-12998055D01*
X14939825Y-12998055D02*
X14977920Y-12998055D01*
X14977920Y-12998055D02*
X14996968Y-13007579D01*
X14996968Y-13007579D02*
X15006491Y-13026627D01*
X15006491Y-13026627D02*
X15006491Y-13045674D01*
X15006491Y-13045674D02*
X14911253Y-13064722D01*
X15177920Y-13131389D02*
X15177920Y-12931389D01*
X15177920Y-13121865D02*
X15158872Y-13131389D01*
X15158872Y-13131389D02*
X15120777Y-13131389D01*
X15120777Y-13131389D02*
X15101729Y-13121865D01*
X15101729Y-13121865D02*
X15092206Y-13112341D01*
X15092206Y-13112341D02*
X15082682Y-13093293D01*
X15082682Y-13093293D02*
X15082682Y-13036151D01*
X15082682Y-13036151D02*
X15092206Y-13017103D01*
X15092206Y-13017103D02*
X15101729Y-13007579D01*
X15101729Y-13007579D02*
X15120777Y-12998055D01*
X15120777Y-12998055D02*
X15158872Y-12998055D01*
X15158872Y-12998055D02*
X15177920Y-13007579D01*
X15254110Y-13207579D02*
X15263634Y-13198055D01*
X15263634Y-13198055D02*
X15282682Y-13169484D01*
X15282682Y-13169484D02*
X15292206Y-13150436D01*
X15292206Y-13150436D02*
X15301729Y-13121865D01*
X15301729Y-13121865D02*
X15311253Y-13074246D01*
X15311253Y-13074246D02*
X15311253Y-13036151D01*
X15311253Y-13036151D02*
X15301729Y-12988532D01*
X15301729Y-12988532D02*
X15292206Y-12959960D01*
X15292206Y-12959960D02*
X15282682Y-12940913D01*
X15282682Y-12940913D02*
X15263634Y-12912341D01*
X15263634Y-12912341D02*
X15254110Y-12902817D01*
M02*
