G04 #@! TF.GenerationSoftware,KiCad,Pcbnew,9.0.7*
G04 #@! TF.CreationDate,2026-02-15T18:00:25+01:00*
G04 #@! TF.ProjectId,Articulated-Robot,41727469-6375-46c6-9174-65642d526f62,rev?*
G04 #@! TF.SameCoordinates,Original*
G04 #@! TF.FileFunction,Soldermask,Bot*
G04 #@! TF.FilePolarity,Negative*
%FSLAX46Y46*%
G04 Gerber Fmt 4.6, Leading zero omitted, Abs format (unit mm)*
G04 Created by KiCad (PCBNEW 9.0.7) date 2026-02-15 18:00:25*
%MOMM*%
%LPD*%
G01*
G04 APERTURE LIST*
G04 APERTURE END LIST*
G36*
X88257584Y-116927085D02*
G01*
X88422248Y-116980588D01*
X88422250Y-116980589D01*
X88422253Y-116980590D01*
X88499389Y-117019893D01*
X88576530Y-117059198D01*
X88716597Y-117160962D01*
X88839037Y-117283402D01*
X88940801Y-117423469D01*
X88940804Y-117423475D01*
X89019410Y-117577747D01*
X89072914Y-117742416D01*
X89100000Y-117913428D01*
X89100000Y-118086572D01*
X89072914Y-118257584D01*
X89019410Y-118422253D01*
X88940804Y-118576525D01*
X88940801Y-118576530D01*
X88839037Y-118716597D01*
X88839033Y-118716602D01*
X88716602Y-118839033D01*
X88716598Y-118839035D01*
X88716597Y-118839037D01*
X88576530Y-118940801D01*
X88576527Y-118940802D01*
X88576525Y-118940804D01*
X88422253Y-119019410D01*
X88257584Y-119072914D01*
X88086574Y-119100000D01*
X88086572Y-119100000D01*
X87913428Y-119100000D01*
X87913426Y-119100000D01*
X87742415Y-119072914D01*
X87656755Y-119045081D01*
X87577747Y-119019410D01*
X87423475Y-118940804D01*
X87423469Y-118940801D01*
X87283402Y-118839037D01*
X87160962Y-118716597D01*
X87059198Y-118576530D01*
X87019893Y-118499389D01*
X86980590Y-118422253D01*
X86980588Y-118422248D01*
X86927085Y-118257584D01*
X86900000Y-118086573D01*
X86900000Y-117913426D01*
X86927085Y-117742415D01*
X86980588Y-117577751D01*
X87059198Y-117423469D01*
X87160962Y-117283402D01*
X87283402Y-117160962D01*
X87423469Y-117059198D01*
X87577751Y-116980588D01*
X87742415Y-116927085D01*
X87913426Y-116900000D01*
X88086574Y-116900000D01*
X88257584Y-116927085D01*
G37*
G36*
X131257584Y-116927085D02*
G01*
X131422248Y-116980588D01*
X131422250Y-116980589D01*
X131422253Y-116980590D01*
X131499389Y-117019893D01*
X131576530Y-117059198D01*
X131716597Y-117160962D01*
X131839037Y-117283402D01*
X131940801Y-117423469D01*
X131940804Y-117423475D01*
X132019410Y-117577747D01*
X132072914Y-117742416D01*
X132100000Y-117913428D01*
X132100000Y-118086572D01*
X132072914Y-118257584D01*
X132019410Y-118422253D01*
X131940804Y-118576525D01*
X131940801Y-118576530D01*
X131839037Y-118716597D01*
X131839033Y-118716602D01*
X131716602Y-118839033D01*
X131716598Y-118839035D01*
X131716597Y-118839037D01*
X131576530Y-118940801D01*
X131576527Y-118940802D01*
X131576525Y-118940804D01*
X131422253Y-119019410D01*
X131257584Y-119072914D01*
X131086574Y-119100000D01*
X131086572Y-119100000D01*
X130913428Y-119100000D01*
X130913426Y-119100000D01*
X130742415Y-119072914D01*
X130656755Y-119045081D01*
X130577747Y-119019410D01*
X130423475Y-118940804D01*
X130423469Y-118940801D01*
X130283402Y-118839037D01*
X130160962Y-118716597D01*
X130059198Y-118576530D01*
X130019893Y-118499389D01*
X129980590Y-118422253D01*
X129980588Y-118422248D01*
X129927085Y-118257584D01*
X129900000Y-118086573D01*
X129900000Y-117913426D01*
X129927085Y-117742415D01*
X129980588Y-117577751D01*
X130059198Y-117423469D01*
X130160962Y-117283402D01*
X130283402Y-117160962D01*
X130423469Y-117059198D01*
X130577751Y-116980588D01*
X130742415Y-116927085D01*
X130913426Y-116900000D01*
X131086574Y-116900000D01*
X131257584Y-116927085D01*
G37*
G36*
X92943348Y-111885742D02*
G01*
X92943349Y-111885742D01*
X92943351Y-111885743D01*
X93088942Y-111946049D01*
X93219970Y-112033599D01*
X93331401Y-112145030D01*
X93418951Y-112276058D01*
X93479257Y-112421649D01*
X93510000Y-112576207D01*
X93510000Y-112733793D01*
X93479257Y-112888351D01*
X93418951Y-113033942D01*
X93331401Y-113164970D01*
X93219970Y-113276401D01*
X93088942Y-113363951D01*
X92943351Y-113424257D01*
X92827432Y-113447314D01*
X92788794Y-113455000D01*
X92788793Y-113455000D01*
X92631207Y-113455000D01*
X92631206Y-113455000D01*
X92579687Y-113444752D01*
X92476649Y-113424257D01*
X92331058Y-113363951D01*
X92200030Y-113276401D01*
X92088599Y-113164970D01*
X92001049Y-113033942D01*
X91940743Y-112888351D01*
X91910000Y-112733793D01*
X91910000Y-112576207D01*
X91910000Y-112576206D01*
X91940742Y-112421651D01*
X92001050Y-112276056D01*
X92088597Y-112145032D01*
X92200032Y-112033597D01*
X92331056Y-111946050D01*
X92476651Y-111885742D01*
X92631206Y-111855000D01*
X92788794Y-111855000D01*
X92943348Y-111885742D01*
G37*
G36*
X104497015Y-108545163D02*
G01*
X104728234Y-108607118D01*
X104949388Y-108698723D01*
X105156694Y-108818411D01*
X105346603Y-108964133D01*
X105515867Y-109133397D01*
X105661589Y-109323306D01*
X105781277Y-109530612D01*
X105872882Y-109751766D01*
X105934837Y-109982985D01*
X105966082Y-110220312D01*
X105966082Y-110459688D01*
X105934837Y-110697015D01*
X105872882Y-110928234D01*
X105781277Y-111149388D01*
X105661589Y-111356694D01*
X105515867Y-111546603D01*
X105346603Y-111715867D01*
X105156694Y-111861589D01*
X104949388Y-111981277D01*
X104728234Y-112072882D01*
X104497015Y-112134837D01*
X104259688Y-112166082D01*
X104020312Y-112166082D01*
X103782985Y-112134837D01*
X103551766Y-112072882D01*
X103330612Y-111981277D01*
X103123306Y-111861589D01*
X102933397Y-111715867D01*
X102764133Y-111546603D01*
X102618411Y-111356694D01*
X102498723Y-111149388D01*
X102407118Y-110928234D01*
X102345163Y-110697015D01*
X102313918Y-110459688D01*
X102313918Y-110220312D01*
X102345163Y-109982985D01*
X102407118Y-109751766D01*
X102498723Y-109530612D01*
X102618411Y-109323306D01*
X102764133Y-109133397D01*
X102933397Y-108964133D01*
X103123306Y-108818411D01*
X103330612Y-108698723D01*
X103551766Y-108607118D01*
X103782985Y-108545163D01*
X104020312Y-108513918D01*
X104259688Y-108513918D01*
X104497015Y-108545163D01*
G37*
G36*
X93316271Y-109356560D02*
G01*
X93335786Y-109365176D01*
X93357545Y-109369505D01*
X93380837Y-109385068D01*
X93403731Y-109395177D01*
X93419367Y-109410813D01*
X93440240Y-109424760D01*
X93454186Y-109445632D01*
X93469822Y-109461268D01*
X93479929Y-109484158D01*
X93495495Y-109507455D01*
X93499823Y-109529217D01*
X93508437Y-109548725D01*
X93509999Y-109562186D01*
X93509999Y-109580370D01*
X93510000Y-109580376D01*
X93510000Y-110729624D01*
X93509999Y-110729629D01*
X93509999Y-110747818D01*
X93508439Y-110761271D01*
X93499823Y-110780782D01*
X93495495Y-110802545D01*
X93479928Y-110825842D01*
X93469822Y-110848731D01*
X93454188Y-110864364D01*
X93440240Y-110885240D01*
X93419364Y-110899188D01*
X93403731Y-110914822D01*
X93380843Y-110924927D01*
X93357545Y-110940495D01*
X93335780Y-110944824D01*
X93316274Y-110953437D01*
X93302813Y-110954999D01*
X93284629Y-110954999D01*
X93284624Y-110955000D01*
X92135376Y-110955000D01*
X92135371Y-110954999D01*
X92117181Y-110954999D01*
X92103728Y-110953439D01*
X92084215Y-110944823D01*
X92062455Y-110940495D01*
X92039159Y-110924929D01*
X92016268Y-110914822D01*
X92000632Y-110899186D01*
X91979760Y-110885240D01*
X91965813Y-110864367D01*
X91950177Y-110848731D01*
X91940069Y-110825838D01*
X91924505Y-110802545D01*
X91920176Y-110780784D01*
X91911562Y-110761274D01*
X91910000Y-110747813D01*
X91910000Y-109562181D01*
X91911560Y-109548728D01*
X91920177Y-109529211D01*
X91924505Y-109507455D01*
X91940067Y-109484164D01*
X91950177Y-109461268D01*
X91965815Y-109445629D01*
X91979760Y-109424760D01*
X92000629Y-109410815D01*
X92016268Y-109395177D01*
X92039163Y-109385068D01*
X92062455Y-109369505D01*
X92084213Y-109365176D01*
X92103725Y-109356562D01*
X92117186Y-109355000D01*
X93302818Y-109355000D01*
X93316271Y-109356560D01*
G37*
G36*
X113289603Y-107104202D02*
G01*
X113451572Y-107171291D01*
X113597339Y-107268689D01*
X113721310Y-107392660D01*
X113818708Y-107538427D01*
X113885797Y-107700396D01*
X113920000Y-107872341D01*
X113920000Y-108047658D01*
X113885797Y-108219603D01*
X113818708Y-108381572D01*
X113730278Y-108513918D01*
X113721308Y-108527342D01*
X113597342Y-108651308D01*
X113597338Y-108651310D01*
X113597339Y-108651310D01*
X113451572Y-108748708D01*
X113289603Y-108815797D01*
X113117659Y-108850000D01*
X113117657Y-108850000D01*
X112942343Y-108850000D01*
X112942341Y-108850000D01*
X112770396Y-108815797D01*
X112608427Y-108748708D01*
X112462660Y-108651310D01*
X112338689Y-108527339D01*
X112241291Y-108381572D01*
X112174202Y-108219603D01*
X112140000Y-108047658D01*
X112140000Y-107872341D01*
X112174202Y-107700396D01*
X112241291Y-107538427D01*
X112338689Y-107392660D01*
X112462660Y-107268689D01*
X112608427Y-107171291D01*
X112770396Y-107104202D01*
X112942341Y-107070000D01*
X113117659Y-107070000D01*
X113289603Y-107104202D01*
G37*
G36*
X128529603Y-107104202D02*
G01*
X128691572Y-107171291D01*
X128837339Y-107268689D01*
X128961310Y-107392660D01*
X129058708Y-107538427D01*
X129125797Y-107700396D01*
X129160000Y-107872341D01*
X129160000Y-108047658D01*
X129125797Y-108219603D01*
X129058708Y-108381572D01*
X128970278Y-108513918D01*
X128961308Y-108527342D01*
X128837342Y-108651308D01*
X128837338Y-108651310D01*
X128837339Y-108651310D01*
X128691572Y-108748708D01*
X128529603Y-108815797D01*
X128357659Y-108850000D01*
X128357657Y-108850000D01*
X128182343Y-108850000D01*
X128182341Y-108850000D01*
X128010396Y-108815797D01*
X127848427Y-108748708D01*
X127702660Y-108651310D01*
X127578689Y-108527339D01*
X127481291Y-108381572D01*
X127414202Y-108219603D01*
X127380000Y-108047658D01*
X127380000Y-107872341D01*
X127414202Y-107700396D01*
X127481291Y-107538427D01*
X127578689Y-107392660D01*
X127702660Y-107268689D01*
X127848427Y-107171291D01*
X128010396Y-107104202D01*
X128182341Y-107070000D01*
X128357659Y-107070000D01*
X128529603Y-107104202D01*
G37*
G36*
X109397015Y-105045163D02*
G01*
X109628234Y-105107118D01*
X109849388Y-105198723D01*
X110056694Y-105318411D01*
X110246603Y-105464133D01*
X110415867Y-105633397D01*
X110561589Y-105823306D01*
X110681277Y-106030612D01*
X110772882Y-106251766D01*
X110834837Y-106482985D01*
X110866082Y-106720312D01*
X110866082Y-106959688D01*
X110834837Y-107197015D01*
X110772882Y-107428234D01*
X110681277Y-107649388D01*
X110561589Y-107856694D01*
X110415867Y-108046603D01*
X110246603Y-108215867D01*
X110056694Y-108361589D01*
X109849388Y-108481277D01*
X109628234Y-108572882D01*
X109397015Y-108634837D01*
X109159688Y-108666082D01*
X108920312Y-108666082D01*
X108682985Y-108634837D01*
X108451766Y-108572882D01*
X108230612Y-108481277D01*
X108023306Y-108361589D01*
X107833397Y-108215867D01*
X107664133Y-108046603D01*
X107518411Y-107856694D01*
X107398723Y-107649388D01*
X107307118Y-107428234D01*
X107245163Y-107197015D01*
X107213918Y-106959688D01*
X107213918Y-106720312D01*
X107245163Y-106482985D01*
X107307118Y-106251766D01*
X107398723Y-106030612D01*
X107518411Y-105823306D01*
X107664133Y-105633397D01*
X107833397Y-105464133D01*
X108023306Y-105318411D01*
X108230612Y-105198723D01*
X108451766Y-105107118D01*
X108682985Y-105045163D01*
X108920312Y-105013918D01*
X109159688Y-105013918D01*
X109397015Y-105045163D01*
G37*
G36*
X113263348Y-104650742D02*
G01*
X113263349Y-104650742D01*
X113263351Y-104650743D01*
X113408942Y-104711049D01*
X113539970Y-104798599D01*
X113651401Y-104910030D01*
X113738951Y-105041058D01*
X113799257Y-105186649D01*
X113830000Y-105341207D01*
X113830000Y-105498793D01*
X113799257Y-105653351D01*
X113738951Y-105798942D01*
X113651401Y-105929970D01*
X113539970Y-106041401D01*
X113408942Y-106128951D01*
X113263351Y-106189257D01*
X113147432Y-106212314D01*
X113108794Y-106220000D01*
X113108793Y-106220000D01*
X112951207Y-106220000D01*
X112951206Y-106220000D01*
X112899687Y-106209752D01*
X112796649Y-106189257D01*
X112651058Y-106128951D01*
X112520030Y-106041401D01*
X112408599Y-105929970D01*
X112321049Y-105798942D01*
X112260743Y-105653351D01*
X112256791Y-105633486D01*
X112230000Y-105498793D01*
X112230000Y-105341206D01*
X112260742Y-105186651D01*
X112293686Y-105107118D01*
X112321049Y-105041058D01*
X112339183Y-105013918D01*
X112408597Y-104910032D01*
X112520032Y-104798597D01*
X112651056Y-104711050D01*
X112796651Y-104650742D01*
X112951206Y-104620000D01*
X113108794Y-104620000D01*
X113263348Y-104650742D01*
G37*
G36*
X128503348Y-104650742D02*
G01*
X128503349Y-104650742D01*
X128503351Y-104650743D01*
X128648942Y-104711049D01*
X128779970Y-104798599D01*
X128891401Y-104910030D01*
X128978951Y-105041058D01*
X129039257Y-105186649D01*
X129070000Y-105341207D01*
X129070000Y-105498793D01*
X129039257Y-105653351D01*
X128978951Y-105798942D01*
X128891401Y-105929970D01*
X128779970Y-106041401D01*
X128648942Y-106128951D01*
X128503351Y-106189257D01*
X128387432Y-106212314D01*
X128348794Y-106220000D01*
X128348793Y-106220000D01*
X128191207Y-106220000D01*
X128191206Y-106220000D01*
X128139687Y-106209752D01*
X128036649Y-106189257D01*
X127891058Y-106128951D01*
X127760030Y-106041401D01*
X127648599Y-105929970D01*
X127561049Y-105798942D01*
X127500743Y-105653351D01*
X127496791Y-105633486D01*
X127470000Y-105498793D01*
X127470000Y-105341206D01*
X127500742Y-105186651D01*
X127533686Y-105107118D01*
X127561049Y-105041058D01*
X127579183Y-105013918D01*
X127648597Y-104910032D01*
X127760032Y-104798597D01*
X127891056Y-104711050D01*
X128036651Y-104650742D01*
X128191206Y-104620000D01*
X128348794Y-104620000D01*
X128503348Y-104650742D01*
G37*
G36*
X104497015Y-102345163D02*
G01*
X104728234Y-102407118D01*
X104949388Y-102498723D01*
X105156694Y-102618411D01*
X105346603Y-102764133D01*
X105515867Y-102933397D01*
X105661589Y-103123306D01*
X105781277Y-103330612D01*
X105872882Y-103551766D01*
X105934837Y-103782985D01*
X105966082Y-104020312D01*
X105966082Y-104259688D01*
X105934837Y-104497015D01*
X105872882Y-104728234D01*
X105781277Y-104949388D01*
X105661589Y-105156694D01*
X105515867Y-105346603D01*
X105346603Y-105515867D01*
X105156694Y-105661589D01*
X104949388Y-105781277D01*
X104728234Y-105872882D01*
X104497015Y-105934837D01*
X104259688Y-105966082D01*
X104020312Y-105966082D01*
X103782985Y-105934837D01*
X103551766Y-105872882D01*
X103330612Y-105781277D01*
X103123306Y-105661589D01*
X102933397Y-105515867D01*
X102764133Y-105346603D01*
X102618411Y-105156694D01*
X102498723Y-104949388D01*
X102407118Y-104728234D01*
X102345163Y-104497015D01*
X102313918Y-104259688D01*
X102313918Y-104020312D01*
X102345163Y-103782985D01*
X102407118Y-103551766D01*
X102498723Y-103330612D01*
X102618411Y-103123306D01*
X102764133Y-102933397D01*
X102933397Y-102764133D01*
X103123306Y-102618411D01*
X103330612Y-102498723D01*
X103551766Y-102407118D01*
X103782985Y-102345163D01*
X104020312Y-102313918D01*
X104259688Y-102313918D01*
X104497015Y-102345163D01*
G37*
G36*
X113263348Y-102110742D02*
G01*
X113263349Y-102110742D01*
X113263351Y-102110743D01*
X113408942Y-102171049D01*
X113539970Y-102258599D01*
X113651401Y-102370030D01*
X113738951Y-102501058D01*
X113799257Y-102646649D01*
X113830000Y-102801207D01*
X113830000Y-102958793D01*
X113799257Y-103113351D01*
X113738951Y-103258942D01*
X113651401Y-103389970D01*
X113539970Y-103501401D01*
X113408942Y-103588951D01*
X113263351Y-103649257D01*
X113147432Y-103672314D01*
X113108794Y-103680000D01*
X113108793Y-103680000D01*
X112951207Y-103680000D01*
X112951206Y-103680000D01*
X112899687Y-103669752D01*
X112796649Y-103649257D01*
X112651058Y-103588951D01*
X112520030Y-103501401D01*
X112408599Y-103389970D01*
X112321049Y-103258942D01*
X112260743Y-103113351D01*
X112230000Y-102958793D01*
X112230000Y-102801207D01*
X112237374Y-102764133D01*
X112260742Y-102646651D01*
X112321050Y-102501056D01*
X112408597Y-102370032D01*
X112520032Y-102258597D01*
X112651056Y-102171050D01*
X112796651Y-102110742D01*
X112951206Y-102080000D01*
X113108794Y-102080000D01*
X113263348Y-102110742D01*
G37*
G36*
X128503348Y-102110742D02*
G01*
X128503349Y-102110742D01*
X128503351Y-102110743D01*
X128648942Y-102171049D01*
X128779970Y-102258599D01*
X128891401Y-102370030D01*
X128978951Y-102501058D01*
X129039257Y-102646649D01*
X129070000Y-102801207D01*
X129070000Y-102958793D01*
X129039257Y-103113351D01*
X128978951Y-103258942D01*
X128891401Y-103389970D01*
X128779970Y-103501401D01*
X128648942Y-103588951D01*
X128503351Y-103649257D01*
X128387432Y-103672314D01*
X128348794Y-103680000D01*
X128348793Y-103680000D01*
X128191207Y-103680000D01*
X128191206Y-103680000D01*
X128139687Y-103669752D01*
X128036649Y-103649257D01*
X127891058Y-103588951D01*
X127760030Y-103501401D01*
X127648599Y-103389970D01*
X127561049Y-103258942D01*
X127500743Y-103113351D01*
X127470000Y-102958793D01*
X127470000Y-102801207D01*
X127477374Y-102764133D01*
X127500742Y-102646651D01*
X127561050Y-102501056D01*
X127648597Y-102370032D01*
X127760032Y-102258597D01*
X127891056Y-102171050D01*
X128036651Y-102110742D01*
X128191206Y-102080000D01*
X128348794Y-102080000D01*
X128503348Y-102110742D01*
G37*
G36*
X113263348Y-99570742D02*
G01*
X113263349Y-99570742D01*
X113263351Y-99570743D01*
X113408942Y-99631049D01*
X113539970Y-99718599D01*
X113651401Y-99830030D01*
X113738951Y-99961058D01*
X113799257Y-100106649D01*
X113830000Y-100261207D01*
X113830000Y-100418793D01*
X113799257Y-100573351D01*
X113738951Y-100718942D01*
X113651401Y-100849970D01*
X113539970Y-100961401D01*
X113408942Y-101048951D01*
X113263351Y-101109257D01*
X113147432Y-101132314D01*
X113108794Y-101140000D01*
X113108793Y-101140000D01*
X112951207Y-101140000D01*
X112951206Y-101140000D01*
X112899687Y-101129752D01*
X112796649Y-101109257D01*
X112651058Y-101048951D01*
X112520030Y-100961401D01*
X112408599Y-100849970D01*
X112321049Y-100718942D01*
X112260743Y-100573351D01*
X112250797Y-100523351D01*
X112230000Y-100418793D01*
X112230000Y-100261206D01*
X112260742Y-100106651D01*
X112321050Y-99961056D01*
X112408597Y-99830032D01*
X112520032Y-99718597D01*
X112651056Y-99631050D01*
X112796651Y-99570742D01*
X112951206Y-99540000D01*
X113108794Y-99540000D01*
X113263348Y-99570742D01*
G37*
G36*
X128503348Y-99570742D02*
G01*
X128503349Y-99570742D01*
X128503351Y-99570743D01*
X128648942Y-99631049D01*
X128779970Y-99718599D01*
X128891401Y-99830030D01*
X128978951Y-99961058D01*
X129039257Y-100106649D01*
X129070000Y-100261207D01*
X129070000Y-100418793D01*
X129039257Y-100573351D01*
X128978951Y-100718942D01*
X128891401Y-100849970D01*
X128779970Y-100961401D01*
X128648942Y-101048951D01*
X128503351Y-101109257D01*
X128387432Y-101132314D01*
X128348794Y-101140000D01*
X128348793Y-101140000D01*
X128191207Y-101140000D01*
X128191206Y-101140000D01*
X128139687Y-101129752D01*
X128036649Y-101109257D01*
X127891058Y-101048951D01*
X127760030Y-100961401D01*
X127648599Y-100849970D01*
X127561049Y-100718942D01*
X127500743Y-100573351D01*
X127490797Y-100523351D01*
X127470000Y-100418793D01*
X127470000Y-100261206D01*
X127500742Y-100106651D01*
X127561050Y-99961056D01*
X127648597Y-99830032D01*
X127760032Y-99718597D01*
X127891056Y-99631050D01*
X128036651Y-99570742D01*
X128191206Y-99540000D01*
X128348794Y-99540000D01*
X128503348Y-99570742D01*
G37*
G36*
X93563348Y-99520742D02*
G01*
X93563349Y-99520742D01*
X93563351Y-99520743D01*
X93708942Y-99581049D01*
X93839970Y-99668599D01*
X93951401Y-99780030D01*
X94038951Y-99911058D01*
X94099257Y-100056649D01*
X94130000Y-100211207D01*
X94130000Y-100368793D01*
X94099257Y-100523351D01*
X94038951Y-100668942D01*
X93951401Y-100799970D01*
X93839970Y-100911401D01*
X93708942Y-100998951D01*
X93563351Y-101059257D01*
X93447432Y-101082314D01*
X93408794Y-101090000D01*
X93408793Y-101090000D01*
X93251207Y-101090000D01*
X93251206Y-101090000D01*
X93199687Y-101079752D01*
X93096649Y-101059257D01*
X92951058Y-100998951D01*
X92820030Y-100911401D01*
X92708599Y-100799970D01*
X92621049Y-100668942D01*
X92560743Y-100523351D01*
X92530000Y-100368793D01*
X92530000Y-100211207D01*
X92550797Y-100106651D01*
X92560742Y-100056651D01*
X92621050Y-99911056D01*
X92708597Y-99780032D01*
X92820032Y-99668597D01*
X92951056Y-99581050D01*
X93096651Y-99520742D01*
X93251206Y-99490000D01*
X93408794Y-99490000D01*
X93563348Y-99520742D01*
G37*
G36*
X101180000Y-98640000D02*
G01*
X101179996Y-98640000D01*
X99480004Y-98640000D01*
X99480000Y-98640000D01*
X99480000Y-96940000D01*
X101180000Y-96940000D01*
X101180000Y-98640000D01*
G37*
G36*
X103117936Y-96972665D02*
G01*
X103182010Y-96999205D01*
X103272625Y-97036739D01*
X103272627Y-97036740D01*
X103272626Y-97036740D01*
X103411844Y-97129762D01*
X103530238Y-97248156D01*
X103623260Y-97387374D01*
X103687335Y-97542064D01*
X103720000Y-97706282D01*
X103720000Y-97873718D01*
X103687335Y-98037936D01*
X103623260Y-98192626D01*
X103530238Y-98331844D01*
X103411844Y-98450238D01*
X103272626Y-98543260D01*
X103117936Y-98607335D01*
X102953718Y-98640000D01*
X102786282Y-98640000D01*
X102622064Y-98607335D01*
X102467374Y-98543260D01*
X102328156Y-98450238D01*
X102209762Y-98331844D01*
X102116740Y-98192626D01*
X102116739Y-98192625D01*
X102052665Y-98037935D01*
X102051752Y-98033348D01*
X102020000Y-97873718D01*
X102020000Y-97706282D01*
X102052665Y-97542064D01*
X102116739Y-97387374D01*
X102209760Y-97248159D01*
X102209762Y-97248156D01*
X102328156Y-97129762D01*
X102328786Y-97129340D01*
X102467374Y-97036739D01*
X102622064Y-96972665D01*
X102786282Y-96940000D01*
X102953718Y-96940000D01*
X103117936Y-96972665D01*
G37*
G36*
X105657936Y-96972665D02*
G01*
X105722010Y-96999205D01*
X105812625Y-97036739D01*
X105812627Y-97036740D01*
X105812626Y-97036740D01*
X105951844Y-97129762D01*
X106070238Y-97248156D01*
X106163260Y-97387374D01*
X106227335Y-97542064D01*
X106260000Y-97706282D01*
X106260000Y-97873718D01*
X106227335Y-98037936D01*
X106163260Y-98192626D01*
X106070238Y-98331844D01*
X105951844Y-98450238D01*
X105812626Y-98543260D01*
X105657936Y-98607335D01*
X105493718Y-98640000D01*
X105326282Y-98640000D01*
X105162064Y-98607335D01*
X105007374Y-98543260D01*
X104868156Y-98450238D01*
X104749762Y-98331844D01*
X104656740Y-98192626D01*
X104656739Y-98192625D01*
X104592665Y-98037935D01*
X104591752Y-98033348D01*
X104560000Y-97873718D01*
X104560000Y-97706282D01*
X104592665Y-97542064D01*
X104656739Y-97387374D01*
X104749760Y-97248159D01*
X104749762Y-97248156D01*
X104868156Y-97129762D01*
X104868786Y-97129340D01*
X105007374Y-97036739D01*
X105162064Y-96972665D01*
X105326282Y-96940000D01*
X105493718Y-96940000D01*
X105657936Y-96972665D01*
G37*
G36*
X113263348Y-97030742D02*
G01*
X113263349Y-97030742D01*
X113263351Y-97030743D01*
X113408942Y-97091049D01*
X113539970Y-97178599D01*
X113651401Y-97290030D01*
X113738951Y-97421058D01*
X113799257Y-97566649D01*
X113830000Y-97721207D01*
X113830000Y-97878793D01*
X113799257Y-98033351D01*
X113738951Y-98178942D01*
X113651401Y-98309970D01*
X113539970Y-98421401D01*
X113408942Y-98508951D01*
X113263351Y-98569257D01*
X113147432Y-98592314D01*
X113108794Y-98600000D01*
X113108793Y-98600000D01*
X112951207Y-98600000D01*
X112951206Y-98600000D01*
X112899687Y-98589752D01*
X112796649Y-98569257D01*
X112651058Y-98508951D01*
X112520030Y-98421401D01*
X112408599Y-98309970D01*
X112321049Y-98178942D01*
X112260743Y-98033351D01*
X112230000Y-97878793D01*
X112230000Y-97721207D01*
X112230000Y-97721206D01*
X112260742Y-97566651D01*
X112321050Y-97421056D01*
X112408597Y-97290032D01*
X112520032Y-97178597D01*
X112651056Y-97091050D01*
X112796651Y-97030742D01*
X112951206Y-97000000D01*
X113108794Y-97000000D01*
X113263348Y-97030742D01*
G37*
G36*
X128503348Y-97030742D02*
G01*
X128503349Y-97030742D01*
X128503351Y-97030743D01*
X128648942Y-97091049D01*
X128779970Y-97178599D01*
X128891401Y-97290030D01*
X128978951Y-97421058D01*
X129039257Y-97566649D01*
X129070000Y-97721207D01*
X129070000Y-97878793D01*
X129039257Y-98033351D01*
X128978951Y-98178942D01*
X128891401Y-98309970D01*
X128779970Y-98421401D01*
X128648942Y-98508951D01*
X128503351Y-98569257D01*
X128387432Y-98592314D01*
X128348794Y-98600000D01*
X128348793Y-98600000D01*
X128191207Y-98600000D01*
X128191206Y-98600000D01*
X128139687Y-98589752D01*
X128036649Y-98569257D01*
X127891058Y-98508951D01*
X127760030Y-98421401D01*
X127648599Y-98309970D01*
X127561049Y-98178942D01*
X127500743Y-98033351D01*
X127470000Y-97878793D01*
X127470000Y-97721207D01*
X127470000Y-97721206D01*
X127500742Y-97566651D01*
X127561050Y-97421056D01*
X127648597Y-97290032D01*
X127760032Y-97178597D01*
X127891056Y-97091050D01*
X128036651Y-97030742D01*
X128191206Y-97000000D01*
X128348794Y-97000000D01*
X128503348Y-97030742D01*
G37*
G36*
X93563348Y-94520742D02*
G01*
X93563349Y-94520742D01*
X93563351Y-94520743D01*
X93708942Y-94581049D01*
X93839970Y-94668599D01*
X93951401Y-94780030D01*
X94038951Y-94911058D01*
X94099257Y-95056649D01*
X94130000Y-95211207D01*
X94130000Y-95368793D01*
X94099257Y-95523351D01*
X94038951Y-95668942D01*
X93951401Y-95799970D01*
X93839970Y-95911401D01*
X93708942Y-95998951D01*
X93563351Y-96059257D01*
X93447432Y-96082314D01*
X93408794Y-96090000D01*
X93408793Y-96090000D01*
X93251207Y-96090000D01*
X93251206Y-96090000D01*
X93199687Y-96079752D01*
X93096649Y-96059257D01*
X92951058Y-95998951D01*
X92820030Y-95911401D01*
X92708599Y-95799970D01*
X92621049Y-95668942D01*
X92560743Y-95523351D01*
X92554775Y-95493351D01*
X92530000Y-95368793D01*
X92530000Y-95211206D01*
X92560742Y-95056651D01*
X92621050Y-94911056D01*
X92708597Y-94780032D01*
X92820032Y-94668597D01*
X92951056Y-94581050D01*
X93096651Y-94520742D01*
X93251206Y-94490000D01*
X93408794Y-94490000D01*
X93563348Y-94520742D01*
G37*
G36*
X113263348Y-94490742D02*
G01*
X113263349Y-94490742D01*
X113263351Y-94490743D01*
X113408942Y-94551049D01*
X113539970Y-94638599D01*
X113651401Y-94750030D01*
X113738951Y-94881058D01*
X113799257Y-95026649D01*
X113830000Y-95181207D01*
X113830000Y-95338793D01*
X113799257Y-95493351D01*
X113738951Y-95638942D01*
X113651401Y-95769970D01*
X113539970Y-95881401D01*
X113408942Y-95968951D01*
X113263351Y-96029257D01*
X113147432Y-96052314D01*
X113108794Y-96060000D01*
X113108793Y-96060000D01*
X112951207Y-96060000D01*
X112951206Y-96060000D01*
X112899687Y-96049752D01*
X112796649Y-96029257D01*
X112651058Y-95968951D01*
X112520030Y-95881401D01*
X112408599Y-95769970D01*
X112321049Y-95638942D01*
X112260743Y-95493351D01*
X112230000Y-95338793D01*
X112230000Y-95181207D01*
X112254775Y-95056651D01*
X112260742Y-95026651D01*
X112321050Y-94881056D01*
X112408597Y-94750032D01*
X112520032Y-94638597D01*
X112651056Y-94551050D01*
X112796651Y-94490742D01*
X112951206Y-94460000D01*
X113108794Y-94460000D01*
X113263348Y-94490742D01*
G37*
G36*
X128503348Y-94490742D02*
G01*
X128503349Y-94490742D01*
X128503351Y-94490743D01*
X128648942Y-94551049D01*
X128779970Y-94638599D01*
X128891401Y-94750030D01*
X128978951Y-94881058D01*
X129039257Y-95026649D01*
X129070000Y-95181207D01*
X129070000Y-95338793D01*
X129039257Y-95493351D01*
X128978951Y-95638942D01*
X128891401Y-95769970D01*
X128779970Y-95881401D01*
X128648942Y-95968951D01*
X128503351Y-96029257D01*
X128387432Y-96052314D01*
X128348794Y-96060000D01*
X128348793Y-96060000D01*
X128191207Y-96060000D01*
X128191206Y-96060000D01*
X128139687Y-96049752D01*
X128036649Y-96029257D01*
X127891058Y-95968951D01*
X127760030Y-95881401D01*
X127648599Y-95769970D01*
X127561049Y-95638942D01*
X127500743Y-95493351D01*
X127470000Y-95338793D01*
X127470000Y-95181207D01*
X127494775Y-95056651D01*
X127500742Y-95026651D01*
X127561050Y-94881056D01*
X127648597Y-94750032D01*
X127760032Y-94638597D01*
X127891056Y-94551050D01*
X128036651Y-94490742D01*
X128191206Y-94460000D01*
X128348794Y-94460000D01*
X128503348Y-94490742D01*
G37*
G36*
X113263348Y-91950742D02*
G01*
X113263349Y-91950742D01*
X113263351Y-91950743D01*
X113408942Y-92011049D01*
X113539970Y-92098599D01*
X113651401Y-92210030D01*
X113738951Y-92341058D01*
X113799257Y-92486649D01*
X113830000Y-92641207D01*
X113830000Y-92798793D01*
X113799257Y-92953351D01*
X113738951Y-93098942D01*
X113651401Y-93229970D01*
X113539970Y-93341401D01*
X113408942Y-93428951D01*
X113263351Y-93489257D01*
X113147432Y-93512314D01*
X113108794Y-93520000D01*
X113108793Y-93520000D01*
X112951207Y-93520000D01*
X112951206Y-93520000D01*
X112899687Y-93509752D01*
X112796649Y-93489257D01*
X112651058Y-93428951D01*
X112520030Y-93341401D01*
X112408599Y-93229970D01*
X112321049Y-93098942D01*
X112260743Y-92953351D01*
X112230000Y-92798793D01*
X112230000Y-92641207D01*
X112230000Y-92641206D01*
X112260742Y-92486651D01*
X112321050Y-92341056D01*
X112408597Y-92210032D01*
X112520032Y-92098597D01*
X112651056Y-92011050D01*
X112796651Y-91950742D01*
X112951206Y-91920000D01*
X113108794Y-91920000D01*
X113263348Y-91950742D01*
G37*
G36*
X128503348Y-91950742D02*
G01*
X128503349Y-91950742D01*
X128503351Y-91950743D01*
X128648942Y-92011049D01*
X128779970Y-92098599D01*
X128891401Y-92210030D01*
X128978951Y-92341058D01*
X129039257Y-92486649D01*
X129070000Y-92641207D01*
X129070000Y-92798793D01*
X129039257Y-92953351D01*
X128978951Y-93098942D01*
X128891401Y-93229970D01*
X128779970Y-93341401D01*
X128648942Y-93428951D01*
X128503351Y-93489257D01*
X128387432Y-93512314D01*
X128348794Y-93520000D01*
X128348793Y-93520000D01*
X128191207Y-93520000D01*
X128191206Y-93520000D01*
X128139687Y-93509752D01*
X128036649Y-93489257D01*
X127891058Y-93428951D01*
X127760030Y-93341401D01*
X127648599Y-93229970D01*
X127561049Y-93098942D01*
X127500743Y-92953351D01*
X127470000Y-92798793D01*
X127470000Y-92641207D01*
X127470000Y-92641206D01*
X127500742Y-92486651D01*
X127561050Y-92341056D01*
X127648597Y-92210032D01*
X127760032Y-92098597D01*
X127891056Y-92011050D01*
X128036651Y-91950742D01*
X128191206Y-91920000D01*
X128348794Y-91920000D01*
X128503348Y-91950742D01*
G37*
G36*
X113263348Y-89410742D02*
G01*
X113263349Y-89410742D01*
X113263351Y-89410743D01*
X113408942Y-89471049D01*
X113539970Y-89558599D01*
X113651401Y-89670030D01*
X113738951Y-89801058D01*
X113799257Y-89946649D01*
X113830000Y-90101207D01*
X113830000Y-90258793D01*
X113799257Y-90413351D01*
X113738951Y-90558942D01*
X113651401Y-90689970D01*
X113539970Y-90801401D01*
X113408942Y-90888951D01*
X113263351Y-90949257D01*
X113147432Y-90972314D01*
X113108794Y-90980000D01*
X113108793Y-90980000D01*
X112951207Y-90980000D01*
X112951206Y-90980000D01*
X112899687Y-90969752D01*
X112796649Y-90949257D01*
X112651058Y-90888951D01*
X112520030Y-90801401D01*
X112408599Y-90689970D01*
X112321049Y-90558942D01*
X112260743Y-90413351D01*
X112250797Y-90363351D01*
X112230000Y-90258793D01*
X112230000Y-90101206D01*
X112260742Y-89946651D01*
X112321050Y-89801056D01*
X112408597Y-89670032D01*
X112520032Y-89558597D01*
X112651056Y-89471050D01*
X112796651Y-89410742D01*
X112951206Y-89380000D01*
X113108794Y-89380000D01*
X113263348Y-89410742D01*
G37*
G36*
X128503348Y-89410742D02*
G01*
X128503349Y-89410742D01*
X128503351Y-89410743D01*
X128648942Y-89471049D01*
X128779970Y-89558599D01*
X128891401Y-89670030D01*
X128978951Y-89801058D01*
X129039257Y-89946649D01*
X129070000Y-90101207D01*
X129070000Y-90258793D01*
X129039257Y-90413351D01*
X128978951Y-90558942D01*
X128891401Y-90689970D01*
X128779970Y-90801401D01*
X128648942Y-90888951D01*
X128503351Y-90949257D01*
X128387432Y-90972314D01*
X128348794Y-90980000D01*
X128348793Y-90980000D01*
X128191207Y-90980000D01*
X128191206Y-90980000D01*
X128139687Y-90969752D01*
X128036649Y-90949257D01*
X127891058Y-90888951D01*
X127760030Y-90801401D01*
X127648599Y-90689970D01*
X127561049Y-90558942D01*
X127500743Y-90413351D01*
X127490797Y-90363351D01*
X127470000Y-90258793D01*
X127470000Y-90101206D01*
X127500742Y-89946651D01*
X127561050Y-89801056D01*
X127648597Y-89670032D01*
X127760032Y-89558597D01*
X127891056Y-89471050D01*
X128036651Y-89410742D01*
X128191206Y-89380000D01*
X128348794Y-89380000D01*
X128503348Y-89410742D01*
G37*
G36*
X93563348Y-89360742D02*
G01*
X93563349Y-89360742D01*
X93563351Y-89360743D01*
X93708942Y-89421049D01*
X93839970Y-89508599D01*
X93951401Y-89620030D01*
X94038951Y-89751058D01*
X94099257Y-89896649D01*
X94130000Y-90051207D01*
X94130000Y-90208793D01*
X94099257Y-90363351D01*
X94038951Y-90508942D01*
X93951401Y-90639970D01*
X93839970Y-90751401D01*
X93708942Y-90838951D01*
X93563351Y-90899257D01*
X93447432Y-90922314D01*
X93408794Y-90930000D01*
X93408793Y-90930000D01*
X93251207Y-90930000D01*
X93251206Y-90930000D01*
X93199687Y-90919752D01*
X93096649Y-90899257D01*
X92951058Y-90838951D01*
X92820030Y-90751401D01*
X92708599Y-90639970D01*
X92621049Y-90508942D01*
X92560743Y-90363351D01*
X92530000Y-90208793D01*
X92530000Y-90051207D01*
X92550797Y-89946651D01*
X92560742Y-89896651D01*
X92621050Y-89751056D01*
X92708597Y-89620032D01*
X92820032Y-89508597D01*
X92951056Y-89421050D01*
X93096651Y-89360742D01*
X93251206Y-89330000D01*
X93408794Y-89330000D01*
X93563348Y-89360742D01*
G37*
G36*
X101180000Y-88480000D02*
G01*
X101179996Y-88480000D01*
X99480004Y-88480000D01*
X99480000Y-88480000D01*
X99480000Y-86780000D01*
X101180000Y-86780000D01*
X101180000Y-88480000D01*
G37*
G36*
X103117936Y-86812665D02*
G01*
X103182010Y-86839205D01*
X103272625Y-86876739D01*
X103272627Y-86876740D01*
X103272626Y-86876740D01*
X103411844Y-86969762D01*
X103530238Y-87088156D01*
X103623260Y-87227374D01*
X103687335Y-87382064D01*
X103720000Y-87546282D01*
X103720000Y-87713718D01*
X103687335Y-87877936D01*
X103623260Y-88032626D01*
X103530238Y-88171844D01*
X103411844Y-88290238D01*
X103272626Y-88383260D01*
X103117936Y-88447335D01*
X102953718Y-88480000D01*
X102786282Y-88480000D01*
X102622064Y-88447335D01*
X102467374Y-88383260D01*
X102328156Y-88290238D01*
X102209762Y-88171844D01*
X102116740Y-88032626D01*
X102116739Y-88032625D01*
X102052665Y-87877935D01*
X102051752Y-87873348D01*
X102020000Y-87713718D01*
X102020000Y-87546282D01*
X102052665Y-87382064D01*
X102116739Y-87227374D01*
X102209760Y-87088159D01*
X102209762Y-87088156D01*
X102328156Y-86969762D01*
X102328786Y-86969340D01*
X102467374Y-86876739D01*
X102622064Y-86812665D01*
X102786282Y-86780000D01*
X102953718Y-86780000D01*
X103117936Y-86812665D01*
G37*
G36*
X105657936Y-86812665D02*
G01*
X105722010Y-86839205D01*
X105812625Y-86876739D01*
X105812627Y-86876740D01*
X105812626Y-86876740D01*
X105951844Y-86969762D01*
X106070238Y-87088156D01*
X106163260Y-87227374D01*
X106227335Y-87382064D01*
X106260000Y-87546282D01*
X106260000Y-87713718D01*
X106227335Y-87877936D01*
X106163260Y-88032626D01*
X106070238Y-88171844D01*
X105951844Y-88290238D01*
X105812626Y-88383260D01*
X105657936Y-88447335D01*
X105493718Y-88480000D01*
X105326282Y-88480000D01*
X105162064Y-88447335D01*
X105007374Y-88383260D01*
X104868156Y-88290238D01*
X104749762Y-88171844D01*
X104656740Y-88032626D01*
X104656739Y-88032625D01*
X104592665Y-87877935D01*
X104591752Y-87873348D01*
X104560000Y-87713718D01*
X104560000Y-87546282D01*
X104592665Y-87382064D01*
X104656739Y-87227374D01*
X104749760Y-87088159D01*
X104749762Y-87088156D01*
X104868156Y-86969762D01*
X104868786Y-86969340D01*
X105007374Y-86876739D01*
X105162064Y-86812665D01*
X105326282Y-86780000D01*
X105493718Y-86780000D01*
X105657936Y-86812665D01*
G37*
G36*
X113263348Y-86870742D02*
G01*
X113263349Y-86870742D01*
X113263351Y-86870743D01*
X113408942Y-86931049D01*
X113539970Y-87018599D01*
X113651401Y-87130030D01*
X113738951Y-87261058D01*
X113799257Y-87406649D01*
X113830000Y-87561207D01*
X113830000Y-87718793D01*
X113799257Y-87873351D01*
X113738951Y-88018942D01*
X113651401Y-88149970D01*
X113539970Y-88261401D01*
X113408942Y-88348951D01*
X113263351Y-88409257D01*
X113147432Y-88432314D01*
X113108794Y-88440000D01*
X113108793Y-88440000D01*
X112951207Y-88440000D01*
X112951206Y-88440000D01*
X112899687Y-88429752D01*
X112796649Y-88409257D01*
X112651058Y-88348951D01*
X112520030Y-88261401D01*
X112408599Y-88149970D01*
X112321049Y-88018942D01*
X112260743Y-87873351D01*
X112230000Y-87718793D01*
X112230000Y-87561207D01*
X112230000Y-87561206D01*
X112260742Y-87406651D01*
X112321050Y-87261056D01*
X112408597Y-87130032D01*
X112520032Y-87018597D01*
X112651056Y-86931050D01*
X112796651Y-86870742D01*
X112951206Y-86840000D01*
X113108794Y-86840000D01*
X113263348Y-86870742D01*
G37*
G36*
X128503348Y-86870742D02*
G01*
X128503349Y-86870742D01*
X128503351Y-86870743D01*
X128648942Y-86931049D01*
X128779970Y-87018599D01*
X128891401Y-87130030D01*
X128978951Y-87261058D01*
X129039257Y-87406649D01*
X129070000Y-87561207D01*
X129070000Y-87718793D01*
X129039257Y-87873351D01*
X128978951Y-88018942D01*
X128891401Y-88149970D01*
X128779970Y-88261401D01*
X128648942Y-88348951D01*
X128503351Y-88409257D01*
X128387432Y-88432314D01*
X128348794Y-88440000D01*
X128348793Y-88440000D01*
X128191207Y-88440000D01*
X128191206Y-88440000D01*
X128139687Y-88429752D01*
X128036649Y-88409257D01*
X127891058Y-88348951D01*
X127760030Y-88261401D01*
X127648599Y-88149970D01*
X127561049Y-88018942D01*
X127500743Y-87873351D01*
X127470000Y-87718793D01*
X127470000Y-87561207D01*
X127470000Y-87561206D01*
X127500742Y-87406651D01*
X127561050Y-87261056D01*
X127648597Y-87130032D01*
X127760032Y-87018597D01*
X127891056Y-86931050D01*
X128036651Y-86870742D01*
X128191206Y-86840000D01*
X128348794Y-86840000D01*
X128503348Y-86870742D01*
G37*
G36*
X93563348Y-84360742D02*
G01*
X93563349Y-84360742D01*
X93563351Y-84360743D01*
X93708942Y-84421049D01*
X93839970Y-84508599D01*
X93951401Y-84620030D01*
X94038951Y-84751058D01*
X94099257Y-84896649D01*
X94130000Y-85051207D01*
X94130000Y-85208793D01*
X94099257Y-85363351D01*
X94038951Y-85508942D01*
X93951401Y-85639970D01*
X93839970Y-85751401D01*
X93708942Y-85838951D01*
X93563351Y-85899257D01*
X93447432Y-85922314D01*
X93408794Y-85930000D01*
X93408793Y-85930000D01*
X93251207Y-85930000D01*
X93251206Y-85930000D01*
X93199687Y-85919752D01*
X93096649Y-85899257D01*
X92951058Y-85838951D01*
X92820030Y-85751401D01*
X92708599Y-85639970D01*
X92621049Y-85508942D01*
X92560743Y-85363351D01*
X92554775Y-85333351D01*
X92530000Y-85208793D01*
X92530000Y-85051206D01*
X92560742Y-84896651D01*
X92621050Y-84751056D01*
X92708597Y-84620032D01*
X92820032Y-84508597D01*
X92951056Y-84421050D01*
X93096651Y-84360742D01*
X93251206Y-84330000D01*
X93408794Y-84330000D01*
X93563348Y-84360742D01*
G37*
G36*
X113263348Y-84330742D02*
G01*
X113263349Y-84330742D01*
X113263351Y-84330743D01*
X113408942Y-84391049D01*
X113539970Y-84478599D01*
X113651401Y-84590030D01*
X113738951Y-84721058D01*
X113799257Y-84866649D01*
X113830000Y-85021207D01*
X113830000Y-85178793D01*
X113799257Y-85333351D01*
X113738951Y-85478942D01*
X113651401Y-85609970D01*
X113539970Y-85721401D01*
X113408942Y-85808951D01*
X113263351Y-85869257D01*
X113147432Y-85892314D01*
X113108794Y-85900000D01*
X113108793Y-85900000D01*
X112951207Y-85900000D01*
X112951206Y-85900000D01*
X112899687Y-85889752D01*
X112796649Y-85869257D01*
X112651058Y-85808951D01*
X112520030Y-85721401D01*
X112408599Y-85609970D01*
X112321049Y-85478942D01*
X112260743Y-85333351D01*
X112230000Y-85178793D01*
X112230000Y-85021207D01*
X112254775Y-84896651D01*
X112260742Y-84866651D01*
X112321050Y-84721056D01*
X112408597Y-84590032D01*
X112520032Y-84478597D01*
X112651056Y-84391050D01*
X112796651Y-84330742D01*
X112951206Y-84300000D01*
X113108794Y-84300000D01*
X113263348Y-84330742D01*
G37*
G36*
X128503348Y-84330742D02*
G01*
X128503349Y-84330742D01*
X128503351Y-84330743D01*
X128648942Y-84391049D01*
X128779970Y-84478599D01*
X128891401Y-84590030D01*
X128978951Y-84721058D01*
X129039257Y-84866649D01*
X129070000Y-85021207D01*
X129070000Y-85178793D01*
X129039257Y-85333351D01*
X128978951Y-85478942D01*
X128891401Y-85609970D01*
X128779970Y-85721401D01*
X128648942Y-85808951D01*
X128503351Y-85869257D01*
X128387432Y-85892314D01*
X128348794Y-85900000D01*
X128348793Y-85900000D01*
X128191207Y-85900000D01*
X128191206Y-85900000D01*
X128139687Y-85889752D01*
X128036649Y-85869257D01*
X127891058Y-85808951D01*
X127760030Y-85721401D01*
X127648599Y-85609970D01*
X127561049Y-85478942D01*
X127500743Y-85333351D01*
X127470000Y-85178793D01*
X127470000Y-85021207D01*
X127494775Y-84896651D01*
X127500742Y-84866651D01*
X127561050Y-84721056D01*
X127648597Y-84590032D01*
X127760032Y-84478597D01*
X127891056Y-84391050D01*
X128036651Y-84330742D01*
X128191206Y-84300000D01*
X128348794Y-84300000D01*
X128503348Y-84330742D01*
G37*
G36*
X113263348Y-81790742D02*
G01*
X113263349Y-81790742D01*
X113263351Y-81790743D01*
X113408942Y-81851049D01*
X113539970Y-81938599D01*
X113651401Y-82050030D01*
X113738951Y-82181058D01*
X113799257Y-82326649D01*
X113830000Y-82481207D01*
X113830000Y-82638793D01*
X113799257Y-82793351D01*
X113738951Y-82938942D01*
X113651401Y-83069970D01*
X113539970Y-83181401D01*
X113408942Y-83268951D01*
X113263351Y-83329257D01*
X113147432Y-83352314D01*
X113108794Y-83360000D01*
X113108793Y-83360000D01*
X112951207Y-83360000D01*
X112951206Y-83360000D01*
X112899687Y-83349752D01*
X112796649Y-83329257D01*
X112651058Y-83268951D01*
X112520030Y-83181401D01*
X112408599Y-83069970D01*
X112321049Y-82938942D01*
X112260743Y-82793351D01*
X112230000Y-82638793D01*
X112230000Y-82481207D01*
X112230000Y-82481206D01*
X112260742Y-82326651D01*
X112321050Y-82181056D01*
X112408597Y-82050032D01*
X112520032Y-81938597D01*
X112651056Y-81851050D01*
X112796651Y-81790742D01*
X112951206Y-81760000D01*
X113108794Y-81760000D01*
X113263348Y-81790742D01*
G37*
G36*
X128503348Y-81790742D02*
G01*
X128503349Y-81790742D01*
X128503351Y-81790743D01*
X128648942Y-81851049D01*
X128779970Y-81938599D01*
X128891401Y-82050030D01*
X128978951Y-82181058D01*
X129039257Y-82326649D01*
X129070000Y-82481207D01*
X129070000Y-82638793D01*
X129039257Y-82793351D01*
X128978951Y-82938942D01*
X128891401Y-83069970D01*
X128779970Y-83181401D01*
X128648942Y-83268951D01*
X128503351Y-83329257D01*
X128387432Y-83352314D01*
X128348794Y-83360000D01*
X128348793Y-83360000D01*
X128191207Y-83360000D01*
X128191206Y-83360000D01*
X128139687Y-83349752D01*
X128036649Y-83329257D01*
X127891058Y-83268951D01*
X127760030Y-83181401D01*
X127648599Y-83069970D01*
X127561049Y-82938942D01*
X127500743Y-82793351D01*
X127470000Y-82638793D01*
X127470000Y-82481207D01*
X127470000Y-82481206D01*
X127500742Y-82326651D01*
X127561050Y-82181056D01*
X127648597Y-82050032D01*
X127760032Y-81938597D01*
X127891056Y-81851050D01*
X128036651Y-81790742D01*
X128191206Y-81760000D01*
X128348794Y-81760000D01*
X128503348Y-81790742D01*
G37*
G36*
X113263348Y-79250742D02*
G01*
X113263349Y-79250742D01*
X113263351Y-79250743D01*
X113408942Y-79311049D01*
X113539970Y-79398599D01*
X113651401Y-79510030D01*
X113738951Y-79641058D01*
X113799257Y-79786649D01*
X113830000Y-79941207D01*
X113830000Y-80098793D01*
X113799257Y-80253351D01*
X113738951Y-80398942D01*
X113651401Y-80529970D01*
X113539970Y-80641401D01*
X113408942Y-80728951D01*
X113263351Y-80789257D01*
X113147432Y-80812314D01*
X113108794Y-80820000D01*
X113108793Y-80820000D01*
X112951207Y-80820000D01*
X112951206Y-80820000D01*
X112899687Y-80809752D01*
X112796649Y-80789257D01*
X112651058Y-80728951D01*
X112520030Y-80641401D01*
X112408599Y-80529970D01*
X112321049Y-80398942D01*
X112260743Y-80253351D01*
X112250797Y-80203351D01*
X112230000Y-80098793D01*
X112230000Y-79941206D01*
X112260742Y-79786651D01*
X112321050Y-79641056D01*
X112408597Y-79510032D01*
X112520032Y-79398597D01*
X112651056Y-79311050D01*
X112796651Y-79250742D01*
X112951206Y-79220000D01*
X113108794Y-79220000D01*
X113263348Y-79250742D01*
G37*
G36*
X128503348Y-79250742D02*
G01*
X128503349Y-79250742D01*
X128503351Y-79250743D01*
X128648942Y-79311049D01*
X128779970Y-79398599D01*
X128891401Y-79510030D01*
X128978951Y-79641058D01*
X129039257Y-79786649D01*
X129070000Y-79941207D01*
X129070000Y-80098793D01*
X129039257Y-80253351D01*
X128978951Y-80398942D01*
X128891401Y-80529970D01*
X128779970Y-80641401D01*
X128648942Y-80728951D01*
X128503351Y-80789257D01*
X128387432Y-80812314D01*
X128348794Y-80820000D01*
X128348793Y-80820000D01*
X128191207Y-80820000D01*
X128191206Y-80820000D01*
X128139687Y-80809752D01*
X128036649Y-80789257D01*
X127891058Y-80728951D01*
X127760030Y-80641401D01*
X127648599Y-80529970D01*
X127561049Y-80398942D01*
X127500743Y-80253351D01*
X127490797Y-80203351D01*
X127470000Y-80098793D01*
X127470000Y-79941206D01*
X127500742Y-79786651D01*
X127561050Y-79641056D01*
X127648597Y-79510032D01*
X127760032Y-79398597D01*
X127891056Y-79311050D01*
X128036651Y-79250742D01*
X128191206Y-79220000D01*
X128348794Y-79220000D01*
X128503348Y-79250742D01*
G37*
G36*
X93563348Y-79200742D02*
G01*
X93563349Y-79200742D01*
X93563351Y-79200743D01*
X93708942Y-79261049D01*
X93839970Y-79348599D01*
X93951401Y-79460030D01*
X94038951Y-79591058D01*
X94099257Y-79736649D01*
X94130000Y-79891207D01*
X94130000Y-80048793D01*
X94099257Y-80203351D01*
X94038951Y-80348942D01*
X93951401Y-80479970D01*
X93839970Y-80591401D01*
X93708942Y-80678951D01*
X93563351Y-80739257D01*
X93447432Y-80762314D01*
X93408794Y-80770000D01*
X93408793Y-80770000D01*
X93251207Y-80770000D01*
X93251206Y-80770000D01*
X93199687Y-80759752D01*
X93096649Y-80739257D01*
X92951058Y-80678951D01*
X92820030Y-80591401D01*
X92708599Y-80479970D01*
X92621049Y-80348942D01*
X92560743Y-80203351D01*
X92530000Y-80048793D01*
X92530000Y-79891207D01*
X92550797Y-79786651D01*
X92560742Y-79736651D01*
X92621050Y-79591056D01*
X92708597Y-79460032D01*
X92820032Y-79348597D01*
X92951056Y-79261050D01*
X93096651Y-79200742D01*
X93251206Y-79170000D01*
X93408794Y-79170000D01*
X93563348Y-79200742D01*
G37*
G36*
X101180000Y-78320000D02*
G01*
X101179996Y-78320000D01*
X99480004Y-78320000D01*
X99480000Y-78320000D01*
X99480000Y-76620000D01*
X101180000Y-76620000D01*
X101180000Y-78320000D01*
G37*
G36*
X103117936Y-76652665D02*
G01*
X103182010Y-76679205D01*
X103272625Y-76716739D01*
X103272627Y-76716740D01*
X103272626Y-76716740D01*
X103411844Y-76809762D01*
X103530238Y-76928156D01*
X103623260Y-77067374D01*
X103687335Y-77222064D01*
X103720000Y-77386282D01*
X103720000Y-77553718D01*
X103687335Y-77717936D01*
X103623260Y-77872626D01*
X103530238Y-78011844D01*
X103411844Y-78130238D01*
X103272626Y-78223260D01*
X103117936Y-78287335D01*
X102953718Y-78320000D01*
X102786282Y-78320000D01*
X102622064Y-78287335D01*
X102467374Y-78223260D01*
X102328156Y-78130238D01*
X102209762Y-78011844D01*
X102116740Y-77872626D01*
X102116739Y-77872625D01*
X102052665Y-77717935D01*
X102051752Y-77713348D01*
X102020000Y-77553718D01*
X102020000Y-77386282D01*
X102052665Y-77222064D01*
X102116739Y-77067374D01*
X102209760Y-76928159D01*
X102209762Y-76928156D01*
X102328156Y-76809762D01*
X102328786Y-76809340D01*
X102467374Y-76716739D01*
X102622064Y-76652665D01*
X102786282Y-76620000D01*
X102953718Y-76620000D01*
X103117936Y-76652665D01*
G37*
G36*
X105657936Y-76652665D02*
G01*
X105722010Y-76679205D01*
X105812625Y-76716739D01*
X105812627Y-76716740D01*
X105812626Y-76716740D01*
X105951844Y-76809762D01*
X106070238Y-76928156D01*
X106163260Y-77067374D01*
X106227335Y-77222064D01*
X106260000Y-77386282D01*
X106260000Y-77553718D01*
X106227335Y-77717936D01*
X106163260Y-77872626D01*
X106070238Y-78011844D01*
X105951844Y-78130238D01*
X105812626Y-78223260D01*
X105657936Y-78287335D01*
X105493718Y-78320000D01*
X105326282Y-78320000D01*
X105162064Y-78287335D01*
X105007374Y-78223260D01*
X104868156Y-78130238D01*
X104749762Y-78011844D01*
X104656740Y-77872626D01*
X104656739Y-77872625D01*
X104592665Y-77717935D01*
X104591752Y-77713348D01*
X104560000Y-77553718D01*
X104560000Y-77386282D01*
X104592665Y-77222064D01*
X104656739Y-77067374D01*
X104749760Y-76928159D01*
X104749762Y-76928156D01*
X104868156Y-76809762D01*
X104868786Y-76809340D01*
X105007374Y-76716739D01*
X105162064Y-76652665D01*
X105326282Y-76620000D01*
X105493718Y-76620000D01*
X105657936Y-76652665D01*
G37*
G36*
X113263348Y-76710742D02*
G01*
X113263349Y-76710742D01*
X113263351Y-76710743D01*
X113408942Y-76771049D01*
X113539970Y-76858599D01*
X113651401Y-76970030D01*
X113738951Y-77101058D01*
X113799257Y-77246649D01*
X113830000Y-77401207D01*
X113830000Y-77558793D01*
X113799257Y-77713351D01*
X113738951Y-77858942D01*
X113651401Y-77989970D01*
X113539970Y-78101401D01*
X113408942Y-78188951D01*
X113263351Y-78249257D01*
X113147432Y-78272314D01*
X113108794Y-78280000D01*
X113108793Y-78280000D01*
X112951207Y-78280000D01*
X112951206Y-78280000D01*
X112899687Y-78269752D01*
X112796649Y-78249257D01*
X112651058Y-78188951D01*
X112520030Y-78101401D01*
X112408599Y-77989970D01*
X112321049Y-77858942D01*
X112260743Y-77713351D01*
X112230000Y-77558793D01*
X112230000Y-77401207D01*
X112230000Y-77401206D01*
X112260742Y-77246651D01*
X112321050Y-77101056D01*
X112408597Y-76970032D01*
X112520032Y-76858597D01*
X112651056Y-76771050D01*
X112796651Y-76710742D01*
X112951206Y-76680000D01*
X113108794Y-76680000D01*
X113263348Y-76710742D01*
G37*
G36*
X128503348Y-76710742D02*
G01*
X128503349Y-76710742D01*
X128503351Y-76710743D01*
X128648942Y-76771049D01*
X128779970Y-76858599D01*
X128891401Y-76970030D01*
X128978951Y-77101058D01*
X129039257Y-77246649D01*
X129070000Y-77401207D01*
X129070000Y-77558793D01*
X129039257Y-77713351D01*
X128978951Y-77858942D01*
X128891401Y-77989970D01*
X128779970Y-78101401D01*
X128648942Y-78188951D01*
X128503351Y-78249257D01*
X128387432Y-78272314D01*
X128348794Y-78280000D01*
X128348793Y-78280000D01*
X128191207Y-78280000D01*
X128191206Y-78280000D01*
X128139687Y-78269752D01*
X128036649Y-78249257D01*
X127891058Y-78188951D01*
X127760030Y-78101401D01*
X127648599Y-77989970D01*
X127561049Y-77858942D01*
X127500743Y-77713351D01*
X127470000Y-77558793D01*
X127470000Y-77401207D01*
X127470000Y-77401206D01*
X127500742Y-77246651D01*
X127561050Y-77101056D01*
X127648597Y-76970032D01*
X127760032Y-76858597D01*
X127891056Y-76771050D01*
X128036651Y-76710742D01*
X128191206Y-76680000D01*
X128348794Y-76680000D01*
X128503348Y-76710742D01*
G37*
G36*
X93563348Y-74200742D02*
G01*
X93563349Y-74200742D01*
X93563351Y-74200743D01*
X93708942Y-74261049D01*
X93839970Y-74348599D01*
X93951401Y-74460030D01*
X94038951Y-74591058D01*
X94099257Y-74736649D01*
X94130000Y-74891207D01*
X94130000Y-75048793D01*
X94099257Y-75203351D01*
X94038951Y-75348942D01*
X93951401Y-75479970D01*
X93839970Y-75591401D01*
X93708942Y-75678951D01*
X93563351Y-75739257D01*
X93447432Y-75762314D01*
X93408794Y-75770000D01*
X93408793Y-75770000D01*
X93251207Y-75770000D01*
X93251206Y-75770000D01*
X93199687Y-75759752D01*
X93096649Y-75739257D01*
X92951058Y-75678951D01*
X92820030Y-75591401D01*
X92708599Y-75479970D01*
X92621049Y-75348942D01*
X92560743Y-75203351D01*
X92554775Y-75173351D01*
X92530000Y-75048793D01*
X92530000Y-74891206D01*
X92560742Y-74736651D01*
X92621050Y-74591056D01*
X92708597Y-74460032D01*
X92820032Y-74348597D01*
X92951056Y-74261050D01*
X93096651Y-74200742D01*
X93251206Y-74170000D01*
X93408794Y-74170000D01*
X93563348Y-74200742D01*
G37*
G36*
X113263348Y-74170742D02*
G01*
X113263349Y-74170742D01*
X113263351Y-74170743D01*
X113408942Y-74231049D01*
X113539970Y-74318599D01*
X113651401Y-74430030D01*
X113738951Y-74561058D01*
X113799257Y-74706649D01*
X113830000Y-74861207D01*
X113830000Y-75018793D01*
X113799257Y-75173351D01*
X113738951Y-75318942D01*
X113651401Y-75449970D01*
X113539970Y-75561401D01*
X113408942Y-75648951D01*
X113263351Y-75709257D01*
X113147432Y-75732314D01*
X113108794Y-75740000D01*
X113108793Y-75740000D01*
X112951207Y-75740000D01*
X112951206Y-75740000D01*
X112899687Y-75729752D01*
X112796649Y-75709257D01*
X112651058Y-75648951D01*
X112520030Y-75561401D01*
X112408599Y-75449970D01*
X112321049Y-75318942D01*
X112260743Y-75173351D01*
X112230000Y-75018793D01*
X112230000Y-74861207D01*
X112254775Y-74736651D01*
X112260742Y-74706651D01*
X112321050Y-74561056D01*
X112408597Y-74430032D01*
X112520032Y-74318597D01*
X112651056Y-74231050D01*
X112796651Y-74170742D01*
X112951206Y-74140000D01*
X113108794Y-74140000D01*
X113263348Y-74170742D01*
G37*
G36*
X128503348Y-74170742D02*
G01*
X128503349Y-74170742D01*
X128503351Y-74170743D01*
X128648942Y-74231049D01*
X128779970Y-74318599D01*
X128891401Y-74430030D01*
X128978951Y-74561058D01*
X129039257Y-74706649D01*
X129070000Y-74861207D01*
X129070000Y-75018793D01*
X129039257Y-75173351D01*
X128978951Y-75318942D01*
X128891401Y-75449970D01*
X128779970Y-75561401D01*
X128648942Y-75648951D01*
X128503351Y-75709257D01*
X128387432Y-75732314D01*
X128348794Y-75740000D01*
X128348793Y-75740000D01*
X128191207Y-75740000D01*
X128191206Y-75740000D01*
X128139687Y-75729752D01*
X128036649Y-75709257D01*
X127891058Y-75648951D01*
X127760030Y-75561401D01*
X127648599Y-75449970D01*
X127561049Y-75318942D01*
X127500743Y-75173351D01*
X127470000Y-75018793D01*
X127470000Y-74861207D01*
X127494775Y-74736651D01*
X127500742Y-74706651D01*
X127561050Y-74561056D01*
X127648597Y-74430032D01*
X127760032Y-74318597D01*
X127891056Y-74231050D01*
X128036651Y-74170742D01*
X128191206Y-74140000D01*
X128348794Y-74140000D01*
X128503348Y-74170742D01*
G37*
G36*
X113263348Y-71630742D02*
G01*
X113263349Y-71630742D01*
X113263351Y-71630743D01*
X113408942Y-71691049D01*
X113539970Y-71778599D01*
X113651401Y-71890030D01*
X113738951Y-72021058D01*
X113799257Y-72166649D01*
X113830000Y-72321207D01*
X113830000Y-72478793D01*
X113799257Y-72633351D01*
X113738951Y-72778942D01*
X113651401Y-72909970D01*
X113539970Y-73021401D01*
X113408942Y-73108951D01*
X113263351Y-73169257D01*
X113147432Y-73192314D01*
X113108794Y-73200000D01*
X113108793Y-73200000D01*
X112951207Y-73200000D01*
X112951206Y-73200000D01*
X112899687Y-73189752D01*
X112796649Y-73169257D01*
X112651058Y-73108951D01*
X112520030Y-73021401D01*
X112408599Y-72909970D01*
X112321049Y-72778942D01*
X112260743Y-72633351D01*
X112230000Y-72478793D01*
X112230000Y-72321207D01*
X112230000Y-72321206D01*
X112260742Y-72166651D01*
X112321050Y-72021056D01*
X112408597Y-71890032D01*
X112520032Y-71778597D01*
X112651056Y-71691050D01*
X112796651Y-71630742D01*
X112951206Y-71600000D01*
X113108794Y-71600000D01*
X113263348Y-71630742D01*
G37*
G36*
X128503348Y-71630742D02*
G01*
X128503349Y-71630742D01*
X128503351Y-71630743D01*
X128648942Y-71691049D01*
X128779970Y-71778599D01*
X128891401Y-71890030D01*
X128978951Y-72021058D01*
X129039257Y-72166649D01*
X129070000Y-72321207D01*
X129070000Y-72478793D01*
X129039257Y-72633351D01*
X128978951Y-72778942D01*
X128891401Y-72909970D01*
X128779970Y-73021401D01*
X128648942Y-73108951D01*
X128503351Y-73169257D01*
X128387432Y-73192314D01*
X128348794Y-73200000D01*
X128348793Y-73200000D01*
X128191207Y-73200000D01*
X128191206Y-73200000D01*
X128139687Y-73189752D01*
X128036649Y-73169257D01*
X127891058Y-73108951D01*
X127760030Y-73021401D01*
X127648599Y-72909970D01*
X127561049Y-72778942D01*
X127500743Y-72633351D01*
X127470000Y-72478793D01*
X127470000Y-72321207D01*
X127470000Y-72321206D01*
X127500742Y-72166651D01*
X127561050Y-72021056D01*
X127648597Y-71890032D01*
X127760032Y-71778597D01*
X127891056Y-71691050D01*
X128036651Y-71630742D01*
X128191206Y-71600000D01*
X128348794Y-71600000D01*
X128503348Y-71630742D01*
G37*
G36*
X113830000Y-70660000D02*
G01*
X113829996Y-70660000D01*
X112230004Y-70660000D01*
X112230000Y-70660000D01*
X112230000Y-69060000D01*
X113830000Y-69060000D01*
X113830000Y-70660000D01*
G37*
G36*
X128503348Y-69090742D02*
G01*
X128503349Y-69090742D01*
X128503351Y-69090743D01*
X128648942Y-69151049D01*
X128779970Y-69238599D01*
X128891401Y-69350030D01*
X128978951Y-69481058D01*
X129039257Y-69626649D01*
X129070000Y-69781207D01*
X129070000Y-69938793D01*
X129039257Y-70093351D01*
X128978951Y-70238942D01*
X128891401Y-70369970D01*
X128779970Y-70481401D01*
X128648942Y-70568951D01*
X128503351Y-70629257D01*
X128387432Y-70652314D01*
X128348794Y-70660000D01*
X128348793Y-70660000D01*
X128191207Y-70660000D01*
X128191206Y-70660000D01*
X128139687Y-70649752D01*
X128036649Y-70629257D01*
X127891058Y-70568951D01*
X127760030Y-70481401D01*
X127648599Y-70369970D01*
X127561049Y-70238942D01*
X127500743Y-70093351D01*
X127470000Y-69938793D01*
X127470000Y-69781207D01*
X127470000Y-69781206D01*
X127500742Y-69626651D01*
X127530896Y-69553853D01*
X127561049Y-69481058D01*
X127561050Y-69481056D01*
X127648597Y-69350032D01*
X127760032Y-69238597D01*
X127891056Y-69151050D01*
X128036651Y-69090742D01*
X128191206Y-69060000D01*
X128348794Y-69060000D01*
X128503348Y-69090742D01*
G37*
G36*
X93083348Y-68020742D02*
G01*
X93083349Y-68020742D01*
X93083351Y-68020743D01*
X93228942Y-68081049D01*
X93359970Y-68168599D01*
X93471401Y-68280030D01*
X93558951Y-68411058D01*
X93619257Y-68556649D01*
X93650000Y-68711207D01*
X93650000Y-68868793D01*
X93619257Y-69023351D01*
X93558951Y-69168942D01*
X93471401Y-69299970D01*
X93359970Y-69411401D01*
X93228942Y-69498951D01*
X93083351Y-69559257D01*
X92967432Y-69582314D01*
X92928794Y-69590000D01*
X92928793Y-69590000D01*
X92771207Y-69590000D01*
X92771206Y-69590000D01*
X92719687Y-69579752D01*
X92616649Y-69559257D01*
X92471058Y-69498951D01*
X92340030Y-69411401D01*
X92228599Y-69299970D01*
X92141049Y-69168942D01*
X92080743Y-69023351D01*
X92050000Y-68868793D01*
X92050000Y-68711207D01*
X92075762Y-68581689D01*
X92080742Y-68556651D01*
X92141050Y-68411056D01*
X92228597Y-68280032D01*
X92340032Y-68168597D01*
X92471056Y-68081050D01*
X92616651Y-68020742D01*
X92771206Y-67990000D01*
X92928794Y-67990000D01*
X93083348Y-68020742D01*
G37*
G36*
X98641686Y-67328428D02*
G01*
X98641687Y-67328428D01*
X98641689Y-67328429D01*
X98823678Y-67403811D01*
X98987463Y-67513249D01*
X99126751Y-67652537D01*
X99236189Y-67816322D01*
X99311571Y-67998311D01*
X99350000Y-68191509D01*
X99350000Y-68388491D01*
X99311571Y-68581689D01*
X99236189Y-68763678D01*
X99126751Y-68927463D01*
X98987463Y-69066751D01*
X98823678Y-69176189D01*
X98641689Y-69251571D01*
X98525770Y-69274628D01*
X98448493Y-69290000D01*
X98448491Y-69290000D01*
X98251509Y-69290000D01*
X98251507Y-69290000D01*
X98154910Y-69270785D01*
X98058311Y-69251571D01*
X97876322Y-69176189D01*
X97712537Y-69066751D01*
X97573249Y-68927463D01*
X97463811Y-68763678D01*
X97388429Y-68581689D01*
X97383448Y-68556651D01*
X97350000Y-68388492D01*
X97350000Y-68191507D01*
X97388428Y-67998313D01*
X97463812Y-67816320D01*
X97573247Y-67652539D01*
X97712539Y-67513247D01*
X97876320Y-67403812D01*
X98058313Y-67328428D01*
X98251507Y-67290000D01*
X98448493Y-67290000D01*
X98641686Y-67328428D01*
G37*
G36*
X105141686Y-67328428D02*
G01*
X105141687Y-67328428D01*
X105141689Y-67328429D01*
X105323678Y-67403811D01*
X105487463Y-67513249D01*
X105626751Y-67652537D01*
X105736189Y-67816322D01*
X105811571Y-67998311D01*
X105850000Y-68191509D01*
X105850000Y-68388491D01*
X105811571Y-68581689D01*
X105736189Y-68763678D01*
X105626751Y-68927463D01*
X105487463Y-69066751D01*
X105323678Y-69176189D01*
X105141689Y-69251571D01*
X105025770Y-69274628D01*
X104948493Y-69290000D01*
X104948491Y-69290000D01*
X104751509Y-69290000D01*
X104751507Y-69290000D01*
X104654910Y-69270785D01*
X104558311Y-69251571D01*
X104376322Y-69176189D01*
X104212537Y-69066751D01*
X104073249Y-68927463D01*
X103963811Y-68763678D01*
X103888429Y-68581689D01*
X103883448Y-68556651D01*
X103850000Y-68388492D01*
X103850000Y-68191507D01*
X103888428Y-67998313D01*
X103963812Y-67816320D01*
X104073247Y-67652539D01*
X104212539Y-67513247D01*
X104376320Y-67403812D01*
X104558313Y-67328428D01*
X104751507Y-67290000D01*
X104948493Y-67290000D01*
X105141686Y-67328428D01*
G37*
G36*
X113289603Y-66464202D02*
G01*
X113451572Y-66531291D01*
X113597339Y-66628689D01*
X113721310Y-66752660D01*
X113818708Y-66898427D01*
X113885797Y-67060396D01*
X113920000Y-67232341D01*
X113920000Y-67407658D01*
X113885797Y-67579603D01*
X113818708Y-67741572D01*
X113818707Y-67741573D01*
X113721308Y-67887342D01*
X113597342Y-68011308D01*
X113597338Y-68011310D01*
X113597339Y-68011310D01*
X113451572Y-68108708D01*
X113289603Y-68175797D01*
X113117659Y-68210000D01*
X113117657Y-68210000D01*
X112942343Y-68210000D01*
X112942341Y-68210000D01*
X112770396Y-68175797D01*
X112608427Y-68108708D01*
X112462660Y-68011310D01*
X112338689Y-67887339D01*
X112241291Y-67741572D01*
X112174202Y-67579603D01*
X112140000Y-67407658D01*
X112140000Y-67232341D01*
X112174202Y-67060396D01*
X112241291Y-66898427D01*
X112338689Y-66752660D01*
X112462660Y-66628689D01*
X112608427Y-66531291D01*
X112770396Y-66464202D01*
X112942341Y-66430000D01*
X113117659Y-66430000D01*
X113289603Y-66464202D01*
G37*
G36*
X128529603Y-66464202D02*
G01*
X128691572Y-66531291D01*
X128837339Y-66628689D01*
X128961310Y-66752660D01*
X129058708Y-66898427D01*
X129125797Y-67060396D01*
X129160000Y-67232341D01*
X129160000Y-67407658D01*
X129125797Y-67579603D01*
X129058708Y-67741572D01*
X129058707Y-67741573D01*
X128961308Y-67887342D01*
X128837342Y-68011308D01*
X128837338Y-68011310D01*
X128837339Y-68011310D01*
X128691572Y-68108708D01*
X128529603Y-68175797D01*
X128357659Y-68210000D01*
X128357657Y-68210000D01*
X128182343Y-68210000D01*
X128182341Y-68210000D01*
X128010396Y-68175797D01*
X127848427Y-68108708D01*
X127702660Y-68011310D01*
X127578689Y-67887339D01*
X127481291Y-67741572D01*
X127414202Y-67579603D01*
X127380000Y-67407658D01*
X127380000Y-67232341D01*
X127414202Y-67060396D01*
X127481291Y-66898427D01*
X127578689Y-66752660D01*
X127702660Y-66628689D01*
X127848427Y-66531291D01*
X128010396Y-66464202D01*
X128182341Y-66430000D01*
X128357659Y-66430000D01*
X128529603Y-66464202D01*
G37*
G36*
X98641686Y-62828428D02*
G01*
X98641687Y-62828428D01*
X98641689Y-62828429D01*
X98823678Y-62903811D01*
X98987463Y-63013249D01*
X99126751Y-63152537D01*
X99236189Y-63316322D01*
X99311571Y-63498311D01*
X99350000Y-63691509D01*
X99350000Y-63888491D01*
X99311571Y-64081689D01*
X99236189Y-64263678D01*
X99126751Y-64427463D01*
X98987463Y-64566751D01*
X98823678Y-64676189D01*
X98641689Y-64751571D01*
X98525770Y-64774628D01*
X98448493Y-64790000D01*
X98448491Y-64790000D01*
X98251509Y-64790000D01*
X98251507Y-64790000D01*
X98154910Y-64770785D01*
X98058311Y-64751571D01*
X97876322Y-64676189D01*
X97712537Y-64566751D01*
X97573249Y-64427463D01*
X97463811Y-64263678D01*
X97388429Y-64081689D01*
X97387402Y-64076530D01*
X97350000Y-63888492D01*
X97350000Y-63691507D01*
X97388428Y-63498313D01*
X97463812Y-63316320D01*
X97573247Y-63152539D01*
X97712539Y-63013247D01*
X97876320Y-62903812D01*
X98058313Y-62828428D01*
X98251507Y-62790000D01*
X98448493Y-62790000D01*
X98641686Y-62828428D01*
G37*
G36*
X105141686Y-62828428D02*
G01*
X105141687Y-62828428D01*
X105141689Y-62828429D01*
X105323678Y-62903811D01*
X105487463Y-63013249D01*
X105626751Y-63152537D01*
X105736189Y-63316322D01*
X105811571Y-63498311D01*
X105850000Y-63691509D01*
X105850000Y-63888491D01*
X105811571Y-64081689D01*
X105736189Y-64263678D01*
X105626751Y-64427463D01*
X105487463Y-64566751D01*
X105323678Y-64676189D01*
X105141689Y-64751571D01*
X105025770Y-64774628D01*
X104948493Y-64790000D01*
X104948491Y-64790000D01*
X104751509Y-64790000D01*
X104751507Y-64790000D01*
X104654910Y-64770785D01*
X104558311Y-64751571D01*
X104376322Y-64676189D01*
X104212537Y-64566751D01*
X104073249Y-64427463D01*
X103963811Y-64263678D01*
X103888429Y-64081689D01*
X103887402Y-64076530D01*
X103850000Y-63888492D01*
X103850000Y-63691507D01*
X103888428Y-63498313D01*
X103963812Y-63316320D01*
X104073247Y-63152539D01*
X104212539Y-63013247D01*
X104376320Y-62903812D01*
X104558313Y-62828428D01*
X104751507Y-62790000D01*
X104948493Y-62790000D01*
X105141686Y-62828428D01*
G37*
G36*
X88257584Y-62427085D02*
G01*
X88422248Y-62480588D01*
X88422250Y-62480589D01*
X88422253Y-62480590D01*
X88499389Y-62519893D01*
X88576530Y-62559198D01*
X88716597Y-62660962D01*
X88839037Y-62783402D01*
X88940801Y-62923469D01*
X88940804Y-62923475D01*
X89019410Y-63077747D01*
X89019411Y-63077751D01*
X89072914Y-63242415D01*
X89100000Y-63413426D01*
X89100000Y-63586573D01*
X89072914Y-63757584D01*
X89019410Y-63922253D01*
X88940804Y-64076525D01*
X88940801Y-64076530D01*
X88873660Y-64168942D01*
X88839033Y-64216602D01*
X88716602Y-64339033D01*
X88716598Y-64339035D01*
X88716597Y-64339037D01*
X88576530Y-64440801D01*
X88576527Y-64440802D01*
X88576525Y-64440804D01*
X88422253Y-64519410D01*
X88299616Y-64559257D01*
X88257584Y-64572914D01*
X88086574Y-64600000D01*
X88086572Y-64600000D01*
X87913428Y-64600000D01*
X87913426Y-64600000D01*
X87742415Y-64572914D01*
X87656755Y-64545081D01*
X87577747Y-64519410D01*
X87423475Y-64440804D01*
X87423469Y-64440801D01*
X87283402Y-64339037D01*
X87160962Y-64216597D01*
X87059198Y-64076530D01*
X87019893Y-63999389D01*
X86980590Y-63922253D01*
X86969620Y-63888491D01*
X86927085Y-63757584D01*
X86900000Y-63586573D01*
X86900000Y-63413426D01*
X86927085Y-63242415D01*
X86980588Y-63077751D01*
X87059198Y-62923469D01*
X87160962Y-62783402D01*
X87283402Y-62660962D01*
X87423469Y-62559198D01*
X87577751Y-62480588D01*
X87742415Y-62427085D01*
X87913426Y-62400000D01*
X88086574Y-62400000D01*
X88257584Y-62427085D01*
G37*
G36*
X131257584Y-62427085D02*
G01*
X131422248Y-62480588D01*
X131422250Y-62480589D01*
X131422253Y-62480590D01*
X131499389Y-62519893D01*
X131576530Y-62559198D01*
X131716597Y-62660962D01*
X131839037Y-62783402D01*
X131940801Y-62923469D01*
X131940804Y-62923475D01*
X132019410Y-63077747D01*
X132019411Y-63077751D01*
X132072914Y-63242415D01*
X132100000Y-63413426D01*
X132100000Y-63586573D01*
X132072914Y-63757584D01*
X132019410Y-63922253D01*
X131940804Y-64076525D01*
X131940801Y-64076530D01*
X131873660Y-64168942D01*
X131839033Y-64216602D01*
X131716602Y-64339033D01*
X131716598Y-64339035D01*
X131716597Y-64339037D01*
X131576530Y-64440801D01*
X131576527Y-64440802D01*
X131576525Y-64440804D01*
X131422253Y-64519410D01*
X131299616Y-64559257D01*
X131257584Y-64572914D01*
X131086574Y-64600000D01*
X131086572Y-64600000D01*
X130913428Y-64600000D01*
X130913426Y-64600000D01*
X130742415Y-64572914D01*
X130656755Y-64545081D01*
X130577747Y-64519410D01*
X130423475Y-64440804D01*
X130423469Y-64440801D01*
X130283402Y-64339037D01*
X130160962Y-64216597D01*
X130059198Y-64076530D01*
X130019893Y-63999389D01*
X129980590Y-63922253D01*
X129969620Y-63888491D01*
X129927085Y-63757584D01*
X129900000Y-63586573D01*
X129900000Y-63413426D01*
X129927085Y-63242415D01*
X129980588Y-63077751D01*
X130059198Y-62923469D01*
X130160962Y-62783402D01*
X130283402Y-62660962D01*
X130423469Y-62559198D01*
X130577751Y-62480588D01*
X130742415Y-62427085D01*
X130913426Y-62400000D01*
X131086574Y-62400000D01*
X131257584Y-62427085D01*
G37*
G36*
X93083348Y-63020742D02*
G01*
X93083349Y-63020742D01*
X93083351Y-63020743D01*
X93228942Y-63081049D01*
X93359970Y-63168599D01*
X93471401Y-63280030D01*
X93558951Y-63411058D01*
X93619257Y-63556649D01*
X93619257Y-63556651D01*
X93646081Y-63691507D01*
X93650000Y-63711207D01*
X93650000Y-63868793D01*
X93619257Y-64023351D01*
X93558951Y-64168942D01*
X93471401Y-64299970D01*
X93359970Y-64411401D01*
X93228942Y-64498951D01*
X93083351Y-64559257D01*
X92967432Y-64582314D01*
X92928794Y-64590000D01*
X92928793Y-64590000D01*
X92771207Y-64590000D01*
X92771206Y-64590000D01*
X92719687Y-64579752D01*
X92616649Y-64559257D01*
X92471058Y-64498951D01*
X92340030Y-64411401D01*
X92228599Y-64299970D01*
X92141049Y-64168942D01*
X92080743Y-64023351D01*
X92050000Y-63868793D01*
X92050000Y-63711207D01*
X92053918Y-63691509D01*
X92080742Y-63556651D01*
X92141050Y-63411056D01*
X92228597Y-63280032D01*
X92340032Y-63168597D01*
X92471056Y-63081050D01*
X92616651Y-63020742D01*
X92771206Y-62990000D01*
X92928794Y-62990000D01*
X93083348Y-63020742D01*
G37*
M02*
