G04 #@! TF.GenerationSoftware,KiCad,Pcbnew,9.0.7*
G04 #@! TF.CreationDate,2026-02-15T18:00:25+01:00*
G04 #@! TF.ProjectId,Articulated-Robot,41727469-6375-46c6-9174-65642d526f62,rev?*
G04 #@! TF.SameCoordinates,Original*
G04 #@! TF.FileFunction,Copper,L2,Bot*
G04 #@! TF.FilePolarity,Positive*
%FSLAX46Y46*%
G04 Gerber Fmt 4.6, Leading zero omitted, Abs format (unit mm)*
G04 Created by KiCad (PCBNEW 9.0.7) date 2026-02-15 18:00:25*
%MOMM*%
%LPD*%
G01*
G04 APERTURE LIST*
G04 Aperture macros list*
%AMRoundRect*
0 Rectangle with rounded corners*
0 $1 Rounding radius*
0 $2 $3 $4 $5 $6 $7 $8 $9 X,Y pos of 4 corners*
0 Add a 4 corners polygon primitive as box body*
4,1,4,$2,$3,$4,$5,$6,$7,$8,$9,$2,$3,0*
0 Add four circle primitives for the rounded corners*
1,1,$1+$1,$2,$3*
1,1,$1+$1,$4,$5*
1,1,$1+$1,$6,$7*
1,1,$1+$1,$8,$9*
0 Add four rect primitives between the rounded corners*
20,1,$1+$1,$2,$3,$4,$5,0*
20,1,$1+$1,$4,$5,$6,$7,0*
20,1,$1+$1,$6,$7,$8,$9,0*
20,1,$1+$1,$8,$9,$2,$3,0*%
G04 Aperture macros list end*
G04 #@! TA.AperFunction,ComponentPad*
%ADD10RoundRect,0.250000X-0.550000X0.550000X-0.550000X-0.550000X0.550000X-0.550000X0.550000X0.550000X0*%
G04 #@! TD*
G04 #@! TA.AperFunction,ComponentPad*
%ADD11C,1.600000*%
G04 #@! TD*
G04 #@! TA.AperFunction,ComponentPad*
%ADD12C,3.700000*%
G04 #@! TD*
G04 #@! TA.AperFunction,ComponentPad*
%ADD13C,1.700000*%
G04 #@! TD*
G04 #@! TA.AperFunction,ComponentPad*
%ADD14R,1.700000X1.700000*%
G04 #@! TD*
G04 #@! TA.AperFunction,ComponentPad*
%ADD15C,2.000000*%
G04 #@! TD*
G04 #@! TA.AperFunction,ComponentPad*
%ADD16R,1.600000X1.600000*%
G04 #@! TD*
G04 #@! TA.AperFunction,ComponentPad*
%ADD17O,1.600000X1.600000*%
G04 #@! TD*
G04 #@! TA.AperFunction,ViaPad*
%ADD18C,0.600000*%
G04 #@! TD*
G04 #@! TA.AperFunction,Conductor*
%ADD19C,1.500000*%
G04 #@! TD*
G04 APERTURE END LIST*
D10*
X92710000Y-110155000D03*
D11*
X92710000Y-112655000D03*
D12*
X104140000Y-104140000D03*
X104140000Y-110340000D03*
X109040000Y-106840000D03*
D11*
X93330000Y-85130000D03*
X93330000Y-90130000D03*
X93330000Y-95290000D03*
X93330000Y-100290000D03*
D13*
X105410000Y-77470000D03*
X102870000Y-77470000D03*
D14*
X100330000Y-77470000D03*
D11*
X93330000Y-74970000D03*
X93330000Y-79970000D03*
D13*
X105410000Y-87630000D03*
X102870000Y-87630000D03*
D14*
X100330000Y-87630000D03*
D15*
X98350000Y-63790000D03*
X104850000Y-63790000D03*
X98350000Y-68290000D03*
X104850000Y-68290000D03*
D11*
X92850000Y-63790000D03*
X92850000Y-68790000D03*
D16*
X113030000Y-69860000D03*
D17*
X113030000Y-72400000D03*
X113030000Y-74940000D03*
X113030000Y-77480000D03*
X113030000Y-80020000D03*
X113030000Y-82560000D03*
X113030000Y-85100000D03*
X113030000Y-87640000D03*
X113030000Y-90180000D03*
X113030000Y-92720000D03*
X113030000Y-95260000D03*
X113030000Y-97800000D03*
X113030000Y-100340000D03*
X113030000Y-102880000D03*
X113030000Y-105420000D03*
X128270000Y-105420000D03*
X128270000Y-102880000D03*
X128270000Y-100340000D03*
X128270000Y-97800000D03*
X128270000Y-95260000D03*
X128270000Y-92720000D03*
X128270000Y-90180000D03*
X128270000Y-87640000D03*
X128270000Y-85100000D03*
X128270000Y-82560000D03*
X128270000Y-80020000D03*
X128270000Y-77480000D03*
X128270000Y-74940000D03*
X128270000Y-72400000D03*
X128270000Y-69860000D03*
D13*
X105410000Y-97790000D03*
X102870000Y-97790000D03*
D14*
X100330000Y-97790000D03*
D18*
X105600000Y-100900000D03*
X105600000Y-90900000D03*
X105600000Y-80500000D03*
D19*
X102870000Y-87630000D02*
X102870000Y-77470000D01*
X102870000Y-97790000D02*
X102870000Y-87630000D01*
X102870000Y-102870000D02*
X102870000Y-97790000D01*
X104140000Y-104140000D02*
X102870000Y-102870000D01*
G04 #@! TA.AperFunction,Conductor*
G36*
X133442539Y-61020185D02*
G01*
X133488294Y-61072989D01*
X133499500Y-61124500D01*
X133499500Y-120375500D01*
X133479815Y-120442539D01*
X133427011Y-120488294D01*
X133375500Y-120499500D01*
X85624500Y-120499500D01*
X85557461Y-120479815D01*
X85511706Y-120427011D01*
X85500500Y-120375500D01*
X85500500Y-117893713D01*
X86649500Y-117893713D01*
X86649500Y-118106286D01*
X86682753Y-118316239D01*
X86748444Y-118518414D01*
X86844951Y-118707820D01*
X86969890Y-118879786D01*
X87120213Y-119030109D01*
X87292179Y-119155048D01*
X87292181Y-119155049D01*
X87292184Y-119155051D01*
X87481588Y-119251557D01*
X87683757Y-119317246D01*
X87893713Y-119350500D01*
X87893714Y-119350500D01*
X88106286Y-119350500D01*
X88106287Y-119350500D01*
X88316243Y-119317246D01*
X88518412Y-119251557D01*
X88707816Y-119155051D01*
X88729789Y-119139086D01*
X88879786Y-119030109D01*
X88879788Y-119030106D01*
X88879792Y-119030104D01*
X89030104Y-118879792D01*
X89030106Y-118879788D01*
X89030109Y-118879786D01*
X89155048Y-118707820D01*
X89155047Y-118707820D01*
X89155051Y-118707816D01*
X89251557Y-118518412D01*
X89317246Y-118316243D01*
X89350500Y-118106287D01*
X89350500Y-117893713D01*
X129649500Y-117893713D01*
X129649500Y-118106286D01*
X129682753Y-118316239D01*
X129748444Y-118518414D01*
X129844951Y-118707820D01*
X129969890Y-118879786D01*
X130120213Y-119030109D01*
X130292179Y-119155048D01*
X130292181Y-119155049D01*
X130292184Y-119155051D01*
X130481588Y-119251557D01*
X130683757Y-119317246D01*
X130893713Y-119350500D01*
X130893714Y-119350500D01*
X131106286Y-119350500D01*
X131106287Y-119350500D01*
X131316243Y-119317246D01*
X131518412Y-119251557D01*
X131707816Y-119155051D01*
X131729789Y-119139086D01*
X131879786Y-119030109D01*
X131879788Y-119030106D01*
X131879792Y-119030104D01*
X132030104Y-118879792D01*
X132030106Y-118879788D01*
X132030109Y-118879786D01*
X132155048Y-118707820D01*
X132155047Y-118707820D01*
X132155051Y-118707816D01*
X132251557Y-118518412D01*
X132317246Y-118316243D01*
X132350500Y-118106287D01*
X132350500Y-117893713D01*
X132317246Y-117683757D01*
X132251557Y-117481588D01*
X132155051Y-117292184D01*
X132155049Y-117292181D01*
X132155048Y-117292179D01*
X132030109Y-117120213D01*
X131879786Y-116969890D01*
X131707820Y-116844951D01*
X131518414Y-116748444D01*
X131518413Y-116748443D01*
X131518412Y-116748443D01*
X131316243Y-116682754D01*
X131316241Y-116682753D01*
X131316240Y-116682753D01*
X131154957Y-116657208D01*
X131106287Y-116649500D01*
X130893713Y-116649500D01*
X130845042Y-116657208D01*
X130683760Y-116682753D01*
X130481585Y-116748444D01*
X130292179Y-116844951D01*
X130120213Y-116969890D01*
X129969890Y-117120213D01*
X129844951Y-117292179D01*
X129748444Y-117481585D01*
X129682753Y-117683760D01*
X129649500Y-117893713D01*
X89350500Y-117893713D01*
X89317246Y-117683757D01*
X89251557Y-117481588D01*
X89155051Y-117292184D01*
X89155049Y-117292181D01*
X89155048Y-117292179D01*
X89030109Y-117120213D01*
X88879786Y-116969890D01*
X88707820Y-116844951D01*
X88518414Y-116748444D01*
X88518413Y-116748443D01*
X88518412Y-116748443D01*
X88316243Y-116682754D01*
X88316241Y-116682753D01*
X88316240Y-116682753D01*
X88154957Y-116657208D01*
X88106287Y-116649500D01*
X87893713Y-116649500D01*
X87845042Y-116657208D01*
X87683760Y-116682753D01*
X87481585Y-116748444D01*
X87292179Y-116844951D01*
X87120213Y-116969890D01*
X86969890Y-117120213D01*
X86844951Y-117292179D01*
X86748444Y-117481585D01*
X86682753Y-117683760D01*
X86649500Y-117893713D01*
X85500500Y-117893713D01*
X85500500Y-112552682D01*
X91410000Y-112552682D01*
X91410000Y-112757317D01*
X91442009Y-112959417D01*
X91505244Y-113154031D01*
X91598141Y-113336350D01*
X91598147Y-113336359D01*
X91630523Y-113380921D01*
X91630524Y-113380922D01*
X92310000Y-112701446D01*
X92310000Y-112707661D01*
X92337259Y-112809394D01*
X92389920Y-112900606D01*
X92464394Y-112975080D01*
X92555606Y-113027741D01*
X92657339Y-113055000D01*
X92663553Y-113055000D01*
X91984076Y-113734474D01*
X92028650Y-113766859D01*
X92210968Y-113859755D01*
X92405582Y-113922990D01*
X92607683Y-113955000D01*
X92812317Y-113955000D01*
X93014417Y-113922990D01*
X93209031Y-113859755D01*
X93391349Y-113766859D01*
X93435921Y-113734474D01*
X92756447Y-113055000D01*
X92762661Y-113055000D01*
X92864394Y-113027741D01*
X92955606Y-112975080D01*
X93030080Y-112900606D01*
X93082741Y-112809394D01*
X93110000Y-112707661D01*
X93110000Y-112701447D01*
X93789474Y-113380921D01*
X93821859Y-113336349D01*
X93914755Y-113154031D01*
X93977990Y-112959417D01*
X94010000Y-112757317D01*
X94010000Y-112552682D01*
X93977990Y-112350582D01*
X93916035Y-112159909D01*
X93916034Y-112159907D01*
X93916034Y-112159905D01*
X93914755Y-112155969D01*
X93821859Y-111973650D01*
X93789474Y-111929077D01*
X93789474Y-111929076D01*
X93110000Y-112608551D01*
X93110000Y-112602339D01*
X93082741Y-112500606D01*
X93030080Y-112409394D01*
X92955606Y-112334920D01*
X92864394Y-112282259D01*
X92762661Y-112255000D01*
X92756446Y-112255000D01*
X93435922Y-111575524D01*
X93435921Y-111575523D01*
X93391359Y-111543147D01*
X93391350Y-111543141D01*
X93280769Y-111486797D01*
X93229973Y-111438822D01*
X93213178Y-111371001D01*
X93235716Y-111304866D01*
X93290431Y-111261415D01*
X93322274Y-111253197D01*
X93391564Y-111244877D01*
X93532342Y-111189361D01*
X93652922Y-111097922D01*
X93744361Y-110977342D01*
X93799877Y-110836564D01*
X93810500Y-110748102D01*
X93810500Y-110185979D01*
X101790000Y-110185979D01*
X101790000Y-110494020D01*
X101790001Y-110494037D01*
X101830208Y-110799442D01*
X101909940Y-111097003D01*
X102027821Y-111381596D01*
X102027828Y-111381611D01*
X102181853Y-111648390D01*
X102310454Y-111815988D01*
X102310456Y-111815988D01*
X102881543Y-111244901D01*
X102957726Y-111349757D01*
X103130243Y-111522274D01*
X103235097Y-111598455D01*
X102664010Y-112169542D01*
X102664010Y-112169543D01*
X102831609Y-112298146D01*
X103098388Y-112452171D01*
X103098403Y-112452178D01*
X103382996Y-112570059D01*
X103680557Y-112649791D01*
X103985962Y-112689998D01*
X103985980Y-112690000D01*
X104294020Y-112690000D01*
X104294037Y-112689998D01*
X104599442Y-112649791D01*
X104897003Y-112570059D01*
X105181596Y-112452178D01*
X105181610Y-112452171D01*
X105448391Y-112298145D01*
X105615988Y-112169542D01*
X105044901Y-111598455D01*
X105149757Y-111522274D01*
X105322274Y-111349757D01*
X105398455Y-111244901D01*
X105969542Y-111815988D01*
X106098145Y-111648391D01*
X106252171Y-111381610D01*
X106252178Y-111381596D01*
X106370059Y-111097003D01*
X106449791Y-110799442D01*
X106489998Y-110494037D01*
X106490000Y-110494020D01*
X106490000Y-110185979D01*
X106489998Y-110185962D01*
X106449791Y-109880557D01*
X106370059Y-109582996D01*
X106252178Y-109298403D01*
X106252171Y-109298388D01*
X106098146Y-109031609D01*
X105969542Y-108864010D01*
X105398455Y-109435097D01*
X105322274Y-109330243D01*
X105149757Y-109157726D01*
X105044901Y-109081543D01*
X105615988Y-108510456D01*
X105615988Y-108510454D01*
X105448390Y-108381853D01*
X105181611Y-108227828D01*
X105181596Y-108227821D01*
X104897003Y-108109940D01*
X104599442Y-108030208D01*
X104294037Y-107990001D01*
X104294020Y-107990000D01*
X103985980Y-107990000D01*
X103985962Y-107990001D01*
X103680557Y-108030208D01*
X103382996Y-108109940D01*
X103098403Y-108227821D01*
X103098388Y-108227828D01*
X102831609Y-108381853D01*
X102664010Y-108510455D01*
X102664010Y-108510456D01*
X103235098Y-109081544D01*
X103130243Y-109157726D01*
X102957726Y-109330243D01*
X102881544Y-109435098D01*
X102310456Y-108864010D01*
X102310455Y-108864010D01*
X102181853Y-109031609D01*
X102027828Y-109298388D01*
X102027821Y-109298403D01*
X101909940Y-109582996D01*
X101830208Y-109880557D01*
X101790001Y-110185962D01*
X101790000Y-110185979D01*
X93810500Y-110185979D01*
X93810500Y-109561898D01*
X93799877Y-109473436D01*
X93744361Y-109332658D01*
X93744360Y-109332657D01*
X93744360Y-109332656D01*
X93652922Y-109212077D01*
X93532343Y-109120639D01*
X93410060Y-109072417D01*
X93391564Y-109065123D01*
X93391563Y-109065122D01*
X93391561Y-109065122D01*
X93345926Y-109059642D01*
X93303102Y-109054500D01*
X92116898Y-109054500D01*
X92077853Y-109059188D01*
X92028438Y-109065122D01*
X91887656Y-109120639D01*
X91767077Y-109212077D01*
X91675639Y-109332656D01*
X91620122Y-109473438D01*
X91614188Y-109522853D01*
X91609500Y-109561898D01*
X91609500Y-110748102D01*
X91615126Y-110794954D01*
X91620122Y-110836561D01*
X91675639Y-110977343D01*
X91767077Y-111097922D01*
X91887656Y-111189360D01*
X91887657Y-111189360D01*
X91887658Y-111189361D01*
X92028436Y-111244877D01*
X92097720Y-111253197D01*
X92161933Y-111280733D01*
X92201066Y-111338615D01*
X92202694Y-111408466D01*
X92166299Y-111468108D01*
X92139230Y-111486796D01*
X92028653Y-111543138D01*
X92028645Y-111543143D01*
X91984077Y-111575523D01*
X91984077Y-111575524D01*
X92663554Y-112255000D01*
X92657339Y-112255000D01*
X92555606Y-112282259D01*
X92464394Y-112334920D01*
X92389920Y-112409394D01*
X92337259Y-112500606D01*
X92310000Y-112602339D01*
X92310000Y-112608553D01*
X91630524Y-111929077D01*
X91630523Y-111929077D01*
X91598143Y-111973644D01*
X91505244Y-112155968D01*
X91442009Y-112350582D01*
X91410000Y-112552682D01*
X85500500Y-112552682D01*
X85500500Y-106699041D01*
X106889500Y-106699041D01*
X106889500Y-106980958D01*
X106926295Y-107260439D01*
X106999259Y-107532743D01*
X107107135Y-107793179D01*
X107107140Y-107793190D01*
X107248083Y-108037309D01*
X107248088Y-108037317D01*
X107393690Y-108227068D01*
X107419704Y-108260970D01*
X107619029Y-108460295D01*
X107619033Y-108460298D01*
X107619035Y-108460300D01*
X107842683Y-108631912D01*
X107842690Y-108631916D01*
X108086809Y-108772859D01*
X108086814Y-108772861D01*
X108086817Y-108772863D01*
X108347261Y-108880742D01*
X108619558Y-108953704D01*
X108899049Y-108990500D01*
X108899056Y-108990500D01*
X109180944Y-108990500D01*
X109180951Y-108990500D01*
X109460442Y-108953704D01*
X109732739Y-108880742D01*
X109993183Y-108772863D01*
X110237317Y-108631912D01*
X110460965Y-108460300D01*
X110660300Y-108260965D01*
X110831912Y-108037317D01*
X110887058Y-107941800D01*
X110928374Y-107870241D01*
X111889500Y-107870241D01*
X111889500Y-108049758D01*
X111917583Y-108227069D01*
X111973055Y-108397797D01*
X111973057Y-108397800D01*
X112030458Y-108510456D01*
X112054559Y-108557755D01*
X112160069Y-108702980D01*
X112287019Y-108829930D01*
X112388363Y-108903559D01*
X112432248Y-108935443D01*
X112587054Y-109014321D01*
X112592202Y-109016944D01*
X112637337Y-109031609D01*
X112762932Y-109072417D01*
X112940241Y-109100500D01*
X112940242Y-109100500D01*
X113119758Y-109100500D01*
X113119759Y-109100500D01*
X113297068Y-109072417D01*
X113467800Y-109016943D01*
X113627752Y-108935443D01*
X113726072Y-108864010D01*
X113772980Y-108829930D01*
X113772982Y-108829927D01*
X113772986Y-108829925D01*
X113899925Y-108702986D01*
X113899927Y-108702982D01*
X113899930Y-108702980D01*
X113951564Y-108631910D01*
X114005443Y-108557752D01*
X114086943Y-108397800D01*
X114142417Y-108227068D01*
X114170500Y-108049759D01*
X114170500Y-107870241D01*
X127129500Y-107870241D01*
X127129500Y-108049758D01*
X127157583Y-108227069D01*
X127213055Y-108397797D01*
X127213057Y-108397800D01*
X127270458Y-108510456D01*
X127294559Y-108557755D01*
X127400069Y-108702980D01*
X127527019Y-108829930D01*
X127628363Y-108903559D01*
X127672248Y-108935443D01*
X127827054Y-109014321D01*
X127832202Y-109016944D01*
X127877337Y-109031609D01*
X128002932Y-109072417D01*
X128180241Y-109100500D01*
X128180242Y-109100500D01*
X128359758Y-109100500D01*
X128359759Y-109100500D01*
X128537068Y-109072417D01*
X128707800Y-109016943D01*
X128867752Y-108935443D01*
X128966072Y-108864010D01*
X129012980Y-108829930D01*
X129012982Y-108829927D01*
X129012986Y-108829925D01*
X129139925Y-108702986D01*
X129139927Y-108702982D01*
X129139930Y-108702980D01*
X129191564Y-108631910D01*
X129245443Y-108557752D01*
X129326943Y-108397800D01*
X129382417Y-108227068D01*
X129410500Y-108049759D01*
X129410500Y-107870241D01*
X129382417Y-107692932D01*
X129330369Y-107532743D01*
X129326944Y-107522202D01*
X129326943Y-107522200D01*
X129245443Y-107362248D01*
X129238663Y-107352916D01*
X129139930Y-107217019D01*
X129012980Y-107090069D01*
X128867755Y-106984559D01*
X128867754Y-106984558D01*
X128867752Y-106984557D01*
X128787776Y-106943807D01*
X128707797Y-106903055D01*
X128537069Y-106847583D01*
X128448413Y-106833541D01*
X128359759Y-106819500D01*
X128180241Y-106819500D01*
X128121138Y-106828861D01*
X128002930Y-106847583D01*
X127832202Y-106903055D01*
X127672244Y-106984559D01*
X127527019Y-107090069D01*
X127400069Y-107217019D01*
X127294559Y-107362244D01*
X127213055Y-107522202D01*
X127157583Y-107692930D01*
X127129500Y-107870241D01*
X114170500Y-107870241D01*
X114142417Y-107692932D01*
X114090369Y-107532743D01*
X114086944Y-107522202D01*
X114086943Y-107522200D01*
X114005443Y-107362248D01*
X113998663Y-107352916D01*
X113899930Y-107217019D01*
X113772980Y-107090069D01*
X113627755Y-106984559D01*
X113627754Y-106984558D01*
X113627752Y-106984557D01*
X113547776Y-106943807D01*
X113467797Y-106903055D01*
X113297069Y-106847583D01*
X113208413Y-106833541D01*
X113119759Y-106819500D01*
X112940241Y-106819500D01*
X112881138Y-106828861D01*
X112762930Y-106847583D01*
X112592202Y-106903055D01*
X112432244Y-106984559D01*
X112287019Y-107090069D01*
X112160069Y-107217019D01*
X112054559Y-107362244D01*
X111973055Y-107522202D01*
X111917583Y-107692930D01*
X111889500Y-107870241D01*
X110928374Y-107870241D01*
X110966983Y-107803369D01*
X110966983Y-107803368D01*
X110972858Y-107793193D01*
X110972860Y-107793187D01*
X110972863Y-107793183D01*
X111080742Y-107532739D01*
X111153704Y-107260442D01*
X111190500Y-106980951D01*
X111190500Y-106699049D01*
X111153704Y-106419558D01*
X111080742Y-106147261D01*
X110972863Y-105886817D01*
X110972861Y-105886814D01*
X110972859Y-105886809D01*
X110831916Y-105642690D01*
X110831912Y-105642683D01*
X110660300Y-105419035D01*
X110660298Y-105419033D01*
X110660295Y-105419029D01*
X110574655Y-105333389D01*
X111929500Y-105333389D01*
X111929500Y-105506610D01*
X111951051Y-105642683D01*
X111956598Y-105677701D01*
X112010127Y-105842445D01*
X112088768Y-105996788D01*
X112190586Y-106136928D01*
X112313072Y-106259414D01*
X112453212Y-106361232D01*
X112607555Y-106439873D01*
X112772299Y-106493402D01*
X112943389Y-106520500D01*
X112943390Y-106520500D01*
X113116610Y-106520500D01*
X113116611Y-106520500D01*
X113287701Y-106493402D01*
X113452445Y-106439873D01*
X113606788Y-106361232D01*
X113746928Y-106259414D01*
X113869414Y-106136928D01*
X113971232Y-105996788D01*
X114049873Y-105842445D01*
X114103402Y-105677701D01*
X114130500Y-105506611D01*
X114130500Y-105333389D01*
X127169500Y-105333389D01*
X127169500Y-105506610D01*
X127191051Y-105642683D01*
X127196598Y-105677701D01*
X127250127Y-105842445D01*
X127328768Y-105996788D01*
X127430586Y-106136928D01*
X127553072Y-106259414D01*
X127693212Y-106361232D01*
X127847555Y-106439873D01*
X128012299Y-106493402D01*
X128183389Y-106520500D01*
X128183390Y-106520500D01*
X128356610Y-106520500D01*
X128356611Y-106520500D01*
X128527701Y-106493402D01*
X128692445Y-106439873D01*
X128846788Y-106361232D01*
X128986928Y-106259414D01*
X129109414Y-106136928D01*
X129211232Y-105996788D01*
X129289873Y-105842445D01*
X129343402Y-105677701D01*
X129370500Y-105506611D01*
X129370500Y-105333389D01*
X129343402Y-105162299D01*
X129289873Y-104997555D01*
X129211232Y-104843212D01*
X129109414Y-104703072D01*
X128986928Y-104580586D01*
X128846788Y-104478768D01*
X128692445Y-104400127D01*
X128527701Y-104346598D01*
X128527699Y-104346597D01*
X128527698Y-104346597D01*
X128396271Y-104325781D01*
X128356611Y-104319500D01*
X128183389Y-104319500D01*
X128143728Y-104325781D01*
X128012302Y-104346597D01*
X127847552Y-104400128D01*
X127693211Y-104478768D01*
X127613256Y-104536859D01*
X127553072Y-104580586D01*
X127553070Y-104580588D01*
X127553069Y-104580588D01*
X127430588Y-104703069D01*
X127430588Y-104703070D01*
X127430586Y-104703072D01*
X127413713Y-104726296D01*
X127328768Y-104843211D01*
X127250128Y-104997552D01*
X127196597Y-105162302D01*
X127169500Y-105333389D01*
X114130500Y-105333389D01*
X114103402Y-105162299D01*
X114049873Y-104997555D01*
X113971232Y-104843212D01*
X113869414Y-104703072D01*
X113746928Y-104580586D01*
X113606788Y-104478768D01*
X113452445Y-104400127D01*
X113287701Y-104346598D01*
X113287699Y-104346597D01*
X113287698Y-104346597D01*
X113156271Y-104325781D01*
X113116611Y-104319500D01*
X112943389Y-104319500D01*
X112903728Y-104325781D01*
X112772302Y-104346597D01*
X112607552Y-104400128D01*
X112453211Y-104478768D01*
X112373256Y-104536859D01*
X112313072Y-104580586D01*
X112313070Y-104580588D01*
X112313069Y-104580588D01*
X112190588Y-104703069D01*
X112190588Y-104703070D01*
X112190586Y-104703072D01*
X112173713Y-104726296D01*
X112088768Y-104843211D01*
X112010128Y-104997552D01*
X111956597Y-105162302D01*
X111929500Y-105333389D01*
X110574655Y-105333389D01*
X110460970Y-105219704D01*
X110460965Y-105219700D01*
X110237317Y-105048088D01*
X110237311Y-105048084D01*
X110237309Y-105048083D01*
X109993190Y-104907140D01*
X109993179Y-104907135D01*
X109732743Y-104799259D01*
X109460439Y-104726295D01*
X109180958Y-104689500D01*
X109180951Y-104689500D01*
X108899049Y-104689500D01*
X108899041Y-104689500D01*
X108619560Y-104726295D01*
X108347256Y-104799259D01*
X108086820Y-104907135D01*
X108086809Y-104907140D01*
X107842690Y-105048083D01*
X107842682Y-105048089D01*
X107619029Y-105219704D01*
X107419704Y-105419029D01*
X107248089Y-105642682D01*
X107248083Y-105642690D01*
X107107140Y-105886809D01*
X107107135Y-105886820D01*
X106999259Y-106147256D01*
X106926295Y-106419560D01*
X106889500Y-106699041D01*
X85500500Y-106699041D01*
X85500500Y-100187682D01*
X92030000Y-100187682D01*
X92030000Y-100392317D01*
X92062009Y-100594417D01*
X92125244Y-100789031D01*
X92218141Y-100971350D01*
X92218147Y-100971359D01*
X92250523Y-101015921D01*
X92250524Y-101015922D01*
X92930000Y-100336446D01*
X92930000Y-100342661D01*
X92957259Y-100444394D01*
X93009920Y-100535606D01*
X93084394Y-100610080D01*
X93175606Y-100662741D01*
X93277339Y-100690000D01*
X93283553Y-100690000D01*
X92604076Y-101369474D01*
X92648650Y-101401859D01*
X92830968Y-101494755D01*
X93025582Y-101557990D01*
X93227683Y-101590000D01*
X93432317Y-101590000D01*
X93634417Y-101557990D01*
X93829031Y-101494755D01*
X94011349Y-101401859D01*
X94055921Y-101369474D01*
X93376447Y-100690000D01*
X93382661Y-100690000D01*
X93484394Y-100662741D01*
X93575606Y-100610080D01*
X93650080Y-100535606D01*
X93702741Y-100444394D01*
X93730000Y-100342661D01*
X93730000Y-100336448D01*
X94409474Y-101015922D01*
X94409474Y-101015921D01*
X94441859Y-100971349D01*
X94534755Y-100789031D01*
X94597990Y-100594417D01*
X94630000Y-100392317D01*
X94630000Y-100187682D01*
X94597990Y-99985582D01*
X94534755Y-99790968D01*
X94441859Y-99608650D01*
X94409474Y-99564077D01*
X94409474Y-99564076D01*
X93730000Y-100243551D01*
X93730000Y-100237339D01*
X93702741Y-100135606D01*
X93650080Y-100044394D01*
X93575606Y-99969920D01*
X93484394Y-99917259D01*
X93382661Y-99890000D01*
X93376446Y-99890000D01*
X94055922Y-99210524D01*
X94055921Y-99210523D01*
X94011359Y-99178147D01*
X94011350Y-99178141D01*
X93829031Y-99085244D01*
X93634417Y-99022009D01*
X93432317Y-98990000D01*
X93227683Y-98990000D01*
X93025582Y-99022009D01*
X92830968Y-99085244D01*
X92648644Y-99178143D01*
X92604077Y-99210523D01*
X92604077Y-99210524D01*
X93283554Y-99890000D01*
X93277339Y-99890000D01*
X93175606Y-99917259D01*
X93084394Y-99969920D01*
X93009920Y-100044394D01*
X92957259Y-100135606D01*
X92930000Y-100237339D01*
X92930000Y-100243553D01*
X92250524Y-99564077D01*
X92250523Y-99564077D01*
X92218143Y-99608644D01*
X92125244Y-99790968D01*
X92062009Y-99985582D01*
X92030000Y-100187682D01*
X85500500Y-100187682D01*
X85500500Y-95203389D01*
X92229500Y-95203389D01*
X92229500Y-95376611D01*
X92256598Y-95547701D01*
X92310127Y-95712445D01*
X92388768Y-95866788D01*
X92490586Y-96006928D01*
X92613072Y-96129414D01*
X92753212Y-96231232D01*
X92907555Y-96309873D01*
X93072299Y-96363402D01*
X93243389Y-96390500D01*
X93243390Y-96390500D01*
X93416610Y-96390500D01*
X93416611Y-96390500D01*
X93587701Y-96363402D01*
X93752445Y-96309873D01*
X93906788Y-96231232D01*
X94046928Y-96129414D01*
X94169414Y-96006928D01*
X94271232Y-95866788D01*
X94349873Y-95712445D01*
X94403402Y-95547701D01*
X94430500Y-95376611D01*
X94430500Y-95203389D01*
X94403402Y-95032299D01*
X94349873Y-94867555D01*
X94271232Y-94713212D01*
X94169414Y-94573072D01*
X94046928Y-94450586D01*
X93906788Y-94348768D01*
X93752445Y-94270127D01*
X93587701Y-94216598D01*
X93587699Y-94216597D01*
X93587698Y-94216597D01*
X93456271Y-94195781D01*
X93416611Y-94189500D01*
X93243389Y-94189500D01*
X93203728Y-94195781D01*
X93072302Y-94216597D01*
X92907552Y-94270128D01*
X92753211Y-94348768D01*
X92673256Y-94406859D01*
X92613072Y-94450586D01*
X92613070Y-94450588D01*
X92613069Y-94450588D01*
X92490588Y-94573069D01*
X92490588Y-94573070D01*
X92490586Y-94573072D01*
X92446859Y-94633256D01*
X92388768Y-94713211D01*
X92310128Y-94867552D01*
X92256597Y-95032302D01*
X92229500Y-95203389D01*
X85500500Y-95203389D01*
X85500500Y-90027682D01*
X92030000Y-90027682D01*
X92030000Y-90232317D01*
X92062009Y-90434417D01*
X92125244Y-90629031D01*
X92218141Y-90811350D01*
X92218147Y-90811359D01*
X92250523Y-90855921D01*
X92250524Y-90855922D01*
X92930000Y-90176446D01*
X92930000Y-90182661D01*
X92957259Y-90284394D01*
X93009920Y-90375606D01*
X93084394Y-90450080D01*
X93175606Y-90502741D01*
X93277339Y-90530000D01*
X93283553Y-90530000D01*
X92604076Y-91209474D01*
X92648650Y-91241859D01*
X92830968Y-91334755D01*
X93025582Y-91397990D01*
X93227683Y-91430000D01*
X93432317Y-91430000D01*
X93634417Y-91397990D01*
X93829031Y-91334755D01*
X94011349Y-91241859D01*
X94055921Y-91209474D01*
X93376447Y-90530000D01*
X93382661Y-90530000D01*
X93484394Y-90502741D01*
X93575606Y-90450080D01*
X93650080Y-90375606D01*
X93702741Y-90284394D01*
X93730000Y-90182661D01*
X93730000Y-90176448D01*
X94409474Y-90855922D01*
X94409474Y-90855921D01*
X94441859Y-90811349D01*
X94534755Y-90629031D01*
X94597990Y-90434417D01*
X94630000Y-90232317D01*
X94630000Y-90027682D01*
X94597990Y-89825582D01*
X94534755Y-89630968D01*
X94441859Y-89448650D01*
X94409474Y-89404077D01*
X94409474Y-89404076D01*
X93730000Y-90083551D01*
X93730000Y-90077339D01*
X93702741Y-89975606D01*
X93650080Y-89884394D01*
X93575606Y-89809920D01*
X93484394Y-89757259D01*
X93382661Y-89730000D01*
X93376446Y-89730000D01*
X94055922Y-89050524D01*
X94055921Y-89050523D01*
X94011359Y-89018147D01*
X94011350Y-89018141D01*
X93829031Y-88925244D01*
X93634417Y-88862009D01*
X93432317Y-88830000D01*
X93227683Y-88830000D01*
X93025582Y-88862009D01*
X92830968Y-88925244D01*
X92648644Y-89018143D01*
X92604077Y-89050523D01*
X92604077Y-89050524D01*
X93283554Y-89730000D01*
X93277339Y-89730000D01*
X93175606Y-89757259D01*
X93084394Y-89809920D01*
X93009920Y-89884394D01*
X92957259Y-89975606D01*
X92930000Y-90077339D01*
X92930000Y-90083553D01*
X92250524Y-89404077D01*
X92250523Y-89404077D01*
X92218143Y-89448644D01*
X92125244Y-89630968D01*
X92062009Y-89825582D01*
X92030000Y-90027682D01*
X85500500Y-90027682D01*
X85500500Y-85043389D01*
X92229500Y-85043389D01*
X92229500Y-85216611D01*
X92256598Y-85387701D01*
X92310127Y-85552445D01*
X92388768Y-85706788D01*
X92490586Y-85846928D01*
X92613072Y-85969414D01*
X92753212Y-86071232D01*
X92907555Y-86149873D01*
X93072299Y-86203402D01*
X93243389Y-86230500D01*
X93243390Y-86230500D01*
X93416610Y-86230500D01*
X93416611Y-86230500D01*
X93587701Y-86203402D01*
X93752445Y-86149873D01*
X93906788Y-86071232D01*
X94046928Y-85969414D01*
X94169414Y-85846928D01*
X94271232Y-85706788D01*
X94349873Y-85552445D01*
X94403402Y-85387701D01*
X94430500Y-85216611D01*
X94430500Y-85043389D01*
X94403402Y-84872299D01*
X94349873Y-84707555D01*
X94271232Y-84553212D01*
X94169414Y-84413072D01*
X94046928Y-84290586D01*
X93906788Y-84188768D01*
X93752445Y-84110127D01*
X93587701Y-84056598D01*
X93587699Y-84056597D01*
X93587698Y-84056597D01*
X93456271Y-84035781D01*
X93416611Y-84029500D01*
X93243389Y-84029500D01*
X93203728Y-84035781D01*
X93072302Y-84056597D01*
X92907552Y-84110128D01*
X92753211Y-84188768D01*
X92673256Y-84246859D01*
X92613072Y-84290586D01*
X92613070Y-84290588D01*
X92613069Y-84290588D01*
X92490588Y-84413069D01*
X92490588Y-84413070D01*
X92490586Y-84413072D01*
X92446859Y-84473256D01*
X92388768Y-84553211D01*
X92310128Y-84707552D01*
X92256597Y-84872302D01*
X92229500Y-85043389D01*
X85500500Y-85043389D01*
X85500500Y-79867682D01*
X92030000Y-79867682D01*
X92030000Y-80072317D01*
X92062009Y-80274417D01*
X92125244Y-80469031D01*
X92218141Y-80651350D01*
X92218147Y-80651359D01*
X92250523Y-80695921D01*
X92250524Y-80695922D01*
X92930000Y-80016446D01*
X92930000Y-80022661D01*
X92957259Y-80124394D01*
X93009920Y-80215606D01*
X93084394Y-80290080D01*
X93175606Y-80342741D01*
X93277339Y-80370000D01*
X93283553Y-80370000D01*
X92604076Y-81049474D01*
X92648650Y-81081859D01*
X92830968Y-81174755D01*
X93025582Y-81237990D01*
X93227683Y-81270000D01*
X93432317Y-81270000D01*
X93634417Y-81237990D01*
X93829031Y-81174755D01*
X94011349Y-81081859D01*
X94055921Y-81049474D01*
X93376447Y-80370000D01*
X93382661Y-80370000D01*
X93484394Y-80342741D01*
X93575606Y-80290080D01*
X93650080Y-80215606D01*
X93702741Y-80124394D01*
X93730000Y-80022661D01*
X93730000Y-80016448D01*
X94409474Y-80695922D01*
X94409474Y-80695921D01*
X94441859Y-80651349D01*
X94534755Y-80469031D01*
X94597990Y-80274417D01*
X94630000Y-80072317D01*
X94630000Y-79867682D01*
X94597990Y-79665582D01*
X94534755Y-79470968D01*
X94441859Y-79288650D01*
X94409474Y-79244077D01*
X94409474Y-79244076D01*
X93730000Y-79923551D01*
X93730000Y-79917339D01*
X93702741Y-79815606D01*
X93650080Y-79724394D01*
X93575606Y-79649920D01*
X93484394Y-79597259D01*
X93382661Y-79570000D01*
X93376446Y-79570000D01*
X94055922Y-78890524D01*
X94055921Y-78890523D01*
X94011359Y-78858147D01*
X94011350Y-78858141D01*
X93829031Y-78765244D01*
X93634417Y-78702009D01*
X93432317Y-78670000D01*
X93227683Y-78670000D01*
X93025582Y-78702009D01*
X92830968Y-78765244D01*
X92648644Y-78858143D01*
X92604077Y-78890523D01*
X92604077Y-78890524D01*
X93283554Y-79570000D01*
X93277339Y-79570000D01*
X93175606Y-79597259D01*
X93084394Y-79649920D01*
X93009920Y-79724394D01*
X92957259Y-79815606D01*
X92930000Y-79917339D01*
X92930000Y-79923553D01*
X92250524Y-79244077D01*
X92250523Y-79244077D01*
X92218143Y-79288644D01*
X92125244Y-79470968D01*
X92062009Y-79665582D01*
X92030000Y-79867682D01*
X85500500Y-79867682D01*
X85500500Y-76575131D01*
X99179500Y-76575131D01*
X99179500Y-78364856D01*
X99179502Y-78364882D01*
X99182413Y-78389987D01*
X99182415Y-78389991D01*
X99227793Y-78492764D01*
X99227794Y-78492765D01*
X99307235Y-78572206D01*
X99410009Y-78617585D01*
X99435135Y-78620500D01*
X101224864Y-78620499D01*
X101224879Y-78620497D01*
X101224882Y-78620497D01*
X101249987Y-78617586D01*
X101249988Y-78617585D01*
X101249991Y-78617585D01*
X101352765Y-78572206D01*
X101432206Y-78492765D01*
X101477585Y-78389991D01*
X101480500Y-78364865D01*
X101480499Y-77627125D01*
X101500183Y-77560089D01*
X101552987Y-77514334D01*
X101622146Y-77504390D01*
X101685702Y-77533415D01*
X101723476Y-77592193D01*
X101726972Y-77607729D01*
X101747829Y-77739410D01*
X101800801Y-77902445D01*
X101803789Y-77911639D01*
X101805984Y-77915946D01*
X101819500Y-77972242D01*
X101819500Y-87127756D01*
X101805987Y-87184047D01*
X101803787Y-87188363D01*
X101747829Y-87360589D01*
X101726972Y-87492271D01*
X101697042Y-87555405D01*
X101637731Y-87592336D01*
X101567868Y-87591338D01*
X101509636Y-87552728D01*
X101481522Y-87488764D01*
X101480499Y-87472872D01*
X101480499Y-86735143D01*
X101480499Y-86735136D01*
X101480497Y-86735117D01*
X101477586Y-86710012D01*
X101477585Y-86710010D01*
X101477585Y-86710009D01*
X101432206Y-86607235D01*
X101352765Y-86527794D01*
X101352763Y-86527793D01*
X101249992Y-86482415D01*
X101224865Y-86479500D01*
X99435143Y-86479500D01*
X99435117Y-86479502D01*
X99410012Y-86482413D01*
X99410008Y-86482415D01*
X99307235Y-86527793D01*
X99227794Y-86607234D01*
X99182415Y-86710006D01*
X99182415Y-86710008D01*
X99179500Y-86735131D01*
X99179500Y-88524856D01*
X99179502Y-88524882D01*
X99182413Y-88549987D01*
X99182415Y-88549991D01*
X99227793Y-88652764D01*
X99227794Y-88652765D01*
X99307235Y-88732206D01*
X99410009Y-88777585D01*
X99435135Y-88780500D01*
X101224864Y-88780499D01*
X101224879Y-88780497D01*
X101224882Y-88780497D01*
X101249987Y-88777586D01*
X101249988Y-88777585D01*
X101249991Y-88777585D01*
X101352765Y-88732206D01*
X101432206Y-88652765D01*
X101477585Y-88549991D01*
X101480500Y-88524865D01*
X101480499Y-87787125D01*
X101500183Y-87720089D01*
X101552987Y-87674334D01*
X101622146Y-87664390D01*
X101685702Y-87693415D01*
X101723476Y-87752193D01*
X101726972Y-87767729D01*
X101747829Y-87899410D01*
X101800801Y-88062445D01*
X101803789Y-88071639D01*
X101805984Y-88075946D01*
X101819500Y-88132242D01*
X101819500Y-97287756D01*
X101805987Y-97344047D01*
X101803787Y-97348363D01*
X101747829Y-97520589D01*
X101726972Y-97652271D01*
X101697042Y-97715405D01*
X101637731Y-97752336D01*
X101567868Y-97751338D01*
X101509636Y-97712728D01*
X101481522Y-97648764D01*
X101480499Y-97632872D01*
X101480499Y-96895143D01*
X101480499Y-96895136D01*
X101480497Y-96895117D01*
X101477586Y-96870012D01*
X101477585Y-96870010D01*
X101477585Y-96870009D01*
X101432206Y-96767235D01*
X101352765Y-96687794D01*
X101352763Y-96687793D01*
X101249992Y-96642415D01*
X101224865Y-96639500D01*
X99435143Y-96639500D01*
X99435117Y-96639502D01*
X99410012Y-96642413D01*
X99410008Y-96642415D01*
X99307235Y-96687793D01*
X99227794Y-96767234D01*
X99182415Y-96870006D01*
X99182415Y-96870008D01*
X99179500Y-96895131D01*
X99179500Y-98684856D01*
X99179502Y-98684882D01*
X99182413Y-98709987D01*
X99182415Y-98709991D01*
X99227793Y-98812764D01*
X99227794Y-98812765D01*
X99307235Y-98892206D01*
X99410009Y-98937585D01*
X99435135Y-98940500D01*
X101224864Y-98940499D01*
X101224879Y-98940497D01*
X101224882Y-98940497D01*
X101249987Y-98937586D01*
X101249988Y-98937585D01*
X101249991Y-98937585D01*
X101352765Y-98892206D01*
X101432206Y-98812765D01*
X101477585Y-98709991D01*
X101480500Y-98684865D01*
X101480499Y-97947125D01*
X101500183Y-97880089D01*
X101552987Y-97834334D01*
X101622146Y-97824390D01*
X101685702Y-97853415D01*
X101723476Y-97912193D01*
X101726972Y-97927729D01*
X101747829Y-98059410D01*
X101800801Y-98222445D01*
X101803789Y-98231639D01*
X101805984Y-98235946D01*
X101819500Y-98292242D01*
X101819500Y-102973469D01*
X101859868Y-103176412D01*
X101859870Y-103176420D01*
X101939059Y-103367599D01*
X102037425Y-103514815D01*
X102058303Y-103581492D01*
X102054098Y-103615797D01*
X102026296Y-103719558D01*
X102026296Y-103719560D01*
X102026295Y-103719566D01*
X101989500Y-103999041D01*
X101989500Y-104280958D01*
X102026295Y-104560439D01*
X102099259Y-104832743D01*
X102207135Y-105093179D01*
X102207140Y-105093190D01*
X102345820Y-105333389D01*
X102348088Y-105337317D01*
X102410793Y-105419035D01*
X102519704Y-105560970D01*
X102719029Y-105760295D01*
X102719033Y-105760298D01*
X102719035Y-105760300D01*
X102942683Y-105931912D01*
X102942690Y-105931916D01*
X103186809Y-106072859D01*
X103186814Y-106072861D01*
X103186817Y-106072863D01*
X103447261Y-106180742D01*
X103719558Y-106253704D01*
X103999049Y-106290500D01*
X103999056Y-106290500D01*
X104280944Y-106290500D01*
X104280951Y-106290500D01*
X104560442Y-106253704D01*
X104832739Y-106180742D01*
X105093183Y-106072863D01*
X105337317Y-105931912D01*
X105560965Y-105760300D01*
X105760300Y-105560965D01*
X105931912Y-105337317D01*
X106072863Y-105093183D01*
X106180742Y-104832739D01*
X106253704Y-104560442D01*
X106290500Y-104280951D01*
X106290500Y-103999049D01*
X106253704Y-103719558D01*
X106180742Y-103447261D01*
X106072863Y-103186817D01*
X106072861Y-103186814D01*
X106072859Y-103186809D01*
X105931916Y-102942690D01*
X105931912Y-102942683D01*
X105817354Y-102793389D01*
X111929500Y-102793389D01*
X111929500Y-102966611D01*
X111956598Y-103137701D01*
X112010127Y-103302445D01*
X112088768Y-103456788D01*
X112190586Y-103596928D01*
X112313072Y-103719414D01*
X112453212Y-103821232D01*
X112607555Y-103899873D01*
X112772299Y-103953402D01*
X112943389Y-103980500D01*
X112943390Y-103980500D01*
X113116610Y-103980500D01*
X113116611Y-103980500D01*
X113287701Y-103953402D01*
X113452445Y-103899873D01*
X113606788Y-103821232D01*
X113746928Y-103719414D01*
X113869414Y-103596928D01*
X113971232Y-103456788D01*
X114049873Y-103302445D01*
X114103402Y-103137701D01*
X114130500Y-102966611D01*
X114130500Y-102793389D01*
X127169500Y-102793389D01*
X127169500Y-102966611D01*
X127196598Y-103137701D01*
X127250127Y-103302445D01*
X127328768Y-103456788D01*
X127430586Y-103596928D01*
X127553072Y-103719414D01*
X127693212Y-103821232D01*
X127847555Y-103899873D01*
X128012299Y-103953402D01*
X128183389Y-103980500D01*
X128183390Y-103980500D01*
X128356610Y-103980500D01*
X128356611Y-103980500D01*
X128527701Y-103953402D01*
X128692445Y-103899873D01*
X128846788Y-103821232D01*
X128986928Y-103719414D01*
X129109414Y-103596928D01*
X129211232Y-103456788D01*
X129289873Y-103302445D01*
X129343402Y-103137701D01*
X129370500Y-102966611D01*
X129370500Y-102793389D01*
X129343402Y-102622299D01*
X129289873Y-102457555D01*
X129211232Y-102303212D01*
X129109414Y-102163072D01*
X128986928Y-102040586D01*
X128846788Y-101938768D01*
X128692445Y-101860127D01*
X128527701Y-101806598D01*
X128527699Y-101806597D01*
X128527698Y-101806597D01*
X128396271Y-101785781D01*
X128356611Y-101779500D01*
X128183389Y-101779500D01*
X128143728Y-101785781D01*
X128012302Y-101806597D01*
X127847552Y-101860128D01*
X127693211Y-101938768D01*
X127613256Y-101996859D01*
X127553072Y-102040586D01*
X127553070Y-102040588D01*
X127553069Y-102040588D01*
X127430588Y-102163069D01*
X127430588Y-102163070D01*
X127430586Y-102163072D01*
X127398572Y-102207135D01*
X127328768Y-102303211D01*
X127250128Y-102457552D01*
X127196597Y-102622302D01*
X127169500Y-102793389D01*
X114130500Y-102793389D01*
X114103402Y-102622299D01*
X114049873Y-102457555D01*
X113971232Y-102303212D01*
X113869414Y-102163072D01*
X113746928Y-102040586D01*
X113606788Y-101938768D01*
X113452445Y-101860127D01*
X113287701Y-101806598D01*
X113287699Y-101806597D01*
X113287698Y-101806597D01*
X113156271Y-101785781D01*
X113116611Y-101779500D01*
X112943389Y-101779500D01*
X112903728Y-101785781D01*
X112772302Y-101806597D01*
X112607552Y-101860128D01*
X112453211Y-101938768D01*
X112373256Y-101996859D01*
X112313072Y-102040586D01*
X112313070Y-102040588D01*
X112313069Y-102040588D01*
X112190588Y-102163069D01*
X112190588Y-102163070D01*
X112190586Y-102163072D01*
X112158572Y-102207135D01*
X112088768Y-102303211D01*
X112010128Y-102457552D01*
X111956597Y-102622302D01*
X111929500Y-102793389D01*
X105817354Y-102793389D01*
X105760300Y-102719035D01*
X105760298Y-102719033D01*
X105760295Y-102719029D01*
X105560970Y-102519704D01*
X105479976Y-102457555D01*
X105337317Y-102348088D01*
X105337311Y-102348084D01*
X105337309Y-102348083D01*
X105093190Y-102207140D01*
X105093179Y-102207135D01*
X104832743Y-102099259D01*
X104560439Y-102026295D01*
X104280958Y-101989500D01*
X104280951Y-101989500D01*
X104044500Y-101989500D01*
X103977461Y-101969815D01*
X103931706Y-101917011D01*
X103920500Y-101865500D01*
X103920500Y-100253389D01*
X111929500Y-100253389D01*
X111929500Y-100426611D01*
X111956598Y-100597701D01*
X112010127Y-100762445D01*
X112088768Y-100916788D01*
X112190586Y-101056928D01*
X112313072Y-101179414D01*
X112453212Y-101281232D01*
X112607555Y-101359873D01*
X112772299Y-101413402D01*
X112943389Y-101440500D01*
X112943390Y-101440500D01*
X113116610Y-101440500D01*
X113116611Y-101440500D01*
X113287701Y-101413402D01*
X113452445Y-101359873D01*
X113606788Y-101281232D01*
X113746928Y-101179414D01*
X113869414Y-101056928D01*
X113971232Y-100916788D01*
X114049873Y-100762445D01*
X114103402Y-100597701D01*
X114130500Y-100426611D01*
X114130500Y-100253389D01*
X127169500Y-100253389D01*
X127169500Y-100426611D01*
X127196598Y-100597701D01*
X127250127Y-100762445D01*
X127328768Y-100916788D01*
X127430586Y-101056928D01*
X127553072Y-101179414D01*
X127693212Y-101281232D01*
X127847555Y-101359873D01*
X128012299Y-101413402D01*
X128183389Y-101440500D01*
X128183390Y-101440500D01*
X128356610Y-101440500D01*
X128356611Y-101440500D01*
X128527701Y-101413402D01*
X128692445Y-101359873D01*
X128846788Y-101281232D01*
X128986928Y-101179414D01*
X129109414Y-101056928D01*
X129211232Y-100916788D01*
X129289873Y-100762445D01*
X129343402Y-100597701D01*
X129370500Y-100426611D01*
X129370500Y-100253389D01*
X129343402Y-100082299D01*
X129289873Y-99917555D01*
X129211232Y-99763212D01*
X129109414Y-99623072D01*
X128986928Y-99500586D01*
X128846788Y-99398768D01*
X128692445Y-99320127D01*
X128527701Y-99266598D01*
X128527699Y-99266597D01*
X128527698Y-99266597D01*
X128396271Y-99245781D01*
X128356611Y-99239500D01*
X128183389Y-99239500D01*
X128143728Y-99245781D01*
X128012302Y-99266597D01*
X127847552Y-99320128D01*
X127693211Y-99398768D01*
X127613256Y-99456859D01*
X127553072Y-99500586D01*
X127553070Y-99500588D01*
X127553069Y-99500588D01*
X127430588Y-99623069D01*
X127430588Y-99623070D01*
X127430586Y-99623072D01*
X127386859Y-99683256D01*
X127328768Y-99763211D01*
X127250128Y-99917552D01*
X127196597Y-100082302D01*
X127188155Y-100135606D01*
X127169500Y-100253389D01*
X114130500Y-100253389D01*
X114103402Y-100082299D01*
X114049873Y-99917555D01*
X113971232Y-99763212D01*
X113869414Y-99623072D01*
X113746928Y-99500586D01*
X113606788Y-99398768D01*
X113452445Y-99320127D01*
X113287701Y-99266598D01*
X113287699Y-99266597D01*
X113287698Y-99266597D01*
X113156271Y-99245781D01*
X113116611Y-99239500D01*
X112943389Y-99239500D01*
X112903728Y-99245781D01*
X112772302Y-99266597D01*
X112607552Y-99320128D01*
X112453211Y-99398768D01*
X112373256Y-99456859D01*
X112313072Y-99500586D01*
X112313070Y-99500588D01*
X112313069Y-99500588D01*
X112190588Y-99623069D01*
X112190588Y-99623070D01*
X112190586Y-99623072D01*
X112146859Y-99683256D01*
X112088768Y-99763211D01*
X112010128Y-99917552D01*
X111956597Y-100082302D01*
X111948155Y-100135606D01*
X111929500Y-100253389D01*
X103920500Y-100253389D01*
X103920500Y-98356048D01*
X103940185Y-98289009D01*
X103992989Y-98243254D01*
X104062147Y-98233310D01*
X104125703Y-98262335D01*
X104155938Y-98304264D01*
X104156694Y-98303879D01*
X104255375Y-98497550D01*
X104294728Y-98551716D01*
X104927037Y-97919408D01*
X104944075Y-97982993D01*
X105009901Y-98097007D01*
X105102993Y-98190099D01*
X105217007Y-98255925D01*
X105280590Y-98272962D01*
X104648282Y-98905269D01*
X104648282Y-98905270D01*
X104702449Y-98944624D01*
X104891782Y-99041095D01*
X105093870Y-99106757D01*
X105303754Y-99140000D01*
X105516246Y-99140000D01*
X105726127Y-99106757D01*
X105726130Y-99106757D01*
X105928217Y-99041095D01*
X106117554Y-98944622D01*
X106171716Y-98905270D01*
X106171717Y-98905270D01*
X105539408Y-98272962D01*
X105602993Y-98255925D01*
X105717007Y-98190099D01*
X105810099Y-98097007D01*
X105875925Y-97982993D01*
X105892962Y-97919408D01*
X106525270Y-98551717D01*
X106525270Y-98551716D01*
X106564622Y-98497554D01*
X106661095Y-98308217D01*
X106726757Y-98106130D01*
X106726757Y-98106127D01*
X106760000Y-97896246D01*
X106760000Y-97713389D01*
X111929500Y-97713389D01*
X111929500Y-97886611D01*
X111956598Y-98057701D01*
X112010127Y-98222445D01*
X112088768Y-98376788D01*
X112190586Y-98516928D01*
X112313072Y-98639414D01*
X112453212Y-98741232D01*
X112607555Y-98819873D01*
X112772299Y-98873402D01*
X112943389Y-98900500D01*
X112943390Y-98900500D01*
X113116610Y-98900500D01*
X113116611Y-98900500D01*
X113287701Y-98873402D01*
X113452445Y-98819873D01*
X113606788Y-98741232D01*
X113746928Y-98639414D01*
X113869414Y-98516928D01*
X113971232Y-98376788D01*
X114049873Y-98222445D01*
X114103402Y-98057701D01*
X114130500Y-97886611D01*
X114130500Y-97713389D01*
X127169500Y-97713389D01*
X127169500Y-97886611D01*
X127196598Y-98057701D01*
X127250127Y-98222445D01*
X127328768Y-98376788D01*
X127430586Y-98516928D01*
X127553072Y-98639414D01*
X127693212Y-98741232D01*
X127847555Y-98819873D01*
X128012299Y-98873402D01*
X128183389Y-98900500D01*
X128183390Y-98900500D01*
X128356610Y-98900500D01*
X128356611Y-98900500D01*
X128527701Y-98873402D01*
X128692445Y-98819873D01*
X128846788Y-98741232D01*
X128986928Y-98639414D01*
X129109414Y-98516928D01*
X129211232Y-98376788D01*
X129289873Y-98222445D01*
X129343402Y-98057701D01*
X129370500Y-97886611D01*
X129370500Y-97713389D01*
X129343402Y-97542299D01*
X129289873Y-97377555D01*
X129211232Y-97223212D01*
X129109414Y-97083072D01*
X128986928Y-96960586D01*
X128846788Y-96858768D01*
X128692445Y-96780127D01*
X128527701Y-96726598D01*
X128527699Y-96726597D01*
X128527698Y-96726597D01*
X128396271Y-96705781D01*
X128356611Y-96699500D01*
X128183389Y-96699500D01*
X128143728Y-96705781D01*
X128012302Y-96726597D01*
X127847552Y-96780128D01*
X127693211Y-96858768D01*
X127643157Y-96895135D01*
X127553072Y-96960586D01*
X127553070Y-96960588D01*
X127553069Y-96960588D01*
X127430588Y-97083069D01*
X127430588Y-97083070D01*
X127430586Y-97083072D01*
X127386859Y-97143256D01*
X127328768Y-97223211D01*
X127250128Y-97377552D01*
X127196597Y-97542302D01*
X127179180Y-97652271D01*
X127169500Y-97713389D01*
X114130500Y-97713389D01*
X114103402Y-97542299D01*
X114049873Y-97377555D01*
X113971232Y-97223212D01*
X113869414Y-97083072D01*
X113746928Y-96960586D01*
X113606788Y-96858768D01*
X113452445Y-96780127D01*
X113287701Y-96726598D01*
X113287699Y-96726597D01*
X113287698Y-96726597D01*
X113156271Y-96705781D01*
X113116611Y-96699500D01*
X112943389Y-96699500D01*
X112903728Y-96705781D01*
X112772302Y-96726597D01*
X112607552Y-96780128D01*
X112453211Y-96858768D01*
X112403157Y-96895135D01*
X112313072Y-96960586D01*
X112313070Y-96960588D01*
X112313069Y-96960588D01*
X112190588Y-97083069D01*
X112190588Y-97083070D01*
X112190586Y-97083072D01*
X112146859Y-97143256D01*
X112088768Y-97223211D01*
X112010128Y-97377552D01*
X111956597Y-97542302D01*
X111939180Y-97652271D01*
X111929500Y-97713389D01*
X106760000Y-97713389D01*
X106760000Y-97683753D01*
X106726757Y-97473872D01*
X106726757Y-97473869D01*
X106661095Y-97271782D01*
X106564624Y-97082449D01*
X106525270Y-97028282D01*
X106525269Y-97028282D01*
X105892962Y-97660590D01*
X105875925Y-97597007D01*
X105810099Y-97482993D01*
X105717007Y-97389901D01*
X105602993Y-97324075D01*
X105539409Y-97307037D01*
X106171716Y-96674728D01*
X106117550Y-96635375D01*
X105928217Y-96538904D01*
X105726129Y-96473242D01*
X105516246Y-96440000D01*
X105303754Y-96440000D01*
X105093872Y-96473242D01*
X105093869Y-96473242D01*
X104891782Y-96538904D01*
X104702439Y-96635380D01*
X104648282Y-96674727D01*
X104648282Y-96674728D01*
X105280591Y-97307037D01*
X105217007Y-97324075D01*
X105102993Y-97389901D01*
X105009901Y-97482993D01*
X104944075Y-97597007D01*
X104927037Y-97660591D01*
X104294728Y-97028282D01*
X104294727Y-97028282D01*
X104255380Y-97082439D01*
X104156694Y-97276121D01*
X104155678Y-97275603D01*
X104115212Y-97325813D01*
X104048916Y-97347872D01*
X103981218Y-97330588D01*
X103933612Y-97279447D01*
X103920500Y-97223951D01*
X103920500Y-95173389D01*
X111929500Y-95173389D01*
X111929500Y-95346611D01*
X111956598Y-95517701D01*
X112010127Y-95682445D01*
X112088768Y-95836788D01*
X112190586Y-95976928D01*
X112313072Y-96099414D01*
X112453212Y-96201232D01*
X112607555Y-96279873D01*
X112772299Y-96333402D01*
X112943389Y-96360500D01*
X112943390Y-96360500D01*
X113116610Y-96360500D01*
X113116611Y-96360500D01*
X113287701Y-96333402D01*
X113452445Y-96279873D01*
X113606788Y-96201232D01*
X113746928Y-96099414D01*
X113869414Y-95976928D01*
X113971232Y-95836788D01*
X114049873Y-95682445D01*
X114103402Y-95517701D01*
X114130500Y-95346611D01*
X114130500Y-95173389D01*
X127169500Y-95173389D01*
X127169500Y-95346611D01*
X127196598Y-95517701D01*
X127250127Y-95682445D01*
X127328768Y-95836788D01*
X127430586Y-95976928D01*
X127553072Y-96099414D01*
X127693212Y-96201232D01*
X127847555Y-96279873D01*
X128012299Y-96333402D01*
X128183389Y-96360500D01*
X128183390Y-96360500D01*
X128356610Y-96360500D01*
X128356611Y-96360500D01*
X128527701Y-96333402D01*
X128692445Y-96279873D01*
X128846788Y-96201232D01*
X128986928Y-96099414D01*
X129109414Y-95976928D01*
X129211232Y-95836788D01*
X129289873Y-95682445D01*
X129343402Y-95517701D01*
X129370500Y-95346611D01*
X129370500Y-95173389D01*
X129343402Y-95002299D01*
X129289873Y-94837555D01*
X129211232Y-94683212D01*
X129109414Y-94543072D01*
X128986928Y-94420586D01*
X128846788Y-94318768D01*
X128692445Y-94240127D01*
X128527701Y-94186598D01*
X128527699Y-94186597D01*
X128527698Y-94186597D01*
X128396271Y-94165781D01*
X128356611Y-94159500D01*
X128183389Y-94159500D01*
X128143728Y-94165781D01*
X128012302Y-94186597D01*
X127847552Y-94240128D01*
X127693211Y-94318768D01*
X127613256Y-94376859D01*
X127553072Y-94420586D01*
X127553070Y-94420588D01*
X127553069Y-94420588D01*
X127430588Y-94543069D01*
X127430588Y-94543070D01*
X127430586Y-94543072D01*
X127408792Y-94573069D01*
X127328768Y-94683211D01*
X127250128Y-94837552D01*
X127196597Y-95002302D01*
X127191846Y-95032299D01*
X127169500Y-95173389D01*
X114130500Y-95173389D01*
X114103402Y-95002299D01*
X114049873Y-94837555D01*
X113971232Y-94683212D01*
X113869414Y-94543072D01*
X113746928Y-94420586D01*
X113606788Y-94318768D01*
X113452445Y-94240127D01*
X113287701Y-94186598D01*
X113287699Y-94186597D01*
X113287698Y-94186597D01*
X113156271Y-94165781D01*
X113116611Y-94159500D01*
X112943389Y-94159500D01*
X112903728Y-94165781D01*
X112772302Y-94186597D01*
X112607552Y-94240128D01*
X112453211Y-94318768D01*
X112373256Y-94376859D01*
X112313072Y-94420586D01*
X112313070Y-94420588D01*
X112313069Y-94420588D01*
X112190588Y-94543069D01*
X112190588Y-94543070D01*
X112190586Y-94543072D01*
X112168792Y-94573069D01*
X112088768Y-94683211D01*
X112010128Y-94837552D01*
X111956597Y-95002302D01*
X111951846Y-95032299D01*
X111929500Y-95173389D01*
X103920500Y-95173389D01*
X103920500Y-92633389D01*
X111929500Y-92633389D01*
X111929500Y-92806611D01*
X111956598Y-92977701D01*
X112010127Y-93142445D01*
X112088768Y-93296788D01*
X112190586Y-93436928D01*
X112313072Y-93559414D01*
X112453212Y-93661232D01*
X112607555Y-93739873D01*
X112772299Y-93793402D01*
X112943389Y-93820500D01*
X112943390Y-93820500D01*
X113116610Y-93820500D01*
X113116611Y-93820500D01*
X113287701Y-93793402D01*
X113452445Y-93739873D01*
X113606788Y-93661232D01*
X113746928Y-93559414D01*
X113869414Y-93436928D01*
X113971232Y-93296788D01*
X114049873Y-93142445D01*
X114103402Y-92977701D01*
X114130500Y-92806611D01*
X114130500Y-92633389D01*
X127169500Y-92633389D01*
X127169500Y-92806611D01*
X127196598Y-92977701D01*
X127250127Y-93142445D01*
X127328768Y-93296788D01*
X127430586Y-93436928D01*
X127553072Y-93559414D01*
X127693212Y-93661232D01*
X127847555Y-93739873D01*
X128012299Y-93793402D01*
X128183389Y-93820500D01*
X128183390Y-93820500D01*
X128356610Y-93820500D01*
X128356611Y-93820500D01*
X128527701Y-93793402D01*
X128692445Y-93739873D01*
X128846788Y-93661232D01*
X128986928Y-93559414D01*
X129109414Y-93436928D01*
X129211232Y-93296788D01*
X129289873Y-93142445D01*
X129343402Y-92977701D01*
X129370500Y-92806611D01*
X129370500Y-92633389D01*
X129343402Y-92462299D01*
X129289873Y-92297555D01*
X129211232Y-92143212D01*
X129109414Y-92003072D01*
X128986928Y-91880586D01*
X128846788Y-91778768D01*
X128692445Y-91700127D01*
X128527701Y-91646598D01*
X128527699Y-91646597D01*
X128527698Y-91646597D01*
X128396271Y-91625781D01*
X128356611Y-91619500D01*
X128183389Y-91619500D01*
X128143728Y-91625781D01*
X128012302Y-91646597D01*
X127847552Y-91700128D01*
X127693211Y-91778768D01*
X127613256Y-91836859D01*
X127553072Y-91880586D01*
X127553070Y-91880588D01*
X127553069Y-91880588D01*
X127430588Y-92003069D01*
X127430588Y-92003070D01*
X127430586Y-92003072D01*
X127386859Y-92063256D01*
X127328768Y-92143211D01*
X127250128Y-92297552D01*
X127196597Y-92462302D01*
X127169500Y-92633389D01*
X114130500Y-92633389D01*
X114103402Y-92462299D01*
X114049873Y-92297555D01*
X113971232Y-92143212D01*
X113869414Y-92003072D01*
X113746928Y-91880586D01*
X113606788Y-91778768D01*
X113452445Y-91700127D01*
X113287701Y-91646598D01*
X113287699Y-91646597D01*
X113287698Y-91646597D01*
X113156271Y-91625781D01*
X113116611Y-91619500D01*
X112943389Y-91619500D01*
X112903728Y-91625781D01*
X112772302Y-91646597D01*
X112607552Y-91700128D01*
X112453211Y-91778768D01*
X112373256Y-91836859D01*
X112313072Y-91880586D01*
X112313070Y-91880588D01*
X112313069Y-91880588D01*
X112190588Y-92003069D01*
X112190588Y-92003070D01*
X112190586Y-92003072D01*
X112146859Y-92063256D01*
X112088768Y-92143211D01*
X112010128Y-92297552D01*
X111956597Y-92462302D01*
X111929500Y-92633389D01*
X103920500Y-92633389D01*
X103920500Y-90093389D01*
X111929500Y-90093389D01*
X111929500Y-90266611D01*
X111956598Y-90437701D01*
X112010127Y-90602445D01*
X112088768Y-90756788D01*
X112190586Y-90896928D01*
X112313072Y-91019414D01*
X112453212Y-91121232D01*
X112607555Y-91199873D01*
X112772299Y-91253402D01*
X112943389Y-91280500D01*
X112943390Y-91280500D01*
X113116610Y-91280500D01*
X113116611Y-91280500D01*
X113287701Y-91253402D01*
X113452445Y-91199873D01*
X113606788Y-91121232D01*
X113746928Y-91019414D01*
X113869414Y-90896928D01*
X113971232Y-90756788D01*
X114049873Y-90602445D01*
X114103402Y-90437701D01*
X114130500Y-90266611D01*
X114130500Y-90093389D01*
X127169500Y-90093389D01*
X127169500Y-90266611D01*
X127196598Y-90437701D01*
X127250127Y-90602445D01*
X127328768Y-90756788D01*
X127430586Y-90896928D01*
X127553072Y-91019414D01*
X127693212Y-91121232D01*
X127847555Y-91199873D01*
X128012299Y-91253402D01*
X128183389Y-91280500D01*
X128183390Y-91280500D01*
X128356610Y-91280500D01*
X128356611Y-91280500D01*
X128527701Y-91253402D01*
X128692445Y-91199873D01*
X128846788Y-91121232D01*
X128986928Y-91019414D01*
X129109414Y-90896928D01*
X129211232Y-90756788D01*
X129289873Y-90602445D01*
X129343402Y-90437701D01*
X129370500Y-90266611D01*
X129370500Y-90093389D01*
X129343402Y-89922299D01*
X129289873Y-89757555D01*
X129211232Y-89603212D01*
X129109414Y-89463072D01*
X128986928Y-89340586D01*
X128846788Y-89238768D01*
X128692445Y-89160127D01*
X128527701Y-89106598D01*
X128527699Y-89106597D01*
X128527698Y-89106597D01*
X128396271Y-89085781D01*
X128356611Y-89079500D01*
X128183389Y-89079500D01*
X128143728Y-89085781D01*
X128012302Y-89106597D01*
X127847552Y-89160128D01*
X127693211Y-89238768D01*
X127613256Y-89296859D01*
X127553072Y-89340586D01*
X127553070Y-89340588D01*
X127553069Y-89340588D01*
X127430588Y-89463069D01*
X127430588Y-89463070D01*
X127430586Y-89463072D01*
X127386859Y-89523256D01*
X127328768Y-89603211D01*
X127250128Y-89757552D01*
X127196597Y-89922302D01*
X127188155Y-89975606D01*
X127169500Y-90093389D01*
X114130500Y-90093389D01*
X114103402Y-89922299D01*
X114049873Y-89757555D01*
X113971232Y-89603212D01*
X113869414Y-89463072D01*
X113746928Y-89340586D01*
X113606788Y-89238768D01*
X113452445Y-89160127D01*
X113287701Y-89106598D01*
X113287699Y-89106597D01*
X113287698Y-89106597D01*
X113156271Y-89085781D01*
X113116611Y-89079500D01*
X112943389Y-89079500D01*
X112903728Y-89085781D01*
X112772302Y-89106597D01*
X112607552Y-89160128D01*
X112453211Y-89238768D01*
X112373256Y-89296859D01*
X112313072Y-89340586D01*
X112313070Y-89340588D01*
X112313069Y-89340588D01*
X112190588Y-89463069D01*
X112190588Y-89463070D01*
X112190586Y-89463072D01*
X112146859Y-89523256D01*
X112088768Y-89603211D01*
X112010128Y-89757552D01*
X111956597Y-89922302D01*
X111948155Y-89975606D01*
X111929500Y-90093389D01*
X103920500Y-90093389D01*
X103920500Y-88196048D01*
X103940185Y-88129009D01*
X103992989Y-88083254D01*
X104062147Y-88073310D01*
X104125703Y-88102335D01*
X104155938Y-88144264D01*
X104156694Y-88143879D01*
X104255375Y-88337550D01*
X104294728Y-88391716D01*
X104927037Y-87759408D01*
X104944075Y-87822993D01*
X105009901Y-87937007D01*
X105102993Y-88030099D01*
X105217007Y-88095925D01*
X105280590Y-88112962D01*
X104648282Y-88745269D01*
X104648282Y-88745270D01*
X104702449Y-88784624D01*
X104891782Y-88881095D01*
X105093870Y-88946757D01*
X105303754Y-88980000D01*
X105516246Y-88980000D01*
X105726127Y-88946757D01*
X105726130Y-88946757D01*
X105928217Y-88881095D01*
X106117554Y-88784622D01*
X106171716Y-88745270D01*
X106171717Y-88745270D01*
X105539408Y-88112962D01*
X105602993Y-88095925D01*
X105717007Y-88030099D01*
X105810099Y-87937007D01*
X105875925Y-87822993D01*
X105892962Y-87759408D01*
X106525270Y-88391717D01*
X106525270Y-88391716D01*
X106564622Y-88337554D01*
X106661095Y-88148217D01*
X106726757Y-87946130D01*
X106726757Y-87946127D01*
X106760000Y-87736246D01*
X106760000Y-87553389D01*
X111929500Y-87553389D01*
X111929500Y-87726611D01*
X111956598Y-87897701D01*
X112010127Y-88062445D01*
X112088768Y-88216788D01*
X112190586Y-88356928D01*
X112313072Y-88479414D01*
X112453212Y-88581232D01*
X112607555Y-88659873D01*
X112772299Y-88713402D01*
X112943389Y-88740500D01*
X112943390Y-88740500D01*
X113116610Y-88740500D01*
X113116611Y-88740500D01*
X113287701Y-88713402D01*
X113452445Y-88659873D01*
X113606788Y-88581232D01*
X113746928Y-88479414D01*
X113869414Y-88356928D01*
X113971232Y-88216788D01*
X114049873Y-88062445D01*
X114103402Y-87897701D01*
X114130500Y-87726611D01*
X114130500Y-87553389D01*
X127169500Y-87553389D01*
X127169500Y-87726611D01*
X127196598Y-87897701D01*
X127250127Y-88062445D01*
X127328768Y-88216788D01*
X127430586Y-88356928D01*
X127553072Y-88479414D01*
X127693212Y-88581232D01*
X127847555Y-88659873D01*
X128012299Y-88713402D01*
X128183389Y-88740500D01*
X128183390Y-88740500D01*
X128356610Y-88740500D01*
X128356611Y-88740500D01*
X128527701Y-88713402D01*
X128692445Y-88659873D01*
X128846788Y-88581232D01*
X128986928Y-88479414D01*
X129109414Y-88356928D01*
X129211232Y-88216788D01*
X129289873Y-88062445D01*
X129343402Y-87897701D01*
X129370500Y-87726611D01*
X129370500Y-87553389D01*
X129343402Y-87382299D01*
X129289873Y-87217555D01*
X129211232Y-87063212D01*
X129109414Y-86923072D01*
X128986928Y-86800586D01*
X128846788Y-86698768D01*
X128692445Y-86620127D01*
X128527701Y-86566598D01*
X128527699Y-86566597D01*
X128527698Y-86566597D01*
X128396271Y-86545781D01*
X128356611Y-86539500D01*
X128183389Y-86539500D01*
X128143728Y-86545781D01*
X128012302Y-86566597D01*
X127847552Y-86620128D01*
X127693211Y-86698768D01*
X127643157Y-86735135D01*
X127553072Y-86800586D01*
X127553070Y-86800588D01*
X127553069Y-86800588D01*
X127430588Y-86923069D01*
X127430588Y-86923070D01*
X127430586Y-86923072D01*
X127386859Y-86983256D01*
X127328768Y-87063211D01*
X127250128Y-87217552D01*
X127196597Y-87382302D01*
X127179180Y-87492271D01*
X127169500Y-87553389D01*
X114130500Y-87553389D01*
X114103402Y-87382299D01*
X114049873Y-87217555D01*
X113971232Y-87063212D01*
X113869414Y-86923072D01*
X113746928Y-86800586D01*
X113606788Y-86698768D01*
X113452445Y-86620127D01*
X113287701Y-86566598D01*
X113287699Y-86566597D01*
X113287698Y-86566597D01*
X113156271Y-86545781D01*
X113116611Y-86539500D01*
X112943389Y-86539500D01*
X112903728Y-86545781D01*
X112772302Y-86566597D01*
X112607552Y-86620128D01*
X112453211Y-86698768D01*
X112403157Y-86735135D01*
X112313072Y-86800586D01*
X112313070Y-86800588D01*
X112313069Y-86800588D01*
X112190588Y-86923069D01*
X112190588Y-86923070D01*
X112190586Y-86923072D01*
X112146859Y-86983256D01*
X112088768Y-87063211D01*
X112010128Y-87217552D01*
X111956597Y-87382302D01*
X111939180Y-87492271D01*
X111929500Y-87553389D01*
X106760000Y-87553389D01*
X106760000Y-87523753D01*
X106726757Y-87313872D01*
X106726757Y-87313869D01*
X106661095Y-87111782D01*
X106564624Y-86922449D01*
X106525270Y-86868282D01*
X106525269Y-86868282D01*
X105892962Y-87500590D01*
X105875925Y-87437007D01*
X105810099Y-87322993D01*
X105717007Y-87229901D01*
X105602993Y-87164075D01*
X105539409Y-87147037D01*
X106171716Y-86514728D01*
X106117550Y-86475375D01*
X105928217Y-86378904D01*
X105726129Y-86313242D01*
X105516246Y-86280000D01*
X105303754Y-86280000D01*
X105093872Y-86313242D01*
X105093869Y-86313242D01*
X104891782Y-86378904D01*
X104702439Y-86475380D01*
X104648282Y-86514727D01*
X104648282Y-86514728D01*
X105280591Y-87147037D01*
X105217007Y-87164075D01*
X105102993Y-87229901D01*
X105009901Y-87322993D01*
X104944075Y-87437007D01*
X104927037Y-87500591D01*
X104294728Y-86868282D01*
X104294727Y-86868282D01*
X104255380Y-86922439D01*
X104156694Y-87116121D01*
X104155678Y-87115603D01*
X104115212Y-87165813D01*
X104048916Y-87187872D01*
X103981218Y-87170588D01*
X103933612Y-87119447D01*
X103920500Y-87063951D01*
X103920500Y-85013389D01*
X111929500Y-85013389D01*
X111929500Y-85186611D01*
X111956598Y-85357701D01*
X112010127Y-85522445D01*
X112088768Y-85676788D01*
X112190586Y-85816928D01*
X112313072Y-85939414D01*
X112453212Y-86041232D01*
X112607555Y-86119873D01*
X112772299Y-86173402D01*
X112943389Y-86200500D01*
X112943390Y-86200500D01*
X113116610Y-86200500D01*
X113116611Y-86200500D01*
X113287701Y-86173402D01*
X113452445Y-86119873D01*
X113606788Y-86041232D01*
X113746928Y-85939414D01*
X113869414Y-85816928D01*
X113971232Y-85676788D01*
X114049873Y-85522445D01*
X114103402Y-85357701D01*
X114130500Y-85186611D01*
X114130500Y-85013389D01*
X127169500Y-85013389D01*
X127169500Y-85186611D01*
X127196598Y-85357701D01*
X127250127Y-85522445D01*
X127328768Y-85676788D01*
X127430586Y-85816928D01*
X127553072Y-85939414D01*
X127693212Y-86041232D01*
X127847555Y-86119873D01*
X128012299Y-86173402D01*
X128183389Y-86200500D01*
X128183390Y-86200500D01*
X128356610Y-86200500D01*
X128356611Y-86200500D01*
X128527701Y-86173402D01*
X128692445Y-86119873D01*
X128846788Y-86041232D01*
X128986928Y-85939414D01*
X129109414Y-85816928D01*
X129211232Y-85676788D01*
X129289873Y-85522445D01*
X129343402Y-85357701D01*
X129370500Y-85186611D01*
X129370500Y-85013389D01*
X129343402Y-84842299D01*
X129289873Y-84677555D01*
X129211232Y-84523212D01*
X129109414Y-84383072D01*
X128986928Y-84260586D01*
X128846788Y-84158768D01*
X128692445Y-84080127D01*
X128527701Y-84026598D01*
X128527699Y-84026597D01*
X128527698Y-84026597D01*
X128396271Y-84005781D01*
X128356611Y-83999500D01*
X128183389Y-83999500D01*
X128143728Y-84005781D01*
X128012302Y-84026597D01*
X127847552Y-84080128D01*
X127693211Y-84158768D01*
X127613256Y-84216859D01*
X127553072Y-84260586D01*
X127553070Y-84260588D01*
X127553069Y-84260588D01*
X127430588Y-84383069D01*
X127430588Y-84383070D01*
X127430586Y-84383072D01*
X127408792Y-84413069D01*
X127328768Y-84523211D01*
X127250128Y-84677552D01*
X127196597Y-84842302D01*
X127191846Y-84872299D01*
X127169500Y-85013389D01*
X114130500Y-85013389D01*
X114103402Y-84842299D01*
X114049873Y-84677555D01*
X113971232Y-84523212D01*
X113869414Y-84383072D01*
X113746928Y-84260586D01*
X113606788Y-84158768D01*
X113452445Y-84080127D01*
X113287701Y-84026598D01*
X113287699Y-84026597D01*
X113287698Y-84026597D01*
X113156271Y-84005781D01*
X113116611Y-83999500D01*
X112943389Y-83999500D01*
X112903728Y-84005781D01*
X112772302Y-84026597D01*
X112607552Y-84080128D01*
X112453211Y-84158768D01*
X112373256Y-84216859D01*
X112313072Y-84260586D01*
X112313070Y-84260588D01*
X112313069Y-84260588D01*
X112190588Y-84383069D01*
X112190588Y-84383070D01*
X112190586Y-84383072D01*
X112168792Y-84413069D01*
X112088768Y-84523211D01*
X112010128Y-84677552D01*
X111956597Y-84842302D01*
X111951846Y-84872299D01*
X111929500Y-85013389D01*
X103920500Y-85013389D01*
X103920500Y-82473389D01*
X111929500Y-82473389D01*
X111929500Y-82646611D01*
X111956598Y-82817701D01*
X112010127Y-82982445D01*
X112088768Y-83136788D01*
X112190586Y-83276928D01*
X112313072Y-83399414D01*
X112453212Y-83501232D01*
X112607555Y-83579873D01*
X112772299Y-83633402D01*
X112943389Y-83660500D01*
X112943390Y-83660500D01*
X113116610Y-83660500D01*
X113116611Y-83660500D01*
X113287701Y-83633402D01*
X113452445Y-83579873D01*
X113606788Y-83501232D01*
X113746928Y-83399414D01*
X113869414Y-83276928D01*
X113971232Y-83136788D01*
X114049873Y-82982445D01*
X114103402Y-82817701D01*
X114130500Y-82646611D01*
X114130500Y-82473389D01*
X127169500Y-82473389D01*
X127169500Y-82646611D01*
X127196598Y-82817701D01*
X127250127Y-82982445D01*
X127328768Y-83136788D01*
X127430586Y-83276928D01*
X127553072Y-83399414D01*
X127693212Y-83501232D01*
X127847555Y-83579873D01*
X128012299Y-83633402D01*
X128183389Y-83660500D01*
X128183390Y-83660500D01*
X128356610Y-83660500D01*
X128356611Y-83660500D01*
X128527701Y-83633402D01*
X128692445Y-83579873D01*
X128846788Y-83501232D01*
X128986928Y-83399414D01*
X129109414Y-83276928D01*
X129211232Y-83136788D01*
X129289873Y-82982445D01*
X129343402Y-82817701D01*
X129370500Y-82646611D01*
X129370500Y-82473389D01*
X129343402Y-82302299D01*
X129289873Y-82137555D01*
X129211232Y-81983212D01*
X129109414Y-81843072D01*
X128986928Y-81720586D01*
X128846788Y-81618768D01*
X128692445Y-81540127D01*
X128527701Y-81486598D01*
X128527699Y-81486597D01*
X128527698Y-81486597D01*
X128396271Y-81465781D01*
X128356611Y-81459500D01*
X128183389Y-81459500D01*
X128143728Y-81465781D01*
X128012302Y-81486597D01*
X127847552Y-81540128D01*
X127693211Y-81618768D01*
X127613256Y-81676859D01*
X127553072Y-81720586D01*
X127553070Y-81720588D01*
X127553069Y-81720588D01*
X127430588Y-81843069D01*
X127430588Y-81843070D01*
X127430586Y-81843072D01*
X127386859Y-81903256D01*
X127328768Y-81983211D01*
X127250128Y-82137552D01*
X127196597Y-82302302D01*
X127169500Y-82473389D01*
X114130500Y-82473389D01*
X114103402Y-82302299D01*
X114049873Y-82137555D01*
X113971232Y-81983212D01*
X113869414Y-81843072D01*
X113746928Y-81720586D01*
X113606788Y-81618768D01*
X113452445Y-81540127D01*
X113287701Y-81486598D01*
X113287699Y-81486597D01*
X113287698Y-81486597D01*
X113156271Y-81465781D01*
X113116611Y-81459500D01*
X112943389Y-81459500D01*
X112903728Y-81465781D01*
X112772302Y-81486597D01*
X112607552Y-81540128D01*
X112453211Y-81618768D01*
X112373256Y-81676859D01*
X112313072Y-81720586D01*
X112313070Y-81720588D01*
X112313069Y-81720588D01*
X112190588Y-81843069D01*
X112190588Y-81843070D01*
X112190586Y-81843072D01*
X112146859Y-81903256D01*
X112088768Y-81983211D01*
X112010128Y-82137552D01*
X111956597Y-82302302D01*
X111929500Y-82473389D01*
X103920500Y-82473389D01*
X103920500Y-78036048D01*
X103940185Y-77969009D01*
X103992989Y-77923254D01*
X104062147Y-77913310D01*
X104125703Y-77942335D01*
X104155938Y-77984264D01*
X104156694Y-77983879D01*
X104255375Y-78177550D01*
X104294728Y-78231716D01*
X104927037Y-77599408D01*
X104944075Y-77662993D01*
X105009901Y-77777007D01*
X105102993Y-77870099D01*
X105217007Y-77935925D01*
X105280590Y-77952962D01*
X104648282Y-78585269D01*
X104648282Y-78585270D01*
X104702449Y-78624624D01*
X104891782Y-78721095D01*
X105093870Y-78786757D01*
X105303754Y-78820000D01*
X105516246Y-78820000D01*
X105726127Y-78786757D01*
X105726130Y-78786757D01*
X105928217Y-78721095D01*
X106117554Y-78624622D01*
X106171716Y-78585270D01*
X106171717Y-78585270D01*
X105539408Y-77952962D01*
X105602993Y-77935925D01*
X105717007Y-77870099D01*
X105810099Y-77777007D01*
X105875925Y-77662993D01*
X105892962Y-77599408D01*
X106525270Y-78231717D01*
X106525270Y-78231716D01*
X106564622Y-78177554D01*
X106661095Y-77988217D01*
X106726757Y-77786130D01*
X106726757Y-77786127D01*
X106744590Y-77673539D01*
X106760000Y-77576245D01*
X106760000Y-77395525D01*
X106747327Y-77283741D01*
X106738815Y-77230000D01*
X111753391Y-77230000D01*
X112596988Y-77230000D01*
X112564075Y-77287007D01*
X112530000Y-77414174D01*
X112530000Y-77545826D01*
X112564075Y-77672993D01*
X112596988Y-77730000D01*
X111753391Y-77730000D01*
X111762009Y-77784413D01*
X111825244Y-77979029D01*
X111918140Y-78161349D01*
X112038417Y-78326894D01*
X112038417Y-78326895D01*
X112183104Y-78471582D01*
X112348650Y-78591859D01*
X112530970Y-78684755D01*
X112691613Y-78736952D01*
X112749289Y-78776390D01*
X112776487Y-78840748D01*
X112764572Y-78909595D01*
X112717328Y-78961070D01*
X112691615Y-78972814D01*
X112607549Y-79000129D01*
X112453211Y-79078768D01*
X112373256Y-79136859D01*
X112313072Y-79180586D01*
X112313070Y-79180588D01*
X112313069Y-79180588D01*
X112190588Y-79303069D01*
X112190588Y-79303070D01*
X112190586Y-79303072D01*
X112146859Y-79363256D01*
X112088768Y-79443211D01*
X112010128Y-79597552D01*
X111956597Y-79762302D01*
X111948155Y-79815606D01*
X111929500Y-79933389D01*
X111929500Y-80106611D01*
X111956598Y-80277701D01*
X112010127Y-80442445D01*
X112088768Y-80596788D01*
X112190586Y-80736928D01*
X112313072Y-80859414D01*
X112453212Y-80961232D01*
X112607555Y-81039873D01*
X112772299Y-81093402D01*
X112943389Y-81120500D01*
X112943390Y-81120500D01*
X113116610Y-81120500D01*
X113116611Y-81120500D01*
X113287701Y-81093402D01*
X113452445Y-81039873D01*
X113606788Y-80961232D01*
X113746928Y-80859414D01*
X113869414Y-80736928D01*
X113971232Y-80596788D01*
X114049873Y-80442445D01*
X114103402Y-80277701D01*
X114130500Y-80106611D01*
X114130500Y-79933389D01*
X127169500Y-79933389D01*
X127169500Y-80106611D01*
X127196598Y-80277701D01*
X127250127Y-80442445D01*
X127328768Y-80596788D01*
X127430586Y-80736928D01*
X127553072Y-80859414D01*
X127693212Y-80961232D01*
X127847555Y-81039873D01*
X128012299Y-81093402D01*
X128183389Y-81120500D01*
X128183390Y-81120500D01*
X128356610Y-81120500D01*
X128356611Y-81120500D01*
X128527701Y-81093402D01*
X128692445Y-81039873D01*
X128846788Y-80961232D01*
X128986928Y-80859414D01*
X129109414Y-80736928D01*
X129211232Y-80596788D01*
X129289873Y-80442445D01*
X129343402Y-80277701D01*
X129370500Y-80106611D01*
X129370500Y-79933389D01*
X129343402Y-79762299D01*
X129289873Y-79597555D01*
X129211232Y-79443212D01*
X129109414Y-79303072D01*
X128986928Y-79180586D01*
X128846788Y-79078768D01*
X128692445Y-79000127D01*
X128527701Y-78946598D01*
X128527699Y-78946597D01*
X128527698Y-78946597D01*
X128396271Y-78925781D01*
X128356611Y-78919500D01*
X128183389Y-78919500D01*
X128143728Y-78925781D01*
X128012302Y-78946597D01*
X127847552Y-79000128D01*
X127693211Y-79078768D01*
X127613256Y-79136859D01*
X127553072Y-79180586D01*
X127553070Y-79180588D01*
X127553069Y-79180588D01*
X127430588Y-79303069D01*
X127430588Y-79303070D01*
X127430586Y-79303072D01*
X127386859Y-79363256D01*
X127328768Y-79443211D01*
X127250128Y-79597552D01*
X127196597Y-79762302D01*
X127188155Y-79815606D01*
X127169500Y-79933389D01*
X114130500Y-79933389D01*
X114103402Y-79762299D01*
X114049873Y-79597555D01*
X113971232Y-79443212D01*
X113869414Y-79303072D01*
X113746928Y-79180586D01*
X113606788Y-79078768D01*
X113452449Y-79000128D01*
X113368385Y-78972814D01*
X113310710Y-78933376D01*
X113283512Y-78869017D01*
X113295427Y-78800171D01*
X113342672Y-78748695D01*
X113368386Y-78736952D01*
X113529029Y-78684755D01*
X113711349Y-78591859D01*
X113876894Y-78471582D01*
X113876895Y-78471582D01*
X114021582Y-78326895D01*
X114021582Y-78326894D01*
X114141859Y-78161349D01*
X114234755Y-77979029D01*
X114297990Y-77784413D01*
X114306609Y-77730000D01*
X113463012Y-77730000D01*
X113495925Y-77672993D01*
X113530000Y-77545826D01*
X113530000Y-77414174D01*
X113524431Y-77393389D01*
X127169500Y-77393389D01*
X127169500Y-77566611D01*
X127196598Y-77737701D01*
X127250127Y-77902445D01*
X127328768Y-78056788D01*
X127430586Y-78196928D01*
X127553072Y-78319414D01*
X127693212Y-78421232D01*
X127847555Y-78499873D01*
X128012299Y-78553402D01*
X128183389Y-78580500D01*
X128183390Y-78580500D01*
X128356610Y-78580500D01*
X128356611Y-78580500D01*
X128527701Y-78553402D01*
X128692445Y-78499873D01*
X128846788Y-78421232D01*
X128986928Y-78319414D01*
X129109414Y-78196928D01*
X129211232Y-78056788D01*
X129289873Y-77902445D01*
X129343402Y-77737701D01*
X129370500Y-77566611D01*
X129370500Y-77393389D01*
X129343402Y-77222299D01*
X129289873Y-77057555D01*
X129211232Y-76903212D01*
X129109414Y-76763072D01*
X128986928Y-76640586D01*
X128846788Y-76538768D01*
X128692445Y-76460127D01*
X128527701Y-76406598D01*
X128527699Y-76406597D01*
X128527698Y-76406597D01*
X128396271Y-76385781D01*
X128356611Y-76379500D01*
X128183389Y-76379500D01*
X128143728Y-76385781D01*
X128012302Y-76406597D01*
X127847552Y-76460128D01*
X127693211Y-76538768D01*
X127643157Y-76575135D01*
X127553072Y-76640586D01*
X127553070Y-76640588D01*
X127553069Y-76640588D01*
X127430588Y-76763069D01*
X127430588Y-76763070D01*
X127430586Y-76763072D01*
X127404737Y-76798650D01*
X127328768Y-76903211D01*
X127250128Y-77057552D01*
X127196597Y-77222302D01*
X127179180Y-77332271D01*
X127169500Y-77393389D01*
X113524431Y-77393389D01*
X113495925Y-77287007D01*
X113463012Y-77230000D01*
X114306609Y-77230000D01*
X114297990Y-77175586D01*
X114234755Y-76980970D01*
X114141859Y-76798650D01*
X114021582Y-76633105D01*
X114021582Y-76633104D01*
X113876895Y-76488417D01*
X113711349Y-76368140D01*
X113529031Y-76275244D01*
X113368385Y-76223047D01*
X113310710Y-76183609D01*
X113283512Y-76119250D01*
X113295427Y-76050404D01*
X113342671Y-75998928D01*
X113368381Y-75987187D01*
X113452445Y-75959873D01*
X113606788Y-75881232D01*
X113746928Y-75779414D01*
X113869414Y-75656928D01*
X113971232Y-75516788D01*
X114049873Y-75362445D01*
X114103402Y-75197701D01*
X114130500Y-75026611D01*
X114130500Y-74853389D01*
X114103402Y-74682299D01*
X114049873Y-74517555D01*
X113971232Y-74363212D01*
X113869414Y-74223072D01*
X113746928Y-74100586D01*
X113606788Y-73998768D01*
X113452445Y-73920127D01*
X113287701Y-73866598D01*
X113287699Y-73866597D01*
X113287698Y-73866597D01*
X113156271Y-73845781D01*
X113116611Y-73839500D01*
X112943389Y-73839500D01*
X112903728Y-73845781D01*
X112772302Y-73866597D01*
X112607552Y-73920128D01*
X112453211Y-73998768D01*
X112373256Y-74056859D01*
X112313072Y-74100586D01*
X112313070Y-74100588D01*
X112313069Y-74100588D01*
X112190588Y-74223069D01*
X112190588Y-74223070D01*
X112190586Y-74223072D01*
X112168792Y-74253069D01*
X112088768Y-74363211D01*
X112010128Y-74517552D01*
X111956597Y-74682302D01*
X111951846Y-74712299D01*
X111929500Y-74853389D01*
X111929500Y-75026611D01*
X111956598Y-75197701D01*
X112010127Y-75362445D01*
X112088768Y-75516788D01*
X112190586Y-75656928D01*
X112313072Y-75779414D01*
X112453212Y-75881232D01*
X112607555Y-75959873D01*
X112691613Y-75987185D01*
X112749289Y-76026623D01*
X112776487Y-76090981D01*
X112764572Y-76159828D01*
X112717328Y-76211303D01*
X112691614Y-76223047D01*
X112530968Y-76275244D01*
X112348650Y-76368140D01*
X112183105Y-76488417D01*
X112183104Y-76488417D01*
X112038417Y-76633104D01*
X112038417Y-76633105D01*
X111918140Y-76798650D01*
X111825244Y-76980970D01*
X111762009Y-77175586D01*
X111753391Y-77230000D01*
X106738815Y-77230000D01*
X106726757Y-77153872D01*
X106726757Y-77153869D01*
X106661095Y-76951782D01*
X106564624Y-76762449D01*
X106525270Y-76708282D01*
X106525269Y-76708282D01*
X105892962Y-77340590D01*
X105875925Y-77277007D01*
X105810099Y-77162993D01*
X105717007Y-77069901D01*
X105602993Y-77004075D01*
X105539409Y-76987037D01*
X106171716Y-76354728D01*
X106117550Y-76315375D01*
X105928217Y-76218904D01*
X105726129Y-76153242D01*
X105516246Y-76120000D01*
X105303754Y-76120000D01*
X105093872Y-76153242D01*
X105093869Y-76153242D01*
X104891782Y-76218904D01*
X104702439Y-76315380D01*
X104648282Y-76354727D01*
X104648282Y-76354728D01*
X105280591Y-76987037D01*
X105217007Y-77004075D01*
X105102993Y-77069901D01*
X105009901Y-77162993D01*
X104944075Y-77277007D01*
X104927037Y-77340591D01*
X104294728Y-76708282D01*
X104294727Y-76708282D01*
X104255380Y-76762439D01*
X104158905Y-76951781D01*
X104149506Y-76980708D01*
X104110068Y-77038383D01*
X104045709Y-77065581D01*
X103976862Y-77053666D01*
X103925387Y-77006421D01*
X103921090Y-76998684D01*
X103897191Y-76951781D01*
X103853996Y-76867006D01*
X103778484Y-76763072D01*
X103747558Y-76720505D01*
X103747554Y-76720500D01*
X103619499Y-76592445D01*
X103619494Y-76592441D01*
X103495432Y-76502305D01*
X103472996Y-76486005D01*
X103311639Y-76403788D01*
X103311636Y-76403787D01*
X103139410Y-76347829D01*
X102960551Y-76319500D01*
X102960546Y-76319500D01*
X102779454Y-76319500D01*
X102779449Y-76319500D01*
X102600589Y-76347829D01*
X102428363Y-76403787D01*
X102428360Y-76403788D01*
X102267002Y-76486006D01*
X102120505Y-76592441D01*
X102120500Y-76592445D01*
X101992445Y-76720500D01*
X101992441Y-76720505D01*
X101886006Y-76867002D01*
X101803788Y-77028360D01*
X101803787Y-77028363D01*
X101747829Y-77200589D01*
X101726972Y-77332271D01*
X101697042Y-77395405D01*
X101637731Y-77432336D01*
X101567868Y-77431338D01*
X101509636Y-77392728D01*
X101481522Y-77328764D01*
X101480499Y-77312872D01*
X101480499Y-76575143D01*
X101480499Y-76575136D01*
X101480497Y-76575117D01*
X101477586Y-76550012D01*
X101477585Y-76550010D01*
X101477585Y-76550009D01*
X101432206Y-76447235D01*
X101352765Y-76367794D01*
X101352763Y-76367793D01*
X101249992Y-76322415D01*
X101224865Y-76319500D01*
X99435143Y-76319500D01*
X99435117Y-76319502D01*
X99410012Y-76322413D01*
X99410008Y-76322415D01*
X99307235Y-76367793D01*
X99227794Y-76447234D01*
X99182415Y-76550006D01*
X99182415Y-76550008D01*
X99179500Y-76575131D01*
X85500500Y-76575131D01*
X85500500Y-74883389D01*
X92229500Y-74883389D01*
X92229500Y-75056611D01*
X92256598Y-75227701D01*
X92310127Y-75392445D01*
X92388768Y-75546788D01*
X92490586Y-75686928D01*
X92613072Y-75809414D01*
X92753212Y-75911232D01*
X92907555Y-75989873D01*
X93072299Y-76043402D01*
X93243389Y-76070500D01*
X93243390Y-76070500D01*
X93416610Y-76070500D01*
X93416611Y-76070500D01*
X93587701Y-76043402D01*
X93752445Y-75989873D01*
X93906788Y-75911232D01*
X94046928Y-75809414D01*
X94169414Y-75686928D01*
X94271232Y-75546788D01*
X94349873Y-75392445D01*
X94403402Y-75227701D01*
X94430500Y-75056611D01*
X94430500Y-74883389D01*
X94403402Y-74712299D01*
X94349873Y-74547555D01*
X94271232Y-74393212D01*
X94169414Y-74253072D01*
X94046928Y-74130586D01*
X93906788Y-74028768D01*
X93752445Y-73950127D01*
X93587701Y-73896598D01*
X93587699Y-73896597D01*
X93587698Y-73896597D01*
X93456271Y-73875781D01*
X93416611Y-73869500D01*
X93243389Y-73869500D01*
X93203728Y-73875781D01*
X93072302Y-73896597D01*
X92907552Y-73950128D01*
X92753211Y-74028768D01*
X92673256Y-74086859D01*
X92613072Y-74130586D01*
X92613070Y-74130588D01*
X92613069Y-74130588D01*
X92490588Y-74253069D01*
X92490588Y-74253070D01*
X92490586Y-74253072D01*
X92446859Y-74313256D01*
X92388768Y-74393211D01*
X92310128Y-74547552D01*
X92256597Y-74712302D01*
X92229500Y-74883389D01*
X85500500Y-74883389D01*
X85500500Y-72313389D01*
X111929500Y-72313389D01*
X111929500Y-72486611D01*
X111956598Y-72657701D01*
X112010127Y-72822445D01*
X112088768Y-72976788D01*
X112190586Y-73116928D01*
X112313072Y-73239414D01*
X112453212Y-73341232D01*
X112607555Y-73419873D01*
X112772299Y-73473402D01*
X112943389Y-73500500D01*
X112943390Y-73500500D01*
X113116610Y-73500500D01*
X113116611Y-73500500D01*
X113287701Y-73473402D01*
X113452445Y-73419873D01*
X113606788Y-73341232D01*
X113746928Y-73239414D01*
X113869414Y-73116928D01*
X113971232Y-72976788D01*
X114049873Y-72822445D01*
X114103402Y-72657701D01*
X114130500Y-72486611D01*
X114130500Y-72313389D01*
X114104622Y-72150000D01*
X126993391Y-72150000D01*
X127836988Y-72150000D01*
X127804075Y-72207007D01*
X127770000Y-72334174D01*
X127770000Y-72465826D01*
X127804075Y-72592993D01*
X127836988Y-72650000D01*
X126993391Y-72650000D01*
X127002009Y-72704413D01*
X127065244Y-72899029D01*
X127158140Y-73081349D01*
X127278417Y-73246894D01*
X127278417Y-73246895D01*
X127423104Y-73391582D01*
X127588650Y-73511859D01*
X127770970Y-73604755D01*
X127931613Y-73656952D01*
X127989289Y-73696390D01*
X128016487Y-73760748D01*
X128004572Y-73829595D01*
X127957328Y-73881070D01*
X127931615Y-73892814D01*
X127847549Y-73920129D01*
X127693211Y-73998768D01*
X127613256Y-74056859D01*
X127553072Y-74100586D01*
X127553070Y-74100588D01*
X127553069Y-74100588D01*
X127430588Y-74223069D01*
X127430588Y-74223070D01*
X127430586Y-74223072D01*
X127408792Y-74253069D01*
X127328768Y-74363211D01*
X127250128Y-74517552D01*
X127196597Y-74682302D01*
X127191846Y-74712299D01*
X127169500Y-74853389D01*
X127169500Y-75026611D01*
X127196598Y-75197701D01*
X127250127Y-75362445D01*
X127328768Y-75516788D01*
X127430586Y-75656928D01*
X127553072Y-75779414D01*
X127693212Y-75881232D01*
X127847555Y-75959873D01*
X128012299Y-76013402D01*
X128183389Y-76040500D01*
X128183390Y-76040500D01*
X128356610Y-76040500D01*
X128356611Y-76040500D01*
X128527701Y-76013402D01*
X128692445Y-75959873D01*
X128846788Y-75881232D01*
X128986928Y-75779414D01*
X129109414Y-75656928D01*
X129211232Y-75516788D01*
X129289873Y-75362445D01*
X129343402Y-75197701D01*
X129370500Y-75026611D01*
X129370500Y-74853389D01*
X129343402Y-74682299D01*
X129289873Y-74517555D01*
X129211232Y-74363212D01*
X129109414Y-74223072D01*
X128986928Y-74100586D01*
X128846788Y-73998768D01*
X128692449Y-73920128D01*
X128608385Y-73892814D01*
X128550710Y-73853376D01*
X128523512Y-73789017D01*
X128535427Y-73720171D01*
X128582672Y-73668695D01*
X128608386Y-73656952D01*
X128769029Y-73604755D01*
X128951349Y-73511859D01*
X129116894Y-73391582D01*
X129116895Y-73391582D01*
X129261582Y-73246895D01*
X129261582Y-73246894D01*
X129381859Y-73081349D01*
X129474755Y-72899029D01*
X129537990Y-72704413D01*
X129546609Y-72650000D01*
X128703012Y-72650000D01*
X128735925Y-72592993D01*
X128770000Y-72465826D01*
X128770000Y-72334174D01*
X128735925Y-72207007D01*
X128703012Y-72150000D01*
X129546609Y-72150000D01*
X129537990Y-72095586D01*
X129474755Y-71900970D01*
X129381859Y-71718650D01*
X129261582Y-71553105D01*
X129261582Y-71553104D01*
X129116895Y-71408417D01*
X128951349Y-71288140D01*
X128769031Y-71195244D01*
X128608385Y-71143047D01*
X128550710Y-71103609D01*
X128523512Y-71039250D01*
X128535427Y-70970404D01*
X128582671Y-70918928D01*
X128608381Y-70907187D01*
X128692445Y-70879873D01*
X128846788Y-70801232D01*
X128986928Y-70699414D01*
X129109414Y-70576928D01*
X129211232Y-70436788D01*
X129289873Y-70282445D01*
X129343402Y-70117701D01*
X129370500Y-69946611D01*
X129370500Y-69773389D01*
X129343402Y-69602299D01*
X129289873Y-69437555D01*
X129211232Y-69283212D01*
X129109414Y-69143072D01*
X128986928Y-69020586D01*
X128846788Y-68918768D01*
X128692445Y-68840127D01*
X128527701Y-68786598D01*
X128527699Y-68786597D01*
X128527698Y-68786597D01*
X128396271Y-68765781D01*
X128356611Y-68759500D01*
X128183389Y-68759500D01*
X128143728Y-68765781D01*
X128012302Y-68786597D01*
X127847552Y-68840128D01*
X127693211Y-68918768D01*
X127642985Y-68955260D01*
X127553072Y-69020586D01*
X127553070Y-69020588D01*
X127553069Y-69020588D01*
X127430588Y-69143069D01*
X127430588Y-69143070D01*
X127430586Y-69143072D01*
X127386859Y-69203256D01*
X127328768Y-69283211D01*
X127250128Y-69437552D01*
X127196597Y-69602302D01*
X127192303Y-69629414D01*
X127169500Y-69773389D01*
X127169500Y-69946611D01*
X127196598Y-70117701D01*
X127250127Y-70282445D01*
X127328768Y-70436788D01*
X127430586Y-70576928D01*
X127553072Y-70699414D01*
X127693212Y-70801232D01*
X127847555Y-70879873D01*
X127931613Y-70907185D01*
X127989289Y-70946623D01*
X128016487Y-71010981D01*
X128004572Y-71079828D01*
X127957328Y-71131303D01*
X127931614Y-71143047D01*
X127770968Y-71195244D01*
X127588650Y-71288140D01*
X127423105Y-71408417D01*
X127423104Y-71408417D01*
X127278417Y-71553104D01*
X127278417Y-71553105D01*
X127158140Y-71718650D01*
X127065244Y-71900970D01*
X127002009Y-72095586D01*
X126993391Y-72150000D01*
X114104622Y-72150000D01*
X114103402Y-72142299D01*
X114049873Y-71977555D01*
X113971232Y-71823212D01*
X113869414Y-71683072D01*
X113746928Y-71560586D01*
X113606788Y-71458768D01*
X113452445Y-71380127D01*
X113287701Y-71326598D01*
X113287699Y-71326597D01*
X113287698Y-71326597D01*
X113156271Y-71305781D01*
X113116611Y-71299500D01*
X112943389Y-71299500D01*
X112903728Y-71305781D01*
X112772302Y-71326597D01*
X112607552Y-71380128D01*
X112453211Y-71458768D01*
X112373256Y-71516859D01*
X112313072Y-71560586D01*
X112313070Y-71560588D01*
X112313069Y-71560588D01*
X112190588Y-71683069D01*
X112190588Y-71683070D01*
X112190586Y-71683072D01*
X112164737Y-71718650D01*
X112088768Y-71823211D01*
X112010128Y-71977552D01*
X111956597Y-72142302D01*
X111946349Y-72207007D01*
X111929500Y-72313389D01*
X85500500Y-72313389D01*
X85500500Y-68703389D01*
X91749500Y-68703389D01*
X91749500Y-68876610D01*
X91772303Y-69020588D01*
X91776598Y-69047701D01*
X91830127Y-69212445D01*
X91908768Y-69366788D01*
X92010586Y-69506928D01*
X92133072Y-69629414D01*
X92273212Y-69731232D01*
X92427555Y-69809873D01*
X92592299Y-69863402D01*
X92763389Y-69890500D01*
X92763390Y-69890500D01*
X92936610Y-69890500D01*
X92936611Y-69890500D01*
X93107701Y-69863402D01*
X93272445Y-69809873D01*
X93426788Y-69731232D01*
X93566928Y-69629414D01*
X93689414Y-69506928D01*
X93791232Y-69366788D01*
X93869873Y-69212445D01*
X93923402Y-69047701D01*
X93950500Y-68876611D01*
X93950500Y-68703389D01*
X93923402Y-68532299D01*
X93869873Y-68367555D01*
X93869870Y-68367549D01*
X93804408Y-68239070D01*
X93791233Y-68213214D01*
X93791231Y-68213211D01*
X93772658Y-68187648D01*
X97049500Y-68187648D01*
X97049500Y-68392351D01*
X97081522Y-68594534D01*
X97144781Y-68789223D01*
X97208691Y-68914653D01*
X97229382Y-68955260D01*
X97237715Y-68971613D01*
X97358028Y-69137213D01*
X97502786Y-69281971D01*
X97619529Y-69366788D01*
X97668390Y-69402287D01*
X97784607Y-69461503D01*
X97850776Y-69495218D01*
X97850778Y-69495218D01*
X97850781Y-69495220D01*
X97886815Y-69506928D01*
X98045465Y-69558477D01*
X98146557Y-69574488D01*
X98247648Y-69590500D01*
X98247649Y-69590500D01*
X98452351Y-69590500D01*
X98452352Y-69590500D01*
X98654534Y-69558477D01*
X98849219Y-69495220D01*
X99031610Y-69402287D01*
X99124590Y-69334732D01*
X99197213Y-69281971D01*
X99197215Y-69281968D01*
X99197219Y-69281966D01*
X99341966Y-69137219D01*
X99341968Y-69137215D01*
X99341971Y-69137213D01*
X99407007Y-69047697D01*
X99462287Y-68971610D01*
X99555220Y-68789219D01*
X99618477Y-68594534D01*
X99650500Y-68392352D01*
X99650500Y-68187648D01*
X103549500Y-68187648D01*
X103549500Y-68392351D01*
X103581522Y-68594534D01*
X103644781Y-68789223D01*
X103708691Y-68914653D01*
X103729382Y-68955260D01*
X103737715Y-68971613D01*
X103858028Y-69137213D01*
X104002786Y-69281971D01*
X104119529Y-69366788D01*
X104168390Y-69402287D01*
X104284607Y-69461503D01*
X104350776Y-69495218D01*
X104350778Y-69495218D01*
X104350781Y-69495220D01*
X104386815Y-69506928D01*
X104545465Y-69558477D01*
X104646557Y-69574488D01*
X104747648Y-69590500D01*
X104747649Y-69590500D01*
X104952351Y-69590500D01*
X104952352Y-69590500D01*
X105154534Y-69558477D01*
X105349219Y-69495220D01*
X105531610Y-69402287D01*
X105624590Y-69334732D01*
X105697213Y-69281971D01*
X105697215Y-69281968D01*
X105697219Y-69281966D01*
X105841966Y-69137219D01*
X105841968Y-69137215D01*
X105841971Y-69137213D01*
X105930667Y-69015131D01*
X111929500Y-69015131D01*
X111929500Y-70704856D01*
X111929502Y-70704882D01*
X111932413Y-70729987D01*
X111932415Y-70729991D01*
X111977793Y-70832764D01*
X111977794Y-70832765D01*
X112057235Y-70912206D01*
X112160009Y-70957585D01*
X112185135Y-70960500D01*
X113874864Y-70960499D01*
X113874879Y-70960497D01*
X113874882Y-70960497D01*
X113899987Y-70957586D01*
X113899988Y-70957585D01*
X113899991Y-70957585D01*
X114002765Y-70912206D01*
X114082206Y-70832765D01*
X114127585Y-70729991D01*
X114130500Y-70704865D01*
X114130499Y-69015136D01*
X114130497Y-69015117D01*
X114127586Y-68990012D01*
X114127585Y-68990010D01*
X114127585Y-68990009D01*
X114082206Y-68887235D01*
X114002765Y-68807794D01*
X113960706Y-68789223D01*
X113899992Y-68762415D01*
X113874865Y-68759500D01*
X112185143Y-68759500D01*
X112185117Y-68759502D01*
X112160012Y-68762413D01*
X112160008Y-68762415D01*
X112057235Y-68807793D01*
X111977794Y-68887234D01*
X111932415Y-68990006D01*
X111932415Y-68990008D01*
X111929500Y-69015131D01*
X105930667Y-69015131D01*
X105948920Y-68990008D01*
X105962287Y-68971610D01*
X106055220Y-68789219D01*
X106118477Y-68594534D01*
X106150500Y-68392352D01*
X106150500Y-68187648D01*
X106118477Y-67985466D01*
X106107144Y-67950588D01*
X106055218Y-67790776D01*
X106017421Y-67716597D01*
X105962287Y-67608390D01*
X105946796Y-67587068D01*
X105841971Y-67442786D01*
X105697213Y-67298028D01*
X105603910Y-67230241D01*
X111889500Y-67230241D01*
X111889500Y-67409758D01*
X111917583Y-67587069D01*
X111973055Y-67757797D01*
X112054559Y-67917755D01*
X112160069Y-68062980D01*
X112287019Y-68189930D01*
X112422916Y-68288663D01*
X112432248Y-68295443D01*
X112573769Y-68367552D01*
X112592202Y-68376944D01*
X112639621Y-68392351D01*
X112762932Y-68432417D01*
X112940241Y-68460500D01*
X112940242Y-68460500D01*
X113119758Y-68460500D01*
X113119759Y-68460500D01*
X113297068Y-68432417D01*
X113467800Y-68376943D01*
X113627752Y-68295443D01*
X113709293Y-68236200D01*
X113772980Y-68189930D01*
X113772982Y-68189927D01*
X113772986Y-68189925D01*
X113899925Y-68062986D01*
X113899927Y-68062982D01*
X113899930Y-68062980D01*
X113981586Y-67950588D01*
X114005443Y-67917752D01*
X114086943Y-67757800D01*
X114142417Y-67587068D01*
X114170500Y-67409759D01*
X114170500Y-67230241D01*
X127129500Y-67230241D01*
X127129500Y-67409758D01*
X127157583Y-67587069D01*
X127213055Y-67757797D01*
X127294559Y-67917755D01*
X127400069Y-68062980D01*
X127527019Y-68189930D01*
X127662916Y-68288663D01*
X127672248Y-68295443D01*
X127813769Y-68367552D01*
X127832202Y-68376944D01*
X127879621Y-68392351D01*
X128002932Y-68432417D01*
X128180241Y-68460500D01*
X128180242Y-68460500D01*
X128359758Y-68460500D01*
X128359759Y-68460500D01*
X128537068Y-68432417D01*
X128707800Y-68376943D01*
X128867752Y-68295443D01*
X128949293Y-68236200D01*
X129012980Y-68189930D01*
X129012982Y-68189927D01*
X129012986Y-68189925D01*
X129139925Y-68062986D01*
X129139927Y-68062982D01*
X129139930Y-68062980D01*
X129221586Y-67950588D01*
X129245443Y-67917752D01*
X129326943Y-67757800D01*
X129382417Y-67587068D01*
X129410500Y-67409759D01*
X129410500Y-67230241D01*
X129382417Y-67052932D01*
X129326943Y-66882200D01*
X129245443Y-66722248D01*
X129238663Y-66712916D01*
X129139930Y-66577019D01*
X129012980Y-66450069D01*
X128867755Y-66344559D01*
X128867754Y-66344558D01*
X128867752Y-66344557D01*
X128787776Y-66303807D01*
X128707797Y-66263055D01*
X128537069Y-66207583D01*
X128448413Y-66193541D01*
X128359759Y-66179500D01*
X128180241Y-66179500D01*
X128121138Y-66188861D01*
X128002930Y-66207583D01*
X127832202Y-66263055D01*
X127672244Y-66344559D01*
X127527019Y-66450069D01*
X127400069Y-66577019D01*
X127294559Y-66722244D01*
X127213055Y-66882202D01*
X127157583Y-67052930D01*
X127129500Y-67230241D01*
X114170500Y-67230241D01*
X114142417Y-67052932D01*
X114086943Y-66882200D01*
X114005443Y-66722248D01*
X113998663Y-66712916D01*
X113899930Y-66577019D01*
X113772980Y-66450069D01*
X113627755Y-66344559D01*
X113627754Y-66344558D01*
X113627752Y-66344557D01*
X113547776Y-66303807D01*
X113467797Y-66263055D01*
X113297069Y-66207583D01*
X113208413Y-66193541D01*
X113119759Y-66179500D01*
X112940241Y-66179500D01*
X112881138Y-66188861D01*
X112762930Y-66207583D01*
X112592202Y-66263055D01*
X112432244Y-66344559D01*
X112287019Y-66450069D01*
X112160069Y-66577019D01*
X112054559Y-66722244D01*
X111973055Y-66882202D01*
X111917583Y-67052930D01*
X111889500Y-67230241D01*
X105603910Y-67230241D01*
X105531613Y-67177715D01*
X105531612Y-67177714D01*
X105531610Y-67177713D01*
X105474653Y-67148691D01*
X105349223Y-67084781D01*
X105154534Y-67021522D01*
X104979995Y-66993878D01*
X104952352Y-66989500D01*
X104747648Y-66989500D01*
X104723329Y-66993351D01*
X104545465Y-67021522D01*
X104350776Y-67084781D01*
X104168386Y-67177715D01*
X104002786Y-67298028D01*
X103858028Y-67442786D01*
X103737715Y-67608386D01*
X103644781Y-67790776D01*
X103581522Y-67985465D01*
X103549500Y-68187648D01*
X99650500Y-68187648D01*
X99618477Y-67985466D01*
X99607144Y-67950588D01*
X99555218Y-67790776D01*
X99517421Y-67716597D01*
X99462287Y-67608390D01*
X99446796Y-67587068D01*
X99341971Y-67442786D01*
X99197213Y-67298028D01*
X99031613Y-67177715D01*
X99031612Y-67177714D01*
X99031610Y-67177713D01*
X98974653Y-67148691D01*
X98849223Y-67084781D01*
X98654534Y-67021522D01*
X98479995Y-66993878D01*
X98452352Y-66989500D01*
X98247648Y-66989500D01*
X98223329Y-66993351D01*
X98045465Y-67021522D01*
X97850776Y-67084781D01*
X97668386Y-67177715D01*
X97502786Y-67298028D01*
X97358028Y-67442786D01*
X97237715Y-67608386D01*
X97144781Y-67790776D01*
X97081522Y-67985465D01*
X97049500Y-68187648D01*
X93772658Y-68187648D01*
X93689414Y-68073072D01*
X93566928Y-67950586D01*
X93426788Y-67848768D01*
X93272445Y-67770127D01*
X93107701Y-67716598D01*
X93107699Y-67716597D01*
X93107698Y-67716597D01*
X92976271Y-67695781D01*
X92936611Y-67689500D01*
X92763389Y-67689500D01*
X92723728Y-67695781D01*
X92592302Y-67716597D01*
X92427552Y-67770128D01*
X92273211Y-67848768D01*
X92193256Y-67906859D01*
X92133072Y-67950586D01*
X92133070Y-67950588D01*
X92133069Y-67950588D01*
X92010588Y-68073069D01*
X92010588Y-68073070D01*
X92010586Y-68073072D01*
X91966859Y-68133256D01*
X91908768Y-68213211D01*
X91830128Y-68367552D01*
X91776597Y-68532302D01*
X91749500Y-68703389D01*
X85500500Y-68703389D01*
X85500500Y-63393713D01*
X86649500Y-63393713D01*
X86649500Y-63606286D01*
X86682753Y-63816239D01*
X86682753Y-63816241D01*
X86682754Y-63816243D01*
X86743205Y-64002292D01*
X86748444Y-64018414D01*
X86844951Y-64207820D01*
X86969890Y-64379786D01*
X87120213Y-64530109D01*
X87292179Y-64655048D01*
X87292181Y-64655049D01*
X87292184Y-64655051D01*
X87481588Y-64751557D01*
X87683757Y-64817246D01*
X87893713Y-64850500D01*
X87893714Y-64850500D01*
X88106286Y-64850500D01*
X88106287Y-64850500D01*
X88316243Y-64817246D01*
X88518412Y-64751557D01*
X88707816Y-64655051D01*
X88816397Y-64576163D01*
X88879786Y-64530109D01*
X88879788Y-64530106D01*
X88879792Y-64530104D01*
X89030104Y-64379792D01*
X89030106Y-64379788D01*
X89030109Y-64379786D01*
X89155048Y-64207820D01*
X89155047Y-64207820D01*
X89155051Y-64207816D01*
X89251557Y-64018412D01*
X89317246Y-63816243D01*
X89337608Y-63687682D01*
X91550000Y-63687682D01*
X91550000Y-63892317D01*
X91582009Y-64094417D01*
X91645244Y-64289031D01*
X91738141Y-64471350D01*
X91738147Y-64471359D01*
X91770523Y-64515921D01*
X91770524Y-64515922D01*
X92450000Y-63836446D01*
X92450000Y-63842661D01*
X92477259Y-63944394D01*
X92529920Y-64035606D01*
X92604394Y-64110080D01*
X92695606Y-64162741D01*
X92797339Y-64190000D01*
X92803553Y-64190000D01*
X92124076Y-64869474D01*
X92168650Y-64901859D01*
X92350968Y-64994755D01*
X92545582Y-65057990D01*
X92747683Y-65090000D01*
X92952317Y-65090000D01*
X93154417Y-65057990D01*
X93349031Y-64994755D01*
X93531349Y-64901859D01*
X93575922Y-64869474D01*
X92896447Y-64190000D01*
X92902661Y-64190000D01*
X93004394Y-64162741D01*
X93095606Y-64110080D01*
X93170080Y-64035606D01*
X93222741Y-63944394D01*
X93250000Y-63842661D01*
X93250000Y-63836447D01*
X93929474Y-64515921D01*
X93961859Y-64471349D01*
X94054755Y-64289031D01*
X94117990Y-64094417D01*
X94150000Y-63892317D01*
X94150000Y-63687686D01*
X94149809Y-63686481D01*
X94149809Y-63686477D01*
X94149808Y-63686473D01*
X94147507Y-63671947D01*
X96850000Y-63671947D01*
X96850000Y-63908052D01*
X96886934Y-64141247D01*
X96959897Y-64365802D01*
X97067087Y-64576174D01*
X97127338Y-64659104D01*
X97127340Y-64659105D01*
X97826212Y-63960233D01*
X97837482Y-64002292D01*
X97909890Y-64127708D01*
X98012292Y-64230110D01*
X98137708Y-64302518D01*
X98179765Y-64313787D01*
X97480893Y-65012658D01*
X97563828Y-65072914D01*
X97774197Y-65180102D01*
X97998752Y-65253065D01*
X97998751Y-65253065D01*
X98231948Y-65290000D01*
X98468052Y-65290000D01*
X98701247Y-65253065D01*
X98925802Y-65180102D01*
X99136163Y-65072918D01*
X99136169Y-65072914D01*
X99219104Y-65012658D01*
X99219105Y-65012658D01*
X98520233Y-64313787D01*
X98562292Y-64302518D01*
X98687708Y-64230110D01*
X98790110Y-64127708D01*
X98862518Y-64002292D01*
X98873787Y-63960234D01*
X99572658Y-64659105D01*
X99572658Y-64659104D01*
X99632914Y-64576169D01*
X99632918Y-64576163D01*
X99740102Y-64365802D01*
X99813065Y-64141247D01*
X99850000Y-63908052D01*
X99850000Y-63671947D01*
X103350000Y-63671947D01*
X103350000Y-63908052D01*
X103386934Y-64141247D01*
X103459897Y-64365802D01*
X103567087Y-64576174D01*
X103627338Y-64659104D01*
X103627340Y-64659105D01*
X104326212Y-63960233D01*
X104337482Y-64002292D01*
X104409890Y-64127708D01*
X104512292Y-64230110D01*
X104637708Y-64302518D01*
X104679765Y-64313787D01*
X103980893Y-65012658D01*
X104063828Y-65072914D01*
X104274197Y-65180102D01*
X104498752Y-65253065D01*
X104498751Y-65253065D01*
X104731948Y-65290000D01*
X104968052Y-65290000D01*
X105201247Y-65253065D01*
X105425802Y-65180102D01*
X105636163Y-65072918D01*
X105636169Y-65072914D01*
X105719104Y-65012658D01*
X105719105Y-65012658D01*
X105020233Y-64313787D01*
X105062292Y-64302518D01*
X105187708Y-64230110D01*
X105290110Y-64127708D01*
X105362518Y-64002292D01*
X105373787Y-63960234D01*
X106072658Y-64659105D01*
X106072658Y-64659104D01*
X106132914Y-64576169D01*
X106132918Y-64576163D01*
X106240102Y-64365802D01*
X106313065Y-64141247D01*
X106350000Y-63908052D01*
X106350000Y-63671947D01*
X106313065Y-63438751D01*
X106313064Y-63438747D01*
X106309299Y-63427158D01*
X106298432Y-63393713D01*
X129649500Y-63393713D01*
X129649500Y-63606286D01*
X129682753Y-63816239D01*
X129682753Y-63816241D01*
X129682754Y-63816243D01*
X129743205Y-64002292D01*
X129748444Y-64018414D01*
X129844951Y-64207820D01*
X129969890Y-64379786D01*
X130120213Y-64530109D01*
X130292179Y-64655048D01*
X130292181Y-64655049D01*
X130292184Y-64655051D01*
X130481588Y-64751557D01*
X130683757Y-64817246D01*
X130893713Y-64850500D01*
X130893714Y-64850500D01*
X131106286Y-64850500D01*
X131106287Y-64850500D01*
X131316243Y-64817246D01*
X131518412Y-64751557D01*
X131707816Y-64655051D01*
X131816397Y-64576163D01*
X131879786Y-64530109D01*
X131879788Y-64530106D01*
X131879792Y-64530104D01*
X132030104Y-64379792D01*
X132030106Y-64379788D01*
X132030109Y-64379786D01*
X132155048Y-64207820D01*
X132155047Y-64207820D01*
X132155051Y-64207816D01*
X132251557Y-64018412D01*
X132317246Y-63816243D01*
X132350500Y-63606287D01*
X132350500Y-63393713D01*
X132317246Y-63183757D01*
X132251557Y-62981588D01*
X132155051Y-62792184D01*
X132155049Y-62792181D01*
X132155048Y-62792179D01*
X132030109Y-62620213D01*
X131879786Y-62469890D01*
X131707820Y-62344951D01*
X131518414Y-62248444D01*
X131518413Y-62248443D01*
X131518412Y-62248443D01*
X131316243Y-62182754D01*
X131316241Y-62182753D01*
X131316240Y-62182753D01*
X131154957Y-62157208D01*
X131106287Y-62149500D01*
X130893713Y-62149500D01*
X130845042Y-62157208D01*
X130683760Y-62182753D01*
X130481585Y-62248444D01*
X130292179Y-62344951D01*
X130120213Y-62469890D01*
X129969890Y-62620213D01*
X129844951Y-62792179D01*
X129748444Y-62981585D01*
X129682753Y-63183760D01*
X129649500Y-63393713D01*
X106298432Y-63393713D01*
X106240102Y-63214197D01*
X106132914Y-63003828D01*
X106072658Y-62920894D01*
X106072658Y-62920893D01*
X105373787Y-63619765D01*
X105362518Y-63577708D01*
X105290110Y-63452292D01*
X105187708Y-63349890D01*
X105062292Y-63277482D01*
X105020234Y-63266212D01*
X105719105Y-62567340D01*
X105719104Y-62567338D01*
X105636174Y-62507087D01*
X105425802Y-62399897D01*
X105201247Y-62326934D01*
X105201248Y-62326934D01*
X104968052Y-62290000D01*
X104731948Y-62290000D01*
X104498752Y-62326934D01*
X104274197Y-62399897D01*
X104063830Y-62507084D01*
X103980894Y-62567340D01*
X104679766Y-63266212D01*
X104637708Y-63277482D01*
X104512292Y-63349890D01*
X104409890Y-63452292D01*
X104337482Y-63577708D01*
X104326212Y-63619766D01*
X103627340Y-62920894D01*
X103567084Y-63003830D01*
X103459897Y-63214197D01*
X103386934Y-63438752D01*
X103350000Y-63671947D01*
X99850000Y-63671947D01*
X99813065Y-63438752D01*
X99740102Y-63214197D01*
X99632914Y-63003828D01*
X99572658Y-62920894D01*
X99572658Y-62920893D01*
X98873787Y-63619765D01*
X98862518Y-63577708D01*
X98790110Y-63452292D01*
X98687708Y-63349890D01*
X98562292Y-63277482D01*
X98520234Y-63266212D01*
X99219105Y-62567340D01*
X99219104Y-62567339D01*
X99136174Y-62507087D01*
X98925802Y-62399897D01*
X98701247Y-62326934D01*
X98701248Y-62326934D01*
X98468052Y-62290000D01*
X98231948Y-62290000D01*
X97998752Y-62326934D01*
X97774197Y-62399897D01*
X97563830Y-62507084D01*
X97480894Y-62567340D01*
X98179766Y-63266212D01*
X98137708Y-63277482D01*
X98012292Y-63349890D01*
X97909890Y-63452292D01*
X97837482Y-63577708D01*
X97826212Y-63619766D01*
X97127340Y-62920894D01*
X97067084Y-63003830D01*
X96959897Y-63214197D01*
X96886934Y-63438752D01*
X96850000Y-63671947D01*
X94147507Y-63671947D01*
X94117990Y-63485582D01*
X94054755Y-63290968D01*
X93961859Y-63108650D01*
X93929474Y-63064077D01*
X93929474Y-63064076D01*
X93250000Y-63743551D01*
X93250000Y-63737339D01*
X93222741Y-63635606D01*
X93170080Y-63544394D01*
X93095606Y-63469920D01*
X93004394Y-63417259D01*
X92902661Y-63390000D01*
X92896446Y-63390000D01*
X93575922Y-62710524D01*
X93575921Y-62710523D01*
X93531350Y-62678141D01*
X93349031Y-62585244D01*
X93154417Y-62522009D01*
X92952317Y-62490000D01*
X92747683Y-62490000D01*
X92545582Y-62522009D01*
X92350968Y-62585244D01*
X92168644Y-62678143D01*
X92124077Y-62710523D01*
X92124077Y-62710524D01*
X92803554Y-63390000D01*
X92797339Y-63390000D01*
X92695606Y-63417259D01*
X92604394Y-63469920D01*
X92529920Y-63544394D01*
X92477259Y-63635606D01*
X92450000Y-63737339D01*
X92450000Y-63743553D01*
X91770524Y-63064077D01*
X91770523Y-63064077D01*
X91738143Y-63108644D01*
X91645244Y-63290968D01*
X91582009Y-63485582D01*
X91550000Y-63687682D01*
X89337608Y-63687682D01*
X89350500Y-63606287D01*
X89350500Y-63393713D01*
X89317246Y-63183757D01*
X89251557Y-62981588D01*
X89166205Y-62814075D01*
X89166205Y-62814074D01*
X89155051Y-62792184D01*
X89030109Y-62620213D01*
X88879786Y-62469890D01*
X88707820Y-62344951D01*
X88518414Y-62248444D01*
X88518413Y-62248443D01*
X88518412Y-62248443D01*
X88316243Y-62182754D01*
X88316241Y-62182753D01*
X88316240Y-62182753D01*
X88154957Y-62157208D01*
X88106287Y-62149500D01*
X87893713Y-62149500D01*
X87845042Y-62157208D01*
X87683760Y-62182753D01*
X87481585Y-62248444D01*
X87292179Y-62344951D01*
X87120213Y-62469890D01*
X86969890Y-62620213D01*
X86844951Y-62792179D01*
X86748444Y-62981585D01*
X86682753Y-63183760D01*
X86649500Y-63393713D01*
X85500500Y-63393713D01*
X85500500Y-61124500D01*
X85520185Y-61057461D01*
X85572989Y-61011706D01*
X85624500Y-61000500D01*
X133375500Y-61000500D01*
X133442539Y-61020185D01*
G37*
G04 #@! TD.AperFunction*
M02*
