G04 #@! TF.GenerationSoftware,KiCad,Pcbnew,9.0.7*
G04 #@! TF.CreationDate,2026-02-15T18:00:25+01:00*
G04 #@! TF.ProjectId,Articulated-Robot,41727469-6375-46c6-9174-65642d526f62,rev?*
G04 #@! TF.SameCoordinates,Original*
G04 #@! TF.FileFunction,Legend,Top*
G04 #@! TF.FilePolarity,Positive*
%FSLAX46Y46*%
G04 Gerber Fmt 4.6, Leading zero omitted, Abs format (unit mm)*
G04 Created by KiCad (PCBNEW 9.0.7) date 2026-02-15 18:00:25*
%MOMM*%
%LPD*%
G01*
G04 APERTURE LIST*
%ADD10C,0.152400*%
%ADD11C,0.100000*%
%ADD12C,0.300000*%
%ADD13C,0.150000*%
%ADD14C,0.125000*%
%ADD15C,0.120000*%
%ADD16C,0.200000*%
G04 APERTURE END LIST*
D10*
X110026015Y-63369694D02*
X110026015Y-64083979D01*
X110026015Y-64083979D02*
X109987310Y-64226836D01*
X109987310Y-64226836D02*
X109909901Y-64322075D01*
X109909901Y-64322075D02*
X109793786Y-64369694D01*
X109793786Y-64369694D02*
X109716377Y-64369694D01*
X110800110Y-64369694D02*
X110413062Y-64369694D01*
X110413062Y-64369694D02*
X110413062Y-63369694D01*
X111535500Y-64274455D02*
X111496796Y-64322075D01*
X111496796Y-64322075D02*
X111380681Y-64369694D01*
X111380681Y-64369694D02*
X111303272Y-64369694D01*
X111303272Y-64369694D02*
X111187158Y-64322075D01*
X111187158Y-64322075D02*
X111109748Y-64226836D01*
X111109748Y-64226836D02*
X111071043Y-64131598D01*
X111071043Y-64131598D02*
X111032339Y-63941122D01*
X111032339Y-63941122D02*
X111032339Y-63798265D01*
X111032339Y-63798265D02*
X111071043Y-63607789D01*
X111071043Y-63607789D02*
X111109748Y-63512551D01*
X111109748Y-63512551D02*
X111187158Y-63417313D01*
X111187158Y-63417313D02*
X111303272Y-63369694D01*
X111303272Y-63369694D02*
X111380681Y-63369694D01*
X111380681Y-63369694D02*
X111496796Y-63417313D01*
X111496796Y-63417313D02*
X111535500Y-63464932D01*
X112116072Y-63369694D02*
X112116072Y-64083979D01*
X112116072Y-64083979D02*
X112077367Y-64226836D01*
X112077367Y-64226836D02*
X111999958Y-64322075D01*
X111999958Y-64322075D02*
X111883843Y-64369694D01*
X111883843Y-64369694D02*
X111806434Y-64369694D01*
X112890167Y-64369694D02*
X112503119Y-64369694D01*
X112503119Y-64369694D02*
X112503119Y-63369694D01*
X113625557Y-64274455D02*
X113586853Y-64322075D01*
X113586853Y-64322075D02*
X113470738Y-64369694D01*
X113470738Y-64369694D02*
X113393329Y-64369694D01*
X113393329Y-64369694D02*
X113277215Y-64322075D01*
X113277215Y-64322075D02*
X113199805Y-64226836D01*
X113199805Y-64226836D02*
X113161100Y-64131598D01*
X113161100Y-64131598D02*
X113122396Y-63941122D01*
X113122396Y-63941122D02*
X113122396Y-63798265D01*
X113122396Y-63798265D02*
X113161100Y-63607789D01*
X113161100Y-63607789D02*
X113199805Y-63512551D01*
X113199805Y-63512551D02*
X113277215Y-63417313D01*
X113277215Y-63417313D02*
X113393329Y-63369694D01*
X113393329Y-63369694D02*
X113470738Y-63369694D01*
X113470738Y-63369694D02*
X113586853Y-63417313D01*
X113586853Y-63417313D02*
X113625557Y-63464932D01*
X114206129Y-63369694D02*
X114206129Y-64083979D01*
X114206129Y-64083979D02*
X114167424Y-64226836D01*
X114167424Y-64226836D02*
X114090015Y-64322075D01*
X114090015Y-64322075D02*
X113973900Y-64369694D01*
X113973900Y-64369694D02*
X113896491Y-64369694D01*
X114980224Y-64369694D02*
X114593176Y-64369694D01*
X114593176Y-64369694D02*
X114593176Y-63369694D01*
X115715614Y-64274455D02*
X115676910Y-64322075D01*
X115676910Y-64322075D02*
X115560795Y-64369694D01*
X115560795Y-64369694D02*
X115483386Y-64369694D01*
X115483386Y-64369694D02*
X115367272Y-64322075D01*
X115367272Y-64322075D02*
X115289862Y-64226836D01*
X115289862Y-64226836D02*
X115251157Y-64131598D01*
X115251157Y-64131598D02*
X115212453Y-63941122D01*
X115212453Y-63941122D02*
X115212453Y-63798265D01*
X115212453Y-63798265D02*
X115251157Y-63607789D01*
X115251157Y-63607789D02*
X115289862Y-63512551D01*
X115289862Y-63512551D02*
X115367272Y-63417313D01*
X115367272Y-63417313D02*
X115483386Y-63369694D01*
X115483386Y-63369694D02*
X115560795Y-63369694D01*
X115560795Y-63369694D02*
X115676910Y-63417313D01*
X115676910Y-63417313D02*
X115715614Y-63464932D01*
X116296186Y-63369694D02*
X116296186Y-64083979D01*
X116296186Y-64083979D02*
X116257481Y-64226836D01*
X116257481Y-64226836D02*
X116180072Y-64322075D01*
X116180072Y-64322075D02*
X116063957Y-64369694D01*
X116063957Y-64369694D02*
X115986548Y-64369694D01*
X117070281Y-64369694D02*
X116683233Y-64369694D01*
X116683233Y-64369694D02*
X116683233Y-63369694D01*
X117805671Y-64274455D02*
X117766967Y-64322075D01*
X117766967Y-64322075D02*
X117650852Y-64369694D01*
X117650852Y-64369694D02*
X117573443Y-64369694D01*
X117573443Y-64369694D02*
X117457329Y-64322075D01*
X117457329Y-64322075D02*
X117379919Y-64226836D01*
X117379919Y-64226836D02*
X117341214Y-64131598D01*
X117341214Y-64131598D02*
X117302510Y-63941122D01*
X117302510Y-63941122D02*
X117302510Y-63798265D01*
X117302510Y-63798265D02*
X117341214Y-63607789D01*
X117341214Y-63607789D02*
X117379919Y-63512551D01*
X117379919Y-63512551D02*
X117457329Y-63417313D01*
X117457329Y-63417313D02*
X117573443Y-63369694D01*
X117573443Y-63369694D02*
X117650852Y-63369694D01*
X117650852Y-63369694D02*
X117766967Y-63417313D01*
X117766967Y-63417313D02*
X117805671Y-63464932D01*
X98439163Y-71869694D02*
X98439163Y-70869694D01*
X98439163Y-70869694D02*
X98748801Y-70869694D01*
X98748801Y-70869694D02*
X98826211Y-70917313D01*
X98826211Y-70917313D02*
X98864916Y-70964932D01*
X98864916Y-70964932D02*
X98903620Y-71060170D01*
X98903620Y-71060170D02*
X98903620Y-71203027D01*
X98903620Y-71203027D02*
X98864916Y-71298265D01*
X98864916Y-71298265D02*
X98826211Y-71345884D01*
X98826211Y-71345884D02*
X98748801Y-71393503D01*
X98748801Y-71393503D02*
X98439163Y-71393503D01*
X99600306Y-71203027D02*
X99600306Y-71869694D01*
X99251963Y-71203027D02*
X99251963Y-71726836D01*
X99251963Y-71726836D02*
X99290668Y-71822075D01*
X99290668Y-71822075D02*
X99368078Y-71869694D01*
X99368078Y-71869694D02*
X99484192Y-71869694D01*
X99484192Y-71869694D02*
X99561601Y-71822075D01*
X99561601Y-71822075D02*
X99600306Y-71774455D01*
X99948649Y-71822075D02*
X100026058Y-71869694D01*
X100026058Y-71869694D02*
X100180877Y-71869694D01*
X100180877Y-71869694D02*
X100258287Y-71822075D01*
X100258287Y-71822075D02*
X100296991Y-71726836D01*
X100296991Y-71726836D02*
X100296991Y-71679217D01*
X100296991Y-71679217D02*
X100258287Y-71583979D01*
X100258287Y-71583979D02*
X100180877Y-71536360D01*
X100180877Y-71536360D02*
X100064763Y-71536360D01*
X100064763Y-71536360D02*
X99987353Y-71488741D01*
X99987353Y-71488741D02*
X99948649Y-71393503D01*
X99948649Y-71393503D02*
X99948649Y-71345884D01*
X99948649Y-71345884D02*
X99987353Y-71250646D01*
X99987353Y-71250646D02*
X100064763Y-71203027D01*
X100064763Y-71203027D02*
X100180877Y-71203027D01*
X100180877Y-71203027D02*
X100258287Y-71250646D01*
X100645334Y-71869694D02*
X100645334Y-70869694D01*
X100993677Y-71869694D02*
X100993677Y-71345884D01*
X100993677Y-71345884D02*
X100954972Y-71250646D01*
X100954972Y-71250646D02*
X100877563Y-71203027D01*
X100877563Y-71203027D02*
X100761449Y-71203027D01*
X100761449Y-71203027D02*
X100684039Y-71250646D01*
X100684039Y-71250646D02*
X100645334Y-71298265D01*
X102270934Y-71345884D02*
X102387048Y-71393503D01*
X102387048Y-71393503D02*
X102425753Y-71441122D01*
X102425753Y-71441122D02*
X102464457Y-71536360D01*
X102464457Y-71536360D02*
X102464457Y-71679217D01*
X102464457Y-71679217D02*
X102425753Y-71774455D01*
X102425753Y-71774455D02*
X102387048Y-71822075D01*
X102387048Y-71822075D02*
X102309638Y-71869694D01*
X102309638Y-71869694D02*
X102000000Y-71869694D01*
X102000000Y-71869694D02*
X102000000Y-70869694D01*
X102000000Y-70869694D02*
X102270934Y-70869694D01*
X102270934Y-70869694D02*
X102348343Y-70917313D01*
X102348343Y-70917313D02*
X102387048Y-70964932D01*
X102387048Y-70964932D02*
X102425753Y-71060170D01*
X102425753Y-71060170D02*
X102425753Y-71155408D01*
X102425753Y-71155408D02*
X102387048Y-71250646D01*
X102387048Y-71250646D02*
X102348343Y-71298265D01*
X102348343Y-71298265D02*
X102270934Y-71345884D01*
X102270934Y-71345884D02*
X102000000Y-71345884D01*
X103161143Y-71203027D02*
X103161143Y-71869694D01*
X102812800Y-71203027D02*
X102812800Y-71726836D01*
X102812800Y-71726836D02*
X102851505Y-71822075D01*
X102851505Y-71822075D02*
X102928915Y-71869694D01*
X102928915Y-71869694D02*
X103045029Y-71869694D01*
X103045029Y-71869694D02*
X103122438Y-71822075D01*
X103122438Y-71822075D02*
X103161143Y-71774455D01*
X103432076Y-71203027D02*
X103741714Y-71203027D01*
X103548190Y-70869694D02*
X103548190Y-71726836D01*
X103548190Y-71726836D02*
X103586895Y-71822075D01*
X103586895Y-71822075D02*
X103664305Y-71869694D01*
X103664305Y-71869694D02*
X103741714Y-71869694D01*
X103896533Y-71203027D02*
X104206171Y-71203027D01*
X104012647Y-70869694D02*
X104012647Y-71726836D01*
X104012647Y-71726836D02*
X104051352Y-71822075D01*
X104051352Y-71822075D02*
X104128762Y-71869694D01*
X104128762Y-71869694D02*
X104206171Y-71869694D01*
X104593219Y-71869694D02*
X104515809Y-71822075D01*
X104515809Y-71822075D02*
X104477104Y-71774455D01*
X104477104Y-71774455D02*
X104438400Y-71679217D01*
X104438400Y-71679217D02*
X104438400Y-71393503D01*
X104438400Y-71393503D02*
X104477104Y-71298265D01*
X104477104Y-71298265D02*
X104515809Y-71250646D01*
X104515809Y-71250646D02*
X104593219Y-71203027D01*
X104593219Y-71203027D02*
X104709333Y-71203027D01*
X104709333Y-71203027D02*
X104786742Y-71250646D01*
X104786742Y-71250646D02*
X104825447Y-71298265D01*
X104825447Y-71298265D02*
X104864152Y-71393503D01*
X104864152Y-71393503D02*
X104864152Y-71679217D01*
X104864152Y-71679217D02*
X104825447Y-71774455D01*
X104825447Y-71774455D02*
X104786742Y-71822075D01*
X104786742Y-71822075D02*
X104709333Y-71869694D01*
X104709333Y-71869694D02*
X104593219Y-71869694D01*
X105212494Y-71203027D02*
X105212494Y-71869694D01*
X105212494Y-71298265D02*
X105251199Y-71250646D01*
X105251199Y-71250646D02*
X105328609Y-71203027D01*
X105328609Y-71203027D02*
X105444723Y-71203027D01*
X105444723Y-71203027D02*
X105522132Y-71250646D01*
X105522132Y-71250646D02*
X105560837Y-71345884D01*
X105560837Y-71345884D02*
X105560837Y-71869694D01*
X120583979Y-90744917D02*
X120583979Y-90357870D01*
X120869694Y-90822327D02*
X119869694Y-90551394D01*
X119869694Y-90551394D02*
X120869694Y-90280460D01*
X120869694Y-90009527D02*
X120203027Y-90009527D01*
X120393503Y-90009527D02*
X120298265Y-89970822D01*
X120298265Y-89970822D02*
X120250646Y-89932117D01*
X120250646Y-89932117D02*
X120203027Y-89854708D01*
X120203027Y-89854708D02*
X120203027Y-89777298D01*
X120869694Y-89158022D02*
X119869694Y-89158022D01*
X120822075Y-89158022D02*
X120869694Y-89235431D01*
X120869694Y-89235431D02*
X120869694Y-89390250D01*
X120869694Y-89390250D02*
X120822075Y-89467660D01*
X120822075Y-89467660D02*
X120774455Y-89506365D01*
X120774455Y-89506365D02*
X120679217Y-89545069D01*
X120679217Y-89545069D02*
X120393503Y-89545069D01*
X120393503Y-89545069D02*
X120298265Y-89506365D01*
X120298265Y-89506365D02*
X120250646Y-89467660D01*
X120250646Y-89467660D02*
X120203027Y-89390250D01*
X120203027Y-89390250D02*
X120203027Y-89235431D01*
X120203027Y-89235431D02*
X120250646Y-89158022D01*
X120203027Y-88422632D02*
X120869694Y-88422632D01*
X120203027Y-88770975D02*
X120726836Y-88770975D01*
X120726836Y-88770975D02*
X120822075Y-88732270D01*
X120822075Y-88732270D02*
X120869694Y-88654860D01*
X120869694Y-88654860D02*
X120869694Y-88538746D01*
X120869694Y-88538746D02*
X120822075Y-88461337D01*
X120822075Y-88461337D02*
X120774455Y-88422632D01*
X120869694Y-88035585D02*
X120203027Y-88035585D01*
X119869694Y-88035585D02*
X119917313Y-88074289D01*
X119917313Y-88074289D02*
X119964932Y-88035585D01*
X119964932Y-88035585D02*
X119917313Y-87996880D01*
X119917313Y-87996880D02*
X119869694Y-88035585D01*
X119869694Y-88035585D02*
X119964932Y-88035585D01*
X120203027Y-87648537D02*
X120869694Y-87648537D01*
X120298265Y-87648537D02*
X120250646Y-87609832D01*
X120250646Y-87609832D02*
X120203027Y-87532422D01*
X120203027Y-87532422D02*
X120203027Y-87416308D01*
X120203027Y-87416308D02*
X120250646Y-87338899D01*
X120250646Y-87338899D02*
X120345884Y-87300194D01*
X120345884Y-87300194D02*
X120869694Y-87300194D01*
X120869694Y-86797032D02*
X120822075Y-86874442D01*
X120822075Y-86874442D02*
X120774455Y-86913147D01*
X120774455Y-86913147D02*
X120679217Y-86951851D01*
X120679217Y-86951851D02*
X120393503Y-86951851D01*
X120393503Y-86951851D02*
X120298265Y-86913147D01*
X120298265Y-86913147D02*
X120250646Y-86874442D01*
X120250646Y-86874442D02*
X120203027Y-86797032D01*
X120203027Y-86797032D02*
X120203027Y-86680918D01*
X120203027Y-86680918D02*
X120250646Y-86603509D01*
X120250646Y-86603509D02*
X120298265Y-86564804D01*
X120298265Y-86564804D02*
X120393503Y-86526099D01*
X120393503Y-86526099D02*
X120679217Y-86526099D01*
X120679217Y-86526099D02*
X120774455Y-86564804D01*
X120774455Y-86564804D02*
X120822075Y-86603509D01*
X120822075Y-86603509D02*
X120869694Y-86680918D01*
X120869694Y-86680918D02*
X120869694Y-86797032D01*
X120869694Y-85558481D02*
X119869694Y-85558481D01*
X119869694Y-85558481D02*
X120869694Y-85094024D01*
X120869694Y-85094024D02*
X119869694Y-85094024D01*
X120869694Y-84358633D02*
X120345884Y-84358633D01*
X120345884Y-84358633D02*
X120250646Y-84397338D01*
X120250646Y-84397338D02*
X120203027Y-84474747D01*
X120203027Y-84474747D02*
X120203027Y-84629566D01*
X120203027Y-84629566D02*
X120250646Y-84706976D01*
X120822075Y-84358633D02*
X120869694Y-84436042D01*
X120869694Y-84436042D02*
X120869694Y-84629566D01*
X120869694Y-84629566D02*
X120822075Y-84706976D01*
X120822075Y-84706976D02*
X120726836Y-84745680D01*
X120726836Y-84745680D02*
X120631598Y-84745680D01*
X120631598Y-84745680D02*
X120536360Y-84706976D01*
X120536360Y-84706976D02*
X120488741Y-84629566D01*
X120488741Y-84629566D02*
X120488741Y-84436042D01*
X120488741Y-84436042D02*
X120441122Y-84358633D01*
X120203027Y-83971586D02*
X120869694Y-83971586D01*
X120298265Y-83971586D02*
X120250646Y-83932881D01*
X120250646Y-83932881D02*
X120203027Y-83855471D01*
X120203027Y-83855471D02*
X120203027Y-83739357D01*
X120203027Y-83739357D02*
X120250646Y-83661948D01*
X120250646Y-83661948D02*
X120345884Y-83623243D01*
X120345884Y-83623243D02*
X120869694Y-83623243D01*
X120869694Y-83120081D02*
X120822075Y-83197491D01*
X120822075Y-83197491D02*
X120774455Y-83236196D01*
X120774455Y-83236196D02*
X120679217Y-83274900D01*
X120679217Y-83274900D02*
X120393503Y-83274900D01*
X120393503Y-83274900D02*
X120298265Y-83236196D01*
X120298265Y-83236196D02*
X120250646Y-83197491D01*
X120250646Y-83197491D02*
X120203027Y-83120081D01*
X120203027Y-83120081D02*
X120203027Y-83003967D01*
X120203027Y-83003967D02*
X120250646Y-82926558D01*
X120250646Y-82926558D02*
X120298265Y-82887853D01*
X120298265Y-82887853D02*
X120393503Y-82849148D01*
X120393503Y-82849148D02*
X120679217Y-82849148D01*
X120679217Y-82849148D02*
X120774455Y-82887853D01*
X120774455Y-82887853D02*
X120822075Y-82926558D01*
X120822075Y-82926558D02*
X120869694Y-83003967D01*
X120869694Y-83003967D02*
X120869694Y-83120081D01*
D11*
X114252380Y-115872419D02*
X114328570Y-115872419D01*
X114328570Y-115872419D02*
X114404761Y-115920038D01*
X114404761Y-115920038D02*
X114442856Y-115967657D01*
X114442856Y-115967657D02*
X114480951Y-116062895D01*
X114480951Y-116062895D02*
X114519046Y-116253371D01*
X114519046Y-116253371D02*
X114519046Y-116491466D01*
X114519046Y-116491466D02*
X114480951Y-116681942D01*
X114480951Y-116681942D02*
X114442856Y-116777180D01*
X114442856Y-116777180D02*
X114404761Y-116824800D01*
X114404761Y-116824800D02*
X114328570Y-116872419D01*
X114328570Y-116872419D02*
X114252380Y-116872419D01*
X114252380Y-116872419D02*
X114176189Y-116824800D01*
X114176189Y-116824800D02*
X114138094Y-116777180D01*
X114138094Y-116777180D02*
X114099999Y-116681942D01*
X114099999Y-116681942D02*
X114061903Y-116491466D01*
X114061903Y-116491466D02*
X114061903Y-116253371D01*
X114061903Y-116253371D02*
X114099999Y-116062895D01*
X114099999Y-116062895D02*
X114138094Y-115967657D01*
X114138094Y-115967657D02*
X114176189Y-115920038D01*
X114176189Y-115920038D02*
X114252380Y-115872419D01*
X114823808Y-115967657D02*
X114861904Y-115920038D01*
X114861904Y-115920038D02*
X114938094Y-115872419D01*
X114938094Y-115872419D02*
X115128570Y-115872419D01*
X115128570Y-115872419D02*
X115204761Y-115920038D01*
X115204761Y-115920038D02*
X115242856Y-115967657D01*
X115242856Y-115967657D02*
X115280951Y-116062895D01*
X115280951Y-116062895D02*
X115280951Y-116158133D01*
X115280951Y-116158133D02*
X115242856Y-116300990D01*
X115242856Y-116300990D02*
X114785713Y-116872419D01*
X114785713Y-116872419D02*
X115280951Y-116872419D01*
X116195237Y-115824800D02*
X115509523Y-117110514D01*
X116728570Y-116348609D02*
X116461904Y-116348609D01*
X116461904Y-116872419D02*
X116461904Y-115872419D01*
X116461904Y-115872419D02*
X116842856Y-115872419D01*
X117147618Y-116348609D02*
X117414284Y-116348609D01*
X117528570Y-116872419D02*
X117147618Y-116872419D01*
X117147618Y-116872419D02*
X117147618Y-115872419D01*
X117147618Y-115872419D02*
X117528570Y-115872419D01*
X118138094Y-116348609D02*
X118252380Y-116396228D01*
X118252380Y-116396228D02*
X118290475Y-116443847D01*
X118290475Y-116443847D02*
X118328571Y-116539085D01*
X118328571Y-116539085D02*
X118328571Y-116681942D01*
X118328571Y-116681942D02*
X118290475Y-116777180D01*
X118290475Y-116777180D02*
X118252380Y-116824800D01*
X118252380Y-116824800D02*
X118176190Y-116872419D01*
X118176190Y-116872419D02*
X117871428Y-116872419D01*
X117871428Y-116872419D02*
X117871428Y-115872419D01*
X117871428Y-115872419D02*
X118138094Y-115872419D01*
X118138094Y-115872419D02*
X118214285Y-115920038D01*
X118214285Y-115920038D02*
X118252380Y-115967657D01*
X118252380Y-115967657D02*
X118290475Y-116062895D01*
X118290475Y-116062895D02*
X118290475Y-116158133D01*
X118290475Y-116158133D02*
X118252380Y-116253371D01*
X118252380Y-116253371D02*
X118214285Y-116300990D01*
X118214285Y-116300990D02*
X118138094Y-116348609D01*
X118138094Y-116348609D02*
X117871428Y-116348609D01*
X119242856Y-115824800D02*
X118557142Y-117110514D01*
X119471427Y-115967657D02*
X119509523Y-115920038D01*
X119509523Y-115920038D02*
X119585713Y-115872419D01*
X119585713Y-115872419D02*
X119776189Y-115872419D01*
X119776189Y-115872419D02*
X119852380Y-115920038D01*
X119852380Y-115920038D02*
X119890475Y-115967657D01*
X119890475Y-115967657D02*
X119928570Y-116062895D01*
X119928570Y-116062895D02*
X119928570Y-116158133D01*
X119928570Y-116158133D02*
X119890475Y-116300990D01*
X119890475Y-116300990D02*
X119433332Y-116872419D01*
X119433332Y-116872419D02*
X119928570Y-116872419D01*
X120423809Y-115872419D02*
X120499999Y-115872419D01*
X120499999Y-115872419D02*
X120576190Y-115920038D01*
X120576190Y-115920038D02*
X120614285Y-115967657D01*
X120614285Y-115967657D02*
X120652380Y-116062895D01*
X120652380Y-116062895D02*
X120690475Y-116253371D01*
X120690475Y-116253371D02*
X120690475Y-116491466D01*
X120690475Y-116491466D02*
X120652380Y-116681942D01*
X120652380Y-116681942D02*
X120614285Y-116777180D01*
X120614285Y-116777180D02*
X120576190Y-116824800D01*
X120576190Y-116824800D02*
X120499999Y-116872419D01*
X120499999Y-116872419D02*
X120423809Y-116872419D01*
X120423809Y-116872419D02*
X120347618Y-116824800D01*
X120347618Y-116824800D02*
X120309523Y-116777180D01*
X120309523Y-116777180D02*
X120271428Y-116681942D01*
X120271428Y-116681942D02*
X120233332Y-116491466D01*
X120233332Y-116491466D02*
X120233332Y-116253371D01*
X120233332Y-116253371D02*
X120271428Y-116062895D01*
X120271428Y-116062895D02*
X120309523Y-115967657D01*
X120309523Y-115967657D02*
X120347618Y-115920038D01*
X120347618Y-115920038D02*
X120423809Y-115872419D01*
X120995237Y-115967657D02*
X121033333Y-115920038D01*
X121033333Y-115920038D02*
X121109523Y-115872419D01*
X121109523Y-115872419D02*
X121299999Y-115872419D01*
X121299999Y-115872419D02*
X121376190Y-115920038D01*
X121376190Y-115920038D02*
X121414285Y-115967657D01*
X121414285Y-115967657D02*
X121452380Y-116062895D01*
X121452380Y-116062895D02*
X121452380Y-116158133D01*
X121452380Y-116158133D02*
X121414285Y-116300990D01*
X121414285Y-116300990D02*
X120957142Y-116872419D01*
X120957142Y-116872419D02*
X121452380Y-116872419D01*
X122138095Y-115872419D02*
X121985714Y-115872419D01*
X121985714Y-115872419D02*
X121909523Y-115920038D01*
X121909523Y-115920038D02*
X121871428Y-115967657D01*
X121871428Y-115967657D02*
X121795238Y-116110514D01*
X121795238Y-116110514D02*
X121757142Y-116300990D01*
X121757142Y-116300990D02*
X121757142Y-116681942D01*
X121757142Y-116681942D02*
X121795238Y-116777180D01*
X121795238Y-116777180D02*
X121833333Y-116824800D01*
X121833333Y-116824800D02*
X121909523Y-116872419D01*
X121909523Y-116872419D02*
X122061904Y-116872419D01*
X122061904Y-116872419D02*
X122138095Y-116824800D01*
X122138095Y-116824800D02*
X122176190Y-116777180D01*
X122176190Y-116777180D02*
X122214285Y-116681942D01*
X122214285Y-116681942D02*
X122214285Y-116443847D01*
X122214285Y-116443847D02*
X122176190Y-116348609D01*
X122176190Y-116348609D02*
X122138095Y-116300990D01*
X122138095Y-116300990D02*
X122061904Y-116253371D01*
X122061904Y-116253371D02*
X121909523Y-116253371D01*
X121909523Y-116253371D02*
X121833333Y-116300990D01*
X121833333Y-116300990D02*
X121795238Y-116348609D01*
X121795238Y-116348609D02*
X121757142Y-116443847D01*
X123166667Y-116491466D02*
X123776191Y-116491466D01*
X124690476Y-116205752D02*
X124880952Y-116872419D01*
X124880952Y-116872419D02*
X125071429Y-116205752D01*
X125795238Y-116872419D02*
X125338095Y-116872419D01*
X125566667Y-116872419D02*
X125566667Y-115872419D01*
X125566667Y-115872419D02*
X125490476Y-116015276D01*
X125490476Y-116015276D02*
X125414286Y-116110514D01*
X125414286Y-116110514D02*
X125338095Y-116158133D01*
X126138096Y-116777180D02*
X126176191Y-116824800D01*
X126176191Y-116824800D02*
X126138096Y-116872419D01*
X126138096Y-116872419D02*
X126100000Y-116824800D01*
X126100000Y-116824800D02*
X126138096Y-116777180D01*
X126138096Y-116777180D02*
X126138096Y-116872419D01*
X126671429Y-115872419D02*
X126747619Y-115872419D01*
X126747619Y-115872419D02*
X126823810Y-115920038D01*
X126823810Y-115920038D02*
X126861905Y-115967657D01*
X126861905Y-115967657D02*
X126900000Y-116062895D01*
X126900000Y-116062895D02*
X126938095Y-116253371D01*
X126938095Y-116253371D02*
X126938095Y-116491466D01*
X126938095Y-116491466D02*
X126900000Y-116681942D01*
X126900000Y-116681942D02*
X126861905Y-116777180D01*
X126861905Y-116777180D02*
X126823810Y-116824800D01*
X126823810Y-116824800D02*
X126747619Y-116872419D01*
X126747619Y-116872419D02*
X126671429Y-116872419D01*
X126671429Y-116872419D02*
X126595238Y-116824800D01*
X126595238Y-116824800D02*
X126557143Y-116777180D01*
X126557143Y-116777180D02*
X126519048Y-116681942D01*
X126519048Y-116681942D02*
X126480952Y-116491466D01*
X126480952Y-116491466D02*
X126480952Y-116253371D01*
X126480952Y-116253371D02*
X126519048Y-116062895D01*
X126519048Y-116062895D02*
X126557143Y-115967657D01*
X126557143Y-115967657D02*
X126595238Y-115920038D01*
X126595238Y-115920038D02*
X126671429Y-115872419D01*
D12*
X112300002Y-114800828D02*
X111900002Y-114086542D01*
X111614288Y-114800828D02*
X111614288Y-113300828D01*
X111614288Y-113300828D02*
X112071431Y-113300828D01*
X112071431Y-113300828D02*
X112185716Y-113372257D01*
X112185716Y-113372257D02*
X112242859Y-113443685D01*
X112242859Y-113443685D02*
X112300002Y-113586542D01*
X112300002Y-113586542D02*
X112300002Y-113800828D01*
X112300002Y-113800828D02*
X112242859Y-113943685D01*
X112242859Y-113943685D02*
X112185716Y-114015114D01*
X112185716Y-114015114D02*
X112071431Y-114086542D01*
X112071431Y-114086542D02*
X111614288Y-114086542D01*
X112985716Y-114800828D02*
X112871431Y-114729400D01*
X112871431Y-114729400D02*
X112814288Y-114657971D01*
X112814288Y-114657971D02*
X112757145Y-114515114D01*
X112757145Y-114515114D02*
X112757145Y-114086542D01*
X112757145Y-114086542D02*
X112814288Y-113943685D01*
X112814288Y-113943685D02*
X112871431Y-113872257D01*
X112871431Y-113872257D02*
X112985716Y-113800828D01*
X112985716Y-113800828D02*
X113157145Y-113800828D01*
X113157145Y-113800828D02*
X113271431Y-113872257D01*
X113271431Y-113872257D02*
X113328574Y-113943685D01*
X113328574Y-113943685D02*
X113385716Y-114086542D01*
X113385716Y-114086542D02*
X113385716Y-114515114D01*
X113385716Y-114515114D02*
X113328574Y-114657971D01*
X113328574Y-114657971D02*
X113271431Y-114729400D01*
X113271431Y-114729400D02*
X113157145Y-114800828D01*
X113157145Y-114800828D02*
X112985716Y-114800828D01*
X113900002Y-114800828D02*
X113900002Y-113300828D01*
X113900002Y-113872257D02*
X114014288Y-113800828D01*
X114014288Y-113800828D02*
X114242859Y-113800828D01*
X114242859Y-113800828D02*
X114357145Y-113872257D01*
X114357145Y-113872257D02*
X114414288Y-113943685D01*
X114414288Y-113943685D02*
X114471430Y-114086542D01*
X114471430Y-114086542D02*
X114471430Y-114515114D01*
X114471430Y-114515114D02*
X114414288Y-114657971D01*
X114414288Y-114657971D02*
X114357145Y-114729400D01*
X114357145Y-114729400D02*
X114242859Y-114800828D01*
X114242859Y-114800828D02*
X114014288Y-114800828D01*
X114014288Y-114800828D02*
X113900002Y-114729400D01*
X115157144Y-114800828D02*
X115042859Y-114729400D01*
X115042859Y-114729400D02*
X114985716Y-114657971D01*
X114985716Y-114657971D02*
X114928573Y-114515114D01*
X114928573Y-114515114D02*
X114928573Y-114086542D01*
X114928573Y-114086542D02*
X114985716Y-113943685D01*
X114985716Y-113943685D02*
X115042859Y-113872257D01*
X115042859Y-113872257D02*
X115157144Y-113800828D01*
X115157144Y-113800828D02*
X115328573Y-113800828D01*
X115328573Y-113800828D02*
X115442859Y-113872257D01*
X115442859Y-113872257D02*
X115500002Y-113943685D01*
X115500002Y-113943685D02*
X115557144Y-114086542D01*
X115557144Y-114086542D02*
X115557144Y-114515114D01*
X115557144Y-114515114D02*
X115500002Y-114657971D01*
X115500002Y-114657971D02*
X115442859Y-114729400D01*
X115442859Y-114729400D02*
X115328573Y-114800828D01*
X115328573Y-114800828D02*
X115157144Y-114800828D01*
X115900001Y-113800828D02*
X116357144Y-113800828D01*
X116071430Y-113300828D02*
X116071430Y-114586542D01*
X116071430Y-114586542D02*
X116128573Y-114729400D01*
X116128573Y-114729400D02*
X116242858Y-114800828D01*
X116242858Y-114800828D02*
X116357144Y-114800828D01*
X116700001Y-114372257D02*
X117271430Y-114372257D01*
X116585715Y-114800828D02*
X116985715Y-113300828D01*
X116985715Y-113300828D02*
X117385715Y-114800828D01*
X117785715Y-114800828D02*
X117785715Y-113800828D01*
X117785715Y-114086542D02*
X117842858Y-113943685D01*
X117842858Y-113943685D02*
X117900001Y-113872257D01*
X117900001Y-113872257D02*
X118014286Y-113800828D01*
X118014286Y-113800828D02*
X118128572Y-113800828D01*
X118528572Y-114800828D02*
X118528572Y-113800828D01*
X118528572Y-113943685D02*
X118585715Y-113872257D01*
X118585715Y-113872257D02*
X118700000Y-113800828D01*
X118700000Y-113800828D02*
X118871429Y-113800828D01*
X118871429Y-113800828D02*
X118985715Y-113872257D01*
X118985715Y-113872257D02*
X119042858Y-114015114D01*
X119042858Y-114015114D02*
X119042858Y-114800828D01*
X119042858Y-114015114D02*
X119100000Y-113872257D01*
X119100000Y-113872257D02*
X119214286Y-113800828D01*
X119214286Y-113800828D02*
X119385715Y-113800828D01*
X119385715Y-113800828D02*
X119500000Y-113872257D01*
X119500000Y-113872257D02*
X119557143Y-114015114D01*
X119557143Y-114015114D02*
X119557143Y-114800828D01*
X119842858Y-114943685D02*
X120757143Y-114943685D01*
X121728572Y-114657971D02*
X121671429Y-114729400D01*
X121671429Y-114729400D02*
X121500001Y-114800828D01*
X121500001Y-114800828D02*
X121385715Y-114800828D01*
X121385715Y-114800828D02*
X121214286Y-114729400D01*
X121214286Y-114729400D02*
X121100001Y-114586542D01*
X121100001Y-114586542D02*
X121042858Y-114443685D01*
X121042858Y-114443685D02*
X120985715Y-114157971D01*
X120985715Y-114157971D02*
X120985715Y-113943685D01*
X120985715Y-113943685D02*
X121042858Y-113657971D01*
X121042858Y-113657971D02*
X121100001Y-113515114D01*
X121100001Y-113515114D02*
X121214286Y-113372257D01*
X121214286Y-113372257D02*
X121385715Y-113300828D01*
X121385715Y-113300828D02*
X121500001Y-113300828D01*
X121500001Y-113300828D02*
X121671429Y-113372257D01*
X121671429Y-113372257D02*
X121728572Y-113443685D01*
X122414286Y-114800828D02*
X122300001Y-114729400D01*
X122300001Y-114729400D02*
X122242858Y-114657971D01*
X122242858Y-114657971D02*
X122185715Y-114515114D01*
X122185715Y-114515114D02*
X122185715Y-114086542D01*
X122185715Y-114086542D02*
X122242858Y-113943685D01*
X122242858Y-113943685D02*
X122300001Y-113872257D01*
X122300001Y-113872257D02*
X122414286Y-113800828D01*
X122414286Y-113800828D02*
X122585715Y-113800828D01*
X122585715Y-113800828D02*
X122700001Y-113872257D01*
X122700001Y-113872257D02*
X122757144Y-113943685D01*
X122757144Y-113943685D02*
X122814286Y-114086542D01*
X122814286Y-114086542D02*
X122814286Y-114515114D01*
X122814286Y-114515114D02*
X122757144Y-114657971D01*
X122757144Y-114657971D02*
X122700001Y-114729400D01*
X122700001Y-114729400D02*
X122585715Y-114800828D01*
X122585715Y-114800828D02*
X122414286Y-114800828D01*
X123328572Y-113800828D02*
X123328572Y-114800828D01*
X123328572Y-113943685D02*
X123385715Y-113872257D01*
X123385715Y-113872257D02*
X123500000Y-113800828D01*
X123500000Y-113800828D02*
X123671429Y-113800828D01*
X123671429Y-113800828D02*
X123785715Y-113872257D01*
X123785715Y-113872257D02*
X123842858Y-114015114D01*
X123842858Y-114015114D02*
X123842858Y-114800828D01*
X124242857Y-113800828D02*
X124700000Y-113800828D01*
X124414286Y-113300828D02*
X124414286Y-114586542D01*
X124414286Y-114586542D02*
X124471429Y-114729400D01*
X124471429Y-114729400D02*
X124585714Y-114800828D01*
X124585714Y-114800828D02*
X124700000Y-114800828D01*
X125100000Y-114800828D02*
X125100000Y-113800828D01*
X125100000Y-114086542D02*
X125157143Y-113943685D01*
X125157143Y-113943685D02*
X125214286Y-113872257D01*
X125214286Y-113872257D02*
X125328571Y-113800828D01*
X125328571Y-113800828D02*
X125442857Y-113800828D01*
X126014285Y-114800828D02*
X125900000Y-114729400D01*
X125900000Y-114729400D02*
X125842857Y-114657971D01*
X125842857Y-114657971D02*
X125785714Y-114515114D01*
X125785714Y-114515114D02*
X125785714Y-114086542D01*
X125785714Y-114086542D02*
X125842857Y-113943685D01*
X125842857Y-113943685D02*
X125900000Y-113872257D01*
X125900000Y-113872257D02*
X126014285Y-113800828D01*
X126014285Y-113800828D02*
X126185714Y-113800828D01*
X126185714Y-113800828D02*
X126300000Y-113872257D01*
X126300000Y-113872257D02*
X126357143Y-113943685D01*
X126357143Y-113943685D02*
X126414285Y-114086542D01*
X126414285Y-114086542D02*
X126414285Y-114515114D01*
X126414285Y-114515114D02*
X126357143Y-114657971D01*
X126357143Y-114657971D02*
X126300000Y-114729400D01*
X126300000Y-114729400D02*
X126185714Y-114800828D01*
X126185714Y-114800828D02*
X126014285Y-114800828D01*
X127099999Y-114800828D02*
X126985714Y-114729400D01*
X126985714Y-114729400D02*
X126928571Y-114586542D01*
X126928571Y-114586542D02*
X126928571Y-113300828D01*
X127728570Y-114800828D02*
X127614285Y-114729400D01*
X127614285Y-114729400D02*
X127557142Y-114586542D01*
X127557142Y-114586542D02*
X127557142Y-113300828D01*
X128642856Y-114729400D02*
X128528570Y-114800828D01*
X128528570Y-114800828D02*
X128299999Y-114800828D01*
X128299999Y-114800828D02*
X128185713Y-114729400D01*
X128185713Y-114729400D02*
X128128570Y-114586542D01*
X128128570Y-114586542D02*
X128128570Y-114015114D01*
X128128570Y-114015114D02*
X128185713Y-113872257D01*
X128185713Y-113872257D02*
X128299999Y-113800828D01*
X128299999Y-113800828D02*
X128528570Y-113800828D01*
X128528570Y-113800828D02*
X128642856Y-113872257D01*
X128642856Y-113872257D02*
X128699999Y-114015114D01*
X128699999Y-114015114D02*
X128699999Y-114157971D01*
X128699999Y-114157971D02*
X128128570Y-114300828D01*
X129214284Y-114800828D02*
X129214284Y-113800828D01*
X129214284Y-114086542D02*
X129271427Y-113943685D01*
X129271427Y-113943685D02*
X129328570Y-113872257D01*
X129328570Y-113872257D02*
X129442855Y-113800828D01*
X129442855Y-113800828D02*
X129557141Y-113800828D01*
D13*
X97469580Y-111571666D02*
X97517200Y-111619285D01*
X97517200Y-111619285D02*
X97564819Y-111762142D01*
X97564819Y-111762142D02*
X97564819Y-111857380D01*
X97564819Y-111857380D02*
X97517200Y-112000237D01*
X97517200Y-112000237D02*
X97421961Y-112095475D01*
X97421961Y-112095475D02*
X97326723Y-112143094D01*
X97326723Y-112143094D02*
X97136247Y-112190713D01*
X97136247Y-112190713D02*
X96993390Y-112190713D01*
X96993390Y-112190713D02*
X96802914Y-112143094D01*
X96802914Y-112143094D02*
X96707676Y-112095475D01*
X96707676Y-112095475D02*
X96612438Y-112000237D01*
X96612438Y-112000237D02*
X96564819Y-111857380D01*
X96564819Y-111857380D02*
X96564819Y-111762142D01*
X96564819Y-111762142D02*
X96612438Y-111619285D01*
X96612438Y-111619285D02*
X96660057Y-111571666D01*
X97564819Y-110619285D02*
X97564819Y-111190713D01*
X97564819Y-110904999D02*
X96564819Y-110904999D01*
X96564819Y-110904999D02*
X96707676Y-111000237D01*
X96707676Y-111000237D02*
X96802914Y-111095475D01*
X96802914Y-111095475D02*
X96850533Y-111190713D01*
X88098152Y-112690714D02*
X88764819Y-112690714D01*
X87717200Y-112928809D02*
X88431485Y-113166904D01*
X88431485Y-113166904D02*
X88431485Y-112547857D01*
X87764819Y-112262142D02*
X87764819Y-111595476D01*
X87764819Y-111595476D02*
X88764819Y-112024047D01*
X87764819Y-111024047D02*
X87764819Y-110928809D01*
X87764819Y-110928809D02*
X87812438Y-110833571D01*
X87812438Y-110833571D02*
X87860057Y-110785952D01*
X87860057Y-110785952D02*
X87955295Y-110738333D01*
X87955295Y-110738333D02*
X88145771Y-110690714D01*
X88145771Y-110690714D02*
X88383866Y-110690714D01*
X88383866Y-110690714D02*
X88574342Y-110738333D01*
X88574342Y-110738333D02*
X88669580Y-110785952D01*
X88669580Y-110785952D02*
X88717200Y-110833571D01*
X88717200Y-110833571D02*
X88764819Y-110928809D01*
X88764819Y-110928809D02*
X88764819Y-111024047D01*
X88764819Y-111024047D02*
X88717200Y-111119285D01*
X88717200Y-111119285D02*
X88669580Y-111166904D01*
X88669580Y-111166904D02*
X88574342Y-111214523D01*
X88574342Y-111214523D02*
X88383866Y-111262142D01*
X88383866Y-111262142D02*
X88145771Y-111262142D01*
X88145771Y-111262142D02*
X87955295Y-111214523D01*
X87955295Y-111214523D02*
X87860057Y-111166904D01*
X87860057Y-111166904D02*
X87812438Y-111119285D01*
X87812438Y-111119285D02*
X87764819Y-111024047D01*
X88098152Y-110262142D02*
X89098152Y-110262142D01*
X88621961Y-109785952D02*
X88717200Y-109738333D01*
X88717200Y-109738333D02*
X88764819Y-109643095D01*
X88621961Y-110262142D02*
X88717200Y-110214523D01*
X88717200Y-110214523D02*
X88764819Y-110119285D01*
X88764819Y-110119285D02*
X88764819Y-109928809D01*
X88764819Y-109928809D02*
X88717200Y-109833571D01*
X88717200Y-109833571D02*
X88621961Y-109785952D01*
X88621961Y-109785952D02*
X88098152Y-109785952D01*
D14*
X109002380Y-116300000D02*
X109788095Y-116300000D01*
X109788095Y-116300000D02*
X109945238Y-116328571D01*
X109945238Y-116328571D02*
X110050000Y-116385714D01*
X110050000Y-116385714D02*
X110102380Y-116471428D01*
X110102380Y-116471428D02*
X110102380Y-116528571D01*
X109369047Y-115757143D02*
X110102380Y-115757143D01*
X108950000Y-115900000D02*
X109735714Y-116042857D01*
X109735714Y-116042857D02*
X109735714Y-115671428D01*
X100342857Y-105197619D02*
X100314285Y-105250000D01*
X100314285Y-105250000D02*
X100228571Y-105302380D01*
X100228571Y-105302380D02*
X100171428Y-105302380D01*
X100171428Y-105302380D02*
X100085714Y-105250000D01*
X100085714Y-105250000D02*
X100028571Y-105145238D01*
X100028571Y-105145238D02*
X100000000Y-105040476D01*
X100000000Y-105040476D02*
X99971428Y-104830952D01*
X99971428Y-104830952D02*
X99971428Y-104673809D01*
X99971428Y-104673809D02*
X100000000Y-104464285D01*
X100000000Y-104464285D02*
X100028571Y-104359523D01*
X100028571Y-104359523D02*
X100085714Y-104254761D01*
X100085714Y-104254761D02*
X100171428Y-104202380D01*
X100171428Y-104202380D02*
X100228571Y-104202380D01*
X100228571Y-104202380D02*
X100314285Y-104254761D01*
X100314285Y-104254761D02*
X100342857Y-104307142D01*
X100600000Y-105302380D02*
X100600000Y-104202380D01*
X100600000Y-104202380D02*
X100942857Y-105302380D01*
X100942857Y-105302380D02*
X100942857Y-104202380D01*
X101142856Y-104202380D02*
X101485714Y-104202380D01*
X101314285Y-105302380D02*
X101314285Y-104202380D01*
X102028571Y-105302380D02*
X101828571Y-104778571D01*
X101685714Y-105302380D02*
X101685714Y-104202380D01*
X101685714Y-104202380D02*
X101914285Y-104202380D01*
X101914285Y-104202380D02*
X101971428Y-104254761D01*
X101971428Y-104254761D02*
X101999999Y-104307142D01*
X101999999Y-104307142D02*
X102028571Y-104411904D01*
X102028571Y-104411904D02*
X102028571Y-104569047D01*
X102028571Y-104569047D02*
X101999999Y-104673809D01*
X101999999Y-104673809D02*
X101971428Y-104726190D01*
X101971428Y-104726190D02*
X101914285Y-104778571D01*
X101914285Y-104778571D02*
X101685714Y-104778571D01*
X108340000Y-109854285D02*
X108392380Y-109768571D01*
X108392380Y-109768571D02*
X108392380Y-109625713D01*
X108392380Y-109625713D02*
X108340000Y-109568571D01*
X108340000Y-109568571D02*
X108287619Y-109539999D01*
X108287619Y-109539999D02*
X108182857Y-109511428D01*
X108182857Y-109511428D02*
X108078095Y-109511428D01*
X108078095Y-109511428D02*
X107973333Y-109539999D01*
X107973333Y-109539999D02*
X107920952Y-109568571D01*
X107920952Y-109568571D02*
X107868571Y-109625713D01*
X107868571Y-109625713D02*
X107816190Y-109739999D01*
X107816190Y-109739999D02*
X107763809Y-109797142D01*
X107763809Y-109797142D02*
X107711428Y-109825713D01*
X107711428Y-109825713D02*
X107606666Y-109854285D01*
X107606666Y-109854285D02*
X107501904Y-109854285D01*
X107501904Y-109854285D02*
X107397142Y-109825713D01*
X107397142Y-109825713D02*
X107344761Y-109797142D01*
X107344761Y-109797142D02*
X107292380Y-109739999D01*
X107292380Y-109739999D02*
X107292380Y-109597142D01*
X107292380Y-109597142D02*
X107344761Y-109511428D01*
X107292380Y-109311427D02*
X108392380Y-109168570D01*
X108392380Y-109168570D02*
X107606666Y-109054284D01*
X107606666Y-109054284D02*
X108392380Y-108939999D01*
X108392380Y-108939999D02*
X107292380Y-108797142D01*
X103254285Y-107950000D02*
X103340000Y-108002380D01*
X103340000Y-108002380D02*
X103482857Y-108002380D01*
X103482857Y-108002380D02*
X103540000Y-107950000D01*
X103540000Y-107950000D02*
X103568571Y-107897619D01*
X103568571Y-107897619D02*
X103597142Y-107792857D01*
X103597142Y-107792857D02*
X103597142Y-107688095D01*
X103597142Y-107688095D02*
X103568571Y-107583333D01*
X103568571Y-107583333D02*
X103540000Y-107530952D01*
X103540000Y-107530952D02*
X103482857Y-107478571D01*
X103482857Y-107478571D02*
X103368571Y-107426190D01*
X103368571Y-107426190D02*
X103311428Y-107373809D01*
X103311428Y-107373809D02*
X103282857Y-107321428D01*
X103282857Y-107321428D02*
X103254285Y-107216666D01*
X103254285Y-107216666D02*
X103254285Y-107111904D01*
X103254285Y-107111904D02*
X103282857Y-107007142D01*
X103282857Y-107007142D02*
X103311428Y-106954761D01*
X103311428Y-106954761D02*
X103368571Y-106902380D01*
X103368571Y-106902380D02*
X103511428Y-106902380D01*
X103511428Y-106902380D02*
X103597142Y-106954761D01*
X103854286Y-108002380D02*
X103854286Y-106902380D01*
X104140000Y-108002380D02*
X104140000Y-106902380D01*
X104140000Y-106902380D02*
X104282857Y-106902380D01*
X104282857Y-106902380D02*
X104368571Y-106954761D01*
X104368571Y-106954761D02*
X104425714Y-107059523D01*
X104425714Y-107059523D02*
X104454285Y-107164285D01*
X104454285Y-107164285D02*
X104482857Y-107373809D01*
X104482857Y-107373809D02*
X104482857Y-107530952D01*
X104482857Y-107530952D02*
X104454285Y-107740476D01*
X104454285Y-107740476D02*
X104425714Y-107845238D01*
X104425714Y-107845238D02*
X104368571Y-107950000D01*
X104368571Y-107950000D02*
X104282857Y-108002380D01*
X104282857Y-108002380D02*
X104140000Y-108002380D01*
X104740000Y-107426190D02*
X104940000Y-107426190D01*
X105025714Y-108002380D02*
X104740000Y-108002380D01*
X104740000Y-108002380D02*
X104740000Y-106902380D01*
X104740000Y-106902380D02*
X105025714Y-106902380D01*
D13*
X91489580Y-87796666D02*
X91537200Y-87844285D01*
X91537200Y-87844285D02*
X91584819Y-87987142D01*
X91584819Y-87987142D02*
X91584819Y-88082380D01*
X91584819Y-88082380D02*
X91537200Y-88225237D01*
X91537200Y-88225237D02*
X91441961Y-88320475D01*
X91441961Y-88320475D02*
X91346723Y-88368094D01*
X91346723Y-88368094D02*
X91156247Y-88415713D01*
X91156247Y-88415713D02*
X91013390Y-88415713D01*
X91013390Y-88415713D02*
X90822914Y-88368094D01*
X90822914Y-88368094D02*
X90727676Y-88320475D01*
X90727676Y-88320475D02*
X90632438Y-88225237D01*
X90632438Y-88225237D02*
X90584819Y-88082380D01*
X90584819Y-88082380D02*
X90584819Y-87987142D01*
X90584819Y-87987142D02*
X90632438Y-87844285D01*
X90632438Y-87844285D02*
X90680057Y-87796666D01*
X90918152Y-86939523D02*
X91584819Y-86939523D01*
X90537200Y-87177618D02*
X91251485Y-87415713D01*
X91251485Y-87415713D02*
X91251485Y-86796666D01*
X95984819Y-88749047D02*
X95984819Y-89320475D01*
X95984819Y-89034761D02*
X94984819Y-89034761D01*
X94984819Y-89034761D02*
X95127676Y-89129999D01*
X95127676Y-89129999D02*
X95222914Y-89225237D01*
X95222914Y-89225237D02*
X95270533Y-89320475D01*
X94984819Y-88129999D02*
X94984819Y-88034761D01*
X94984819Y-88034761D02*
X95032438Y-87939523D01*
X95032438Y-87939523D02*
X95080057Y-87891904D01*
X95080057Y-87891904D02*
X95175295Y-87844285D01*
X95175295Y-87844285D02*
X95365771Y-87796666D01*
X95365771Y-87796666D02*
X95603866Y-87796666D01*
X95603866Y-87796666D02*
X95794342Y-87844285D01*
X95794342Y-87844285D02*
X95889580Y-87891904D01*
X95889580Y-87891904D02*
X95937200Y-87939523D01*
X95937200Y-87939523D02*
X95984819Y-88034761D01*
X95984819Y-88034761D02*
X95984819Y-88129999D01*
X95984819Y-88129999D02*
X95937200Y-88225237D01*
X95937200Y-88225237D02*
X95889580Y-88272856D01*
X95889580Y-88272856D02*
X95794342Y-88320475D01*
X95794342Y-88320475D02*
X95603866Y-88368094D01*
X95603866Y-88368094D02*
X95365771Y-88368094D01*
X95365771Y-88368094D02*
X95175295Y-88320475D01*
X95175295Y-88320475D02*
X95080057Y-88272856D01*
X95080057Y-88272856D02*
X95032438Y-88225237D01*
X95032438Y-88225237D02*
X94984819Y-88129999D01*
X94984819Y-87177618D02*
X94984819Y-87082380D01*
X94984819Y-87082380D02*
X95032438Y-86987142D01*
X95032438Y-86987142D02*
X95080057Y-86939523D01*
X95080057Y-86939523D02*
X95175295Y-86891904D01*
X95175295Y-86891904D02*
X95365771Y-86844285D01*
X95365771Y-86844285D02*
X95603866Y-86844285D01*
X95603866Y-86844285D02*
X95794342Y-86891904D01*
X95794342Y-86891904D02*
X95889580Y-86939523D01*
X95889580Y-86939523D02*
X95937200Y-86987142D01*
X95937200Y-86987142D02*
X95984819Y-87082380D01*
X95984819Y-87082380D02*
X95984819Y-87177618D01*
X95984819Y-87177618D02*
X95937200Y-87272856D01*
X95937200Y-87272856D02*
X95889580Y-87320475D01*
X95889580Y-87320475D02*
X95794342Y-87368094D01*
X95794342Y-87368094D02*
X95603866Y-87415713D01*
X95603866Y-87415713D02*
X95365771Y-87415713D01*
X95365771Y-87415713D02*
X95175295Y-87368094D01*
X95175295Y-87368094D02*
X95080057Y-87320475D01*
X95080057Y-87320475D02*
X95032438Y-87272856D01*
X95032438Y-87272856D02*
X94984819Y-87177618D01*
X95318152Y-86415713D02*
X95984819Y-86415713D01*
X95413390Y-86415713D02*
X95365771Y-86368094D01*
X95365771Y-86368094D02*
X95318152Y-86272856D01*
X95318152Y-86272856D02*
X95318152Y-86129999D01*
X95318152Y-86129999D02*
X95365771Y-86034761D01*
X95365771Y-86034761D02*
X95461009Y-85987142D01*
X95461009Y-85987142D02*
X95984819Y-85987142D01*
X91489580Y-97956666D02*
X91537200Y-98004285D01*
X91537200Y-98004285D02*
X91584819Y-98147142D01*
X91584819Y-98147142D02*
X91584819Y-98242380D01*
X91584819Y-98242380D02*
X91537200Y-98385237D01*
X91537200Y-98385237D02*
X91441961Y-98480475D01*
X91441961Y-98480475D02*
X91346723Y-98528094D01*
X91346723Y-98528094D02*
X91156247Y-98575713D01*
X91156247Y-98575713D02*
X91013390Y-98575713D01*
X91013390Y-98575713D02*
X90822914Y-98528094D01*
X90822914Y-98528094D02*
X90727676Y-98480475D01*
X90727676Y-98480475D02*
X90632438Y-98385237D01*
X90632438Y-98385237D02*
X90584819Y-98242380D01*
X90584819Y-98242380D02*
X90584819Y-98147142D01*
X90584819Y-98147142D02*
X90632438Y-98004285D01*
X90632438Y-98004285D02*
X90680057Y-97956666D01*
X90584819Y-97051904D02*
X90584819Y-97528094D01*
X90584819Y-97528094D02*
X91061009Y-97575713D01*
X91061009Y-97575713D02*
X91013390Y-97528094D01*
X91013390Y-97528094D02*
X90965771Y-97432856D01*
X90965771Y-97432856D02*
X90965771Y-97194761D01*
X90965771Y-97194761D02*
X91013390Y-97099523D01*
X91013390Y-97099523D02*
X91061009Y-97051904D01*
X91061009Y-97051904D02*
X91156247Y-97004285D01*
X91156247Y-97004285D02*
X91394342Y-97004285D01*
X91394342Y-97004285D02*
X91489580Y-97051904D01*
X91489580Y-97051904D02*
X91537200Y-97099523D01*
X91537200Y-97099523D02*
X91584819Y-97194761D01*
X91584819Y-97194761D02*
X91584819Y-97432856D01*
X91584819Y-97432856D02*
X91537200Y-97528094D01*
X91537200Y-97528094D02*
X91489580Y-97575713D01*
X95984819Y-98909047D02*
X95984819Y-99480475D01*
X95984819Y-99194761D02*
X94984819Y-99194761D01*
X94984819Y-99194761D02*
X95127676Y-99289999D01*
X95127676Y-99289999D02*
X95222914Y-99385237D01*
X95222914Y-99385237D02*
X95270533Y-99480475D01*
X94984819Y-98289999D02*
X94984819Y-98194761D01*
X94984819Y-98194761D02*
X95032438Y-98099523D01*
X95032438Y-98099523D02*
X95080057Y-98051904D01*
X95080057Y-98051904D02*
X95175295Y-98004285D01*
X95175295Y-98004285D02*
X95365771Y-97956666D01*
X95365771Y-97956666D02*
X95603866Y-97956666D01*
X95603866Y-97956666D02*
X95794342Y-98004285D01*
X95794342Y-98004285D02*
X95889580Y-98051904D01*
X95889580Y-98051904D02*
X95937200Y-98099523D01*
X95937200Y-98099523D02*
X95984819Y-98194761D01*
X95984819Y-98194761D02*
X95984819Y-98289999D01*
X95984819Y-98289999D02*
X95937200Y-98385237D01*
X95937200Y-98385237D02*
X95889580Y-98432856D01*
X95889580Y-98432856D02*
X95794342Y-98480475D01*
X95794342Y-98480475D02*
X95603866Y-98528094D01*
X95603866Y-98528094D02*
X95365771Y-98528094D01*
X95365771Y-98528094D02*
X95175295Y-98480475D01*
X95175295Y-98480475D02*
X95080057Y-98432856D01*
X95080057Y-98432856D02*
X95032438Y-98385237D01*
X95032438Y-98385237D02*
X94984819Y-98289999D01*
X94984819Y-97337618D02*
X94984819Y-97242380D01*
X94984819Y-97242380D02*
X95032438Y-97147142D01*
X95032438Y-97147142D02*
X95080057Y-97099523D01*
X95080057Y-97099523D02*
X95175295Y-97051904D01*
X95175295Y-97051904D02*
X95365771Y-97004285D01*
X95365771Y-97004285D02*
X95603866Y-97004285D01*
X95603866Y-97004285D02*
X95794342Y-97051904D01*
X95794342Y-97051904D02*
X95889580Y-97099523D01*
X95889580Y-97099523D02*
X95937200Y-97147142D01*
X95937200Y-97147142D02*
X95984819Y-97242380D01*
X95984819Y-97242380D02*
X95984819Y-97337618D01*
X95984819Y-97337618D02*
X95937200Y-97432856D01*
X95937200Y-97432856D02*
X95889580Y-97480475D01*
X95889580Y-97480475D02*
X95794342Y-97528094D01*
X95794342Y-97528094D02*
X95603866Y-97575713D01*
X95603866Y-97575713D02*
X95365771Y-97575713D01*
X95365771Y-97575713D02*
X95175295Y-97528094D01*
X95175295Y-97528094D02*
X95080057Y-97480475D01*
X95080057Y-97480475D02*
X95032438Y-97432856D01*
X95032438Y-97432856D02*
X94984819Y-97337618D01*
X95318152Y-96575713D02*
X95984819Y-96575713D01*
X95413390Y-96575713D02*
X95365771Y-96528094D01*
X95365771Y-96528094D02*
X95318152Y-96432856D01*
X95318152Y-96432856D02*
X95318152Y-96289999D01*
X95318152Y-96289999D02*
X95365771Y-96194761D01*
X95365771Y-96194761D02*
X95461009Y-96147142D01*
X95461009Y-96147142D02*
X95984819Y-96147142D01*
X97404819Y-77803333D02*
X98119104Y-77803333D01*
X98119104Y-77803333D02*
X98261961Y-77850952D01*
X98261961Y-77850952D02*
X98357200Y-77946190D01*
X98357200Y-77946190D02*
X98404819Y-78089047D01*
X98404819Y-78089047D02*
X98404819Y-78184285D01*
X98404819Y-76803333D02*
X98404819Y-77374761D01*
X98404819Y-77089047D02*
X97404819Y-77089047D01*
X97404819Y-77089047D02*
X97547676Y-77184285D01*
X97547676Y-77184285D02*
X97642914Y-77279523D01*
X97642914Y-77279523D02*
X97690533Y-77374761D01*
X99203332Y-73901009D02*
X99346189Y-73948628D01*
X99346189Y-73948628D02*
X99393808Y-73996247D01*
X99393808Y-73996247D02*
X99441427Y-74091485D01*
X99441427Y-74091485D02*
X99441427Y-74234342D01*
X99441427Y-74234342D02*
X99393808Y-74329580D01*
X99393808Y-74329580D02*
X99346189Y-74377200D01*
X99346189Y-74377200D02*
X99250951Y-74424819D01*
X99250951Y-74424819D02*
X98869999Y-74424819D01*
X98869999Y-74424819D02*
X98869999Y-73424819D01*
X98869999Y-73424819D02*
X99203332Y-73424819D01*
X99203332Y-73424819D02*
X99298570Y-73472438D01*
X99298570Y-73472438D02*
X99346189Y-73520057D01*
X99346189Y-73520057D02*
X99393808Y-73615295D01*
X99393808Y-73615295D02*
X99393808Y-73710533D01*
X99393808Y-73710533D02*
X99346189Y-73805771D01*
X99346189Y-73805771D02*
X99298570Y-73853390D01*
X99298570Y-73853390D02*
X99203332Y-73901009D01*
X99203332Y-73901009D02*
X98869999Y-73901009D01*
X100298570Y-74424819D02*
X100298570Y-73901009D01*
X100298570Y-73901009D02*
X100250951Y-73805771D01*
X100250951Y-73805771D02*
X100155713Y-73758152D01*
X100155713Y-73758152D02*
X99965237Y-73758152D01*
X99965237Y-73758152D02*
X99869999Y-73805771D01*
X100298570Y-74377200D02*
X100203332Y-74424819D01*
X100203332Y-74424819D02*
X99965237Y-74424819D01*
X99965237Y-74424819D02*
X99869999Y-74377200D01*
X99869999Y-74377200D02*
X99822380Y-74281961D01*
X99822380Y-74281961D02*
X99822380Y-74186723D01*
X99822380Y-74186723D02*
X99869999Y-74091485D01*
X99869999Y-74091485D02*
X99965237Y-74043866D01*
X99965237Y-74043866D02*
X100203332Y-74043866D01*
X100203332Y-74043866D02*
X100298570Y-73996247D01*
X100727142Y-74377200D02*
X100822380Y-74424819D01*
X100822380Y-74424819D02*
X101012856Y-74424819D01*
X101012856Y-74424819D02*
X101108094Y-74377200D01*
X101108094Y-74377200D02*
X101155713Y-74281961D01*
X101155713Y-74281961D02*
X101155713Y-74234342D01*
X101155713Y-74234342D02*
X101108094Y-74139104D01*
X101108094Y-74139104D02*
X101012856Y-74091485D01*
X101012856Y-74091485D02*
X100869999Y-74091485D01*
X100869999Y-74091485D02*
X100774761Y-74043866D01*
X100774761Y-74043866D02*
X100727142Y-73948628D01*
X100727142Y-73948628D02*
X100727142Y-73901009D01*
X100727142Y-73901009D02*
X100774761Y-73805771D01*
X100774761Y-73805771D02*
X100869999Y-73758152D01*
X100869999Y-73758152D02*
X101012856Y-73758152D01*
X101012856Y-73758152D02*
X101108094Y-73805771D01*
X101965237Y-74377200D02*
X101869999Y-74424819D01*
X101869999Y-74424819D02*
X101679523Y-74424819D01*
X101679523Y-74424819D02*
X101584285Y-74377200D01*
X101584285Y-74377200D02*
X101536666Y-74281961D01*
X101536666Y-74281961D02*
X101536666Y-73901009D01*
X101536666Y-73901009D02*
X101584285Y-73805771D01*
X101584285Y-73805771D02*
X101679523Y-73758152D01*
X101679523Y-73758152D02*
X101869999Y-73758152D01*
X101869999Y-73758152D02*
X101965237Y-73805771D01*
X101965237Y-73805771D02*
X102012856Y-73901009D01*
X102012856Y-73901009D02*
X102012856Y-73996247D01*
X102012856Y-73996247D02*
X101536666Y-74091485D01*
X103203333Y-74424819D02*
X103203333Y-73424819D01*
X103203333Y-73424819D02*
X103536666Y-74139104D01*
X103536666Y-74139104D02*
X103869999Y-73424819D01*
X103869999Y-73424819D02*
X103869999Y-74424819D01*
X104489047Y-74424819D02*
X104393809Y-74377200D01*
X104393809Y-74377200D02*
X104346190Y-74329580D01*
X104346190Y-74329580D02*
X104298571Y-74234342D01*
X104298571Y-74234342D02*
X104298571Y-73948628D01*
X104298571Y-73948628D02*
X104346190Y-73853390D01*
X104346190Y-73853390D02*
X104393809Y-73805771D01*
X104393809Y-73805771D02*
X104489047Y-73758152D01*
X104489047Y-73758152D02*
X104631904Y-73758152D01*
X104631904Y-73758152D02*
X104727142Y-73805771D01*
X104727142Y-73805771D02*
X104774761Y-73853390D01*
X104774761Y-73853390D02*
X104822380Y-73948628D01*
X104822380Y-73948628D02*
X104822380Y-74234342D01*
X104822380Y-74234342D02*
X104774761Y-74329580D01*
X104774761Y-74329580D02*
X104727142Y-74377200D01*
X104727142Y-74377200D02*
X104631904Y-74424819D01*
X104631904Y-74424819D02*
X104489047Y-74424819D01*
X105108095Y-73758152D02*
X105489047Y-73758152D01*
X105250952Y-73424819D02*
X105250952Y-74281961D01*
X105250952Y-74281961D02*
X105298571Y-74377200D01*
X105298571Y-74377200D02*
X105393809Y-74424819D01*
X105393809Y-74424819D02*
X105489047Y-74424819D01*
X105965238Y-74424819D02*
X105870000Y-74377200D01*
X105870000Y-74377200D02*
X105822381Y-74329580D01*
X105822381Y-74329580D02*
X105774762Y-74234342D01*
X105774762Y-74234342D02*
X105774762Y-73948628D01*
X105774762Y-73948628D02*
X105822381Y-73853390D01*
X105822381Y-73853390D02*
X105870000Y-73805771D01*
X105870000Y-73805771D02*
X105965238Y-73758152D01*
X105965238Y-73758152D02*
X106108095Y-73758152D01*
X106108095Y-73758152D02*
X106203333Y-73805771D01*
X106203333Y-73805771D02*
X106250952Y-73853390D01*
X106250952Y-73853390D02*
X106298571Y-73948628D01*
X106298571Y-73948628D02*
X106298571Y-74234342D01*
X106298571Y-74234342D02*
X106250952Y-74329580D01*
X106250952Y-74329580D02*
X106203333Y-74377200D01*
X106203333Y-74377200D02*
X106108095Y-74424819D01*
X106108095Y-74424819D02*
X105965238Y-74424819D01*
X106727143Y-74424819D02*
X106727143Y-73758152D01*
X106727143Y-73948628D02*
X106774762Y-73853390D01*
X106774762Y-73853390D02*
X106822381Y-73805771D01*
X106822381Y-73805771D02*
X106917619Y-73758152D01*
X106917619Y-73758152D02*
X107012857Y-73758152D01*
X91489580Y-77636666D02*
X91537200Y-77684285D01*
X91537200Y-77684285D02*
X91584819Y-77827142D01*
X91584819Y-77827142D02*
X91584819Y-77922380D01*
X91584819Y-77922380D02*
X91537200Y-78065237D01*
X91537200Y-78065237D02*
X91441961Y-78160475D01*
X91441961Y-78160475D02*
X91346723Y-78208094D01*
X91346723Y-78208094D02*
X91156247Y-78255713D01*
X91156247Y-78255713D02*
X91013390Y-78255713D01*
X91013390Y-78255713D02*
X90822914Y-78208094D01*
X90822914Y-78208094D02*
X90727676Y-78160475D01*
X90727676Y-78160475D02*
X90632438Y-78065237D01*
X90632438Y-78065237D02*
X90584819Y-77922380D01*
X90584819Y-77922380D02*
X90584819Y-77827142D01*
X90584819Y-77827142D02*
X90632438Y-77684285D01*
X90632438Y-77684285D02*
X90680057Y-77636666D01*
X90584819Y-77303332D02*
X90584819Y-76684285D01*
X90584819Y-76684285D02*
X90965771Y-77017618D01*
X90965771Y-77017618D02*
X90965771Y-76874761D01*
X90965771Y-76874761D02*
X91013390Y-76779523D01*
X91013390Y-76779523D02*
X91061009Y-76731904D01*
X91061009Y-76731904D02*
X91156247Y-76684285D01*
X91156247Y-76684285D02*
X91394342Y-76684285D01*
X91394342Y-76684285D02*
X91489580Y-76731904D01*
X91489580Y-76731904D02*
X91537200Y-76779523D01*
X91537200Y-76779523D02*
X91584819Y-76874761D01*
X91584819Y-76874761D02*
X91584819Y-77160475D01*
X91584819Y-77160475D02*
X91537200Y-77255713D01*
X91537200Y-77255713D02*
X91489580Y-77303332D01*
X95984819Y-78589047D02*
X95984819Y-79160475D01*
X95984819Y-78874761D02*
X94984819Y-78874761D01*
X94984819Y-78874761D02*
X95127676Y-78969999D01*
X95127676Y-78969999D02*
X95222914Y-79065237D01*
X95222914Y-79065237D02*
X95270533Y-79160475D01*
X94984819Y-77969999D02*
X94984819Y-77874761D01*
X94984819Y-77874761D02*
X95032438Y-77779523D01*
X95032438Y-77779523D02*
X95080057Y-77731904D01*
X95080057Y-77731904D02*
X95175295Y-77684285D01*
X95175295Y-77684285D02*
X95365771Y-77636666D01*
X95365771Y-77636666D02*
X95603866Y-77636666D01*
X95603866Y-77636666D02*
X95794342Y-77684285D01*
X95794342Y-77684285D02*
X95889580Y-77731904D01*
X95889580Y-77731904D02*
X95937200Y-77779523D01*
X95937200Y-77779523D02*
X95984819Y-77874761D01*
X95984819Y-77874761D02*
X95984819Y-77969999D01*
X95984819Y-77969999D02*
X95937200Y-78065237D01*
X95937200Y-78065237D02*
X95889580Y-78112856D01*
X95889580Y-78112856D02*
X95794342Y-78160475D01*
X95794342Y-78160475D02*
X95603866Y-78208094D01*
X95603866Y-78208094D02*
X95365771Y-78208094D01*
X95365771Y-78208094D02*
X95175295Y-78160475D01*
X95175295Y-78160475D02*
X95080057Y-78112856D01*
X95080057Y-78112856D02*
X95032438Y-78065237D01*
X95032438Y-78065237D02*
X94984819Y-77969999D01*
X94984819Y-77017618D02*
X94984819Y-76922380D01*
X94984819Y-76922380D02*
X95032438Y-76827142D01*
X95032438Y-76827142D02*
X95080057Y-76779523D01*
X95080057Y-76779523D02*
X95175295Y-76731904D01*
X95175295Y-76731904D02*
X95365771Y-76684285D01*
X95365771Y-76684285D02*
X95603866Y-76684285D01*
X95603866Y-76684285D02*
X95794342Y-76731904D01*
X95794342Y-76731904D02*
X95889580Y-76779523D01*
X95889580Y-76779523D02*
X95937200Y-76827142D01*
X95937200Y-76827142D02*
X95984819Y-76922380D01*
X95984819Y-76922380D02*
X95984819Y-77017618D01*
X95984819Y-77017618D02*
X95937200Y-77112856D01*
X95937200Y-77112856D02*
X95889580Y-77160475D01*
X95889580Y-77160475D02*
X95794342Y-77208094D01*
X95794342Y-77208094D02*
X95603866Y-77255713D01*
X95603866Y-77255713D02*
X95365771Y-77255713D01*
X95365771Y-77255713D02*
X95175295Y-77208094D01*
X95175295Y-77208094D02*
X95080057Y-77160475D01*
X95080057Y-77160475D02*
X95032438Y-77112856D01*
X95032438Y-77112856D02*
X94984819Y-77017618D01*
X95318152Y-76255713D02*
X95984819Y-76255713D01*
X95413390Y-76255713D02*
X95365771Y-76208094D01*
X95365771Y-76208094D02*
X95318152Y-76112856D01*
X95318152Y-76112856D02*
X95318152Y-75969999D01*
X95318152Y-75969999D02*
X95365771Y-75874761D01*
X95365771Y-75874761D02*
X95461009Y-75827142D01*
X95461009Y-75827142D02*
X95984819Y-75827142D01*
X97404819Y-87963333D02*
X98119104Y-87963333D01*
X98119104Y-87963333D02*
X98261961Y-88010952D01*
X98261961Y-88010952D02*
X98357200Y-88106190D01*
X98357200Y-88106190D02*
X98404819Y-88249047D01*
X98404819Y-88249047D02*
X98404819Y-88344285D01*
X97500057Y-87534761D02*
X97452438Y-87487142D01*
X97452438Y-87487142D02*
X97404819Y-87391904D01*
X97404819Y-87391904D02*
X97404819Y-87153809D01*
X97404819Y-87153809D02*
X97452438Y-87058571D01*
X97452438Y-87058571D02*
X97500057Y-87010952D01*
X97500057Y-87010952D02*
X97595295Y-86963333D01*
X97595295Y-86963333D02*
X97690533Y-86963333D01*
X97690533Y-86963333D02*
X97833390Y-87010952D01*
X97833390Y-87010952D02*
X98404819Y-87582380D01*
X98404819Y-87582380D02*
X98404819Y-86963333D01*
X97282380Y-84537200D02*
X97425237Y-84584819D01*
X97425237Y-84584819D02*
X97663332Y-84584819D01*
X97663332Y-84584819D02*
X97758570Y-84537200D01*
X97758570Y-84537200D02*
X97806189Y-84489580D01*
X97806189Y-84489580D02*
X97853808Y-84394342D01*
X97853808Y-84394342D02*
X97853808Y-84299104D01*
X97853808Y-84299104D02*
X97806189Y-84203866D01*
X97806189Y-84203866D02*
X97758570Y-84156247D01*
X97758570Y-84156247D02*
X97663332Y-84108628D01*
X97663332Y-84108628D02*
X97472856Y-84061009D01*
X97472856Y-84061009D02*
X97377618Y-84013390D01*
X97377618Y-84013390D02*
X97329999Y-83965771D01*
X97329999Y-83965771D02*
X97282380Y-83870533D01*
X97282380Y-83870533D02*
X97282380Y-83775295D01*
X97282380Y-83775295D02*
X97329999Y-83680057D01*
X97329999Y-83680057D02*
X97377618Y-83632438D01*
X97377618Y-83632438D02*
X97472856Y-83584819D01*
X97472856Y-83584819D02*
X97710951Y-83584819D01*
X97710951Y-83584819D02*
X97853808Y-83632438D01*
X98282380Y-84584819D02*
X98282380Y-83584819D01*
X98710951Y-84584819D02*
X98710951Y-84061009D01*
X98710951Y-84061009D02*
X98663332Y-83965771D01*
X98663332Y-83965771D02*
X98568094Y-83918152D01*
X98568094Y-83918152D02*
X98425237Y-83918152D01*
X98425237Y-83918152D02*
X98329999Y-83965771D01*
X98329999Y-83965771D02*
X98282380Y-84013390D01*
X99329999Y-84584819D02*
X99234761Y-84537200D01*
X99234761Y-84537200D02*
X99187142Y-84489580D01*
X99187142Y-84489580D02*
X99139523Y-84394342D01*
X99139523Y-84394342D02*
X99139523Y-84108628D01*
X99139523Y-84108628D02*
X99187142Y-84013390D01*
X99187142Y-84013390D02*
X99234761Y-83965771D01*
X99234761Y-83965771D02*
X99329999Y-83918152D01*
X99329999Y-83918152D02*
X99472856Y-83918152D01*
X99472856Y-83918152D02*
X99568094Y-83965771D01*
X99568094Y-83965771D02*
X99615713Y-84013390D01*
X99615713Y-84013390D02*
X99663332Y-84108628D01*
X99663332Y-84108628D02*
X99663332Y-84394342D01*
X99663332Y-84394342D02*
X99615713Y-84489580D01*
X99615713Y-84489580D02*
X99568094Y-84537200D01*
X99568094Y-84537200D02*
X99472856Y-84584819D01*
X99472856Y-84584819D02*
X99329999Y-84584819D01*
X100520475Y-83918152D02*
X100520475Y-84584819D01*
X100091904Y-83918152D02*
X100091904Y-84441961D01*
X100091904Y-84441961D02*
X100139523Y-84537200D01*
X100139523Y-84537200D02*
X100234761Y-84584819D01*
X100234761Y-84584819D02*
X100377618Y-84584819D01*
X100377618Y-84584819D02*
X100472856Y-84537200D01*
X100472856Y-84537200D02*
X100520475Y-84489580D01*
X101139523Y-84584819D02*
X101044285Y-84537200D01*
X101044285Y-84537200D02*
X100996666Y-84441961D01*
X100996666Y-84441961D02*
X100996666Y-83584819D01*
X101949047Y-84584819D02*
X101949047Y-83584819D01*
X101949047Y-84537200D02*
X101853809Y-84584819D01*
X101853809Y-84584819D02*
X101663333Y-84584819D01*
X101663333Y-84584819D02*
X101568095Y-84537200D01*
X101568095Y-84537200D02*
X101520476Y-84489580D01*
X101520476Y-84489580D02*
X101472857Y-84394342D01*
X101472857Y-84394342D02*
X101472857Y-84108628D01*
X101472857Y-84108628D02*
X101520476Y-84013390D01*
X101520476Y-84013390D02*
X101568095Y-83965771D01*
X101568095Y-83965771D02*
X101663333Y-83918152D01*
X101663333Y-83918152D02*
X101853809Y-83918152D01*
X101853809Y-83918152D02*
X101949047Y-83965771D01*
X102806190Y-84537200D02*
X102710952Y-84584819D01*
X102710952Y-84584819D02*
X102520476Y-84584819D01*
X102520476Y-84584819D02*
X102425238Y-84537200D01*
X102425238Y-84537200D02*
X102377619Y-84441961D01*
X102377619Y-84441961D02*
X102377619Y-84061009D01*
X102377619Y-84061009D02*
X102425238Y-83965771D01*
X102425238Y-83965771D02*
X102520476Y-83918152D01*
X102520476Y-83918152D02*
X102710952Y-83918152D01*
X102710952Y-83918152D02*
X102806190Y-83965771D01*
X102806190Y-83965771D02*
X102853809Y-84061009D01*
X102853809Y-84061009D02*
X102853809Y-84156247D01*
X102853809Y-84156247D02*
X102377619Y-84251485D01*
X103282381Y-84584819D02*
X103282381Y-83918152D01*
X103282381Y-84108628D02*
X103330000Y-84013390D01*
X103330000Y-84013390D02*
X103377619Y-83965771D01*
X103377619Y-83965771D02*
X103472857Y-83918152D01*
X103472857Y-83918152D02*
X103568095Y-83918152D01*
X104663334Y-84584819D02*
X104663334Y-83584819D01*
X104663334Y-83584819D02*
X104996667Y-84299104D01*
X104996667Y-84299104D02*
X105330000Y-83584819D01*
X105330000Y-83584819D02*
X105330000Y-84584819D01*
X105949048Y-84584819D02*
X105853810Y-84537200D01*
X105853810Y-84537200D02*
X105806191Y-84489580D01*
X105806191Y-84489580D02*
X105758572Y-84394342D01*
X105758572Y-84394342D02*
X105758572Y-84108628D01*
X105758572Y-84108628D02*
X105806191Y-84013390D01*
X105806191Y-84013390D02*
X105853810Y-83965771D01*
X105853810Y-83965771D02*
X105949048Y-83918152D01*
X105949048Y-83918152D02*
X106091905Y-83918152D01*
X106091905Y-83918152D02*
X106187143Y-83965771D01*
X106187143Y-83965771D02*
X106234762Y-84013390D01*
X106234762Y-84013390D02*
X106282381Y-84108628D01*
X106282381Y-84108628D02*
X106282381Y-84394342D01*
X106282381Y-84394342D02*
X106234762Y-84489580D01*
X106234762Y-84489580D02*
X106187143Y-84537200D01*
X106187143Y-84537200D02*
X106091905Y-84584819D01*
X106091905Y-84584819D02*
X105949048Y-84584819D01*
X106568096Y-83918152D02*
X106949048Y-83918152D01*
X106710953Y-83584819D02*
X106710953Y-84441961D01*
X106710953Y-84441961D02*
X106758572Y-84537200D01*
X106758572Y-84537200D02*
X106853810Y-84584819D01*
X106853810Y-84584819D02*
X106949048Y-84584819D01*
X107425239Y-84584819D02*
X107330001Y-84537200D01*
X107330001Y-84537200D02*
X107282382Y-84489580D01*
X107282382Y-84489580D02*
X107234763Y-84394342D01*
X107234763Y-84394342D02*
X107234763Y-84108628D01*
X107234763Y-84108628D02*
X107282382Y-84013390D01*
X107282382Y-84013390D02*
X107330001Y-83965771D01*
X107330001Y-83965771D02*
X107425239Y-83918152D01*
X107425239Y-83918152D02*
X107568096Y-83918152D01*
X107568096Y-83918152D02*
X107663334Y-83965771D01*
X107663334Y-83965771D02*
X107710953Y-84013390D01*
X107710953Y-84013390D02*
X107758572Y-84108628D01*
X107758572Y-84108628D02*
X107758572Y-84394342D01*
X107758572Y-84394342D02*
X107710953Y-84489580D01*
X107710953Y-84489580D02*
X107663334Y-84537200D01*
X107663334Y-84537200D02*
X107568096Y-84584819D01*
X107568096Y-84584819D02*
X107425239Y-84584819D01*
X108187144Y-84584819D02*
X108187144Y-83918152D01*
X108187144Y-84108628D02*
X108234763Y-84013390D01*
X108234763Y-84013390D02*
X108282382Y-83965771D01*
X108282382Y-83965771D02*
X108377620Y-83918152D01*
X108377620Y-83918152D02*
X108472858Y-83918152D01*
X107166667Y-66407200D02*
X107309524Y-66454819D01*
X107309524Y-66454819D02*
X107547619Y-66454819D01*
X107547619Y-66454819D02*
X107642857Y-66407200D01*
X107642857Y-66407200D02*
X107690476Y-66359580D01*
X107690476Y-66359580D02*
X107738095Y-66264342D01*
X107738095Y-66264342D02*
X107738095Y-66169104D01*
X107738095Y-66169104D02*
X107690476Y-66073866D01*
X107690476Y-66073866D02*
X107642857Y-66026247D01*
X107642857Y-66026247D02*
X107547619Y-65978628D01*
X107547619Y-65978628D02*
X107357143Y-65931009D01*
X107357143Y-65931009D02*
X107261905Y-65883390D01*
X107261905Y-65883390D02*
X107214286Y-65835771D01*
X107214286Y-65835771D02*
X107166667Y-65740533D01*
X107166667Y-65740533D02*
X107166667Y-65645295D01*
X107166667Y-65645295D02*
X107214286Y-65550057D01*
X107214286Y-65550057D02*
X107261905Y-65502438D01*
X107261905Y-65502438D02*
X107357143Y-65454819D01*
X107357143Y-65454819D02*
X107595238Y-65454819D01*
X107595238Y-65454819D02*
X107738095Y-65502438D01*
X108071429Y-65454819D02*
X108309524Y-66454819D01*
X108309524Y-66454819D02*
X108500000Y-65740533D01*
X108500000Y-65740533D02*
X108690476Y-66454819D01*
X108690476Y-66454819D02*
X108928572Y-65454819D01*
X109833333Y-66454819D02*
X109261905Y-66454819D01*
X109547619Y-66454819D02*
X109547619Y-65454819D01*
X109547619Y-65454819D02*
X109452381Y-65597676D01*
X109452381Y-65597676D02*
X109357143Y-65692914D01*
X109357143Y-65692914D02*
X109261905Y-65740533D01*
X95409580Y-66456666D02*
X95457200Y-66504285D01*
X95457200Y-66504285D02*
X95504819Y-66647142D01*
X95504819Y-66647142D02*
X95504819Y-66742380D01*
X95504819Y-66742380D02*
X95457200Y-66885237D01*
X95457200Y-66885237D02*
X95361961Y-66980475D01*
X95361961Y-66980475D02*
X95266723Y-67028094D01*
X95266723Y-67028094D02*
X95076247Y-67075713D01*
X95076247Y-67075713D02*
X94933390Y-67075713D01*
X94933390Y-67075713D02*
X94742914Y-67028094D01*
X94742914Y-67028094D02*
X94647676Y-66980475D01*
X94647676Y-66980475D02*
X94552438Y-66885237D01*
X94552438Y-66885237D02*
X94504819Y-66742380D01*
X94504819Y-66742380D02*
X94504819Y-66647142D01*
X94504819Y-66647142D02*
X94552438Y-66504285D01*
X94552438Y-66504285D02*
X94600057Y-66456666D01*
X94600057Y-66075713D02*
X94552438Y-66028094D01*
X94552438Y-66028094D02*
X94504819Y-65932856D01*
X94504819Y-65932856D02*
X94504819Y-65694761D01*
X94504819Y-65694761D02*
X94552438Y-65599523D01*
X94552438Y-65599523D02*
X94600057Y-65551904D01*
X94600057Y-65551904D02*
X94695295Y-65504285D01*
X94695295Y-65504285D02*
X94790533Y-65504285D01*
X94790533Y-65504285D02*
X94933390Y-65551904D01*
X94933390Y-65551904D02*
X95504819Y-66123332D01*
X95504819Y-66123332D02*
X95504819Y-65504285D01*
X119935714Y-64949104D02*
X120411904Y-64949104D01*
X119840476Y-65234819D02*
X120173809Y-64234819D01*
X120173809Y-64234819D02*
X120507142Y-65234819D01*
X121364285Y-65234819D02*
X120792857Y-65234819D01*
X121078571Y-65234819D02*
X121078571Y-64234819D01*
X121078571Y-64234819D02*
X120983333Y-64377676D01*
X120983333Y-64377676D02*
X120888095Y-64472914D01*
X120888095Y-64472914D02*
X120792857Y-64520533D01*
X119388095Y-104874819D02*
X119388095Y-105684342D01*
X119388095Y-105684342D02*
X119435714Y-105779580D01*
X119435714Y-105779580D02*
X119483333Y-105827200D01*
X119483333Y-105827200D02*
X119578571Y-105874819D01*
X119578571Y-105874819D02*
X119769047Y-105874819D01*
X119769047Y-105874819D02*
X119864285Y-105827200D01*
X119864285Y-105827200D02*
X119911904Y-105779580D01*
X119911904Y-105779580D02*
X119959523Y-105684342D01*
X119959523Y-105684342D02*
X119959523Y-104874819D01*
X120388095Y-105827200D02*
X120530952Y-105874819D01*
X120530952Y-105874819D02*
X120769047Y-105874819D01*
X120769047Y-105874819D02*
X120864285Y-105827200D01*
X120864285Y-105827200D02*
X120911904Y-105779580D01*
X120911904Y-105779580D02*
X120959523Y-105684342D01*
X120959523Y-105684342D02*
X120959523Y-105589104D01*
X120959523Y-105589104D02*
X120911904Y-105493866D01*
X120911904Y-105493866D02*
X120864285Y-105446247D01*
X120864285Y-105446247D02*
X120769047Y-105398628D01*
X120769047Y-105398628D02*
X120578571Y-105351009D01*
X120578571Y-105351009D02*
X120483333Y-105303390D01*
X120483333Y-105303390D02*
X120435714Y-105255771D01*
X120435714Y-105255771D02*
X120388095Y-105160533D01*
X120388095Y-105160533D02*
X120388095Y-105065295D01*
X120388095Y-105065295D02*
X120435714Y-104970057D01*
X120435714Y-104970057D02*
X120483333Y-104922438D01*
X120483333Y-104922438D02*
X120578571Y-104874819D01*
X120578571Y-104874819D02*
X120816666Y-104874819D01*
X120816666Y-104874819D02*
X120959523Y-104922438D01*
X121721428Y-105351009D02*
X121864285Y-105398628D01*
X121864285Y-105398628D02*
X121911904Y-105446247D01*
X121911904Y-105446247D02*
X121959523Y-105541485D01*
X121959523Y-105541485D02*
X121959523Y-105684342D01*
X121959523Y-105684342D02*
X121911904Y-105779580D01*
X121911904Y-105779580D02*
X121864285Y-105827200D01*
X121864285Y-105827200D02*
X121769047Y-105874819D01*
X121769047Y-105874819D02*
X121388095Y-105874819D01*
X121388095Y-105874819D02*
X121388095Y-104874819D01*
X121388095Y-104874819D02*
X121721428Y-104874819D01*
X121721428Y-104874819D02*
X121816666Y-104922438D01*
X121816666Y-104922438D02*
X121864285Y-104970057D01*
X121864285Y-104970057D02*
X121911904Y-105065295D01*
X121911904Y-105065295D02*
X121911904Y-105160533D01*
X121911904Y-105160533D02*
X121864285Y-105255771D01*
X121864285Y-105255771D02*
X121816666Y-105303390D01*
X121816666Y-105303390D02*
X121721428Y-105351009D01*
X121721428Y-105351009D02*
X121388095Y-105351009D01*
X97404819Y-98123333D02*
X98119104Y-98123333D01*
X98119104Y-98123333D02*
X98261961Y-98170952D01*
X98261961Y-98170952D02*
X98357200Y-98266190D01*
X98357200Y-98266190D02*
X98404819Y-98409047D01*
X98404819Y-98409047D02*
X98404819Y-98504285D01*
X97404819Y-97742380D02*
X97404819Y-97123333D01*
X97404819Y-97123333D02*
X97785771Y-97456666D01*
X97785771Y-97456666D02*
X97785771Y-97313809D01*
X97785771Y-97313809D02*
X97833390Y-97218571D01*
X97833390Y-97218571D02*
X97881009Y-97170952D01*
X97881009Y-97170952D02*
X97976247Y-97123333D01*
X97976247Y-97123333D02*
X98214342Y-97123333D01*
X98214342Y-97123333D02*
X98309580Y-97170952D01*
X98309580Y-97170952D02*
X98357200Y-97218571D01*
X98357200Y-97218571D02*
X98404819Y-97313809D01*
X98404819Y-97313809D02*
X98404819Y-97599523D01*
X98404819Y-97599523D02*
X98357200Y-97694761D01*
X98357200Y-97694761D02*
X98309580Y-97742380D01*
X98472856Y-94221009D02*
X98806189Y-94221009D01*
X98949046Y-94744819D02*
X98472856Y-94744819D01*
X98472856Y-94744819D02*
X98472856Y-93744819D01*
X98472856Y-93744819D02*
X98949046Y-93744819D01*
X99520475Y-94744819D02*
X99425237Y-94697200D01*
X99425237Y-94697200D02*
X99377618Y-94601961D01*
X99377618Y-94601961D02*
X99377618Y-93744819D01*
X99901428Y-94744819D02*
X99901428Y-93744819D01*
X99901428Y-94125771D02*
X99996666Y-94078152D01*
X99996666Y-94078152D02*
X100187142Y-94078152D01*
X100187142Y-94078152D02*
X100282380Y-94125771D01*
X100282380Y-94125771D02*
X100329999Y-94173390D01*
X100329999Y-94173390D02*
X100377618Y-94268628D01*
X100377618Y-94268628D02*
X100377618Y-94554342D01*
X100377618Y-94554342D02*
X100329999Y-94649580D01*
X100329999Y-94649580D02*
X100282380Y-94697200D01*
X100282380Y-94697200D02*
X100187142Y-94744819D01*
X100187142Y-94744819D02*
X99996666Y-94744819D01*
X99996666Y-94744819D02*
X99901428Y-94697200D01*
X100949047Y-94744819D02*
X100853809Y-94697200D01*
X100853809Y-94697200D02*
X100806190Y-94649580D01*
X100806190Y-94649580D02*
X100758571Y-94554342D01*
X100758571Y-94554342D02*
X100758571Y-94268628D01*
X100758571Y-94268628D02*
X100806190Y-94173390D01*
X100806190Y-94173390D02*
X100853809Y-94125771D01*
X100853809Y-94125771D02*
X100949047Y-94078152D01*
X100949047Y-94078152D02*
X101091904Y-94078152D01*
X101091904Y-94078152D02*
X101187142Y-94125771D01*
X101187142Y-94125771D02*
X101234761Y-94173390D01*
X101234761Y-94173390D02*
X101282380Y-94268628D01*
X101282380Y-94268628D02*
X101282380Y-94554342D01*
X101282380Y-94554342D02*
X101234761Y-94649580D01*
X101234761Y-94649580D02*
X101187142Y-94697200D01*
X101187142Y-94697200D02*
X101091904Y-94744819D01*
X101091904Y-94744819D02*
X100949047Y-94744819D01*
X101615714Y-94078152D02*
X101806190Y-94744819D01*
X101806190Y-94744819D02*
X101996666Y-94268628D01*
X101996666Y-94268628D02*
X102187142Y-94744819D01*
X102187142Y-94744819D02*
X102377618Y-94078152D01*
X103520476Y-94744819D02*
X103520476Y-93744819D01*
X103520476Y-93744819D02*
X103853809Y-94459104D01*
X103853809Y-94459104D02*
X104187142Y-93744819D01*
X104187142Y-93744819D02*
X104187142Y-94744819D01*
X104806190Y-94744819D02*
X104710952Y-94697200D01*
X104710952Y-94697200D02*
X104663333Y-94649580D01*
X104663333Y-94649580D02*
X104615714Y-94554342D01*
X104615714Y-94554342D02*
X104615714Y-94268628D01*
X104615714Y-94268628D02*
X104663333Y-94173390D01*
X104663333Y-94173390D02*
X104710952Y-94125771D01*
X104710952Y-94125771D02*
X104806190Y-94078152D01*
X104806190Y-94078152D02*
X104949047Y-94078152D01*
X104949047Y-94078152D02*
X105044285Y-94125771D01*
X105044285Y-94125771D02*
X105091904Y-94173390D01*
X105091904Y-94173390D02*
X105139523Y-94268628D01*
X105139523Y-94268628D02*
X105139523Y-94554342D01*
X105139523Y-94554342D02*
X105091904Y-94649580D01*
X105091904Y-94649580D02*
X105044285Y-94697200D01*
X105044285Y-94697200D02*
X104949047Y-94744819D01*
X104949047Y-94744819D02*
X104806190Y-94744819D01*
X105425238Y-94078152D02*
X105806190Y-94078152D01*
X105568095Y-93744819D02*
X105568095Y-94601961D01*
X105568095Y-94601961D02*
X105615714Y-94697200D01*
X105615714Y-94697200D02*
X105710952Y-94744819D01*
X105710952Y-94744819D02*
X105806190Y-94744819D01*
X106282381Y-94744819D02*
X106187143Y-94697200D01*
X106187143Y-94697200D02*
X106139524Y-94649580D01*
X106139524Y-94649580D02*
X106091905Y-94554342D01*
X106091905Y-94554342D02*
X106091905Y-94268628D01*
X106091905Y-94268628D02*
X106139524Y-94173390D01*
X106139524Y-94173390D02*
X106187143Y-94125771D01*
X106187143Y-94125771D02*
X106282381Y-94078152D01*
X106282381Y-94078152D02*
X106425238Y-94078152D01*
X106425238Y-94078152D02*
X106520476Y-94125771D01*
X106520476Y-94125771D02*
X106568095Y-94173390D01*
X106568095Y-94173390D02*
X106615714Y-94268628D01*
X106615714Y-94268628D02*
X106615714Y-94554342D01*
X106615714Y-94554342D02*
X106568095Y-94649580D01*
X106568095Y-94649580D02*
X106520476Y-94697200D01*
X106520476Y-94697200D02*
X106425238Y-94744819D01*
X106425238Y-94744819D02*
X106282381Y-94744819D01*
X107044286Y-94744819D02*
X107044286Y-94078152D01*
X107044286Y-94268628D02*
X107091905Y-94173390D01*
X107091905Y-94173390D02*
X107139524Y-94125771D01*
X107139524Y-94125771D02*
X107234762Y-94078152D01*
X107234762Y-94078152D02*
X107330000Y-94078152D01*
D15*
X94549000Y-107904759D02*
X94549000Y-108534759D01*
X94864000Y-108219759D02*
X94234000Y-108219759D01*
X95940000Y-111405000D02*
X89480000Y-111405000D01*
X95940000Y-111445000D02*
X89480000Y-111445000D01*
X95939000Y-111485000D02*
X89481000Y-111485000D01*
X95938000Y-111525000D02*
X89482000Y-111525000D01*
X95936000Y-111565000D02*
X89484000Y-111565000D01*
X95934000Y-111605000D02*
X89486000Y-111605000D01*
X95931000Y-111645000D02*
X93750000Y-111645000D01*
X91670000Y-111645000D02*
X89489000Y-111645000D01*
X95928000Y-111685000D02*
X93750000Y-111685000D01*
X91670000Y-111685000D02*
X89492000Y-111685000D01*
X95924000Y-111725000D02*
X93750000Y-111725000D01*
X91670000Y-111725000D02*
X89496000Y-111725000D01*
X95920000Y-111765000D02*
X93750000Y-111765000D01*
X91670000Y-111765000D02*
X89500000Y-111765000D01*
X95915000Y-111805000D02*
X93750000Y-111805000D01*
X91670000Y-111805000D02*
X89505000Y-111805000D01*
X95910000Y-111845000D02*
X93750000Y-111845000D01*
X91670000Y-111845000D02*
X89510000Y-111845000D01*
X95905000Y-111885000D02*
X93750000Y-111885000D01*
X91670000Y-111885000D02*
X89515000Y-111885000D01*
X95898000Y-111925000D02*
X93750000Y-111925000D01*
X91670000Y-111925000D02*
X89522000Y-111925000D01*
X95892000Y-111965000D02*
X93750000Y-111965000D01*
X91670000Y-111965000D02*
X89528000Y-111965000D01*
X95884000Y-112005000D02*
X93750000Y-112005000D01*
X91670000Y-112005000D02*
X89536000Y-112005000D01*
X95877000Y-112045000D02*
X93750000Y-112045000D01*
X91670000Y-112045000D02*
X89543000Y-112045000D01*
X95869000Y-112085000D02*
X93750000Y-112085000D01*
X91670000Y-112085000D02*
X89551000Y-112085000D01*
X95860000Y-112125000D02*
X93750000Y-112125000D01*
X91670000Y-112125000D02*
X89560000Y-112125000D01*
X95850000Y-112165000D02*
X93750000Y-112165000D01*
X91670000Y-112165000D02*
X89570000Y-112165000D01*
X95841000Y-112205000D02*
X93750000Y-112205000D01*
X91670000Y-112205000D02*
X89579000Y-112205000D01*
X95830000Y-112245000D02*
X93750000Y-112245000D01*
X91670000Y-112245000D02*
X89590000Y-112245000D01*
X95819000Y-112285000D02*
X93750000Y-112285000D01*
X91670000Y-112285000D02*
X89601000Y-112285000D01*
X95808000Y-112325000D02*
X93750000Y-112325000D01*
X91670000Y-112325000D02*
X89612000Y-112325000D01*
X95796000Y-112365000D02*
X93750000Y-112365000D01*
X91670000Y-112365000D02*
X89624000Y-112365000D01*
X95783000Y-112405000D02*
X93750000Y-112405000D01*
X91670000Y-112405000D02*
X89637000Y-112405000D01*
X95770000Y-112445000D02*
X93750000Y-112445000D01*
X91670000Y-112445000D02*
X89650000Y-112445000D01*
X95757000Y-112485000D02*
X93750000Y-112485000D01*
X91670000Y-112485000D02*
X89663000Y-112485000D01*
X95742000Y-112525000D02*
X93750000Y-112525000D01*
X91670000Y-112525000D02*
X89678000Y-112525000D01*
X95727000Y-112565000D02*
X93750000Y-112565000D01*
X91670000Y-112565000D02*
X89693000Y-112565000D01*
X95712000Y-112605000D02*
X93750000Y-112605000D01*
X91670000Y-112605000D02*
X89708000Y-112605000D01*
X95696000Y-112645000D02*
X93750000Y-112645000D01*
X91670000Y-112645000D02*
X89724000Y-112645000D01*
X95679000Y-112685000D02*
X93750000Y-112685000D01*
X91670000Y-112685000D02*
X89741000Y-112685000D01*
X95662000Y-112725000D02*
X93750000Y-112725000D01*
X91670000Y-112725000D02*
X89758000Y-112725000D01*
X95644000Y-112765000D02*
X93750000Y-112765000D01*
X91670000Y-112765000D02*
X89776000Y-112765000D01*
X95625000Y-112805000D02*
X93750000Y-112805000D01*
X91670000Y-112805000D02*
X89795000Y-112805000D01*
X95606000Y-112845000D02*
X93750000Y-112845000D01*
X91670000Y-112845000D02*
X89814000Y-112845000D01*
X95586000Y-112885000D02*
X93750000Y-112885000D01*
X91670000Y-112885000D02*
X89834000Y-112885000D01*
X95565000Y-112925000D02*
X93750000Y-112925000D01*
X91670000Y-112925000D02*
X89855000Y-112925000D01*
X95544000Y-112965000D02*
X93750000Y-112965000D01*
X91670000Y-112965000D02*
X89876000Y-112965000D01*
X95522000Y-113005000D02*
X93750000Y-113005000D01*
X91670000Y-113005000D02*
X89898000Y-113005000D01*
X95499000Y-113045000D02*
X93750000Y-113045000D01*
X91670000Y-113045000D02*
X89921000Y-113045000D01*
X95475000Y-113085000D02*
X93750000Y-113085000D01*
X91670000Y-113085000D02*
X89945000Y-113085000D01*
X95451000Y-113125000D02*
X93750000Y-113125000D01*
X91670000Y-113125000D02*
X89969000Y-113125000D01*
X95426000Y-113165000D02*
X93750000Y-113165000D01*
X91670000Y-113165000D02*
X89994000Y-113165000D01*
X95400000Y-113205000D02*
X93750000Y-113205000D01*
X91670000Y-113205000D02*
X90020000Y-113205000D01*
X95373000Y-113245000D02*
X93750000Y-113245000D01*
X91670000Y-113245000D02*
X90047000Y-113245000D01*
X95346000Y-113285000D02*
X93750000Y-113285000D01*
X91670000Y-113285000D02*
X90074000Y-113285000D01*
X95317000Y-113325000D02*
X93750000Y-113325000D01*
X91670000Y-113325000D02*
X90103000Y-113325000D01*
X95287000Y-113365000D02*
X93750000Y-113365000D01*
X91670000Y-113365000D02*
X90133000Y-113365000D01*
X95257000Y-113405000D02*
X93750000Y-113405000D01*
X91670000Y-113405000D02*
X90163000Y-113405000D01*
X95226000Y-113445000D02*
X93750000Y-113445000D01*
X91670000Y-113445000D02*
X90194000Y-113445000D01*
X95193000Y-113485000D02*
X93750000Y-113485000D01*
X91670000Y-113485000D02*
X90227000Y-113485000D01*
X95160000Y-113525000D02*
X93750000Y-113525000D01*
X91670000Y-113525000D02*
X90260000Y-113525000D01*
X95125000Y-113565000D02*
X93750000Y-113565000D01*
X91670000Y-113565000D02*
X90295000Y-113565000D01*
X95089000Y-113605000D02*
X93750000Y-113605000D01*
X91670000Y-113605000D02*
X90331000Y-113605000D01*
X95052000Y-113645000D02*
X93750000Y-113645000D01*
X91670000Y-113645000D02*
X90368000Y-113645000D01*
X95014000Y-113685000D02*
X93750000Y-113685000D01*
X91670000Y-113685000D02*
X90406000Y-113685000D01*
X94974000Y-113725000D02*
X90446000Y-113725000D01*
X94933000Y-113765000D02*
X90487000Y-113765000D01*
X94891000Y-113805000D02*
X90529000Y-113805000D01*
X94847000Y-113845000D02*
X90573000Y-113845000D01*
X94801000Y-113885000D02*
X90619000Y-113885000D01*
X94754000Y-113925000D02*
X90666000Y-113925000D01*
X94705000Y-113965000D02*
X90715000Y-113965000D01*
X94653000Y-114005000D02*
X90767000Y-114005000D01*
X94600000Y-114045000D02*
X90820000Y-114045000D01*
X94544000Y-114085000D02*
X90876000Y-114085000D01*
X94485000Y-114125000D02*
X90935000Y-114125000D01*
X94424000Y-114165000D02*
X90996000Y-114165000D01*
X94359000Y-114205000D02*
X91061000Y-114205000D01*
X94291000Y-114245000D02*
X91129000Y-114245000D01*
X94219000Y-114285000D02*
X91201000Y-114285000D01*
X94142000Y-114325000D02*
X91278000Y-114325000D01*
X94060000Y-114365000D02*
X91360000Y-114365000D01*
X93971000Y-114405000D02*
X91449000Y-114405000D01*
X93875000Y-114445000D02*
X91545000Y-114445000D01*
X93768000Y-114485000D02*
X91652000Y-114485000D01*
X93649000Y-114525000D02*
X91771000Y-114525000D01*
X93511000Y-114565000D02*
X91909000Y-114565000D01*
X93343000Y-114605000D02*
X92077000Y-114605000D01*
X93112000Y-114645000D02*
X92308000Y-114645000D01*
X95980000Y-111405000D02*
G75*
G02*
X89440000Y-111405000I-3270000J0D01*
G01*
X89440000Y-111405000D02*
G75*
G02*
X95980000Y-111405000I3270000J0D01*
G01*
D14*
X109640000Y-113240000D02*
X109640000Y-112040000D01*
X109640000Y-111340000D02*
X109640000Y-110640000D01*
D11*
X108640000Y-117840000D02*
X108640000Y-108840000D01*
D14*
X108640000Y-117840000D02*
X99640000Y-117840000D01*
D11*
X108640000Y-103840000D02*
X108640000Y-104840000D01*
D14*
X108640000Y-103840000D02*
X106140000Y-103840000D01*
X106890000Y-117840000D02*
X106890000Y-108590000D01*
X106890000Y-108590000D02*
X105140000Y-108590000D01*
D11*
X105140000Y-115590000D02*
X105140000Y-112340000D01*
X103140000Y-115590000D02*
X103140000Y-112340000D01*
D14*
X102140000Y-103840000D02*
X99640000Y-103840000D01*
X101390000Y-117840000D02*
X101390000Y-108590000D01*
X101390000Y-108590000D02*
X103140000Y-108590000D01*
X99640000Y-117840000D02*
X99640000Y-103840000D01*
D16*
X109340000Y-112640000D02*
G75*
G02*
X109940000Y-112640000I300000J600000D01*
G01*
D14*
X105140000Y-115590000D02*
G75*
G02*
X103140000Y-115590000I-1000000J0D01*
G01*
X109740000Y-112040000D02*
G75*
G02*
X109540000Y-112040000I-100000J0D01*
G01*
X109540000Y-112040000D02*
G75*
G02*
X109740000Y-112040000I100000J0D01*
G01*
X109840000Y-112040000D02*
G75*
G02*
X109440000Y-112040000I-200000J0D01*
G01*
X109440000Y-112040000D02*
G75*
G02*
X109840000Y-112040000I200000J0D01*
G01*
X109940000Y-112040000D02*
G75*
G02*
X109340000Y-112040000I-300000J0D01*
G01*
X109340000Y-112040000D02*
G75*
G02*
X109940000Y-112040000I300000J0D01*
G01*
D15*
X94400000Y-85360000D02*
X94400000Y-89900000D01*
X94344000Y-85360000D02*
X94400000Y-85360000D01*
X92316000Y-89900000D02*
X92260000Y-89900000D01*
X92260000Y-89900000D02*
X92260000Y-85360000D01*
X94400000Y-95520000D02*
X94400000Y-100060000D01*
X94344000Y-95520000D02*
X94400000Y-95520000D01*
X92316000Y-100060000D02*
X92260000Y-100060000D01*
X92260000Y-100060000D02*
X92260000Y-95520000D01*
X101600000Y-76090000D02*
X106790000Y-76090000D01*
X106790000Y-78850000D02*
X106790000Y-76090000D01*
X101600000Y-78850000D02*
X101600000Y-76090000D01*
X101600000Y-78850000D02*
X106790000Y-78850000D01*
X100330000Y-78850000D02*
X98950000Y-78850000D01*
X98950000Y-78850000D02*
X98950000Y-77470000D01*
X94400000Y-75200000D02*
X94400000Y-79740000D01*
X94344000Y-75200000D02*
X94400000Y-75200000D01*
X92316000Y-79740000D02*
X92260000Y-79740000D01*
X92260000Y-79740000D02*
X92260000Y-75200000D01*
X101600000Y-86250000D02*
X106790000Y-86250000D01*
X106790000Y-89010000D02*
X106790000Y-86250000D01*
X101600000Y-89010000D02*
X101600000Y-86250000D01*
X101600000Y-89010000D02*
X106790000Y-89010000D01*
X100330000Y-89010000D02*
X98950000Y-89010000D01*
X98950000Y-89010000D02*
X98950000Y-87630000D01*
X98100000Y-65290000D02*
X98100000Y-66790000D01*
X99350000Y-69290000D02*
X103850000Y-69290000D01*
X103850000Y-62790000D02*
X99350000Y-62790000D01*
X105100000Y-66790000D02*
X105100000Y-65290000D01*
X93920000Y-64020000D02*
X93920000Y-68560000D01*
X93864000Y-64020000D02*
X93920000Y-64020000D01*
X91836000Y-68560000D02*
X91780000Y-68560000D01*
X91780000Y-68560000D02*
X91780000Y-64020000D01*
X111630000Y-65920000D02*
X111630000Y-68590000D01*
X111630000Y-71130000D02*
X111630000Y-109360000D01*
X111630000Y-109360000D02*
X116710000Y-109360000D01*
X114300000Y-68590000D02*
X111630000Y-68590000D01*
X114300000Y-71130000D02*
X111630000Y-71130000D01*
X114300000Y-71130000D02*
X114300000Y-68590000D01*
X114300000Y-71130000D02*
X114300000Y-106690000D01*
X114300000Y-106690000D02*
X111630000Y-106690000D01*
X116710000Y-101480000D02*
X124590000Y-101480000D01*
X116710000Y-111900000D02*
X116710000Y-101480000D01*
X124590000Y-101480000D02*
X124590000Y-111900000D01*
X124590000Y-111900000D02*
X116710000Y-111900000D01*
X127000000Y-68590000D02*
X127000000Y-106690000D01*
X127000000Y-68590000D02*
X129670000Y-68590000D01*
X127000000Y-106690000D02*
X129670000Y-106690000D01*
X129670000Y-65920000D02*
X111630000Y-65920000D01*
X129670000Y-109360000D02*
X124590000Y-109360000D01*
X129670000Y-109360000D02*
X129670000Y-65920000D01*
X101600000Y-96410000D02*
X106790000Y-96410000D01*
X106790000Y-99170000D02*
X106790000Y-96410000D01*
X101600000Y-99170000D02*
X101600000Y-96410000D01*
X101600000Y-99170000D02*
X106790000Y-99170000D01*
X100330000Y-99170000D02*
X98950000Y-99170000D01*
X98950000Y-99170000D02*
X98950000Y-97790000D01*
%LPC*%
G36*
X88257584Y-116927085D02*
G01*
X88422248Y-116980588D01*
X88422250Y-116980589D01*
X88422253Y-116980590D01*
X88499389Y-117019893D01*
X88576530Y-117059198D01*
X88716597Y-117160962D01*
X88839037Y-117283402D01*
X88940801Y-117423469D01*
X88940804Y-117423475D01*
X89019410Y-117577747D01*
X89072914Y-117742416D01*
X89100000Y-117913428D01*
X89100000Y-118086572D01*
X89072914Y-118257584D01*
X89019410Y-118422253D01*
X88940804Y-118576525D01*
X88940801Y-118576530D01*
X88839037Y-118716597D01*
X88839033Y-118716602D01*
X88716602Y-118839033D01*
X88716598Y-118839035D01*
X88716597Y-118839037D01*
X88576530Y-118940801D01*
X88576527Y-118940802D01*
X88576525Y-118940804D01*
X88422253Y-119019410D01*
X88257584Y-119072914D01*
X88086574Y-119100000D01*
X88086572Y-119100000D01*
X87913428Y-119100000D01*
X87913426Y-119100000D01*
X87742415Y-119072914D01*
X87656755Y-119045081D01*
X87577747Y-119019410D01*
X87423475Y-118940804D01*
X87423469Y-118940801D01*
X87283402Y-118839037D01*
X87160962Y-118716597D01*
X87059198Y-118576530D01*
X87019893Y-118499389D01*
X86980590Y-118422253D01*
X86980588Y-118422248D01*
X86927085Y-118257584D01*
X86900000Y-118086573D01*
X86900000Y-117913426D01*
X86927085Y-117742415D01*
X86980588Y-117577751D01*
X87059198Y-117423469D01*
X87160962Y-117283402D01*
X87283402Y-117160962D01*
X87423469Y-117059198D01*
X87577751Y-116980588D01*
X87742415Y-116927085D01*
X87913426Y-116900000D01*
X88086574Y-116900000D01*
X88257584Y-116927085D01*
G37*
G36*
X131257584Y-116927085D02*
G01*
X131422248Y-116980588D01*
X131422250Y-116980589D01*
X131422253Y-116980590D01*
X131499389Y-117019893D01*
X131576530Y-117059198D01*
X131716597Y-117160962D01*
X131839037Y-117283402D01*
X131940801Y-117423469D01*
X131940804Y-117423475D01*
X132019410Y-117577747D01*
X132072914Y-117742416D01*
X132100000Y-117913428D01*
X132100000Y-118086572D01*
X132072914Y-118257584D01*
X132019410Y-118422253D01*
X131940804Y-118576525D01*
X131940801Y-118576530D01*
X131839037Y-118716597D01*
X131839033Y-118716602D01*
X131716602Y-118839033D01*
X131716598Y-118839035D01*
X131716597Y-118839037D01*
X131576530Y-118940801D01*
X131576527Y-118940802D01*
X131576525Y-118940804D01*
X131422253Y-119019410D01*
X131257584Y-119072914D01*
X131086574Y-119100000D01*
X131086572Y-119100000D01*
X130913428Y-119100000D01*
X130913426Y-119100000D01*
X130742415Y-119072914D01*
X130656755Y-119045081D01*
X130577747Y-119019410D01*
X130423475Y-118940804D01*
X130423469Y-118940801D01*
X130283402Y-118839037D01*
X130160962Y-118716597D01*
X130059198Y-118576530D01*
X130019893Y-118499389D01*
X129980590Y-118422253D01*
X129980588Y-118422248D01*
X129927085Y-118257584D01*
X129900000Y-118086573D01*
X129900000Y-117913426D01*
X129927085Y-117742415D01*
X129980588Y-117577751D01*
X130059198Y-117423469D01*
X130160962Y-117283402D01*
X130283402Y-117160962D01*
X130423469Y-117059198D01*
X130577751Y-116980588D01*
X130742415Y-116927085D01*
X130913426Y-116900000D01*
X131086574Y-116900000D01*
X131257584Y-116927085D01*
G37*
G36*
X92943348Y-111885742D02*
G01*
X92943349Y-111885742D01*
X92943351Y-111885743D01*
X93088942Y-111946049D01*
X93219970Y-112033599D01*
X93331401Y-112145030D01*
X93418951Y-112276058D01*
X93479257Y-112421649D01*
X93510000Y-112576207D01*
X93510000Y-112733793D01*
X93479257Y-112888351D01*
X93418951Y-113033942D01*
X93331401Y-113164970D01*
X93219970Y-113276401D01*
X93088942Y-113363951D01*
X92943351Y-113424257D01*
X92827432Y-113447314D01*
X92788794Y-113455000D01*
X92788793Y-113455000D01*
X92631207Y-113455000D01*
X92631206Y-113455000D01*
X92579687Y-113444752D01*
X92476649Y-113424257D01*
X92331058Y-113363951D01*
X92200030Y-113276401D01*
X92088599Y-113164970D01*
X92001049Y-113033942D01*
X91940743Y-112888351D01*
X91910000Y-112733793D01*
X91910000Y-112576207D01*
X91910000Y-112576206D01*
X91940742Y-112421651D01*
X92001050Y-112276056D01*
X92088597Y-112145032D01*
X92200032Y-112033597D01*
X92331056Y-111946050D01*
X92476651Y-111885742D01*
X92631206Y-111855000D01*
X92788794Y-111855000D01*
X92943348Y-111885742D01*
G37*
G36*
X104497015Y-108545163D02*
G01*
X104728234Y-108607118D01*
X104949388Y-108698723D01*
X105156694Y-108818411D01*
X105346603Y-108964133D01*
X105515867Y-109133397D01*
X105661589Y-109323306D01*
X105781277Y-109530612D01*
X105872882Y-109751766D01*
X105934837Y-109982985D01*
X105966082Y-110220312D01*
X105966082Y-110459688D01*
X105934837Y-110697015D01*
X105872882Y-110928234D01*
X105781277Y-111149388D01*
X105661589Y-111356694D01*
X105515867Y-111546603D01*
X105346603Y-111715867D01*
X105156694Y-111861589D01*
X104949388Y-111981277D01*
X104728234Y-112072882D01*
X104497015Y-112134837D01*
X104259688Y-112166082D01*
X104020312Y-112166082D01*
X103782985Y-112134837D01*
X103551766Y-112072882D01*
X103330612Y-111981277D01*
X103123306Y-111861589D01*
X102933397Y-111715867D01*
X102764133Y-111546603D01*
X102618411Y-111356694D01*
X102498723Y-111149388D01*
X102407118Y-110928234D01*
X102345163Y-110697015D01*
X102313918Y-110459688D01*
X102313918Y-110220312D01*
X102345163Y-109982985D01*
X102407118Y-109751766D01*
X102498723Y-109530612D01*
X102618411Y-109323306D01*
X102764133Y-109133397D01*
X102933397Y-108964133D01*
X103123306Y-108818411D01*
X103330612Y-108698723D01*
X103551766Y-108607118D01*
X103782985Y-108545163D01*
X104020312Y-108513918D01*
X104259688Y-108513918D01*
X104497015Y-108545163D01*
G37*
G36*
X93316271Y-109356560D02*
G01*
X93335786Y-109365176D01*
X93357545Y-109369505D01*
X93380837Y-109385068D01*
X93403731Y-109395177D01*
X93419367Y-109410813D01*
X93440240Y-109424760D01*
X93454186Y-109445632D01*
X93469822Y-109461268D01*
X93479929Y-109484158D01*
X93495495Y-109507455D01*
X93499823Y-109529217D01*
X93508437Y-109548725D01*
X93509999Y-109562186D01*
X93509999Y-109580370D01*
X93510000Y-109580376D01*
X93510000Y-110729624D01*
X93509999Y-110729629D01*
X93509999Y-110747818D01*
X93508439Y-110761271D01*
X93499823Y-110780782D01*
X93495495Y-110802545D01*
X93479928Y-110825842D01*
X93469822Y-110848731D01*
X93454188Y-110864364D01*
X93440240Y-110885240D01*
X93419364Y-110899188D01*
X93403731Y-110914822D01*
X93380843Y-110924927D01*
X93357545Y-110940495D01*
X93335780Y-110944824D01*
X93316274Y-110953437D01*
X93302813Y-110954999D01*
X93284629Y-110954999D01*
X93284624Y-110955000D01*
X92135376Y-110955000D01*
X92135371Y-110954999D01*
X92117181Y-110954999D01*
X92103728Y-110953439D01*
X92084215Y-110944823D01*
X92062455Y-110940495D01*
X92039159Y-110924929D01*
X92016268Y-110914822D01*
X92000632Y-110899186D01*
X91979760Y-110885240D01*
X91965813Y-110864367D01*
X91950177Y-110848731D01*
X91940069Y-110825838D01*
X91924505Y-110802545D01*
X91920176Y-110780784D01*
X91911562Y-110761274D01*
X91910000Y-110747813D01*
X91910000Y-109562181D01*
X91911560Y-109548728D01*
X91920177Y-109529211D01*
X91924505Y-109507455D01*
X91940067Y-109484164D01*
X91950177Y-109461268D01*
X91965815Y-109445629D01*
X91979760Y-109424760D01*
X92000629Y-109410815D01*
X92016268Y-109395177D01*
X92039163Y-109385068D01*
X92062455Y-109369505D01*
X92084213Y-109365176D01*
X92103725Y-109356562D01*
X92117186Y-109355000D01*
X93302818Y-109355000D01*
X93316271Y-109356560D01*
G37*
G36*
X113289603Y-107104202D02*
G01*
X113451572Y-107171291D01*
X113597339Y-107268689D01*
X113721310Y-107392660D01*
X113818708Y-107538427D01*
X113885797Y-107700396D01*
X113920000Y-107872341D01*
X113920000Y-108047658D01*
X113885797Y-108219603D01*
X113818708Y-108381572D01*
X113730278Y-108513918D01*
X113721308Y-108527342D01*
X113597342Y-108651308D01*
X113597338Y-108651310D01*
X113597339Y-108651310D01*
X113451572Y-108748708D01*
X113289603Y-108815797D01*
X113117659Y-108850000D01*
X113117657Y-108850000D01*
X112942343Y-108850000D01*
X112942341Y-108850000D01*
X112770396Y-108815797D01*
X112608427Y-108748708D01*
X112462660Y-108651310D01*
X112338689Y-108527339D01*
X112241291Y-108381572D01*
X112174202Y-108219603D01*
X112140000Y-108047658D01*
X112140000Y-107872341D01*
X112174202Y-107700396D01*
X112241291Y-107538427D01*
X112338689Y-107392660D01*
X112462660Y-107268689D01*
X112608427Y-107171291D01*
X112770396Y-107104202D01*
X112942341Y-107070000D01*
X113117659Y-107070000D01*
X113289603Y-107104202D01*
G37*
G36*
X128529603Y-107104202D02*
G01*
X128691572Y-107171291D01*
X128837339Y-107268689D01*
X128961310Y-107392660D01*
X129058708Y-107538427D01*
X129125797Y-107700396D01*
X129160000Y-107872341D01*
X129160000Y-108047658D01*
X129125797Y-108219603D01*
X129058708Y-108381572D01*
X128970278Y-108513918D01*
X128961308Y-108527342D01*
X128837342Y-108651308D01*
X128837338Y-108651310D01*
X128837339Y-108651310D01*
X128691572Y-108748708D01*
X128529603Y-108815797D01*
X128357659Y-108850000D01*
X128357657Y-108850000D01*
X128182343Y-108850000D01*
X128182341Y-108850000D01*
X128010396Y-108815797D01*
X127848427Y-108748708D01*
X127702660Y-108651310D01*
X127578689Y-108527339D01*
X127481291Y-108381572D01*
X127414202Y-108219603D01*
X127380000Y-108047658D01*
X127380000Y-107872341D01*
X127414202Y-107700396D01*
X127481291Y-107538427D01*
X127578689Y-107392660D01*
X127702660Y-107268689D01*
X127848427Y-107171291D01*
X128010396Y-107104202D01*
X128182341Y-107070000D01*
X128357659Y-107070000D01*
X128529603Y-107104202D01*
G37*
G36*
X109397015Y-105045163D02*
G01*
X109628234Y-105107118D01*
X109849388Y-105198723D01*
X110056694Y-105318411D01*
X110246603Y-105464133D01*
X110415867Y-105633397D01*
X110561589Y-105823306D01*
X110681277Y-106030612D01*
X110772882Y-106251766D01*
X110834837Y-106482985D01*
X110866082Y-106720312D01*
X110866082Y-106959688D01*
X110834837Y-107197015D01*
X110772882Y-107428234D01*
X110681277Y-107649388D01*
X110561589Y-107856694D01*
X110415867Y-108046603D01*
X110246603Y-108215867D01*
X110056694Y-108361589D01*
X109849388Y-108481277D01*
X109628234Y-108572882D01*
X109397015Y-108634837D01*
X109159688Y-108666082D01*
X108920312Y-108666082D01*
X108682985Y-108634837D01*
X108451766Y-108572882D01*
X108230612Y-108481277D01*
X108023306Y-108361589D01*
X107833397Y-108215867D01*
X107664133Y-108046603D01*
X107518411Y-107856694D01*
X107398723Y-107649388D01*
X107307118Y-107428234D01*
X107245163Y-107197015D01*
X107213918Y-106959688D01*
X107213918Y-106720312D01*
X107245163Y-106482985D01*
X107307118Y-106251766D01*
X107398723Y-106030612D01*
X107518411Y-105823306D01*
X107664133Y-105633397D01*
X107833397Y-105464133D01*
X108023306Y-105318411D01*
X108230612Y-105198723D01*
X108451766Y-105107118D01*
X108682985Y-105045163D01*
X108920312Y-105013918D01*
X109159688Y-105013918D01*
X109397015Y-105045163D01*
G37*
G36*
X113263348Y-104650742D02*
G01*
X113263349Y-104650742D01*
X113263351Y-104650743D01*
X113408942Y-104711049D01*
X113539970Y-104798599D01*
X113651401Y-104910030D01*
X113738951Y-105041058D01*
X113799257Y-105186649D01*
X113830000Y-105341207D01*
X113830000Y-105498793D01*
X113799257Y-105653351D01*
X113738951Y-105798942D01*
X113651401Y-105929970D01*
X113539970Y-106041401D01*
X113408942Y-106128951D01*
X113263351Y-106189257D01*
X113147432Y-106212314D01*
X113108794Y-106220000D01*
X113108793Y-106220000D01*
X112951207Y-106220000D01*
X112951206Y-106220000D01*
X112899687Y-106209752D01*
X112796649Y-106189257D01*
X112651058Y-106128951D01*
X112520030Y-106041401D01*
X112408599Y-105929970D01*
X112321049Y-105798942D01*
X112260743Y-105653351D01*
X112256791Y-105633486D01*
X112230000Y-105498793D01*
X112230000Y-105341206D01*
X112260742Y-105186651D01*
X112293686Y-105107118D01*
X112321049Y-105041058D01*
X112339183Y-105013918D01*
X112408597Y-104910032D01*
X112520032Y-104798597D01*
X112651056Y-104711050D01*
X112796651Y-104650742D01*
X112951206Y-104620000D01*
X113108794Y-104620000D01*
X113263348Y-104650742D01*
G37*
G36*
X128503348Y-104650742D02*
G01*
X128503349Y-104650742D01*
X128503351Y-104650743D01*
X128648942Y-104711049D01*
X128779970Y-104798599D01*
X128891401Y-104910030D01*
X128978951Y-105041058D01*
X129039257Y-105186649D01*
X129070000Y-105341207D01*
X129070000Y-105498793D01*
X129039257Y-105653351D01*
X128978951Y-105798942D01*
X128891401Y-105929970D01*
X128779970Y-106041401D01*
X128648942Y-106128951D01*
X128503351Y-106189257D01*
X128387432Y-106212314D01*
X128348794Y-106220000D01*
X128348793Y-106220000D01*
X128191207Y-106220000D01*
X128191206Y-106220000D01*
X128139687Y-106209752D01*
X128036649Y-106189257D01*
X127891058Y-106128951D01*
X127760030Y-106041401D01*
X127648599Y-105929970D01*
X127561049Y-105798942D01*
X127500743Y-105653351D01*
X127496791Y-105633486D01*
X127470000Y-105498793D01*
X127470000Y-105341206D01*
X127500742Y-105186651D01*
X127533686Y-105107118D01*
X127561049Y-105041058D01*
X127579183Y-105013918D01*
X127648597Y-104910032D01*
X127760032Y-104798597D01*
X127891056Y-104711050D01*
X128036651Y-104650742D01*
X128191206Y-104620000D01*
X128348794Y-104620000D01*
X128503348Y-104650742D01*
G37*
G36*
X104497015Y-102345163D02*
G01*
X104728234Y-102407118D01*
X104949388Y-102498723D01*
X105156694Y-102618411D01*
X105346603Y-102764133D01*
X105515867Y-102933397D01*
X105661589Y-103123306D01*
X105781277Y-103330612D01*
X105872882Y-103551766D01*
X105934837Y-103782985D01*
X105966082Y-104020312D01*
X105966082Y-104259688D01*
X105934837Y-104497015D01*
X105872882Y-104728234D01*
X105781277Y-104949388D01*
X105661589Y-105156694D01*
X105515867Y-105346603D01*
X105346603Y-105515867D01*
X105156694Y-105661589D01*
X104949388Y-105781277D01*
X104728234Y-105872882D01*
X104497015Y-105934837D01*
X104259688Y-105966082D01*
X104020312Y-105966082D01*
X103782985Y-105934837D01*
X103551766Y-105872882D01*
X103330612Y-105781277D01*
X103123306Y-105661589D01*
X102933397Y-105515867D01*
X102764133Y-105346603D01*
X102618411Y-105156694D01*
X102498723Y-104949388D01*
X102407118Y-104728234D01*
X102345163Y-104497015D01*
X102313918Y-104259688D01*
X102313918Y-104020312D01*
X102345163Y-103782985D01*
X102407118Y-103551766D01*
X102498723Y-103330612D01*
X102618411Y-103123306D01*
X102764133Y-102933397D01*
X102933397Y-102764133D01*
X103123306Y-102618411D01*
X103330612Y-102498723D01*
X103551766Y-102407118D01*
X103782985Y-102345163D01*
X104020312Y-102313918D01*
X104259688Y-102313918D01*
X104497015Y-102345163D01*
G37*
G36*
X113263348Y-102110742D02*
G01*
X113263349Y-102110742D01*
X113263351Y-102110743D01*
X113408942Y-102171049D01*
X113539970Y-102258599D01*
X113651401Y-102370030D01*
X113738951Y-102501058D01*
X113799257Y-102646649D01*
X113830000Y-102801207D01*
X113830000Y-102958793D01*
X113799257Y-103113351D01*
X113738951Y-103258942D01*
X113651401Y-103389970D01*
X113539970Y-103501401D01*
X113408942Y-103588951D01*
X113263351Y-103649257D01*
X113147432Y-103672314D01*
X113108794Y-103680000D01*
X113108793Y-103680000D01*
X112951207Y-103680000D01*
X112951206Y-103680000D01*
X112899687Y-103669752D01*
X112796649Y-103649257D01*
X112651058Y-103588951D01*
X112520030Y-103501401D01*
X112408599Y-103389970D01*
X112321049Y-103258942D01*
X112260743Y-103113351D01*
X112230000Y-102958793D01*
X112230000Y-102801207D01*
X112237374Y-102764133D01*
X112260742Y-102646651D01*
X112321050Y-102501056D01*
X112408597Y-102370032D01*
X112520032Y-102258597D01*
X112651056Y-102171050D01*
X112796651Y-102110742D01*
X112951206Y-102080000D01*
X113108794Y-102080000D01*
X113263348Y-102110742D01*
G37*
G36*
X128503348Y-102110742D02*
G01*
X128503349Y-102110742D01*
X128503351Y-102110743D01*
X128648942Y-102171049D01*
X128779970Y-102258599D01*
X128891401Y-102370030D01*
X128978951Y-102501058D01*
X129039257Y-102646649D01*
X129070000Y-102801207D01*
X129070000Y-102958793D01*
X129039257Y-103113351D01*
X128978951Y-103258942D01*
X128891401Y-103389970D01*
X128779970Y-103501401D01*
X128648942Y-103588951D01*
X128503351Y-103649257D01*
X128387432Y-103672314D01*
X128348794Y-103680000D01*
X128348793Y-103680000D01*
X128191207Y-103680000D01*
X128191206Y-103680000D01*
X128139687Y-103669752D01*
X128036649Y-103649257D01*
X127891058Y-103588951D01*
X127760030Y-103501401D01*
X127648599Y-103389970D01*
X127561049Y-103258942D01*
X127500743Y-103113351D01*
X127470000Y-102958793D01*
X127470000Y-102801207D01*
X127477374Y-102764133D01*
X127500742Y-102646651D01*
X127561050Y-102501056D01*
X127648597Y-102370032D01*
X127760032Y-102258597D01*
X127891056Y-102171050D01*
X128036651Y-102110742D01*
X128191206Y-102080000D01*
X128348794Y-102080000D01*
X128503348Y-102110742D01*
G37*
G36*
X113263348Y-99570742D02*
G01*
X113263349Y-99570742D01*
X113263351Y-99570743D01*
X113408942Y-99631049D01*
X113539970Y-99718599D01*
X113651401Y-99830030D01*
X113738951Y-99961058D01*
X113799257Y-100106649D01*
X113830000Y-100261207D01*
X113830000Y-100418793D01*
X113799257Y-100573351D01*
X113738951Y-100718942D01*
X113651401Y-100849970D01*
X113539970Y-100961401D01*
X113408942Y-101048951D01*
X113263351Y-101109257D01*
X113147432Y-101132314D01*
X113108794Y-101140000D01*
X113108793Y-101140000D01*
X112951207Y-101140000D01*
X112951206Y-101140000D01*
X112899687Y-101129752D01*
X112796649Y-101109257D01*
X112651058Y-101048951D01*
X112520030Y-100961401D01*
X112408599Y-100849970D01*
X112321049Y-100718942D01*
X112260743Y-100573351D01*
X112250797Y-100523351D01*
X112230000Y-100418793D01*
X112230000Y-100261206D01*
X112260742Y-100106651D01*
X112321050Y-99961056D01*
X112408597Y-99830032D01*
X112520032Y-99718597D01*
X112651056Y-99631050D01*
X112796651Y-99570742D01*
X112951206Y-99540000D01*
X113108794Y-99540000D01*
X113263348Y-99570742D01*
G37*
G36*
X128503348Y-99570742D02*
G01*
X128503349Y-99570742D01*
X128503351Y-99570743D01*
X128648942Y-99631049D01*
X128779970Y-99718599D01*
X128891401Y-99830030D01*
X128978951Y-99961058D01*
X129039257Y-100106649D01*
X129070000Y-100261207D01*
X129070000Y-100418793D01*
X129039257Y-100573351D01*
X128978951Y-100718942D01*
X128891401Y-100849970D01*
X128779970Y-100961401D01*
X128648942Y-101048951D01*
X128503351Y-101109257D01*
X128387432Y-101132314D01*
X128348794Y-101140000D01*
X128348793Y-101140000D01*
X128191207Y-101140000D01*
X128191206Y-101140000D01*
X128139687Y-101129752D01*
X128036649Y-101109257D01*
X127891058Y-101048951D01*
X127760030Y-100961401D01*
X127648599Y-100849970D01*
X127561049Y-100718942D01*
X127500743Y-100573351D01*
X127490797Y-100523351D01*
X127470000Y-100418793D01*
X127470000Y-100261206D01*
X127500742Y-100106651D01*
X127561050Y-99961056D01*
X127648597Y-99830032D01*
X127760032Y-99718597D01*
X127891056Y-99631050D01*
X128036651Y-99570742D01*
X128191206Y-99540000D01*
X128348794Y-99540000D01*
X128503348Y-99570742D01*
G37*
G36*
X93563348Y-99520742D02*
G01*
X93563349Y-99520742D01*
X93563351Y-99520743D01*
X93708942Y-99581049D01*
X93839970Y-99668599D01*
X93951401Y-99780030D01*
X94038951Y-99911058D01*
X94099257Y-100056649D01*
X94130000Y-100211207D01*
X94130000Y-100368793D01*
X94099257Y-100523351D01*
X94038951Y-100668942D01*
X93951401Y-100799970D01*
X93839970Y-100911401D01*
X93708942Y-100998951D01*
X93563351Y-101059257D01*
X93447432Y-101082314D01*
X93408794Y-101090000D01*
X93408793Y-101090000D01*
X93251207Y-101090000D01*
X93251206Y-101090000D01*
X93199687Y-101079752D01*
X93096649Y-101059257D01*
X92951058Y-100998951D01*
X92820030Y-100911401D01*
X92708599Y-100799970D01*
X92621049Y-100668942D01*
X92560743Y-100523351D01*
X92530000Y-100368793D01*
X92530000Y-100211207D01*
X92550797Y-100106651D01*
X92560742Y-100056651D01*
X92621050Y-99911056D01*
X92708597Y-99780032D01*
X92820032Y-99668597D01*
X92951056Y-99581050D01*
X93096651Y-99520742D01*
X93251206Y-99490000D01*
X93408794Y-99490000D01*
X93563348Y-99520742D01*
G37*
G36*
X101180000Y-98640000D02*
G01*
X101179996Y-98640000D01*
X99480004Y-98640000D01*
X99480000Y-98640000D01*
X99480000Y-96940000D01*
X101180000Y-96940000D01*
X101180000Y-98640000D01*
G37*
G36*
X103117936Y-96972665D02*
G01*
X103182010Y-96999205D01*
X103272625Y-97036739D01*
X103272627Y-97036740D01*
X103272626Y-97036740D01*
X103411844Y-97129762D01*
X103530238Y-97248156D01*
X103623260Y-97387374D01*
X103687335Y-97542064D01*
X103720000Y-97706282D01*
X103720000Y-97873718D01*
X103687335Y-98037936D01*
X103623260Y-98192626D01*
X103530238Y-98331844D01*
X103411844Y-98450238D01*
X103272626Y-98543260D01*
X103117936Y-98607335D01*
X102953718Y-98640000D01*
X102786282Y-98640000D01*
X102622064Y-98607335D01*
X102467374Y-98543260D01*
X102328156Y-98450238D01*
X102209762Y-98331844D01*
X102116740Y-98192626D01*
X102116739Y-98192625D01*
X102052665Y-98037935D01*
X102051752Y-98033348D01*
X102020000Y-97873718D01*
X102020000Y-97706282D01*
X102052665Y-97542064D01*
X102116739Y-97387374D01*
X102209760Y-97248159D01*
X102209762Y-97248156D01*
X102328156Y-97129762D01*
X102328786Y-97129340D01*
X102467374Y-97036739D01*
X102622064Y-96972665D01*
X102786282Y-96940000D01*
X102953718Y-96940000D01*
X103117936Y-96972665D01*
G37*
G36*
X105657936Y-96972665D02*
G01*
X105722010Y-96999205D01*
X105812625Y-97036739D01*
X105812627Y-97036740D01*
X105812626Y-97036740D01*
X105951844Y-97129762D01*
X106070238Y-97248156D01*
X106163260Y-97387374D01*
X106227335Y-97542064D01*
X106260000Y-97706282D01*
X106260000Y-97873718D01*
X106227335Y-98037936D01*
X106163260Y-98192626D01*
X106070238Y-98331844D01*
X105951844Y-98450238D01*
X105812626Y-98543260D01*
X105657936Y-98607335D01*
X105493718Y-98640000D01*
X105326282Y-98640000D01*
X105162064Y-98607335D01*
X105007374Y-98543260D01*
X104868156Y-98450238D01*
X104749762Y-98331844D01*
X104656740Y-98192626D01*
X104656739Y-98192625D01*
X104592665Y-98037935D01*
X104591752Y-98033348D01*
X104560000Y-97873718D01*
X104560000Y-97706282D01*
X104592665Y-97542064D01*
X104656739Y-97387374D01*
X104749760Y-97248159D01*
X104749762Y-97248156D01*
X104868156Y-97129762D01*
X104868786Y-97129340D01*
X105007374Y-97036739D01*
X105162064Y-96972665D01*
X105326282Y-96940000D01*
X105493718Y-96940000D01*
X105657936Y-96972665D01*
G37*
G36*
X113263348Y-97030742D02*
G01*
X113263349Y-97030742D01*
X113263351Y-97030743D01*
X113408942Y-97091049D01*
X113539970Y-97178599D01*
X113651401Y-97290030D01*
X113738951Y-97421058D01*
X113799257Y-97566649D01*
X113830000Y-97721207D01*
X113830000Y-97878793D01*
X113799257Y-98033351D01*
X113738951Y-98178942D01*
X113651401Y-98309970D01*
X113539970Y-98421401D01*
X113408942Y-98508951D01*
X113263351Y-98569257D01*
X113147432Y-98592314D01*
X113108794Y-98600000D01*
X113108793Y-98600000D01*
X112951207Y-98600000D01*
X112951206Y-98600000D01*
X112899687Y-98589752D01*
X112796649Y-98569257D01*
X112651058Y-98508951D01*
X112520030Y-98421401D01*
X112408599Y-98309970D01*
X112321049Y-98178942D01*
X112260743Y-98033351D01*
X112230000Y-97878793D01*
X112230000Y-97721207D01*
X112230000Y-97721206D01*
X112260742Y-97566651D01*
X112321050Y-97421056D01*
X112408597Y-97290032D01*
X112520032Y-97178597D01*
X112651056Y-97091050D01*
X112796651Y-97030742D01*
X112951206Y-97000000D01*
X113108794Y-97000000D01*
X113263348Y-97030742D01*
G37*
G36*
X128503348Y-97030742D02*
G01*
X128503349Y-97030742D01*
X128503351Y-97030743D01*
X128648942Y-97091049D01*
X128779970Y-97178599D01*
X128891401Y-97290030D01*
X128978951Y-97421058D01*
X129039257Y-97566649D01*
X129070000Y-97721207D01*
X129070000Y-97878793D01*
X129039257Y-98033351D01*
X128978951Y-98178942D01*
X128891401Y-98309970D01*
X128779970Y-98421401D01*
X128648942Y-98508951D01*
X128503351Y-98569257D01*
X128387432Y-98592314D01*
X128348794Y-98600000D01*
X128348793Y-98600000D01*
X128191207Y-98600000D01*
X128191206Y-98600000D01*
X128139687Y-98589752D01*
X128036649Y-98569257D01*
X127891058Y-98508951D01*
X127760030Y-98421401D01*
X127648599Y-98309970D01*
X127561049Y-98178942D01*
X127500743Y-98033351D01*
X127470000Y-97878793D01*
X127470000Y-97721207D01*
X127470000Y-97721206D01*
X127500742Y-97566651D01*
X127561050Y-97421056D01*
X127648597Y-97290032D01*
X127760032Y-97178597D01*
X127891056Y-97091050D01*
X128036651Y-97030742D01*
X128191206Y-97000000D01*
X128348794Y-97000000D01*
X128503348Y-97030742D01*
G37*
G36*
X93563348Y-94520742D02*
G01*
X93563349Y-94520742D01*
X93563351Y-94520743D01*
X93708942Y-94581049D01*
X93839970Y-94668599D01*
X93951401Y-94780030D01*
X94038951Y-94911058D01*
X94099257Y-95056649D01*
X94130000Y-95211207D01*
X94130000Y-95368793D01*
X94099257Y-95523351D01*
X94038951Y-95668942D01*
X93951401Y-95799970D01*
X93839970Y-95911401D01*
X93708942Y-95998951D01*
X93563351Y-96059257D01*
X93447432Y-96082314D01*
X93408794Y-96090000D01*
X93408793Y-96090000D01*
X93251207Y-96090000D01*
X93251206Y-96090000D01*
X93199687Y-96079752D01*
X93096649Y-96059257D01*
X92951058Y-95998951D01*
X92820030Y-95911401D01*
X92708599Y-95799970D01*
X92621049Y-95668942D01*
X92560743Y-95523351D01*
X92554775Y-95493351D01*
X92530000Y-95368793D01*
X92530000Y-95211206D01*
X92560742Y-95056651D01*
X92621050Y-94911056D01*
X92708597Y-94780032D01*
X92820032Y-94668597D01*
X92951056Y-94581050D01*
X93096651Y-94520742D01*
X93251206Y-94490000D01*
X93408794Y-94490000D01*
X93563348Y-94520742D01*
G37*
G36*
X113263348Y-94490742D02*
G01*
X113263349Y-94490742D01*
X113263351Y-94490743D01*
X113408942Y-94551049D01*
X113539970Y-94638599D01*
X113651401Y-94750030D01*
X113738951Y-94881058D01*
X113799257Y-95026649D01*
X113830000Y-95181207D01*
X113830000Y-95338793D01*
X113799257Y-95493351D01*
X113738951Y-95638942D01*
X113651401Y-95769970D01*
X113539970Y-95881401D01*
X113408942Y-95968951D01*
X113263351Y-96029257D01*
X113147432Y-96052314D01*
X113108794Y-96060000D01*
X113108793Y-96060000D01*
X112951207Y-96060000D01*
X112951206Y-96060000D01*
X112899687Y-96049752D01*
X112796649Y-96029257D01*
X112651058Y-95968951D01*
X112520030Y-95881401D01*
X112408599Y-95769970D01*
X112321049Y-95638942D01*
X112260743Y-95493351D01*
X112230000Y-95338793D01*
X112230000Y-95181207D01*
X112254775Y-95056651D01*
X112260742Y-95026651D01*
X112321050Y-94881056D01*
X112408597Y-94750032D01*
X112520032Y-94638597D01*
X112651056Y-94551050D01*
X112796651Y-94490742D01*
X112951206Y-94460000D01*
X113108794Y-94460000D01*
X113263348Y-94490742D01*
G37*
G36*
X128503348Y-94490742D02*
G01*
X128503349Y-94490742D01*
X128503351Y-94490743D01*
X128648942Y-94551049D01*
X128779970Y-94638599D01*
X128891401Y-94750030D01*
X128978951Y-94881058D01*
X129039257Y-95026649D01*
X129070000Y-95181207D01*
X129070000Y-95338793D01*
X129039257Y-95493351D01*
X128978951Y-95638942D01*
X128891401Y-95769970D01*
X128779970Y-95881401D01*
X128648942Y-95968951D01*
X128503351Y-96029257D01*
X128387432Y-96052314D01*
X128348794Y-96060000D01*
X128348793Y-96060000D01*
X128191207Y-96060000D01*
X128191206Y-96060000D01*
X128139687Y-96049752D01*
X128036649Y-96029257D01*
X127891058Y-95968951D01*
X127760030Y-95881401D01*
X127648599Y-95769970D01*
X127561049Y-95638942D01*
X127500743Y-95493351D01*
X127470000Y-95338793D01*
X127470000Y-95181207D01*
X127494775Y-95056651D01*
X127500742Y-95026651D01*
X127561050Y-94881056D01*
X127648597Y-94750032D01*
X127760032Y-94638597D01*
X127891056Y-94551050D01*
X128036651Y-94490742D01*
X128191206Y-94460000D01*
X128348794Y-94460000D01*
X128503348Y-94490742D01*
G37*
G36*
X113263348Y-91950742D02*
G01*
X113263349Y-91950742D01*
X113263351Y-91950743D01*
X113408942Y-92011049D01*
X113539970Y-92098599D01*
X113651401Y-92210030D01*
X113738951Y-92341058D01*
X113799257Y-92486649D01*
X113830000Y-92641207D01*
X113830000Y-92798793D01*
X113799257Y-92953351D01*
X113738951Y-93098942D01*
X113651401Y-93229970D01*
X113539970Y-93341401D01*
X113408942Y-93428951D01*
X113263351Y-93489257D01*
X113147432Y-93512314D01*
X113108794Y-93520000D01*
X113108793Y-93520000D01*
X112951207Y-93520000D01*
X112951206Y-93520000D01*
X112899687Y-93509752D01*
X112796649Y-93489257D01*
X112651058Y-93428951D01*
X112520030Y-93341401D01*
X112408599Y-93229970D01*
X112321049Y-93098942D01*
X112260743Y-92953351D01*
X112230000Y-92798793D01*
X112230000Y-92641207D01*
X112230000Y-92641206D01*
X112260742Y-92486651D01*
X112321050Y-92341056D01*
X112408597Y-92210032D01*
X112520032Y-92098597D01*
X112651056Y-92011050D01*
X112796651Y-91950742D01*
X112951206Y-91920000D01*
X113108794Y-91920000D01*
X113263348Y-91950742D01*
G37*
G36*
X128503348Y-91950742D02*
G01*
X128503349Y-91950742D01*
X128503351Y-91950743D01*
X128648942Y-92011049D01*
X128779970Y-92098599D01*
X128891401Y-92210030D01*
X128978951Y-92341058D01*
X129039257Y-92486649D01*
X129070000Y-92641207D01*
X129070000Y-92798793D01*
X129039257Y-92953351D01*
X128978951Y-93098942D01*
X128891401Y-93229970D01*
X128779970Y-93341401D01*
X128648942Y-93428951D01*
X128503351Y-93489257D01*
X128387432Y-93512314D01*
X128348794Y-93520000D01*
X128348793Y-93520000D01*
X128191207Y-93520000D01*
X128191206Y-93520000D01*
X128139687Y-93509752D01*
X128036649Y-93489257D01*
X127891058Y-93428951D01*
X127760030Y-93341401D01*
X127648599Y-93229970D01*
X127561049Y-93098942D01*
X127500743Y-92953351D01*
X127470000Y-92798793D01*
X127470000Y-92641207D01*
X127470000Y-92641206D01*
X127500742Y-92486651D01*
X127561050Y-92341056D01*
X127648597Y-92210032D01*
X127760032Y-92098597D01*
X127891056Y-92011050D01*
X128036651Y-91950742D01*
X128191206Y-91920000D01*
X128348794Y-91920000D01*
X128503348Y-91950742D01*
G37*
G36*
X113263348Y-89410742D02*
G01*
X113263349Y-89410742D01*
X113263351Y-89410743D01*
X113408942Y-89471049D01*
X113539970Y-89558599D01*
X113651401Y-89670030D01*
X113738951Y-89801058D01*
X113799257Y-89946649D01*
X113830000Y-90101207D01*
X113830000Y-90258793D01*
X113799257Y-90413351D01*
X113738951Y-90558942D01*
X113651401Y-90689970D01*
X113539970Y-90801401D01*
X113408942Y-90888951D01*
X113263351Y-90949257D01*
X113147432Y-90972314D01*
X113108794Y-90980000D01*
X113108793Y-90980000D01*
X112951207Y-90980000D01*
X112951206Y-90980000D01*
X112899687Y-90969752D01*
X112796649Y-90949257D01*
X112651058Y-90888951D01*
X112520030Y-90801401D01*
X112408599Y-90689970D01*
X112321049Y-90558942D01*
X112260743Y-90413351D01*
X112250797Y-90363351D01*
X112230000Y-90258793D01*
X112230000Y-90101206D01*
X112260742Y-89946651D01*
X112321050Y-89801056D01*
X112408597Y-89670032D01*
X112520032Y-89558597D01*
X112651056Y-89471050D01*
X112796651Y-89410742D01*
X112951206Y-89380000D01*
X113108794Y-89380000D01*
X113263348Y-89410742D01*
G37*
G36*
X128503348Y-89410742D02*
G01*
X128503349Y-89410742D01*
X128503351Y-89410743D01*
X128648942Y-89471049D01*
X128779970Y-89558599D01*
X128891401Y-89670030D01*
X128978951Y-89801058D01*
X129039257Y-89946649D01*
X129070000Y-90101207D01*
X129070000Y-90258793D01*
X129039257Y-90413351D01*
X128978951Y-90558942D01*
X128891401Y-90689970D01*
X128779970Y-90801401D01*
X128648942Y-90888951D01*
X128503351Y-90949257D01*
X128387432Y-90972314D01*
X128348794Y-90980000D01*
X128348793Y-90980000D01*
X128191207Y-90980000D01*
X128191206Y-90980000D01*
X128139687Y-90969752D01*
X128036649Y-90949257D01*
X127891058Y-90888951D01*
X127760030Y-90801401D01*
X127648599Y-90689970D01*
X127561049Y-90558942D01*
X127500743Y-90413351D01*
X127490797Y-90363351D01*
X127470000Y-90258793D01*
X127470000Y-90101206D01*
X127500742Y-89946651D01*
X127561050Y-89801056D01*
X127648597Y-89670032D01*
X127760032Y-89558597D01*
X127891056Y-89471050D01*
X128036651Y-89410742D01*
X128191206Y-89380000D01*
X128348794Y-89380000D01*
X128503348Y-89410742D01*
G37*
G36*
X93563348Y-89360742D02*
G01*
X93563349Y-89360742D01*
X93563351Y-89360743D01*
X93708942Y-89421049D01*
X93839970Y-89508599D01*
X93951401Y-89620030D01*
X94038951Y-89751058D01*
X94099257Y-89896649D01*
X94130000Y-90051207D01*
X94130000Y-90208793D01*
X94099257Y-90363351D01*
X94038951Y-90508942D01*
X93951401Y-90639970D01*
X93839970Y-90751401D01*
X93708942Y-90838951D01*
X93563351Y-90899257D01*
X93447432Y-90922314D01*
X93408794Y-90930000D01*
X93408793Y-90930000D01*
X93251207Y-90930000D01*
X93251206Y-90930000D01*
X93199687Y-90919752D01*
X93096649Y-90899257D01*
X92951058Y-90838951D01*
X92820030Y-90751401D01*
X92708599Y-90639970D01*
X92621049Y-90508942D01*
X92560743Y-90363351D01*
X92530000Y-90208793D01*
X92530000Y-90051207D01*
X92550797Y-89946651D01*
X92560742Y-89896651D01*
X92621050Y-89751056D01*
X92708597Y-89620032D01*
X92820032Y-89508597D01*
X92951056Y-89421050D01*
X93096651Y-89360742D01*
X93251206Y-89330000D01*
X93408794Y-89330000D01*
X93563348Y-89360742D01*
G37*
G36*
X101180000Y-88480000D02*
G01*
X101179996Y-88480000D01*
X99480004Y-88480000D01*
X99480000Y-88480000D01*
X99480000Y-86780000D01*
X101180000Y-86780000D01*
X101180000Y-88480000D01*
G37*
G36*
X103117936Y-86812665D02*
G01*
X103182010Y-86839205D01*
X103272625Y-86876739D01*
X103272627Y-86876740D01*
X103272626Y-86876740D01*
X103411844Y-86969762D01*
X103530238Y-87088156D01*
X103623260Y-87227374D01*
X103687335Y-87382064D01*
X103720000Y-87546282D01*
X103720000Y-87713718D01*
X103687335Y-87877936D01*
X103623260Y-88032626D01*
X103530238Y-88171844D01*
X103411844Y-88290238D01*
X103272626Y-88383260D01*
X103117936Y-88447335D01*
X102953718Y-88480000D01*
X102786282Y-88480000D01*
X102622064Y-88447335D01*
X102467374Y-88383260D01*
X102328156Y-88290238D01*
X102209762Y-88171844D01*
X102116740Y-88032626D01*
X102116739Y-88032625D01*
X102052665Y-87877935D01*
X102051752Y-87873348D01*
X102020000Y-87713718D01*
X102020000Y-87546282D01*
X102052665Y-87382064D01*
X102116739Y-87227374D01*
X102209760Y-87088159D01*
X102209762Y-87088156D01*
X102328156Y-86969762D01*
X102328786Y-86969340D01*
X102467374Y-86876739D01*
X102622064Y-86812665D01*
X102786282Y-86780000D01*
X102953718Y-86780000D01*
X103117936Y-86812665D01*
G37*
G36*
X105657936Y-86812665D02*
G01*
X105722010Y-86839205D01*
X105812625Y-86876739D01*
X105812627Y-86876740D01*
X105812626Y-86876740D01*
X105951844Y-86969762D01*
X106070238Y-87088156D01*
X106163260Y-87227374D01*
X106227335Y-87382064D01*
X106260000Y-87546282D01*
X106260000Y-87713718D01*
X106227335Y-87877936D01*
X106163260Y-88032626D01*
X106070238Y-88171844D01*
X105951844Y-88290238D01*
X105812626Y-88383260D01*
X105657936Y-88447335D01*
X105493718Y-88480000D01*
X105326282Y-88480000D01*
X105162064Y-88447335D01*
X105007374Y-88383260D01*
X104868156Y-88290238D01*
X104749762Y-88171844D01*
X104656740Y-88032626D01*
X104656739Y-88032625D01*
X104592665Y-87877935D01*
X104591752Y-87873348D01*
X104560000Y-87713718D01*
X104560000Y-87546282D01*
X104592665Y-87382064D01*
X104656739Y-87227374D01*
X104749760Y-87088159D01*
X104749762Y-87088156D01*
X104868156Y-86969762D01*
X104868786Y-86969340D01*
X105007374Y-86876739D01*
X105162064Y-86812665D01*
X105326282Y-86780000D01*
X105493718Y-86780000D01*
X105657936Y-86812665D01*
G37*
G36*
X113263348Y-86870742D02*
G01*
X113263349Y-86870742D01*
X113263351Y-86870743D01*
X113408942Y-86931049D01*
X113539970Y-87018599D01*
X113651401Y-87130030D01*
X113738951Y-87261058D01*
X113799257Y-87406649D01*
X113830000Y-87561207D01*
X113830000Y-87718793D01*
X113799257Y-87873351D01*
X113738951Y-88018942D01*
X113651401Y-88149970D01*
X113539970Y-88261401D01*
X113408942Y-88348951D01*
X113263351Y-88409257D01*
X113147432Y-88432314D01*
X113108794Y-88440000D01*
X113108793Y-88440000D01*
X112951207Y-88440000D01*
X112951206Y-88440000D01*
X112899687Y-88429752D01*
X112796649Y-88409257D01*
X112651058Y-88348951D01*
X112520030Y-88261401D01*
X112408599Y-88149970D01*
X112321049Y-88018942D01*
X112260743Y-87873351D01*
X112230000Y-87718793D01*
X112230000Y-87561207D01*
X112230000Y-87561206D01*
X112260742Y-87406651D01*
X112321050Y-87261056D01*
X112408597Y-87130032D01*
X112520032Y-87018597D01*
X112651056Y-86931050D01*
X112796651Y-86870742D01*
X112951206Y-86840000D01*
X113108794Y-86840000D01*
X113263348Y-86870742D01*
G37*
G36*
X128503348Y-86870742D02*
G01*
X128503349Y-86870742D01*
X128503351Y-86870743D01*
X128648942Y-86931049D01*
X128779970Y-87018599D01*
X128891401Y-87130030D01*
X128978951Y-87261058D01*
X129039257Y-87406649D01*
X129070000Y-87561207D01*
X129070000Y-87718793D01*
X129039257Y-87873351D01*
X128978951Y-88018942D01*
X128891401Y-88149970D01*
X128779970Y-88261401D01*
X128648942Y-88348951D01*
X128503351Y-88409257D01*
X128387432Y-88432314D01*
X128348794Y-88440000D01*
X128348793Y-88440000D01*
X128191207Y-88440000D01*
X128191206Y-88440000D01*
X128139687Y-88429752D01*
X128036649Y-88409257D01*
X127891058Y-88348951D01*
X127760030Y-88261401D01*
X127648599Y-88149970D01*
X127561049Y-88018942D01*
X127500743Y-87873351D01*
X127470000Y-87718793D01*
X127470000Y-87561207D01*
X127470000Y-87561206D01*
X127500742Y-87406651D01*
X127561050Y-87261056D01*
X127648597Y-87130032D01*
X127760032Y-87018597D01*
X127891056Y-86931050D01*
X128036651Y-86870742D01*
X128191206Y-86840000D01*
X128348794Y-86840000D01*
X128503348Y-86870742D01*
G37*
G36*
X93563348Y-84360742D02*
G01*
X93563349Y-84360742D01*
X93563351Y-84360743D01*
X93708942Y-84421049D01*
X93839970Y-84508599D01*
X93951401Y-84620030D01*
X94038951Y-84751058D01*
X94099257Y-84896649D01*
X94130000Y-85051207D01*
X94130000Y-85208793D01*
X94099257Y-85363351D01*
X94038951Y-85508942D01*
X93951401Y-85639970D01*
X93839970Y-85751401D01*
X93708942Y-85838951D01*
X93563351Y-85899257D01*
X93447432Y-85922314D01*
X93408794Y-85930000D01*
X93408793Y-85930000D01*
X93251207Y-85930000D01*
X93251206Y-85930000D01*
X93199687Y-85919752D01*
X93096649Y-85899257D01*
X92951058Y-85838951D01*
X92820030Y-85751401D01*
X92708599Y-85639970D01*
X92621049Y-85508942D01*
X92560743Y-85363351D01*
X92554775Y-85333351D01*
X92530000Y-85208793D01*
X92530000Y-85051206D01*
X92560742Y-84896651D01*
X92621050Y-84751056D01*
X92708597Y-84620032D01*
X92820032Y-84508597D01*
X92951056Y-84421050D01*
X93096651Y-84360742D01*
X93251206Y-84330000D01*
X93408794Y-84330000D01*
X93563348Y-84360742D01*
G37*
G36*
X113263348Y-84330742D02*
G01*
X113263349Y-84330742D01*
X113263351Y-84330743D01*
X113408942Y-84391049D01*
X113539970Y-84478599D01*
X113651401Y-84590030D01*
X113738951Y-84721058D01*
X113799257Y-84866649D01*
X113830000Y-85021207D01*
X113830000Y-85178793D01*
X113799257Y-85333351D01*
X113738951Y-85478942D01*
X113651401Y-85609970D01*
X113539970Y-85721401D01*
X113408942Y-85808951D01*
X113263351Y-85869257D01*
X113147432Y-85892314D01*
X113108794Y-85900000D01*
X113108793Y-85900000D01*
X112951207Y-85900000D01*
X112951206Y-85900000D01*
X112899687Y-85889752D01*
X112796649Y-85869257D01*
X112651058Y-85808951D01*
X112520030Y-85721401D01*
X112408599Y-85609970D01*
X112321049Y-85478942D01*
X112260743Y-85333351D01*
X112230000Y-85178793D01*
X112230000Y-85021207D01*
X112254775Y-84896651D01*
X112260742Y-84866651D01*
X112321050Y-84721056D01*
X112408597Y-84590032D01*
X112520032Y-84478597D01*
X112651056Y-84391050D01*
X112796651Y-84330742D01*
X112951206Y-84300000D01*
X113108794Y-84300000D01*
X113263348Y-84330742D01*
G37*
G36*
X128503348Y-84330742D02*
G01*
X128503349Y-84330742D01*
X128503351Y-84330743D01*
X128648942Y-84391049D01*
X128779970Y-84478599D01*
X128891401Y-84590030D01*
X128978951Y-84721058D01*
X129039257Y-84866649D01*
X129070000Y-85021207D01*
X129070000Y-85178793D01*
X129039257Y-85333351D01*
X128978951Y-85478942D01*
X128891401Y-85609970D01*
X128779970Y-85721401D01*
X128648942Y-85808951D01*
X128503351Y-85869257D01*
X128387432Y-85892314D01*
X128348794Y-85900000D01*
X128348793Y-85900000D01*
X128191207Y-85900000D01*
X128191206Y-85900000D01*
X128139687Y-85889752D01*
X128036649Y-85869257D01*
X127891058Y-85808951D01*
X127760030Y-85721401D01*
X127648599Y-85609970D01*
X127561049Y-85478942D01*
X127500743Y-85333351D01*
X127470000Y-85178793D01*
X127470000Y-85021207D01*
X127494775Y-84896651D01*
X127500742Y-84866651D01*
X127561050Y-84721056D01*
X127648597Y-84590032D01*
X127760032Y-84478597D01*
X127891056Y-84391050D01*
X128036651Y-84330742D01*
X128191206Y-84300000D01*
X128348794Y-84300000D01*
X128503348Y-84330742D01*
G37*
G36*
X113263348Y-81790742D02*
G01*
X113263349Y-81790742D01*
X113263351Y-81790743D01*
X113408942Y-81851049D01*
X113539970Y-81938599D01*
X113651401Y-82050030D01*
X113738951Y-82181058D01*
X113799257Y-82326649D01*
X113830000Y-82481207D01*
X113830000Y-82638793D01*
X113799257Y-82793351D01*
X113738951Y-82938942D01*
X113651401Y-83069970D01*
X113539970Y-83181401D01*
X113408942Y-83268951D01*
X113263351Y-83329257D01*
X113147432Y-83352314D01*
X113108794Y-83360000D01*
X113108793Y-83360000D01*
X112951207Y-83360000D01*
X112951206Y-83360000D01*
X112899687Y-83349752D01*
X112796649Y-83329257D01*
X112651058Y-83268951D01*
X112520030Y-83181401D01*
X112408599Y-83069970D01*
X112321049Y-82938942D01*
X112260743Y-82793351D01*
X112230000Y-82638793D01*
X112230000Y-82481207D01*
X112230000Y-82481206D01*
X112260742Y-82326651D01*
X112321050Y-82181056D01*
X112408597Y-82050032D01*
X112520032Y-81938597D01*
X112651056Y-81851050D01*
X112796651Y-81790742D01*
X112951206Y-81760000D01*
X113108794Y-81760000D01*
X113263348Y-81790742D01*
G37*
G36*
X128503348Y-81790742D02*
G01*
X128503349Y-81790742D01*
X128503351Y-81790743D01*
X128648942Y-81851049D01*
X128779970Y-81938599D01*
X128891401Y-82050030D01*
X128978951Y-82181058D01*
X129039257Y-82326649D01*
X129070000Y-82481207D01*
X129070000Y-82638793D01*
X129039257Y-82793351D01*
X128978951Y-82938942D01*
X128891401Y-83069970D01*
X128779970Y-83181401D01*
X128648942Y-83268951D01*
X128503351Y-83329257D01*
X128387432Y-83352314D01*
X128348794Y-83360000D01*
X128348793Y-83360000D01*
X128191207Y-83360000D01*
X128191206Y-83360000D01*
X128139687Y-83349752D01*
X128036649Y-83329257D01*
X127891058Y-83268951D01*
X127760030Y-83181401D01*
X127648599Y-83069970D01*
X127561049Y-82938942D01*
X127500743Y-82793351D01*
X127470000Y-82638793D01*
X127470000Y-82481207D01*
X127470000Y-82481206D01*
X127500742Y-82326651D01*
X127561050Y-82181056D01*
X127648597Y-82050032D01*
X127760032Y-81938597D01*
X127891056Y-81851050D01*
X128036651Y-81790742D01*
X128191206Y-81760000D01*
X128348794Y-81760000D01*
X128503348Y-81790742D01*
G37*
G36*
X113263348Y-79250742D02*
G01*
X113263349Y-79250742D01*
X113263351Y-79250743D01*
X113408942Y-79311049D01*
X113539970Y-79398599D01*
X113651401Y-79510030D01*
X113738951Y-79641058D01*
X113799257Y-79786649D01*
X113830000Y-79941207D01*
X113830000Y-80098793D01*
X113799257Y-80253351D01*
X113738951Y-80398942D01*
X113651401Y-80529970D01*
X113539970Y-80641401D01*
X113408942Y-80728951D01*
X113263351Y-80789257D01*
X113147432Y-80812314D01*
X113108794Y-80820000D01*
X113108793Y-80820000D01*
X112951207Y-80820000D01*
X112951206Y-80820000D01*
X112899687Y-80809752D01*
X112796649Y-80789257D01*
X112651058Y-80728951D01*
X112520030Y-80641401D01*
X112408599Y-80529970D01*
X112321049Y-80398942D01*
X112260743Y-80253351D01*
X112250797Y-80203351D01*
X112230000Y-80098793D01*
X112230000Y-79941206D01*
X112260742Y-79786651D01*
X112321050Y-79641056D01*
X112408597Y-79510032D01*
X112520032Y-79398597D01*
X112651056Y-79311050D01*
X112796651Y-79250742D01*
X112951206Y-79220000D01*
X113108794Y-79220000D01*
X113263348Y-79250742D01*
G37*
G36*
X128503348Y-79250742D02*
G01*
X128503349Y-79250742D01*
X128503351Y-79250743D01*
X128648942Y-79311049D01*
X128779970Y-79398599D01*
X128891401Y-79510030D01*
X128978951Y-79641058D01*
X129039257Y-79786649D01*
X129070000Y-79941207D01*
X129070000Y-80098793D01*
X129039257Y-80253351D01*
X128978951Y-80398942D01*
X128891401Y-80529970D01*
X128779970Y-80641401D01*
X128648942Y-80728951D01*
X128503351Y-80789257D01*
X128387432Y-80812314D01*
X128348794Y-80820000D01*
X128348793Y-80820000D01*
X128191207Y-80820000D01*
X128191206Y-80820000D01*
X128139687Y-80809752D01*
X128036649Y-80789257D01*
X127891058Y-80728951D01*
X127760030Y-80641401D01*
X127648599Y-80529970D01*
X127561049Y-80398942D01*
X127500743Y-80253351D01*
X127490797Y-80203351D01*
X127470000Y-80098793D01*
X127470000Y-79941206D01*
X127500742Y-79786651D01*
X127561050Y-79641056D01*
X127648597Y-79510032D01*
X127760032Y-79398597D01*
X127891056Y-79311050D01*
X128036651Y-79250742D01*
X128191206Y-79220000D01*
X128348794Y-79220000D01*
X128503348Y-79250742D01*
G37*
G36*
X93563348Y-79200742D02*
G01*
X93563349Y-79200742D01*
X93563351Y-79200743D01*
X93708942Y-79261049D01*
X93839970Y-79348599D01*
X93951401Y-79460030D01*
X94038951Y-79591058D01*
X94099257Y-79736649D01*
X94130000Y-79891207D01*
X94130000Y-80048793D01*
X94099257Y-80203351D01*
X94038951Y-80348942D01*
X93951401Y-80479970D01*
X93839970Y-80591401D01*
X93708942Y-80678951D01*
X93563351Y-80739257D01*
X93447432Y-80762314D01*
X93408794Y-80770000D01*
X93408793Y-80770000D01*
X93251207Y-80770000D01*
X93251206Y-80770000D01*
X93199687Y-80759752D01*
X93096649Y-80739257D01*
X92951058Y-80678951D01*
X92820030Y-80591401D01*
X92708599Y-80479970D01*
X92621049Y-80348942D01*
X92560743Y-80203351D01*
X92530000Y-80048793D01*
X92530000Y-79891207D01*
X92550797Y-79786651D01*
X92560742Y-79736651D01*
X92621050Y-79591056D01*
X92708597Y-79460032D01*
X92820032Y-79348597D01*
X92951056Y-79261050D01*
X93096651Y-79200742D01*
X93251206Y-79170000D01*
X93408794Y-79170000D01*
X93563348Y-79200742D01*
G37*
G36*
X101180000Y-78320000D02*
G01*
X101179996Y-78320000D01*
X99480004Y-78320000D01*
X99480000Y-78320000D01*
X99480000Y-76620000D01*
X101180000Y-76620000D01*
X101180000Y-78320000D01*
G37*
G36*
X103117936Y-76652665D02*
G01*
X103182010Y-76679205D01*
X103272625Y-76716739D01*
X103272627Y-76716740D01*
X103272626Y-76716740D01*
X103411844Y-76809762D01*
X103530238Y-76928156D01*
X103623260Y-77067374D01*
X103687335Y-77222064D01*
X103720000Y-77386282D01*
X103720000Y-77553718D01*
X103687335Y-77717936D01*
X103623260Y-77872626D01*
X103530238Y-78011844D01*
X103411844Y-78130238D01*
X103272626Y-78223260D01*
X103117936Y-78287335D01*
X102953718Y-78320000D01*
X102786282Y-78320000D01*
X102622064Y-78287335D01*
X102467374Y-78223260D01*
X102328156Y-78130238D01*
X102209762Y-78011844D01*
X102116740Y-77872626D01*
X102116739Y-77872625D01*
X102052665Y-77717935D01*
X102051752Y-77713348D01*
X102020000Y-77553718D01*
X102020000Y-77386282D01*
X102052665Y-77222064D01*
X102116739Y-77067374D01*
X102209760Y-76928159D01*
X102209762Y-76928156D01*
X102328156Y-76809762D01*
X102328786Y-76809340D01*
X102467374Y-76716739D01*
X102622064Y-76652665D01*
X102786282Y-76620000D01*
X102953718Y-76620000D01*
X103117936Y-76652665D01*
G37*
G36*
X105657936Y-76652665D02*
G01*
X105722010Y-76679205D01*
X105812625Y-76716739D01*
X105812627Y-76716740D01*
X105812626Y-76716740D01*
X105951844Y-76809762D01*
X106070238Y-76928156D01*
X106163260Y-77067374D01*
X106227335Y-77222064D01*
X106260000Y-77386282D01*
X106260000Y-77553718D01*
X106227335Y-77717936D01*
X106163260Y-77872626D01*
X106070238Y-78011844D01*
X105951844Y-78130238D01*
X105812626Y-78223260D01*
X105657936Y-78287335D01*
X105493718Y-78320000D01*
X105326282Y-78320000D01*
X105162064Y-78287335D01*
X105007374Y-78223260D01*
X104868156Y-78130238D01*
X104749762Y-78011844D01*
X104656740Y-77872626D01*
X104656739Y-77872625D01*
X104592665Y-77717935D01*
X104591752Y-77713348D01*
X104560000Y-77553718D01*
X104560000Y-77386282D01*
X104592665Y-77222064D01*
X104656739Y-77067374D01*
X104749760Y-76928159D01*
X104749762Y-76928156D01*
X104868156Y-76809762D01*
X104868786Y-76809340D01*
X105007374Y-76716739D01*
X105162064Y-76652665D01*
X105326282Y-76620000D01*
X105493718Y-76620000D01*
X105657936Y-76652665D01*
G37*
G36*
X113263348Y-76710742D02*
G01*
X113263349Y-76710742D01*
X113263351Y-76710743D01*
X113408942Y-76771049D01*
X113539970Y-76858599D01*
X113651401Y-76970030D01*
X113738951Y-77101058D01*
X113799257Y-77246649D01*
X113830000Y-77401207D01*
X113830000Y-77558793D01*
X113799257Y-77713351D01*
X113738951Y-77858942D01*
X113651401Y-77989970D01*
X113539970Y-78101401D01*
X113408942Y-78188951D01*
X113263351Y-78249257D01*
X113147432Y-78272314D01*
X113108794Y-78280000D01*
X113108793Y-78280000D01*
X112951207Y-78280000D01*
X112951206Y-78280000D01*
X112899687Y-78269752D01*
X112796649Y-78249257D01*
X112651058Y-78188951D01*
X112520030Y-78101401D01*
X112408599Y-77989970D01*
X112321049Y-77858942D01*
X112260743Y-77713351D01*
X112230000Y-77558793D01*
X112230000Y-77401207D01*
X112230000Y-77401206D01*
X112260742Y-77246651D01*
X112321050Y-77101056D01*
X112408597Y-76970032D01*
X112520032Y-76858597D01*
X112651056Y-76771050D01*
X112796651Y-76710742D01*
X112951206Y-76680000D01*
X113108794Y-76680000D01*
X113263348Y-76710742D01*
G37*
G36*
X128503348Y-76710742D02*
G01*
X128503349Y-76710742D01*
X128503351Y-76710743D01*
X128648942Y-76771049D01*
X128779970Y-76858599D01*
X128891401Y-76970030D01*
X128978951Y-77101058D01*
X129039257Y-77246649D01*
X129070000Y-77401207D01*
X129070000Y-77558793D01*
X129039257Y-77713351D01*
X128978951Y-77858942D01*
X128891401Y-77989970D01*
X128779970Y-78101401D01*
X128648942Y-78188951D01*
X128503351Y-78249257D01*
X128387432Y-78272314D01*
X128348794Y-78280000D01*
X128348793Y-78280000D01*
X128191207Y-78280000D01*
X128191206Y-78280000D01*
X128139687Y-78269752D01*
X128036649Y-78249257D01*
X127891058Y-78188951D01*
X127760030Y-78101401D01*
X127648599Y-77989970D01*
X127561049Y-77858942D01*
X127500743Y-77713351D01*
X127470000Y-77558793D01*
X127470000Y-77401207D01*
X127470000Y-77401206D01*
X127500742Y-77246651D01*
X127561050Y-77101056D01*
X127648597Y-76970032D01*
X127760032Y-76858597D01*
X127891056Y-76771050D01*
X128036651Y-76710742D01*
X128191206Y-76680000D01*
X128348794Y-76680000D01*
X128503348Y-76710742D01*
G37*
G36*
X93563348Y-74200742D02*
G01*
X93563349Y-74200742D01*
X93563351Y-74200743D01*
X93708942Y-74261049D01*
X93839970Y-74348599D01*
X93951401Y-74460030D01*
X94038951Y-74591058D01*
X94099257Y-74736649D01*
X94130000Y-74891207D01*
X94130000Y-75048793D01*
X94099257Y-75203351D01*
X94038951Y-75348942D01*
X93951401Y-75479970D01*
X93839970Y-75591401D01*
X93708942Y-75678951D01*
X93563351Y-75739257D01*
X93447432Y-75762314D01*
X93408794Y-75770000D01*
X93408793Y-75770000D01*
X93251207Y-75770000D01*
X93251206Y-75770000D01*
X93199687Y-75759752D01*
X93096649Y-75739257D01*
X92951058Y-75678951D01*
X92820030Y-75591401D01*
X92708599Y-75479970D01*
X92621049Y-75348942D01*
X92560743Y-75203351D01*
X92554775Y-75173351D01*
X92530000Y-75048793D01*
X92530000Y-74891206D01*
X92560742Y-74736651D01*
X92621050Y-74591056D01*
X92708597Y-74460032D01*
X92820032Y-74348597D01*
X92951056Y-74261050D01*
X93096651Y-74200742D01*
X93251206Y-74170000D01*
X93408794Y-74170000D01*
X93563348Y-74200742D01*
G37*
G36*
X113263348Y-74170742D02*
G01*
X113263349Y-74170742D01*
X113263351Y-74170743D01*
X113408942Y-74231049D01*
X113539970Y-74318599D01*
X113651401Y-74430030D01*
X113738951Y-74561058D01*
X113799257Y-74706649D01*
X113830000Y-74861207D01*
X113830000Y-75018793D01*
X113799257Y-75173351D01*
X113738951Y-75318942D01*
X113651401Y-75449970D01*
X113539970Y-75561401D01*
X113408942Y-75648951D01*
X113263351Y-75709257D01*
X113147432Y-75732314D01*
X113108794Y-75740000D01*
X113108793Y-75740000D01*
X112951207Y-75740000D01*
X112951206Y-75740000D01*
X112899687Y-75729752D01*
X112796649Y-75709257D01*
X112651058Y-75648951D01*
X112520030Y-75561401D01*
X112408599Y-75449970D01*
X112321049Y-75318942D01*
X112260743Y-75173351D01*
X112230000Y-75018793D01*
X112230000Y-74861207D01*
X112254775Y-74736651D01*
X112260742Y-74706651D01*
X112321050Y-74561056D01*
X112408597Y-74430032D01*
X112520032Y-74318597D01*
X112651056Y-74231050D01*
X112796651Y-74170742D01*
X112951206Y-74140000D01*
X113108794Y-74140000D01*
X113263348Y-74170742D01*
G37*
G36*
X128503348Y-74170742D02*
G01*
X128503349Y-74170742D01*
X128503351Y-74170743D01*
X128648942Y-74231049D01*
X128779970Y-74318599D01*
X128891401Y-74430030D01*
X128978951Y-74561058D01*
X129039257Y-74706649D01*
X129070000Y-74861207D01*
X129070000Y-75018793D01*
X129039257Y-75173351D01*
X128978951Y-75318942D01*
X128891401Y-75449970D01*
X128779970Y-75561401D01*
X128648942Y-75648951D01*
X128503351Y-75709257D01*
X128387432Y-75732314D01*
X128348794Y-75740000D01*
X128348793Y-75740000D01*
X128191207Y-75740000D01*
X128191206Y-75740000D01*
X128139687Y-75729752D01*
X128036649Y-75709257D01*
X127891058Y-75648951D01*
X127760030Y-75561401D01*
X127648599Y-75449970D01*
X127561049Y-75318942D01*
X127500743Y-75173351D01*
X127470000Y-75018793D01*
X127470000Y-74861207D01*
X127494775Y-74736651D01*
X127500742Y-74706651D01*
X127561050Y-74561056D01*
X127648597Y-74430032D01*
X127760032Y-74318597D01*
X127891056Y-74231050D01*
X128036651Y-74170742D01*
X128191206Y-74140000D01*
X128348794Y-74140000D01*
X128503348Y-74170742D01*
G37*
G36*
X113263348Y-71630742D02*
G01*
X113263349Y-71630742D01*
X113263351Y-71630743D01*
X113408942Y-71691049D01*
X113539970Y-71778599D01*
X113651401Y-71890030D01*
X113738951Y-72021058D01*
X113799257Y-72166649D01*
X113830000Y-72321207D01*
X113830000Y-72478793D01*
X113799257Y-72633351D01*
X113738951Y-72778942D01*
X113651401Y-72909970D01*
X113539970Y-73021401D01*
X113408942Y-73108951D01*
X113263351Y-73169257D01*
X113147432Y-73192314D01*
X113108794Y-73200000D01*
X113108793Y-73200000D01*
X112951207Y-73200000D01*
X112951206Y-73200000D01*
X112899687Y-73189752D01*
X112796649Y-73169257D01*
X112651058Y-73108951D01*
X112520030Y-73021401D01*
X112408599Y-72909970D01*
X112321049Y-72778942D01*
X112260743Y-72633351D01*
X112230000Y-72478793D01*
X112230000Y-72321207D01*
X112230000Y-72321206D01*
X112260742Y-72166651D01*
X112321050Y-72021056D01*
X112408597Y-71890032D01*
X112520032Y-71778597D01*
X112651056Y-71691050D01*
X112796651Y-71630742D01*
X112951206Y-71600000D01*
X113108794Y-71600000D01*
X113263348Y-71630742D01*
G37*
G36*
X128503348Y-71630742D02*
G01*
X128503349Y-71630742D01*
X128503351Y-71630743D01*
X128648942Y-71691049D01*
X128779970Y-71778599D01*
X128891401Y-71890030D01*
X128978951Y-72021058D01*
X129039257Y-72166649D01*
X129070000Y-72321207D01*
X129070000Y-72478793D01*
X129039257Y-72633351D01*
X128978951Y-72778942D01*
X128891401Y-72909970D01*
X128779970Y-73021401D01*
X128648942Y-73108951D01*
X128503351Y-73169257D01*
X128387432Y-73192314D01*
X128348794Y-73200000D01*
X128348793Y-73200000D01*
X128191207Y-73200000D01*
X128191206Y-73200000D01*
X128139687Y-73189752D01*
X128036649Y-73169257D01*
X127891058Y-73108951D01*
X127760030Y-73021401D01*
X127648599Y-72909970D01*
X127561049Y-72778942D01*
X127500743Y-72633351D01*
X127470000Y-72478793D01*
X127470000Y-72321207D01*
X127470000Y-72321206D01*
X127500742Y-72166651D01*
X127561050Y-72021056D01*
X127648597Y-71890032D01*
X127760032Y-71778597D01*
X127891056Y-71691050D01*
X128036651Y-71630742D01*
X128191206Y-71600000D01*
X128348794Y-71600000D01*
X128503348Y-71630742D01*
G37*
G36*
X113830000Y-70660000D02*
G01*
X113829996Y-70660000D01*
X112230004Y-70660000D01*
X112230000Y-70660000D01*
X112230000Y-69060000D01*
X113830000Y-69060000D01*
X113830000Y-70660000D01*
G37*
G36*
X128503348Y-69090742D02*
G01*
X128503349Y-69090742D01*
X128503351Y-69090743D01*
X128648942Y-69151049D01*
X128779970Y-69238599D01*
X128891401Y-69350030D01*
X128978951Y-69481058D01*
X129039257Y-69626649D01*
X129070000Y-69781207D01*
X129070000Y-69938793D01*
X129039257Y-70093351D01*
X128978951Y-70238942D01*
X128891401Y-70369970D01*
X128779970Y-70481401D01*
X128648942Y-70568951D01*
X128503351Y-70629257D01*
X128387432Y-70652314D01*
X128348794Y-70660000D01*
X128348793Y-70660000D01*
X128191207Y-70660000D01*
X128191206Y-70660000D01*
X128139687Y-70649752D01*
X128036649Y-70629257D01*
X127891058Y-70568951D01*
X127760030Y-70481401D01*
X127648599Y-70369970D01*
X127561049Y-70238942D01*
X127500743Y-70093351D01*
X127470000Y-69938793D01*
X127470000Y-69781207D01*
X127470000Y-69781206D01*
X127500742Y-69626651D01*
X127530896Y-69553853D01*
X127561049Y-69481058D01*
X127561050Y-69481056D01*
X127648597Y-69350032D01*
X127760032Y-69238597D01*
X127891056Y-69151050D01*
X128036651Y-69090742D01*
X128191206Y-69060000D01*
X128348794Y-69060000D01*
X128503348Y-69090742D01*
G37*
G36*
X93083348Y-68020742D02*
G01*
X93083349Y-68020742D01*
X93083351Y-68020743D01*
X93228942Y-68081049D01*
X93359970Y-68168599D01*
X93471401Y-68280030D01*
X93558951Y-68411058D01*
X93619257Y-68556649D01*
X93650000Y-68711207D01*
X93650000Y-68868793D01*
X93619257Y-69023351D01*
X93558951Y-69168942D01*
X93471401Y-69299970D01*
X93359970Y-69411401D01*
X93228942Y-69498951D01*
X93083351Y-69559257D01*
X92967432Y-69582314D01*
X92928794Y-69590000D01*
X92928793Y-69590000D01*
X92771207Y-69590000D01*
X92771206Y-69590000D01*
X92719687Y-69579752D01*
X92616649Y-69559257D01*
X92471058Y-69498951D01*
X92340030Y-69411401D01*
X92228599Y-69299970D01*
X92141049Y-69168942D01*
X92080743Y-69023351D01*
X92050000Y-68868793D01*
X92050000Y-68711207D01*
X92075762Y-68581689D01*
X92080742Y-68556651D01*
X92141050Y-68411056D01*
X92228597Y-68280032D01*
X92340032Y-68168597D01*
X92471056Y-68081050D01*
X92616651Y-68020742D01*
X92771206Y-67990000D01*
X92928794Y-67990000D01*
X93083348Y-68020742D01*
G37*
G36*
X98641686Y-67328428D02*
G01*
X98641687Y-67328428D01*
X98641689Y-67328429D01*
X98823678Y-67403811D01*
X98987463Y-67513249D01*
X99126751Y-67652537D01*
X99236189Y-67816322D01*
X99311571Y-67998311D01*
X99350000Y-68191509D01*
X99350000Y-68388491D01*
X99311571Y-68581689D01*
X99236189Y-68763678D01*
X99126751Y-68927463D01*
X98987463Y-69066751D01*
X98823678Y-69176189D01*
X98641689Y-69251571D01*
X98525770Y-69274628D01*
X98448493Y-69290000D01*
X98448491Y-69290000D01*
X98251509Y-69290000D01*
X98251507Y-69290000D01*
X98154910Y-69270785D01*
X98058311Y-69251571D01*
X97876322Y-69176189D01*
X97712537Y-69066751D01*
X97573249Y-68927463D01*
X97463811Y-68763678D01*
X97388429Y-68581689D01*
X97383448Y-68556651D01*
X97350000Y-68388492D01*
X97350000Y-68191507D01*
X97388428Y-67998313D01*
X97463812Y-67816320D01*
X97573247Y-67652539D01*
X97712539Y-67513247D01*
X97876320Y-67403812D01*
X98058313Y-67328428D01*
X98251507Y-67290000D01*
X98448493Y-67290000D01*
X98641686Y-67328428D01*
G37*
G36*
X105141686Y-67328428D02*
G01*
X105141687Y-67328428D01*
X105141689Y-67328429D01*
X105323678Y-67403811D01*
X105487463Y-67513249D01*
X105626751Y-67652537D01*
X105736189Y-67816322D01*
X105811571Y-67998311D01*
X105850000Y-68191509D01*
X105850000Y-68388491D01*
X105811571Y-68581689D01*
X105736189Y-68763678D01*
X105626751Y-68927463D01*
X105487463Y-69066751D01*
X105323678Y-69176189D01*
X105141689Y-69251571D01*
X105025770Y-69274628D01*
X104948493Y-69290000D01*
X104948491Y-69290000D01*
X104751509Y-69290000D01*
X104751507Y-69290000D01*
X104654910Y-69270785D01*
X104558311Y-69251571D01*
X104376322Y-69176189D01*
X104212537Y-69066751D01*
X104073249Y-68927463D01*
X103963811Y-68763678D01*
X103888429Y-68581689D01*
X103883448Y-68556651D01*
X103850000Y-68388492D01*
X103850000Y-68191507D01*
X103888428Y-67998313D01*
X103963812Y-67816320D01*
X104073247Y-67652539D01*
X104212539Y-67513247D01*
X104376320Y-67403812D01*
X104558313Y-67328428D01*
X104751507Y-67290000D01*
X104948493Y-67290000D01*
X105141686Y-67328428D01*
G37*
G36*
X113289603Y-66464202D02*
G01*
X113451572Y-66531291D01*
X113597339Y-66628689D01*
X113721310Y-66752660D01*
X113818708Y-66898427D01*
X113885797Y-67060396D01*
X113920000Y-67232341D01*
X113920000Y-67407658D01*
X113885797Y-67579603D01*
X113818708Y-67741572D01*
X113818707Y-67741573D01*
X113721308Y-67887342D01*
X113597342Y-68011308D01*
X113597338Y-68011310D01*
X113597339Y-68011310D01*
X113451572Y-68108708D01*
X113289603Y-68175797D01*
X113117659Y-68210000D01*
X113117657Y-68210000D01*
X112942343Y-68210000D01*
X112942341Y-68210000D01*
X112770396Y-68175797D01*
X112608427Y-68108708D01*
X112462660Y-68011310D01*
X112338689Y-67887339D01*
X112241291Y-67741572D01*
X112174202Y-67579603D01*
X112140000Y-67407658D01*
X112140000Y-67232341D01*
X112174202Y-67060396D01*
X112241291Y-66898427D01*
X112338689Y-66752660D01*
X112462660Y-66628689D01*
X112608427Y-66531291D01*
X112770396Y-66464202D01*
X112942341Y-66430000D01*
X113117659Y-66430000D01*
X113289603Y-66464202D01*
G37*
G36*
X128529603Y-66464202D02*
G01*
X128691572Y-66531291D01*
X128837339Y-66628689D01*
X128961310Y-66752660D01*
X129058708Y-66898427D01*
X129125797Y-67060396D01*
X129160000Y-67232341D01*
X129160000Y-67407658D01*
X129125797Y-67579603D01*
X129058708Y-67741572D01*
X129058707Y-67741573D01*
X128961308Y-67887342D01*
X128837342Y-68011308D01*
X128837338Y-68011310D01*
X128837339Y-68011310D01*
X128691572Y-68108708D01*
X128529603Y-68175797D01*
X128357659Y-68210000D01*
X128357657Y-68210000D01*
X128182343Y-68210000D01*
X128182341Y-68210000D01*
X128010396Y-68175797D01*
X127848427Y-68108708D01*
X127702660Y-68011310D01*
X127578689Y-67887339D01*
X127481291Y-67741572D01*
X127414202Y-67579603D01*
X127380000Y-67407658D01*
X127380000Y-67232341D01*
X127414202Y-67060396D01*
X127481291Y-66898427D01*
X127578689Y-66752660D01*
X127702660Y-66628689D01*
X127848427Y-66531291D01*
X128010396Y-66464202D01*
X128182341Y-66430000D01*
X128357659Y-66430000D01*
X128529603Y-66464202D01*
G37*
G36*
X98641686Y-62828428D02*
G01*
X98641687Y-62828428D01*
X98641689Y-62828429D01*
X98823678Y-62903811D01*
X98987463Y-63013249D01*
X99126751Y-63152537D01*
X99236189Y-63316322D01*
X99311571Y-63498311D01*
X99350000Y-63691509D01*
X99350000Y-63888491D01*
X99311571Y-64081689D01*
X99236189Y-64263678D01*
X99126751Y-64427463D01*
X98987463Y-64566751D01*
X98823678Y-64676189D01*
X98641689Y-64751571D01*
X98525770Y-64774628D01*
X98448493Y-64790000D01*
X98448491Y-64790000D01*
X98251509Y-64790000D01*
X98251507Y-64790000D01*
X98154910Y-64770785D01*
X98058311Y-64751571D01*
X97876322Y-64676189D01*
X97712537Y-64566751D01*
X97573249Y-64427463D01*
X97463811Y-64263678D01*
X97388429Y-64081689D01*
X97387402Y-64076530D01*
X97350000Y-63888492D01*
X97350000Y-63691507D01*
X97388428Y-63498313D01*
X97463812Y-63316320D01*
X97573247Y-63152539D01*
X97712539Y-63013247D01*
X97876320Y-62903812D01*
X98058313Y-62828428D01*
X98251507Y-62790000D01*
X98448493Y-62790000D01*
X98641686Y-62828428D01*
G37*
G36*
X105141686Y-62828428D02*
G01*
X105141687Y-62828428D01*
X105141689Y-62828429D01*
X105323678Y-62903811D01*
X105487463Y-63013249D01*
X105626751Y-63152537D01*
X105736189Y-63316322D01*
X105811571Y-63498311D01*
X105850000Y-63691509D01*
X105850000Y-63888491D01*
X105811571Y-64081689D01*
X105736189Y-64263678D01*
X105626751Y-64427463D01*
X105487463Y-64566751D01*
X105323678Y-64676189D01*
X105141689Y-64751571D01*
X105025770Y-64774628D01*
X104948493Y-64790000D01*
X104948491Y-64790000D01*
X104751509Y-64790000D01*
X104751507Y-64790000D01*
X104654910Y-64770785D01*
X104558311Y-64751571D01*
X104376322Y-64676189D01*
X104212537Y-64566751D01*
X104073249Y-64427463D01*
X103963811Y-64263678D01*
X103888429Y-64081689D01*
X103887402Y-64076530D01*
X103850000Y-63888492D01*
X103850000Y-63691507D01*
X103888428Y-63498313D01*
X103963812Y-63316320D01*
X104073247Y-63152539D01*
X104212539Y-63013247D01*
X104376320Y-62903812D01*
X104558313Y-62828428D01*
X104751507Y-62790000D01*
X104948493Y-62790000D01*
X105141686Y-62828428D01*
G37*
G36*
X88257584Y-62427085D02*
G01*
X88422248Y-62480588D01*
X88422250Y-62480589D01*
X88422253Y-62480590D01*
X88499389Y-62519893D01*
X88576530Y-62559198D01*
X88716597Y-62660962D01*
X88839037Y-62783402D01*
X88940801Y-62923469D01*
X88940804Y-62923475D01*
X89019410Y-63077747D01*
X89019411Y-63077751D01*
X89072914Y-63242415D01*
X89100000Y-63413426D01*
X89100000Y-63586573D01*
X89072914Y-63757584D01*
X89019410Y-63922253D01*
X88940804Y-64076525D01*
X88940801Y-64076530D01*
X88873660Y-64168942D01*
X88839033Y-64216602D01*
X88716602Y-64339033D01*
X88716598Y-64339035D01*
X88716597Y-64339037D01*
X88576530Y-64440801D01*
X88576527Y-64440802D01*
X88576525Y-64440804D01*
X88422253Y-64519410D01*
X88299616Y-64559257D01*
X88257584Y-64572914D01*
X88086574Y-64600000D01*
X88086572Y-64600000D01*
X87913428Y-64600000D01*
X87913426Y-64600000D01*
X87742415Y-64572914D01*
X87656755Y-64545081D01*
X87577747Y-64519410D01*
X87423475Y-64440804D01*
X87423469Y-64440801D01*
X87283402Y-64339037D01*
X87160962Y-64216597D01*
X87059198Y-64076530D01*
X87019893Y-63999389D01*
X86980590Y-63922253D01*
X86969620Y-63888491D01*
X86927085Y-63757584D01*
X86900000Y-63586573D01*
X86900000Y-63413426D01*
X86927085Y-63242415D01*
X86980588Y-63077751D01*
X87059198Y-62923469D01*
X87160962Y-62783402D01*
X87283402Y-62660962D01*
X87423469Y-62559198D01*
X87577751Y-62480588D01*
X87742415Y-62427085D01*
X87913426Y-62400000D01*
X88086574Y-62400000D01*
X88257584Y-62427085D01*
G37*
G36*
X131257584Y-62427085D02*
G01*
X131422248Y-62480588D01*
X131422250Y-62480589D01*
X131422253Y-62480590D01*
X131499389Y-62519893D01*
X131576530Y-62559198D01*
X131716597Y-62660962D01*
X131839037Y-62783402D01*
X131940801Y-62923469D01*
X131940804Y-62923475D01*
X132019410Y-63077747D01*
X132019411Y-63077751D01*
X132072914Y-63242415D01*
X132100000Y-63413426D01*
X132100000Y-63586573D01*
X132072914Y-63757584D01*
X132019410Y-63922253D01*
X131940804Y-64076525D01*
X131940801Y-64076530D01*
X131873660Y-64168942D01*
X131839033Y-64216602D01*
X131716602Y-64339033D01*
X131716598Y-64339035D01*
X131716597Y-64339037D01*
X131576530Y-64440801D01*
X131576527Y-64440802D01*
X131576525Y-64440804D01*
X131422253Y-64519410D01*
X131299616Y-64559257D01*
X131257584Y-64572914D01*
X131086574Y-64600000D01*
X131086572Y-64600000D01*
X130913428Y-64600000D01*
X130913426Y-64600000D01*
X130742415Y-64572914D01*
X130656755Y-64545081D01*
X130577747Y-64519410D01*
X130423475Y-64440804D01*
X130423469Y-64440801D01*
X130283402Y-64339037D01*
X130160962Y-64216597D01*
X130059198Y-64076530D01*
X130019893Y-63999389D01*
X129980590Y-63922253D01*
X129969620Y-63888491D01*
X129927085Y-63757584D01*
X129900000Y-63586573D01*
X129900000Y-63413426D01*
X129927085Y-63242415D01*
X129980588Y-63077751D01*
X130059198Y-62923469D01*
X130160962Y-62783402D01*
X130283402Y-62660962D01*
X130423469Y-62559198D01*
X130577751Y-62480588D01*
X130742415Y-62427085D01*
X130913426Y-62400000D01*
X131086574Y-62400000D01*
X131257584Y-62427085D01*
G37*
G36*
X93083348Y-63020742D02*
G01*
X93083349Y-63020742D01*
X93083351Y-63020743D01*
X93228942Y-63081049D01*
X93359970Y-63168599D01*
X93471401Y-63280030D01*
X93558951Y-63411058D01*
X93619257Y-63556649D01*
X93619257Y-63556651D01*
X93646081Y-63691507D01*
X93650000Y-63711207D01*
X93650000Y-63868793D01*
X93619257Y-64023351D01*
X93558951Y-64168942D01*
X93471401Y-64299970D01*
X93359970Y-64411401D01*
X93228942Y-64498951D01*
X93083351Y-64559257D01*
X92967432Y-64582314D01*
X92928794Y-64590000D01*
X92928793Y-64590000D01*
X92771207Y-64590000D01*
X92771206Y-64590000D01*
X92719687Y-64579752D01*
X92616649Y-64559257D01*
X92471058Y-64498951D01*
X92340030Y-64411401D01*
X92228599Y-64299970D01*
X92141049Y-64168942D01*
X92080743Y-64023351D01*
X92050000Y-63868793D01*
X92050000Y-63711207D01*
X92053918Y-63691509D01*
X92080742Y-63556651D01*
X92141050Y-63411056D01*
X92228597Y-63280032D01*
X92340032Y-63168597D01*
X92471056Y-63081050D01*
X92616651Y-63020742D01*
X92771206Y-62990000D01*
X92928794Y-62990000D01*
X93083348Y-63020742D01*
G37*
%LPD*%
M02*
