M48
; DRILL file {KiCad 9.0.7} date 2026-02-15T18:00:21+0100
; FORMAT={-:-/ absolute / metric / decimal}
; #@! TF.CreationDate,2026-02-15T18:00:21+01:00
; #@! TF.GenerationSoftware,Kicad,Pcbnew,9.0.7
; #@! TF.FileFunction,Plated,1,2,PTH
FMAT,2
METRIC
; #@! TA.AperFunction,Plated,PTH,ViaDrill
T1C0.300
; #@! TA.AperFunction,Plated,PTH,ComponentDrill
T2C0.800
; #@! TA.AperFunction,Plated,PTH,ComponentDrill
T3C1.000
; #@! TA.AperFunction,Plated,PTH,ComponentDrill
T4C1.100
; #@! TA.AperFunction,Plated,PTH,ComponentDrill
T5C3.100
%
G90
G05
T1
X105.6Y-80.5
X105.6Y-90.9
X105.6Y-100.9
T2
X92.71Y-110.155
X92.71Y-112.655
X92.85Y-63.79
X92.85Y-68.79
X93.33Y-74.97
X93.33Y-79.97
X93.33Y-85.13
X93.33Y-90.13
X93.33Y-95.29
X93.33Y-100.29
T3
X100.33Y-77.47
X100.33Y-87.63
X100.33Y-97.79
X102.87Y-77.47
X102.87Y-87.63
X102.87Y-97.79
X105.41Y-77.47
X105.41Y-87.63
X105.41Y-97.79
X113.03Y-69.86
X113.03Y-72.4
X113.03Y-74.94
X113.03Y-77.48
X113.03Y-80.02
X113.03Y-82.56
X113.03Y-85.1
X113.03Y-87.64
X113.03Y-90.18
X113.03Y-92.72
X113.03Y-95.26
X113.03Y-97.8
X113.03Y-100.34
X113.03Y-102.88
X113.03Y-105.42
X128.27Y-69.86
X128.27Y-72.4
X128.27Y-74.94
X128.27Y-77.48
X128.27Y-80.02
X128.27Y-82.56
X128.27Y-85.1
X128.27Y-87.64
X128.27Y-90.18
X128.27Y-92.72
X128.27Y-95.26
X128.27Y-97.8
X128.27Y-100.34
X128.27Y-102.88
X128.27Y-105.42
T4
X98.35Y-63.79
X98.35Y-68.29
X104.85Y-63.79
X104.85Y-68.29
T5
X104.14Y-104.14
X104.14Y-110.34
X109.04Y-106.84
M30
