%TF.GenerationSoftware,KiCad,Pcbnew,9.0.7*%
%TF.CreationDate,2026-02-15T18:00:21+01:00*%
%TF.ProjectId,Articulated-Robot,41727469-6375-46c6-9174-65642d526f62,rev?*%
%TF.SameCoordinates,Original*%
%TF.FileFunction,Drillmap*%
%TF.FilePolarity,Positive*%
%FSLAX45Y45*%
G04 Gerber Fmt 4.5, Leading zero omitted, Abs format (unit mm)*
G04 Created by KiCad (PCBNEW 9.0.7) date 2026-02-15 18:00:21*
%MOMM*%
%LPD*%
G01*
G04 APERTURE LIST*
%ADD10C,0.038100*%
%ADD11C,0.200000*%
%ADD12C,0.100000*%
%ADD13C,0.110000*%
%ADD14C,0.310000*%
G04 APERTURE END LIST*
D10*
X8500000Y-6050000D02*
X8500000Y-12100000D01*
X13400000Y-6050000D02*
X8500000Y-6050000D01*
X13400000Y-12100000D02*
X13400000Y-6050000D01*
X8500000Y-12100000D02*
X13400000Y-12100000D01*
D11*
D12*
X10545000Y-8035000D02*
X10575000Y-8065000D01*
X10575000Y-8035000D02*
X10545000Y-8065000D01*
X10545000Y-9075000D02*
X10575000Y-9105000D01*
X10575000Y-9075000D02*
X10545000Y-9105000D01*
X10545000Y-10075000D02*
X10575000Y-10105000D01*
X10575000Y-10075000D02*
X10545000Y-10105000D01*
X9311000Y-11015500D02*
G75*
G02*
X9231000Y-11015500I-40000J0D01*
G01*
X9231000Y-11015500D02*
G75*
G02*
X9311000Y-11015500I40000J0D01*
G01*
X9311000Y-11265500D02*
G75*
G02*
X9231000Y-11265500I-40000J0D01*
G01*
X9231000Y-11265500D02*
G75*
G02*
X9311000Y-11265500I40000J0D01*
G01*
X9325000Y-6379000D02*
G75*
G02*
X9245000Y-6379000I-40000J0D01*
G01*
X9245000Y-6379000D02*
G75*
G02*
X9325000Y-6379000I40000J0D01*
G01*
X9325000Y-6879000D02*
G75*
G02*
X9245000Y-6879000I-40000J0D01*
G01*
X9245000Y-6879000D02*
G75*
G02*
X9325000Y-6879000I40000J0D01*
G01*
X9373000Y-7497000D02*
G75*
G02*
X9293000Y-7497000I-40000J0D01*
G01*
X9293000Y-7497000D02*
G75*
G02*
X9373000Y-7497000I40000J0D01*
G01*
X9373000Y-7997000D02*
G75*
G02*
X9293000Y-7997000I-40000J0D01*
G01*
X9293000Y-7997000D02*
G75*
G02*
X9373000Y-7997000I40000J0D01*
G01*
X9373000Y-8513000D02*
G75*
G02*
X9293000Y-8513000I-40000J0D01*
G01*
X9293000Y-8513000D02*
G75*
G02*
X9373000Y-8513000I40000J0D01*
G01*
X9373000Y-9013000D02*
G75*
G02*
X9293000Y-9013000I-40000J0D01*
G01*
X9293000Y-9013000D02*
G75*
G02*
X9373000Y-9013000I40000J0D01*
G01*
X9373000Y-9529000D02*
G75*
G02*
X9293000Y-9529000I-40000J0D01*
G01*
X9293000Y-9529000D02*
G75*
G02*
X9373000Y-9529000I40000J0D01*
G01*
X9373000Y-10029000D02*
G75*
G02*
X9293000Y-10029000I-40000J0D01*
G01*
X9293000Y-10029000D02*
G75*
G02*
X9373000Y-10029000I40000J0D01*
G01*
X10033000Y-7697000D02*
X10033000Y-7797000D01*
X9983000Y-7747000D02*
X10083000Y-7747000D01*
X10033000Y-8713000D02*
X10033000Y-8813000D01*
X9983000Y-8763000D02*
X10083000Y-8763000D01*
X10033000Y-9729000D02*
X10033000Y-9829000D01*
X9983000Y-9779000D02*
X10083000Y-9779000D01*
X10287000Y-7697000D02*
X10287000Y-7797000D01*
X10237000Y-7747000D02*
X10337000Y-7747000D01*
X10287000Y-8713000D02*
X10287000Y-8813000D01*
X10237000Y-8763000D02*
X10337000Y-8763000D01*
X10287000Y-9729000D02*
X10287000Y-9829000D01*
X10237000Y-9779000D02*
X10337000Y-9779000D01*
X10541000Y-7697000D02*
X10541000Y-7797000D01*
X10491000Y-7747000D02*
X10591000Y-7747000D01*
X10541000Y-8713000D02*
X10541000Y-8813000D01*
X10491000Y-8763000D02*
X10591000Y-8763000D01*
X10541000Y-9729000D02*
X10541000Y-9829000D01*
X10491000Y-9779000D02*
X10591000Y-9779000D01*
X11303000Y-6936000D02*
X11303000Y-7036000D01*
X11253000Y-6986000D02*
X11353000Y-6986000D01*
X11303000Y-7190000D02*
X11303000Y-7290000D01*
X11253000Y-7240000D02*
X11353000Y-7240000D01*
X11303000Y-7444000D02*
X11303000Y-7544000D01*
X11253000Y-7494000D02*
X11353000Y-7494000D01*
X11303000Y-7698000D02*
X11303000Y-7798000D01*
X11253000Y-7748000D02*
X11353000Y-7748000D01*
X11303000Y-7952000D02*
X11303000Y-8052000D01*
X11253000Y-8002000D02*
X11353000Y-8002000D01*
X11303000Y-8206000D02*
X11303000Y-8306000D01*
X11253000Y-8256000D02*
X11353000Y-8256000D01*
X11303000Y-8460000D02*
X11303000Y-8560000D01*
X11253000Y-8510000D02*
X11353000Y-8510000D01*
X11303000Y-8714000D02*
X11303000Y-8814000D01*
X11253000Y-8764000D02*
X11353000Y-8764000D01*
X11303000Y-8968000D02*
X11303000Y-9068000D01*
X11253000Y-9018000D02*
X11353000Y-9018000D01*
X11303000Y-9222000D02*
X11303000Y-9322000D01*
X11253000Y-9272000D02*
X11353000Y-9272000D01*
X11303000Y-9476000D02*
X11303000Y-9576000D01*
X11253000Y-9526000D02*
X11353000Y-9526000D01*
X11303000Y-9730000D02*
X11303000Y-9830000D01*
X11253000Y-9780000D02*
X11353000Y-9780000D01*
X11303000Y-9984000D02*
X11303000Y-10084000D01*
X11253000Y-10034000D02*
X11353000Y-10034000D01*
X11303000Y-10238000D02*
X11303000Y-10338000D01*
X11253000Y-10288000D02*
X11353000Y-10288000D01*
X11303000Y-10492000D02*
X11303000Y-10592000D01*
X11253000Y-10542000D02*
X11353000Y-10542000D01*
X12827000Y-6936000D02*
X12827000Y-7036000D01*
X12777000Y-6986000D02*
X12877000Y-6986000D01*
X12827000Y-7190000D02*
X12827000Y-7290000D01*
X12777000Y-7240000D02*
X12877000Y-7240000D01*
X12827000Y-7444000D02*
X12827000Y-7544000D01*
X12777000Y-7494000D02*
X12877000Y-7494000D01*
X12827000Y-7698000D02*
X12827000Y-7798000D01*
X12777000Y-7748000D02*
X12877000Y-7748000D01*
X12827000Y-7952000D02*
X12827000Y-8052000D01*
X12777000Y-8002000D02*
X12877000Y-8002000D01*
X12827000Y-8206000D02*
X12827000Y-8306000D01*
X12777000Y-8256000D02*
X12877000Y-8256000D01*
X12827000Y-8460000D02*
X12827000Y-8560000D01*
X12777000Y-8510000D02*
X12877000Y-8510000D01*
X12827000Y-8714000D02*
X12827000Y-8814000D01*
X12777000Y-8764000D02*
X12877000Y-8764000D01*
X12827000Y-8968000D02*
X12827000Y-9068000D01*
X12777000Y-9018000D02*
X12877000Y-9018000D01*
X12827000Y-9222000D02*
X12827000Y-9322000D01*
X12777000Y-9272000D02*
X12877000Y-9272000D01*
X12827000Y-9476000D02*
X12827000Y-9576000D01*
X12777000Y-9526000D02*
X12877000Y-9526000D01*
X12827000Y-9730000D02*
X12827000Y-9830000D01*
X12777000Y-9780000D02*
X12877000Y-9780000D01*
X12827000Y-9984000D02*
X12827000Y-10084000D01*
X12777000Y-10034000D02*
X12877000Y-10034000D01*
X12827000Y-10238000D02*
X12827000Y-10338000D01*
X12777000Y-10288000D02*
X12877000Y-10288000D01*
X12827000Y-10492000D02*
X12827000Y-10592000D01*
X12777000Y-10542000D02*
X12877000Y-10542000D01*
D13*
X9873891Y-6417891D02*
X9873891Y-6340109D01*
X9796109Y-6340109D01*
X9796109Y-6417891D01*
X9873891Y-6417891D01*
X9873891Y-6867891D02*
X9873891Y-6790109D01*
X9796109Y-6790109D01*
X9796109Y-6867891D01*
X9873891Y-6867891D01*
X10523891Y-6417891D02*
X10523891Y-6340109D01*
X10446109Y-6340109D01*
X10446109Y-6417891D01*
X10523891Y-6417891D01*
X10523891Y-6867891D02*
X10523891Y-6790109D01*
X10446109Y-6790109D01*
X10446109Y-6867891D01*
X10523891Y-6867891D01*
D14*
X10414000Y-10569000D02*
X10569000Y-10414000D01*
X10414000Y-10259000D01*
X10259000Y-10414000D01*
X10414000Y-10569000D01*
X10414000Y-11189000D02*
X10569000Y-11034000D01*
X10414000Y-10879000D01*
X10259000Y-11034000D01*
X10414000Y-11189000D01*
X10904000Y-10839000D02*
X11059000Y-10684000D01*
X10904000Y-10529000D01*
X10749000Y-10684000D01*
X10904000Y-10839000D01*
D11*
X8758872Y-12413389D02*
X8758872Y-12213389D01*
X8758872Y-12213389D02*
X8806491Y-12213389D01*
X8806491Y-12213389D02*
X8835062Y-12222913D01*
X8835062Y-12222913D02*
X8854110Y-12241960D01*
X8854110Y-12241960D02*
X8863634Y-12261008D01*
X8863634Y-12261008D02*
X8873158Y-12299103D01*
X8873158Y-12299103D02*
X8873158Y-12327674D01*
X8873158Y-12327674D02*
X8863634Y-12365770D01*
X8863634Y-12365770D02*
X8854110Y-12384817D01*
X8854110Y-12384817D02*
X8835062Y-12403865D01*
X8835062Y-12403865D02*
X8806491Y-12413389D01*
X8806491Y-12413389D02*
X8758872Y-12413389D01*
X8958872Y-12413389D02*
X8958872Y-12280055D01*
X8958872Y-12318151D02*
X8968396Y-12299103D01*
X8968396Y-12299103D02*
X8977919Y-12289579D01*
X8977919Y-12289579D02*
X8996967Y-12280055D01*
X8996967Y-12280055D02*
X9016015Y-12280055D01*
X9082681Y-12413389D02*
X9082681Y-12280055D01*
X9082681Y-12213389D02*
X9073158Y-12222913D01*
X9073158Y-12222913D02*
X9082681Y-12232436D01*
X9082681Y-12232436D02*
X9092205Y-12222913D01*
X9092205Y-12222913D02*
X9082681Y-12213389D01*
X9082681Y-12213389D02*
X9082681Y-12232436D01*
X9206491Y-12413389D02*
X9187443Y-12403865D01*
X9187443Y-12403865D02*
X9177919Y-12384817D01*
X9177919Y-12384817D02*
X9177919Y-12213389D01*
X9311253Y-12413389D02*
X9292205Y-12403865D01*
X9292205Y-12403865D02*
X9282681Y-12384817D01*
X9282681Y-12384817D02*
X9282681Y-12213389D01*
X9539824Y-12413389D02*
X9539824Y-12213389D01*
X9539824Y-12213389D02*
X9606491Y-12356246D01*
X9606491Y-12356246D02*
X9673158Y-12213389D01*
X9673158Y-12213389D02*
X9673158Y-12413389D01*
X9854110Y-12413389D02*
X9854110Y-12308627D01*
X9854110Y-12308627D02*
X9844586Y-12289579D01*
X9844586Y-12289579D02*
X9825539Y-12280055D01*
X9825539Y-12280055D02*
X9787443Y-12280055D01*
X9787443Y-12280055D02*
X9768396Y-12289579D01*
X9854110Y-12403865D02*
X9835062Y-12413389D01*
X9835062Y-12413389D02*
X9787443Y-12413389D01*
X9787443Y-12413389D02*
X9768396Y-12403865D01*
X9768396Y-12403865D02*
X9758872Y-12384817D01*
X9758872Y-12384817D02*
X9758872Y-12365770D01*
X9758872Y-12365770D02*
X9768396Y-12346722D01*
X9768396Y-12346722D02*
X9787443Y-12337198D01*
X9787443Y-12337198D02*
X9835062Y-12337198D01*
X9835062Y-12337198D02*
X9854110Y-12327674D01*
X9949348Y-12280055D02*
X9949348Y-12480055D01*
X9949348Y-12289579D02*
X9968396Y-12280055D01*
X9968396Y-12280055D02*
X10006491Y-12280055D01*
X10006491Y-12280055D02*
X10025539Y-12289579D01*
X10025539Y-12289579D02*
X10035062Y-12299103D01*
X10035062Y-12299103D02*
X10044586Y-12318151D01*
X10044586Y-12318151D02*
X10044586Y-12375293D01*
X10044586Y-12375293D02*
X10035062Y-12394341D01*
X10035062Y-12394341D02*
X10025539Y-12403865D01*
X10025539Y-12403865D02*
X10006491Y-12413389D01*
X10006491Y-12413389D02*
X9968396Y-12413389D01*
X9968396Y-12413389D02*
X9949348Y-12403865D01*
X10130300Y-12394341D02*
X10139824Y-12403865D01*
X10139824Y-12403865D02*
X10130300Y-12413389D01*
X10130300Y-12413389D02*
X10120777Y-12403865D01*
X10120777Y-12403865D02*
X10130300Y-12394341D01*
X10130300Y-12394341D02*
X10130300Y-12413389D01*
X10130300Y-12289579D02*
X10139824Y-12299103D01*
X10139824Y-12299103D02*
X10130300Y-12308627D01*
X10130300Y-12308627D02*
X10120777Y-12299103D01*
X10120777Y-12299103D02*
X10130300Y-12289579D01*
X10130300Y-12289579D02*
X10130300Y-12308627D01*
D12*
X8468095Y-12726905D02*
X8498095Y-12756905D01*
X8498095Y-12726905D02*
X8468095Y-12756905D01*
D11*
X8796967Y-12633389D02*
X8816015Y-12633389D01*
X8816015Y-12633389D02*
X8835062Y-12642913D01*
X8835062Y-12642913D02*
X8844586Y-12652436D01*
X8844586Y-12652436D02*
X8854110Y-12671484D01*
X8854110Y-12671484D02*
X8863634Y-12709579D01*
X8863634Y-12709579D02*
X8863634Y-12757198D01*
X8863634Y-12757198D02*
X8854110Y-12795293D01*
X8854110Y-12795293D02*
X8844586Y-12814341D01*
X8844586Y-12814341D02*
X8835062Y-12823865D01*
X8835062Y-12823865D02*
X8816015Y-12833389D01*
X8816015Y-12833389D02*
X8796967Y-12833389D01*
X8796967Y-12833389D02*
X8777919Y-12823865D01*
X8777919Y-12823865D02*
X8768396Y-12814341D01*
X8768396Y-12814341D02*
X8758872Y-12795293D01*
X8758872Y-12795293D02*
X8749348Y-12757198D01*
X8749348Y-12757198D02*
X8749348Y-12709579D01*
X8749348Y-12709579D02*
X8758872Y-12671484D01*
X8758872Y-12671484D02*
X8768396Y-12652436D01*
X8768396Y-12652436D02*
X8777919Y-12642913D01*
X8777919Y-12642913D02*
X8796967Y-12633389D01*
X8949348Y-12814341D02*
X8958872Y-12823865D01*
X8958872Y-12823865D02*
X8949348Y-12833389D01*
X8949348Y-12833389D02*
X8939824Y-12823865D01*
X8939824Y-12823865D02*
X8949348Y-12814341D01*
X8949348Y-12814341D02*
X8949348Y-12833389D01*
X9025539Y-12633389D02*
X9149348Y-12633389D01*
X9149348Y-12633389D02*
X9082681Y-12709579D01*
X9082681Y-12709579D02*
X9111253Y-12709579D01*
X9111253Y-12709579D02*
X9130300Y-12719103D01*
X9130300Y-12719103D02*
X9139824Y-12728627D01*
X9139824Y-12728627D02*
X9149348Y-12747674D01*
X9149348Y-12747674D02*
X9149348Y-12795293D01*
X9149348Y-12795293D02*
X9139824Y-12814341D01*
X9139824Y-12814341D02*
X9130300Y-12823865D01*
X9130300Y-12823865D02*
X9111253Y-12833389D01*
X9111253Y-12833389D02*
X9054110Y-12833389D01*
X9054110Y-12833389D02*
X9035062Y-12823865D01*
X9035062Y-12823865D02*
X9025539Y-12814341D01*
X9273158Y-12633389D02*
X9292205Y-12633389D01*
X9292205Y-12633389D02*
X9311253Y-12642913D01*
X9311253Y-12642913D02*
X9320777Y-12652436D01*
X9320777Y-12652436D02*
X9330300Y-12671484D01*
X9330300Y-12671484D02*
X9339824Y-12709579D01*
X9339824Y-12709579D02*
X9339824Y-12757198D01*
X9339824Y-12757198D02*
X9330300Y-12795293D01*
X9330300Y-12795293D02*
X9320777Y-12814341D01*
X9320777Y-12814341D02*
X9311253Y-12823865D01*
X9311253Y-12823865D02*
X9292205Y-12833389D01*
X9292205Y-12833389D02*
X9273158Y-12833389D01*
X9273158Y-12833389D02*
X9254110Y-12823865D01*
X9254110Y-12823865D02*
X9244586Y-12814341D01*
X9244586Y-12814341D02*
X9235062Y-12795293D01*
X9235062Y-12795293D02*
X9225539Y-12757198D01*
X9225539Y-12757198D02*
X9225539Y-12709579D01*
X9225539Y-12709579D02*
X9235062Y-12671484D01*
X9235062Y-12671484D02*
X9244586Y-12652436D01*
X9244586Y-12652436D02*
X9254110Y-12642913D01*
X9254110Y-12642913D02*
X9273158Y-12633389D01*
X9463634Y-12633389D02*
X9482681Y-12633389D01*
X9482681Y-12633389D02*
X9501729Y-12642913D01*
X9501729Y-12642913D02*
X9511253Y-12652436D01*
X9511253Y-12652436D02*
X9520777Y-12671484D01*
X9520777Y-12671484D02*
X9530300Y-12709579D01*
X9530300Y-12709579D02*
X9530300Y-12757198D01*
X9530300Y-12757198D02*
X9520777Y-12795293D01*
X9520777Y-12795293D02*
X9511253Y-12814341D01*
X9511253Y-12814341D02*
X9501729Y-12823865D01*
X9501729Y-12823865D02*
X9482681Y-12833389D01*
X9482681Y-12833389D02*
X9463634Y-12833389D01*
X9463634Y-12833389D02*
X9444586Y-12823865D01*
X9444586Y-12823865D02*
X9435062Y-12814341D01*
X9435062Y-12814341D02*
X9425539Y-12795293D01*
X9425539Y-12795293D02*
X9416015Y-12757198D01*
X9416015Y-12757198D02*
X9416015Y-12709579D01*
X9416015Y-12709579D02*
X9425539Y-12671484D01*
X9425539Y-12671484D02*
X9435062Y-12652436D01*
X9435062Y-12652436D02*
X9444586Y-12642913D01*
X9444586Y-12642913D02*
X9463634Y-12633389D01*
X9616015Y-12833389D02*
X9616015Y-12700055D01*
X9616015Y-12719103D02*
X9625539Y-12709579D01*
X9625539Y-12709579D02*
X9644586Y-12700055D01*
X9644586Y-12700055D02*
X9673158Y-12700055D01*
X9673158Y-12700055D02*
X9692205Y-12709579D01*
X9692205Y-12709579D02*
X9701729Y-12728627D01*
X9701729Y-12728627D02*
X9701729Y-12833389D01*
X9701729Y-12728627D02*
X9711253Y-12709579D01*
X9711253Y-12709579D02*
X9730300Y-12700055D01*
X9730300Y-12700055D02*
X9758872Y-12700055D01*
X9758872Y-12700055D02*
X9777920Y-12709579D01*
X9777920Y-12709579D02*
X9787443Y-12728627D01*
X9787443Y-12728627D02*
X9787443Y-12833389D01*
X9882681Y-12833389D02*
X9882681Y-12700055D01*
X9882681Y-12719103D02*
X9892205Y-12709579D01*
X9892205Y-12709579D02*
X9911253Y-12700055D01*
X9911253Y-12700055D02*
X9939824Y-12700055D01*
X9939824Y-12700055D02*
X9958872Y-12709579D01*
X9958872Y-12709579D02*
X9968396Y-12728627D01*
X9968396Y-12728627D02*
X9968396Y-12833389D01*
X9968396Y-12728627D02*
X9977920Y-12709579D01*
X9977920Y-12709579D02*
X9996967Y-12700055D01*
X9996967Y-12700055D02*
X10025539Y-12700055D01*
X10025539Y-12700055D02*
X10044586Y-12709579D01*
X10044586Y-12709579D02*
X10054110Y-12728627D01*
X10054110Y-12728627D02*
X10054110Y-12833389D01*
X10444586Y-12623865D02*
X10273158Y-12881008D01*
X10701729Y-12633389D02*
X10720777Y-12633389D01*
X10720777Y-12633389D02*
X10739824Y-12642913D01*
X10739824Y-12642913D02*
X10749348Y-12652436D01*
X10749348Y-12652436D02*
X10758872Y-12671484D01*
X10758872Y-12671484D02*
X10768396Y-12709579D01*
X10768396Y-12709579D02*
X10768396Y-12757198D01*
X10768396Y-12757198D02*
X10758872Y-12795293D01*
X10758872Y-12795293D02*
X10749348Y-12814341D01*
X10749348Y-12814341D02*
X10739824Y-12823865D01*
X10739824Y-12823865D02*
X10720777Y-12833389D01*
X10720777Y-12833389D02*
X10701729Y-12833389D01*
X10701729Y-12833389D02*
X10682682Y-12823865D01*
X10682682Y-12823865D02*
X10673158Y-12814341D01*
X10673158Y-12814341D02*
X10663634Y-12795293D01*
X10663634Y-12795293D02*
X10654110Y-12757198D01*
X10654110Y-12757198D02*
X10654110Y-12709579D01*
X10654110Y-12709579D02*
X10663634Y-12671484D01*
X10663634Y-12671484D02*
X10673158Y-12652436D01*
X10673158Y-12652436D02*
X10682682Y-12642913D01*
X10682682Y-12642913D02*
X10701729Y-12633389D01*
X10854110Y-12814341D02*
X10863634Y-12823865D01*
X10863634Y-12823865D02*
X10854110Y-12833389D01*
X10854110Y-12833389D02*
X10844586Y-12823865D01*
X10844586Y-12823865D02*
X10854110Y-12814341D01*
X10854110Y-12814341D02*
X10854110Y-12833389D01*
X10987443Y-12633389D02*
X11006491Y-12633389D01*
X11006491Y-12633389D02*
X11025539Y-12642913D01*
X11025539Y-12642913D02*
X11035063Y-12652436D01*
X11035063Y-12652436D02*
X11044586Y-12671484D01*
X11044586Y-12671484D02*
X11054110Y-12709579D01*
X11054110Y-12709579D02*
X11054110Y-12757198D01*
X11054110Y-12757198D02*
X11044586Y-12795293D01*
X11044586Y-12795293D02*
X11035063Y-12814341D01*
X11035063Y-12814341D02*
X11025539Y-12823865D01*
X11025539Y-12823865D02*
X11006491Y-12833389D01*
X11006491Y-12833389D02*
X10987443Y-12833389D01*
X10987443Y-12833389D02*
X10968396Y-12823865D01*
X10968396Y-12823865D02*
X10958872Y-12814341D01*
X10958872Y-12814341D02*
X10949348Y-12795293D01*
X10949348Y-12795293D02*
X10939824Y-12757198D01*
X10939824Y-12757198D02*
X10939824Y-12709579D01*
X10939824Y-12709579D02*
X10949348Y-12671484D01*
X10949348Y-12671484D02*
X10958872Y-12652436D01*
X10958872Y-12652436D02*
X10968396Y-12642913D01*
X10968396Y-12642913D02*
X10987443Y-12633389D01*
X11244586Y-12833389D02*
X11130301Y-12833389D01*
X11187443Y-12833389D02*
X11187443Y-12633389D01*
X11187443Y-12633389D02*
X11168396Y-12661960D01*
X11168396Y-12661960D02*
X11149348Y-12681008D01*
X11149348Y-12681008D02*
X11130301Y-12690532D01*
X11435062Y-12833389D02*
X11320777Y-12833389D01*
X11377920Y-12833389D02*
X11377920Y-12633389D01*
X11377920Y-12633389D02*
X11358872Y-12661960D01*
X11358872Y-12661960D02*
X11339824Y-12681008D01*
X11339824Y-12681008D02*
X11320777Y-12690532D01*
X11549348Y-12719103D02*
X11530301Y-12709579D01*
X11530301Y-12709579D02*
X11520777Y-12700055D01*
X11520777Y-12700055D02*
X11511253Y-12681008D01*
X11511253Y-12681008D02*
X11511253Y-12671484D01*
X11511253Y-12671484D02*
X11520777Y-12652436D01*
X11520777Y-12652436D02*
X11530301Y-12642913D01*
X11530301Y-12642913D02*
X11549348Y-12633389D01*
X11549348Y-12633389D02*
X11587443Y-12633389D01*
X11587443Y-12633389D02*
X11606491Y-12642913D01*
X11606491Y-12642913D02*
X11616015Y-12652436D01*
X11616015Y-12652436D02*
X11625539Y-12671484D01*
X11625539Y-12671484D02*
X11625539Y-12681008D01*
X11625539Y-12681008D02*
X11616015Y-12700055D01*
X11616015Y-12700055D02*
X11606491Y-12709579D01*
X11606491Y-12709579D02*
X11587443Y-12719103D01*
X11587443Y-12719103D02*
X11549348Y-12719103D01*
X11549348Y-12719103D02*
X11530301Y-12728627D01*
X11530301Y-12728627D02*
X11520777Y-12738151D01*
X11520777Y-12738151D02*
X11511253Y-12757198D01*
X11511253Y-12757198D02*
X11511253Y-12795293D01*
X11511253Y-12795293D02*
X11520777Y-12814341D01*
X11520777Y-12814341D02*
X11530301Y-12823865D01*
X11530301Y-12823865D02*
X11549348Y-12833389D01*
X11549348Y-12833389D02*
X11587443Y-12833389D01*
X11587443Y-12833389D02*
X11606491Y-12823865D01*
X11606491Y-12823865D02*
X11616015Y-12814341D01*
X11616015Y-12814341D02*
X11625539Y-12795293D01*
X11625539Y-12795293D02*
X11625539Y-12757198D01*
X11625539Y-12757198D02*
X11616015Y-12738151D01*
X11616015Y-12738151D02*
X11606491Y-12728627D01*
X11606491Y-12728627D02*
X11587443Y-12719103D01*
X11701729Y-12633389D02*
X11701729Y-12671484D01*
X11777920Y-12633389D02*
X11777920Y-12671484D01*
X12073158Y-12909579D02*
X12063634Y-12900055D01*
X12063634Y-12900055D02*
X12044586Y-12871484D01*
X12044586Y-12871484D02*
X12035063Y-12852436D01*
X12035063Y-12852436D02*
X12025539Y-12823865D01*
X12025539Y-12823865D02*
X12016015Y-12776246D01*
X12016015Y-12776246D02*
X12016015Y-12738151D01*
X12016015Y-12738151D02*
X12025539Y-12690532D01*
X12025539Y-12690532D02*
X12035063Y-12661960D01*
X12035063Y-12661960D02*
X12044586Y-12642913D01*
X12044586Y-12642913D02*
X12063634Y-12614341D01*
X12063634Y-12614341D02*
X12073158Y-12604817D01*
X12130301Y-12633389D02*
X12254110Y-12633389D01*
X12254110Y-12633389D02*
X12187443Y-12709579D01*
X12187443Y-12709579D02*
X12216015Y-12709579D01*
X12216015Y-12709579D02*
X12235063Y-12719103D01*
X12235063Y-12719103D02*
X12244586Y-12728627D01*
X12244586Y-12728627D02*
X12254110Y-12747674D01*
X12254110Y-12747674D02*
X12254110Y-12795293D01*
X12254110Y-12795293D02*
X12244586Y-12814341D01*
X12244586Y-12814341D02*
X12235063Y-12823865D01*
X12235063Y-12823865D02*
X12216015Y-12833389D01*
X12216015Y-12833389D02*
X12158872Y-12833389D01*
X12158872Y-12833389D02*
X12139824Y-12823865D01*
X12139824Y-12823865D02*
X12130301Y-12814341D01*
X12492205Y-12833389D02*
X12492205Y-12633389D01*
X12577920Y-12833389D02*
X12577920Y-12728627D01*
X12577920Y-12728627D02*
X12568396Y-12709579D01*
X12568396Y-12709579D02*
X12549348Y-12700055D01*
X12549348Y-12700055D02*
X12520777Y-12700055D01*
X12520777Y-12700055D02*
X12501729Y-12709579D01*
X12501729Y-12709579D02*
X12492205Y-12719103D01*
X12701729Y-12833389D02*
X12682682Y-12823865D01*
X12682682Y-12823865D02*
X12673158Y-12814341D01*
X12673158Y-12814341D02*
X12663634Y-12795293D01*
X12663634Y-12795293D02*
X12663634Y-12738151D01*
X12663634Y-12738151D02*
X12673158Y-12719103D01*
X12673158Y-12719103D02*
X12682682Y-12709579D01*
X12682682Y-12709579D02*
X12701729Y-12700055D01*
X12701729Y-12700055D02*
X12730301Y-12700055D01*
X12730301Y-12700055D02*
X12749348Y-12709579D01*
X12749348Y-12709579D02*
X12758872Y-12719103D01*
X12758872Y-12719103D02*
X12768396Y-12738151D01*
X12768396Y-12738151D02*
X12768396Y-12795293D01*
X12768396Y-12795293D02*
X12758872Y-12814341D01*
X12758872Y-12814341D02*
X12749348Y-12823865D01*
X12749348Y-12823865D02*
X12730301Y-12833389D01*
X12730301Y-12833389D02*
X12701729Y-12833389D01*
X12882682Y-12833389D02*
X12863634Y-12823865D01*
X12863634Y-12823865D02*
X12854110Y-12804817D01*
X12854110Y-12804817D02*
X12854110Y-12633389D01*
X13035063Y-12823865D02*
X13016015Y-12833389D01*
X13016015Y-12833389D02*
X12977920Y-12833389D01*
X12977920Y-12833389D02*
X12958872Y-12823865D01*
X12958872Y-12823865D02*
X12949348Y-12804817D01*
X12949348Y-12804817D02*
X12949348Y-12728627D01*
X12949348Y-12728627D02*
X12958872Y-12709579D01*
X12958872Y-12709579D02*
X12977920Y-12700055D01*
X12977920Y-12700055D02*
X13016015Y-12700055D01*
X13016015Y-12700055D02*
X13035063Y-12709579D01*
X13035063Y-12709579D02*
X13044586Y-12728627D01*
X13044586Y-12728627D02*
X13044586Y-12747674D01*
X13044586Y-12747674D02*
X12949348Y-12766722D01*
X13120777Y-12823865D02*
X13139825Y-12833389D01*
X13139825Y-12833389D02*
X13177920Y-12833389D01*
X13177920Y-12833389D02*
X13196967Y-12823865D01*
X13196967Y-12823865D02*
X13206491Y-12804817D01*
X13206491Y-12804817D02*
X13206491Y-12795293D01*
X13206491Y-12795293D02*
X13196967Y-12776246D01*
X13196967Y-12776246D02*
X13177920Y-12766722D01*
X13177920Y-12766722D02*
X13149348Y-12766722D01*
X13149348Y-12766722D02*
X13130301Y-12757198D01*
X13130301Y-12757198D02*
X13120777Y-12738151D01*
X13120777Y-12738151D02*
X13120777Y-12728627D01*
X13120777Y-12728627D02*
X13130301Y-12709579D01*
X13130301Y-12709579D02*
X13149348Y-12700055D01*
X13149348Y-12700055D02*
X13177920Y-12700055D01*
X13177920Y-12700055D02*
X13196967Y-12709579D01*
X13273158Y-12909579D02*
X13282682Y-12900055D01*
X13282682Y-12900055D02*
X13301729Y-12871484D01*
X13301729Y-12871484D02*
X13311253Y-12852436D01*
X13311253Y-12852436D02*
X13320777Y-12823865D01*
X13320777Y-12823865D02*
X13330301Y-12776246D01*
X13330301Y-12776246D02*
X13330301Y-12738151D01*
X13330301Y-12738151D02*
X13320777Y-12690532D01*
X13320777Y-12690532D02*
X13311253Y-12661960D01*
X13311253Y-12661960D02*
X13301729Y-12642913D01*
X13301729Y-12642913D02*
X13282682Y-12614341D01*
X13282682Y-12614341D02*
X13273158Y-12604817D01*
D12*
X8498095Y-13005905D02*
G75*
G02*
X8418095Y-13005905I-40000J0D01*
G01*
X8418095Y-13005905D02*
G75*
G02*
X8498095Y-13005905I40000J0D01*
G01*
D11*
X8796967Y-12897389D02*
X8816015Y-12897389D01*
X8816015Y-12897389D02*
X8835062Y-12906913D01*
X8835062Y-12906913D02*
X8844586Y-12916436D01*
X8844586Y-12916436D02*
X8854110Y-12935484D01*
X8854110Y-12935484D02*
X8863634Y-12973579D01*
X8863634Y-12973579D02*
X8863634Y-13021198D01*
X8863634Y-13021198D02*
X8854110Y-13059293D01*
X8854110Y-13059293D02*
X8844586Y-13078341D01*
X8844586Y-13078341D02*
X8835062Y-13087865D01*
X8835062Y-13087865D02*
X8816015Y-13097389D01*
X8816015Y-13097389D02*
X8796967Y-13097389D01*
X8796967Y-13097389D02*
X8777919Y-13087865D01*
X8777919Y-13087865D02*
X8768396Y-13078341D01*
X8768396Y-13078341D02*
X8758872Y-13059293D01*
X8758872Y-13059293D02*
X8749348Y-13021198D01*
X8749348Y-13021198D02*
X8749348Y-12973579D01*
X8749348Y-12973579D02*
X8758872Y-12935484D01*
X8758872Y-12935484D02*
X8768396Y-12916436D01*
X8768396Y-12916436D02*
X8777919Y-12906913D01*
X8777919Y-12906913D02*
X8796967Y-12897389D01*
X8949348Y-13078341D02*
X8958872Y-13087865D01*
X8958872Y-13087865D02*
X8949348Y-13097389D01*
X8949348Y-13097389D02*
X8939824Y-13087865D01*
X8939824Y-13087865D02*
X8949348Y-13078341D01*
X8949348Y-13078341D02*
X8949348Y-13097389D01*
X9073158Y-12983103D02*
X9054110Y-12973579D01*
X9054110Y-12973579D02*
X9044586Y-12964055D01*
X9044586Y-12964055D02*
X9035062Y-12945008D01*
X9035062Y-12945008D02*
X9035062Y-12935484D01*
X9035062Y-12935484D02*
X9044586Y-12916436D01*
X9044586Y-12916436D02*
X9054110Y-12906913D01*
X9054110Y-12906913D02*
X9073158Y-12897389D01*
X9073158Y-12897389D02*
X9111253Y-12897389D01*
X9111253Y-12897389D02*
X9130300Y-12906913D01*
X9130300Y-12906913D02*
X9139824Y-12916436D01*
X9139824Y-12916436D02*
X9149348Y-12935484D01*
X9149348Y-12935484D02*
X9149348Y-12945008D01*
X9149348Y-12945008D02*
X9139824Y-12964055D01*
X9139824Y-12964055D02*
X9130300Y-12973579D01*
X9130300Y-12973579D02*
X9111253Y-12983103D01*
X9111253Y-12983103D02*
X9073158Y-12983103D01*
X9073158Y-12983103D02*
X9054110Y-12992627D01*
X9054110Y-12992627D02*
X9044586Y-13002151D01*
X9044586Y-13002151D02*
X9035062Y-13021198D01*
X9035062Y-13021198D02*
X9035062Y-13059293D01*
X9035062Y-13059293D02*
X9044586Y-13078341D01*
X9044586Y-13078341D02*
X9054110Y-13087865D01*
X9054110Y-13087865D02*
X9073158Y-13097389D01*
X9073158Y-13097389D02*
X9111253Y-13097389D01*
X9111253Y-13097389D02*
X9130300Y-13087865D01*
X9130300Y-13087865D02*
X9139824Y-13078341D01*
X9139824Y-13078341D02*
X9149348Y-13059293D01*
X9149348Y-13059293D02*
X9149348Y-13021198D01*
X9149348Y-13021198D02*
X9139824Y-13002151D01*
X9139824Y-13002151D02*
X9130300Y-12992627D01*
X9130300Y-12992627D02*
X9111253Y-12983103D01*
X9273158Y-12897389D02*
X9292205Y-12897389D01*
X9292205Y-12897389D02*
X9311253Y-12906913D01*
X9311253Y-12906913D02*
X9320777Y-12916436D01*
X9320777Y-12916436D02*
X9330300Y-12935484D01*
X9330300Y-12935484D02*
X9339824Y-12973579D01*
X9339824Y-12973579D02*
X9339824Y-13021198D01*
X9339824Y-13021198D02*
X9330300Y-13059293D01*
X9330300Y-13059293D02*
X9320777Y-13078341D01*
X9320777Y-13078341D02*
X9311253Y-13087865D01*
X9311253Y-13087865D02*
X9292205Y-13097389D01*
X9292205Y-13097389D02*
X9273158Y-13097389D01*
X9273158Y-13097389D02*
X9254110Y-13087865D01*
X9254110Y-13087865D02*
X9244586Y-13078341D01*
X9244586Y-13078341D02*
X9235062Y-13059293D01*
X9235062Y-13059293D02*
X9225539Y-13021198D01*
X9225539Y-13021198D02*
X9225539Y-12973579D01*
X9225539Y-12973579D02*
X9235062Y-12935484D01*
X9235062Y-12935484D02*
X9244586Y-12916436D01*
X9244586Y-12916436D02*
X9254110Y-12906913D01*
X9254110Y-12906913D02*
X9273158Y-12897389D01*
X9463634Y-12897389D02*
X9482681Y-12897389D01*
X9482681Y-12897389D02*
X9501729Y-12906913D01*
X9501729Y-12906913D02*
X9511253Y-12916436D01*
X9511253Y-12916436D02*
X9520777Y-12935484D01*
X9520777Y-12935484D02*
X9530300Y-12973579D01*
X9530300Y-12973579D02*
X9530300Y-13021198D01*
X9530300Y-13021198D02*
X9520777Y-13059293D01*
X9520777Y-13059293D02*
X9511253Y-13078341D01*
X9511253Y-13078341D02*
X9501729Y-13087865D01*
X9501729Y-13087865D02*
X9482681Y-13097389D01*
X9482681Y-13097389D02*
X9463634Y-13097389D01*
X9463634Y-13097389D02*
X9444586Y-13087865D01*
X9444586Y-13087865D02*
X9435062Y-13078341D01*
X9435062Y-13078341D02*
X9425539Y-13059293D01*
X9425539Y-13059293D02*
X9416015Y-13021198D01*
X9416015Y-13021198D02*
X9416015Y-12973579D01*
X9416015Y-12973579D02*
X9425539Y-12935484D01*
X9425539Y-12935484D02*
X9435062Y-12916436D01*
X9435062Y-12916436D02*
X9444586Y-12906913D01*
X9444586Y-12906913D02*
X9463634Y-12897389D01*
X9616015Y-13097389D02*
X9616015Y-12964055D01*
X9616015Y-12983103D02*
X9625539Y-12973579D01*
X9625539Y-12973579D02*
X9644586Y-12964055D01*
X9644586Y-12964055D02*
X9673158Y-12964055D01*
X9673158Y-12964055D02*
X9692205Y-12973579D01*
X9692205Y-12973579D02*
X9701729Y-12992627D01*
X9701729Y-12992627D02*
X9701729Y-13097389D01*
X9701729Y-12992627D02*
X9711253Y-12973579D01*
X9711253Y-12973579D02*
X9730300Y-12964055D01*
X9730300Y-12964055D02*
X9758872Y-12964055D01*
X9758872Y-12964055D02*
X9777920Y-12973579D01*
X9777920Y-12973579D02*
X9787443Y-12992627D01*
X9787443Y-12992627D02*
X9787443Y-13097389D01*
X9882681Y-13097389D02*
X9882681Y-12964055D01*
X9882681Y-12983103D02*
X9892205Y-12973579D01*
X9892205Y-12973579D02*
X9911253Y-12964055D01*
X9911253Y-12964055D02*
X9939824Y-12964055D01*
X9939824Y-12964055D02*
X9958872Y-12973579D01*
X9958872Y-12973579D02*
X9968396Y-12992627D01*
X9968396Y-12992627D02*
X9968396Y-13097389D01*
X9968396Y-12992627D02*
X9977920Y-12973579D01*
X9977920Y-12973579D02*
X9996967Y-12964055D01*
X9996967Y-12964055D02*
X10025539Y-12964055D01*
X10025539Y-12964055D02*
X10044586Y-12973579D01*
X10044586Y-12973579D02*
X10054110Y-12992627D01*
X10054110Y-12992627D02*
X10054110Y-13097389D01*
X10444586Y-12887865D02*
X10273158Y-13145008D01*
X10701729Y-12897389D02*
X10720777Y-12897389D01*
X10720777Y-12897389D02*
X10739824Y-12906913D01*
X10739824Y-12906913D02*
X10749348Y-12916436D01*
X10749348Y-12916436D02*
X10758872Y-12935484D01*
X10758872Y-12935484D02*
X10768396Y-12973579D01*
X10768396Y-12973579D02*
X10768396Y-13021198D01*
X10768396Y-13021198D02*
X10758872Y-13059293D01*
X10758872Y-13059293D02*
X10749348Y-13078341D01*
X10749348Y-13078341D02*
X10739824Y-13087865D01*
X10739824Y-13087865D02*
X10720777Y-13097389D01*
X10720777Y-13097389D02*
X10701729Y-13097389D01*
X10701729Y-13097389D02*
X10682682Y-13087865D01*
X10682682Y-13087865D02*
X10673158Y-13078341D01*
X10673158Y-13078341D02*
X10663634Y-13059293D01*
X10663634Y-13059293D02*
X10654110Y-13021198D01*
X10654110Y-13021198D02*
X10654110Y-12973579D01*
X10654110Y-12973579D02*
X10663634Y-12935484D01*
X10663634Y-12935484D02*
X10673158Y-12916436D01*
X10673158Y-12916436D02*
X10682682Y-12906913D01*
X10682682Y-12906913D02*
X10701729Y-12897389D01*
X10854110Y-13078341D02*
X10863634Y-13087865D01*
X10863634Y-13087865D02*
X10854110Y-13097389D01*
X10854110Y-13097389D02*
X10844586Y-13087865D01*
X10844586Y-13087865D02*
X10854110Y-13078341D01*
X10854110Y-13078341D02*
X10854110Y-13097389D01*
X10987443Y-12897389D02*
X11006491Y-12897389D01*
X11006491Y-12897389D02*
X11025539Y-12906913D01*
X11025539Y-12906913D02*
X11035063Y-12916436D01*
X11035063Y-12916436D02*
X11044586Y-12935484D01*
X11044586Y-12935484D02*
X11054110Y-12973579D01*
X11054110Y-12973579D02*
X11054110Y-13021198D01*
X11054110Y-13021198D02*
X11044586Y-13059293D01*
X11044586Y-13059293D02*
X11035063Y-13078341D01*
X11035063Y-13078341D02*
X11025539Y-13087865D01*
X11025539Y-13087865D02*
X11006491Y-13097389D01*
X11006491Y-13097389D02*
X10987443Y-13097389D01*
X10987443Y-13097389D02*
X10968396Y-13087865D01*
X10968396Y-13087865D02*
X10958872Y-13078341D01*
X10958872Y-13078341D02*
X10949348Y-13059293D01*
X10949348Y-13059293D02*
X10939824Y-13021198D01*
X10939824Y-13021198D02*
X10939824Y-12973579D01*
X10939824Y-12973579D02*
X10949348Y-12935484D01*
X10949348Y-12935484D02*
X10958872Y-12916436D01*
X10958872Y-12916436D02*
X10968396Y-12906913D01*
X10968396Y-12906913D02*
X10987443Y-12897389D01*
X11120777Y-12897389D02*
X11244586Y-12897389D01*
X11244586Y-12897389D02*
X11177920Y-12973579D01*
X11177920Y-12973579D02*
X11206491Y-12973579D01*
X11206491Y-12973579D02*
X11225539Y-12983103D01*
X11225539Y-12983103D02*
X11235062Y-12992627D01*
X11235062Y-12992627D02*
X11244586Y-13011674D01*
X11244586Y-13011674D02*
X11244586Y-13059293D01*
X11244586Y-13059293D02*
X11235062Y-13078341D01*
X11235062Y-13078341D02*
X11225539Y-13087865D01*
X11225539Y-13087865D02*
X11206491Y-13097389D01*
X11206491Y-13097389D02*
X11149348Y-13097389D01*
X11149348Y-13097389D02*
X11130301Y-13087865D01*
X11130301Y-13087865D02*
X11120777Y-13078341D01*
X11435062Y-13097389D02*
X11320777Y-13097389D01*
X11377920Y-13097389D02*
X11377920Y-12897389D01*
X11377920Y-12897389D02*
X11358872Y-12925960D01*
X11358872Y-12925960D02*
X11339824Y-12945008D01*
X11339824Y-12945008D02*
X11320777Y-12954532D01*
X11616015Y-12897389D02*
X11520777Y-12897389D01*
X11520777Y-12897389D02*
X11511253Y-12992627D01*
X11511253Y-12992627D02*
X11520777Y-12983103D01*
X11520777Y-12983103D02*
X11539824Y-12973579D01*
X11539824Y-12973579D02*
X11587443Y-12973579D01*
X11587443Y-12973579D02*
X11606491Y-12983103D01*
X11606491Y-12983103D02*
X11616015Y-12992627D01*
X11616015Y-12992627D02*
X11625539Y-13011674D01*
X11625539Y-13011674D02*
X11625539Y-13059293D01*
X11625539Y-13059293D02*
X11616015Y-13078341D01*
X11616015Y-13078341D02*
X11606491Y-13087865D01*
X11606491Y-13087865D02*
X11587443Y-13097389D01*
X11587443Y-13097389D02*
X11539824Y-13097389D01*
X11539824Y-13097389D02*
X11520777Y-13087865D01*
X11520777Y-13087865D02*
X11511253Y-13078341D01*
X11701729Y-12897389D02*
X11701729Y-12935484D01*
X11777920Y-12897389D02*
X11777920Y-12935484D01*
X12073158Y-13173579D02*
X12063634Y-13164055D01*
X12063634Y-13164055D02*
X12044586Y-13135484D01*
X12044586Y-13135484D02*
X12035063Y-13116436D01*
X12035063Y-13116436D02*
X12025539Y-13087865D01*
X12025539Y-13087865D02*
X12016015Y-13040246D01*
X12016015Y-13040246D02*
X12016015Y-13002151D01*
X12016015Y-13002151D02*
X12025539Y-12954532D01*
X12025539Y-12954532D02*
X12035063Y-12925960D01*
X12035063Y-12925960D02*
X12044586Y-12906913D01*
X12044586Y-12906913D02*
X12063634Y-12878341D01*
X12063634Y-12878341D02*
X12073158Y-12868817D01*
X12254110Y-13097389D02*
X12139824Y-13097389D01*
X12196967Y-13097389D02*
X12196967Y-12897389D01*
X12196967Y-12897389D02*
X12177920Y-12925960D01*
X12177920Y-12925960D02*
X12158872Y-12945008D01*
X12158872Y-12945008D02*
X12139824Y-12954532D01*
X12377920Y-12897389D02*
X12396967Y-12897389D01*
X12396967Y-12897389D02*
X12416015Y-12906913D01*
X12416015Y-12906913D02*
X12425539Y-12916436D01*
X12425539Y-12916436D02*
X12435063Y-12935484D01*
X12435063Y-12935484D02*
X12444586Y-12973579D01*
X12444586Y-12973579D02*
X12444586Y-13021198D01*
X12444586Y-13021198D02*
X12435063Y-13059293D01*
X12435063Y-13059293D02*
X12425539Y-13078341D01*
X12425539Y-13078341D02*
X12416015Y-13087865D01*
X12416015Y-13087865D02*
X12396967Y-13097389D01*
X12396967Y-13097389D02*
X12377920Y-13097389D01*
X12377920Y-13097389D02*
X12358872Y-13087865D01*
X12358872Y-13087865D02*
X12349348Y-13078341D01*
X12349348Y-13078341D02*
X12339824Y-13059293D01*
X12339824Y-13059293D02*
X12330301Y-13021198D01*
X12330301Y-13021198D02*
X12330301Y-12973579D01*
X12330301Y-12973579D02*
X12339824Y-12935484D01*
X12339824Y-12935484D02*
X12349348Y-12916436D01*
X12349348Y-12916436D02*
X12358872Y-12906913D01*
X12358872Y-12906913D02*
X12377920Y-12897389D01*
X12682682Y-13097389D02*
X12682682Y-12897389D01*
X12768396Y-13097389D02*
X12768396Y-12992627D01*
X12768396Y-12992627D02*
X12758872Y-12973579D01*
X12758872Y-12973579D02*
X12739825Y-12964055D01*
X12739825Y-12964055D02*
X12711253Y-12964055D01*
X12711253Y-12964055D02*
X12692205Y-12973579D01*
X12692205Y-12973579D02*
X12682682Y-12983103D01*
X12892205Y-13097389D02*
X12873158Y-13087865D01*
X12873158Y-13087865D02*
X12863634Y-13078341D01*
X12863634Y-13078341D02*
X12854110Y-13059293D01*
X12854110Y-13059293D02*
X12854110Y-13002151D01*
X12854110Y-13002151D02*
X12863634Y-12983103D01*
X12863634Y-12983103D02*
X12873158Y-12973579D01*
X12873158Y-12973579D02*
X12892205Y-12964055D01*
X12892205Y-12964055D02*
X12920777Y-12964055D01*
X12920777Y-12964055D02*
X12939825Y-12973579D01*
X12939825Y-12973579D02*
X12949348Y-12983103D01*
X12949348Y-12983103D02*
X12958872Y-13002151D01*
X12958872Y-13002151D02*
X12958872Y-13059293D01*
X12958872Y-13059293D02*
X12949348Y-13078341D01*
X12949348Y-13078341D02*
X12939825Y-13087865D01*
X12939825Y-13087865D02*
X12920777Y-13097389D01*
X12920777Y-13097389D02*
X12892205Y-13097389D01*
X13073158Y-13097389D02*
X13054110Y-13087865D01*
X13054110Y-13087865D02*
X13044586Y-13068817D01*
X13044586Y-13068817D02*
X13044586Y-12897389D01*
X13225539Y-13087865D02*
X13206491Y-13097389D01*
X13206491Y-13097389D02*
X13168396Y-13097389D01*
X13168396Y-13097389D02*
X13149348Y-13087865D01*
X13149348Y-13087865D02*
X13139825Y-13068817D01*
X13139825Y-13068817D02*
X13139825Y-12992627D01*
X13139825Y-12992627D02*
X13149348Y-12973579D01*
X13149348Y-12973579D02*
X13168396Y-12964055D01*
X13168396Y-12964055D02*
X13206491Y-12964055D01*
X13206491Y-12964055D02*
X13225539Y-12973579D01*
X13225539Y-12973579D02*
X13235063Y-12992627D01*
X13235063Y-12992627D02*
X13235063Y-13011674D01*
X13235063Y-13011674D02*
X13139825Y-13030722D01*
X13311253Y-13087865D02*
X13330301Y-13097389D01*
X13330301Y-13097389D02*
X13368396Y-13097389D01*
X13368396Y-13097389D02*
X13387444Y-13087865D01*
X13387444Y-13087865D02*
X13396967Y-13068817D01*
X13396967Y-13068817D02*
X13396967Y-13059293D01*
X13396967Y-13059293D02*
X13387444Y-13040246D01*
X13387444Y-13040246D02*
X13368396Y-13030722D01*
X13368396Y-13030722D02*
X13339825Y-13030722D01*
X13339825Y-13030722D02*
X13320777Y-13021198D01*
X13320777Y-13021198D02*
X13311253Y-13002151D01*
X13311253Y-13002151D02*
X13311253Y-12992627D01*
X13311253Y-12992627D02*
X13320777Y-12973579D01*
X13320777Y-12973579D02*
X13339825Y-12964055D01*
X13339825Y-12964055D02*
X13368396Y-12964055D01*
X13368396Y-12964055D02*
X13387444Y-12973579D01*
X13463634Y-13173579D02*
X13473158Y-13164055D01*
X13473158Y-13164055D02*
X13492206Y-13135484D01*
X13492206Y-13135484D02*
X13501729Y-13116436D01*
X13501729Y-13116436D02*
X13511253Y-13087865D01*
X13511253Y-13087865D02*
X13520777Y-13040246D01*
X13520777Y-13040246D02*
X13520777Y-13002151D01*
X13520777Y-13002151D02*
X13511253Y-12954532D01*
X13511253Y-12954532D02*
X13501729Y-12925960D01*
X13501729Y-12925960D02*
X13492206Y-12906913D01*
X13492206Y-12906913D02*
X13473158Y-12878341D01*
X13473158Y-12878341D02*
X13463634Y-12868817D01*
D12*
X8448095Y-13219905D02*
X8448095Y-13319905D01*
X8398095Y-13269905D02*
X8498095Y-13269905D01*
D11*
X8863634Y-13361389D02*
X8749348Y-13361389D01*
X8806491Y-13361389D02*
X8806491Y-13161389D01*
X8806491Y-13161389D02*
X8787443Y-13189960D01*
X8787443Y-13189960D02*
X8768396Y-13209008D01*
X8768396Y-13209008D02*
X8749348Y-13218532D01*
X8949348Y-13342341D02*
X8958872Y-13351865D01*
X8958872Y-13351865D02*
X8949348Y-13361389D01*
X8949348Y-13361389D02*
X8939824Y-13351865D01*
X8939824Y-13351865D02*
X8949348Y-13342341D01*
X8949348Y-13342341D02*
X8949348Y-13361389D01*
X9082681Y-13161389D02*
X9101729Y-13161389D01*
X9101729Y-13161389D02*
X9120777Y-13170913D01*
X9120777Y-13170913D02*
X9130300Y-13180436D01*
X9130300Y-13180436D02*
X9139824Y-13199484D01*
X9139824Y-13199484D02*
X9149348Y-13237579D01*
X9149348Y-13237579D02*
X9149348Y-13285198D01*
X9149348Y-13285198D02*
X9139824Y-13323293D01*
X9139824Y-13323293D02*
X9130300Y-13342341D01*
X9130300Y-13342341D02*
X9120777Y-13351865D01*
X9120777Y-13351865D02*
X9101729Y-13361389D01*
X9101729Y-13361389D02*
X9082681Y-13361389D01*
X9082681Y-13361389D02*
X9063634Y-13351865D01*
X9063634Y-13351865D02*
X9054110Y-13342341D01*
X9054110Y-13342341D02*
X9044586Y-13323293D01*
X9044586Y-13323293D02*
X9035062Y-13285198D01*
X9035062Y-13285198D02*
X9035062Y-13237579D01*
X9035062Y-13237579D02*
X9044586Y-13199484D01*
X9044586Y-13199484D02*
X9054110Y-13180436D01*
X9054110Y-13180436D02*
X9063634Y-13170913D01*
X9063634Y-13170913D02*
X9082681Y-13161389D01*
X9273158Y-13161389D02*
X9292205Y-13161389D01*
X9292205Y-13161389D02*
X9311253Y-13170913D01*
X9311253Y-13170913D02*
X9320777Y-13180436D01*
X9320777Y-13180436D02*
X9330300Y-13199484D01*
X9330300Y-13199484D02*
X9339824Y-13237579D01*
X9339824Y-13237579D02*
X9339824Y-13285198D01*
X9339824Y-13285198D02*
X9330300Y-13323293D01*
X9330300Y-13323293D02*
X9320777Y-13342341D01*
X9320777Y-13342341D02*
X9311253Y-13351865D01*
X9311253Y-13351865D02*
X9292205Y-13361389D01*
X9292205Y-13361389D02*
X9273158Y-13361389D01*
X9273158Y-13361389D02*
X9254110Y-13351865D01*
X9254110Y-13351865D02*
X9244586Y-13342341D01*
X9244586Y-13342341D02*
X9235062Y-13323293D01*
X9235062Y-13323293D02*
X9225539Y-13285198D01*
X9225539Y-13285198D02*
X9225539Y-13237579D01*
X9225539Y-13237579D02*
X9235062Y-13199484D01*
X9235062Y-13199484D02*
X9244586Y-13180436D01*
X9244586Y-13180436D02*
X9254110Y-13170913D01*
X9254110Y-13170913D02*
X9273158Y-13161389D01*
X9463634Y-13161389D02*
X9482681Y-13161389D01*
X9482681Y-13161389D02*
X9501729Y-13170913D01*
X9501729Y-13170913D02*
X9511253Y-13180436D01*
X9511253Y-13180436D02*
X9520777Y-13199484D01*
X9520777Y-13199484D02*
X9530300Y-13237579D01*
X9530300Y-13237579D02*
X9530300Y-13285198D01*
X9530300Y-13285198D02*
X9520777Y-13323293D01*
X9520777Y-13323293D02*
X9511253Y-13342341D01*
X9511253Y-13342341D02*
X9501729Y-13351865D01*
X9501729Y-13351865D02*
X9482681Y-13361389D01*
X9482681Y-13361389D02*
X9463634Y-13361389D01*
X9463634Y-13361389D02*
X9444586Y-13351865D01*
X9444586Y-13351865D02*
X9435062Y-13342341D01*
X9435062Y-13342341D02*
X9425539Y-13323293D01*
X9425539Y-13323293D02*
X9416015Y-13285198D01*
X9416015Y-13285198D02*
X9416015Y-13237579D01*
X9416015Y-13237579D02*
X9425539Y-13199484D01*
X9425539Y-13199484D02*
X9435062Y-13180436D01*
X9435062Y-13180436D02*
X9444586Y-13170913D01*
X9444586Y-13170913D02*
X9463634Y-13161389D01*
X9616015Y-13361389D02*
X9616015Y-13228055D01*
X9616015Y-13247103D02*
X9625539Y-13237579D01*
X9625539Y-13237579D02*
X9644586Y-13228055D01*
X9644586Y-13228055D02*
X9673158Y-13228055D01*
X9673158Y-13228055D02*
X9692205Y-13237579D01*
X9692205Y-13237579D02*
X9701729Y-13256627D01*
X9701729Y-13256627D02*
X9701729Y-13361389D01*
X9701729Y-13256627D02*
X9711253Y-13237579D01*
X9711253Y-13237579D02*
X9730300Y-13228055D01*
X9730300Y-13228055D02*
X9758872Y-13228055D01*
X9758872Y-13228055D02*
X9777920Y-13237579D01*
X9777920Y-13237579D02*
X9787443Y-13256627D01*
X9787443Y-13256627D02*
X9787443Y-13361389D01*
X9882681Y-13361389D02*
X9882681Y-13228055D01*
X9882681Y-13247103D02*
X9892205Y-13237579D01*
X9892205Y-13237579D02*
X9911253Y-13228055D01*
X9911253Y-13228055D02*
X9939824Y-13228055D01*
X9939824Y-13228055D02*
X9958872Y-13237579D01*
X9958872Y-13237579D02*
X9968396Y-13256627D01*
X9968396Y-13256627D02*
X9968396Y-13361389D01*
X9968396Y-13256627D02*
X9977920Y-13237579D01*
X9977920Y-13237579D02*
X9996967Y-13228055D01*
X9996967Y-13228055D02*
X10025539Y-13228055D01*
X10025539Y-13228055D02*
X10044586Y-13237579D01*
X10044586Y-13237579D02*
X10054110Y-13256627D01*
X10054110Y-13256627D02*
X10054110Y-13361389D01*
X10444586Y-13151865D02*
X10273158Y-13409008D01*
X10701729Y-13161389D02*
X10720777Y-13161389D01*
X10720777Y-13161389D02*
X10739824Y-13170913D01*
X10739824Y-13170913D02*
X10749348Y-13180436D01*
X10749348Y-13180436D02*
X10758872Y-13199484D01*
X10758872Y-13199484D02*
X10768396Y-13237579D01*
X10768396Y-13237579D02*
X10768396Y-13285198D01*
X10768396Y-13285198D02*
X10758872Y-13323293D01*
X10758872Y-13323293D02*
X10749348Y-13342341D01*
X10749348Y-13342341D02*
X10739824Y-13351865D01*
X10739824Y-13351865D02*
X10720777Y-13361389D01*
X10720777Y-13361389D02*
X10701729Y-13361389D01*
X10701729Y-13361389D02*
X10682682Y-13351865D01*
X10682682Y-13351865D02*
X10673158Y-13342341D01*
X10673158Y-13342341D02*
X10663634Y-13323293D01*
X10663634Y-13323293D02*
X10654110Y-13285198D01*
X10654110Y-13285198D02*
X10654110Y-13237579D01*
X10654110Y-13237579D02*
X10663634Y-13199484D01*
X10663634Y-13199484D02*
X10673158Y-13180436D01*
X10673158Y-13180436D02*
X10682682Y-13170913D01*
X10682682Y-13170913D02*
X10701729Y-13161389D01*
X10854110Y-13342341D02*
X10863634Y-13351865D01*
X10863634Y-13351865D02*
X10854110Y-13361389D01*
X10854110Y-13361389D02*
X10844586Y-13351865D01*
X10844586Y-13351865D02*
X10854110Y-13342341D01*
X10854110Y-13342341D02*
X10854110Y-13361389D01*
X10987443Y-13161389D02*
X11006491Y-13161389D01*
X11006491Y-13161389D02*
X11025539Y-13170913D01*
X11025539Y-13170913D02*
X11035063Y-13180436D01*
X11035063Y-13180436D02*
X11044586Y-13199484D01*
X11044586Y-13199484D02*
X11054110Y-13237579D01*
X11054110Y-13237579D02*
X11054110Y-13285198D01*
X11054110Y-13285198D02*
X11044586Y-13323293D01*
X11044586Y-13323293D02*
X11035063Y-13342341D01*
X11035063Y-13342341D02*
X11025539Y-13351865D01*
X11025539Y-13351865D02*
X11006491Y-13361389D01*
X11006491Y-13361389D02*
X10987443Y-13361389D01*
X10987443Y-13361389D02*
X10968396Y-13351865D01*
X10968396Y-13351865D02*
X10958872Y-13342341D01*
X10958872Y-13342341D02*
X10949348Y-13323293D01*
X10949348Y-13323293D02*
X10939824Y-13285198D01*
X10939824Y-13285198D02*
X10939824Y-13237579D01*
X10939824Y-13237579D02*
X10949348Y-13199484D01*
X10949348Y-13199484D02*
X10958872Y-13180436D01*
X10958872Y-13180436D02*
X10968396Y-13170913D01*
X10968396Y-13170913D02*
X10987443Y-13161389D01*
X11120777Y-13161389D02*
X11244586Y-13161389D01*
X11244586Y-13161389D02*
X11177920Y-13237579D01*
X11177920Y-13237579D02*
X11206491Y-13237579D01*
X11206491Y-13237579D02*
X11225539Y-13247103D01*
X11225539Y-13247103D02*
X11235062Y-13256627D01*
X11235062Y-13256627D02*
X11244586Y-13275674D01*
X11244586Y-13275674D02*
X11244586Y-13323293D01*
X11244586Y-13323293D02*
X11235062Y-13342341D01*
X11235062Y-13342341D02*
X11225539Y-13351865D01*
X11225539Y-13351865D02*
X11206491Y-13361389D01*
X11206491Y-13361389D02*
X11149348Y-13361389D01*
X11149348Y-13361389D02*
X11130301Y-13351865D01*
X11130301Y-13351865D02*
X11120777Y-13342341D01*
X11339824Y-13361389D02*
X11377920Y-13361389D01*
X11377920Y-13361389D02*
X11396967Y-13351865D01*
X11396967Y-13351865D02*
X11406491Y-13342341D01*
X11406491Y-13342341D02*
X11425539Y-13313770D01*
X11425539Y-13313770D02*
X11435062Y-13275674D01*
X11435062Y-13275674D02*
X11435062Y-13199484D01*
X11435062Y-13199484D02*
X11425539Y-13180436D01*
X11425539Y-13180436D02*
X11416015Y-13170913D01*
X11416015Y-13170913D02*
X11396967Y-13161389D01*
X11396967Y-13161389D02*
X11358872Y-13161389D01*
X11358872Y-13161389D02*
X11339824Y-13170913D01*
X11339824Y-13170913D02*
X11330301Y-13180436D01*
X11330301Y-13180436D02*
X11320777Y-13199484D01*
X11320777Y-13199484D02*
X11320777Y-13247103D01*
X11320777Y-13247103D02*
X11330301Y-13266151D01*
X11330301Y-13266151D02*
X11339824Y-13275674D01*
X11339824Y-13275674D02*
X11358872Y-13285198D01*
X11358872Y-13285198D02*
X11396967Y-13285198D01*
X11396967Y-13285198D02*
X11416015Y-13275674D01*
X11416015Y-13275674D02*
X11425539Y-13266151D01*
X11425539Y-13266151D02*
X11435062Y-13247103D01*
X11606491Y-13228055D02*
X11606491Y-13361389D01*
X11558872Y-13151865D02*
X11511253Y-13294722D01*
X11511253Y-13294722D02*
X11635062Y-13294722D01*
X11701729Y-13161389D02*
X11701729Y-13199484D01*
X11777920Y-13161389D02*
X11777920Y-13199484D01*
X12073158Y-13437579D02*
X12063634Y-13428055D01*
X12063634Y-13428055D02*
X12044586Y-13399484D01*
X12044586Y-13399484D02*
X12035063Y-13380436D01*
X12035063Y-13380436D02*
X12025539Y-13351865D01*
X12025539Y-13351865D02*
X12016015Y-13304246D01*
X12016015Y-13304246D02*
X12016015Y-13266151D01*
X12016015Y-13266151D02*
X12025539Y-13218532D01*
X12025539Y-13218532D02*
X12035063Y-13189960D01*
X12035063Y-13189960D02*
X12044586Y-13170913D01*
X12044586Y-13170913D02*
X12063634Y-13142341D01*
X12063634Y-13142341D02*
X12073158Y-13132817D01*
X12130301Y-13161389D02*
X12254110Y-13161389D01*
X12254110Y-13161389D02*
X12187443Y-13237579D01*
X12187443Y-13237579D02*
X12216015Y-13237579D01*
X12216015Y-13237579D02*
X12235063Y-13247103D01*
X12235063Y-13247103D02*
X12244586Y-13256627D01*
X12244586Y-13256627D02*
X12254110Y-13275674D01*
X12254110Y-13275674D02*
X12254110Y-13323293D01*
X12254110Y-13323293D02*
X12244586Y-13342341D01*
X12244586Y-13342341D02*
X12235063Y-13351865D01*
X12235063Y-13351865D02*
X12216015Y-13361389D01*
X12216015Y-13361389D02*
X12158872Y-13361389D01*
X12158872Y-13361389D02*
X12139824Y-13351865D01*
X12139824Y-13351865D02*
X12130301Y-13342341D01*
X12349348Y-13361389D02*
X12387443Y-13361389D01*
X12387443Y-13361389D02*
X12406491Y-13351865D01*
X12406491Y-13351865D02*
X12416015Y-13342341D01*
X12416015Y-13342341D02*
X12435063Y-13313770D01*
X12435063Y-13313770D02*
X12444586Y-13275674D01*
X12444586Y-13275674D02*
X12444586Y-13199484D01*
X12444586Y-13199484D02*
X12435063Y-13180436D01*
X12435063Y-13180436D02*
X12425539Y-13170913D01*
X12425539Y-13170913D02*
X12406491Y-13161389D01*
X12406491Y-13161389D02*
X12368396Y-13161389D01*
X12368396Y-13161389D02*
X12349348Y-13170913D01*
X12349348Y-13170913D02*
X12339824Y-13180436D01*
X12339824Y-13180436D02*
X12330301Y-13199484D01*
X12330301Y-13199484D02*
X12330301Y-13247103D01*
X12330301Y-13247103D02*
X12339824Y-13266151D01*
X12339824Y-13266151D02*
X12349348Y-13275674D01*
X12349348Y-13275674D02*
X12368396Y-13285198D01*
X12368396Y-13285198D02*
X12406491Y-13285198D01*
X12406491Y-13285198D02*
X12425539Y-13275674D01*
X12425539Y-13275674D02*
X12435063Y-13266151D01*
X12435063Y-13266151D02*
X12444586Y-13247103D01*
X12682682Y-13361389D02*
X12682682Y-13161389D01*
X12768396Y-13361389D02*
X12768396Y-13256627D01*
X12768396Y-13256627D02*
X12758872Y-13237579D01*
X12758872Y-13237579D02*
X12739825Y-13228055D01*
X12739825Y-13228055D02*
X12711253Y-13228055D01*
X12711253Y-13228055D02*
X12692205Y-13237579D01*
X12692205Y-13237579D02*
X12682682Y-13247103D01*
X12892205Y-13361389D02*
X12873158Y-13351865D01*
X12873158Y-13351865D02*
X12863634Y-13342341D01*
X12863634Y-13342341D02*
X12854110Y-13323293D01*
X12854110Y-13323293D02*
X12854110Y-13266151D01*
X12854110Y-13266151D02*
X12863634Y-13247103D01*
X12863634Y-13247103D02*
X12873158Y-13237579D01*
X12873158Y-13237579D02*
X12892205Y-13228055D01*
X12892205Y-13228055D02*
X12920777Y-13228055D01*
X12920777Y-13228055D02*
X12939825Y-13237579D01*
X12939825Y-13237579D02*
X12949348Y-13247103D01*
X12949348Y-13247103D02*
X12958872Y-13266151D01*
X12958872Y-13266151D02*
X12958872Y-13323293D01*
X12958872Y-13323293D02*
X12949348Y-13342341D01*
X12949348Y-13342341D02*
X12939825Y-13351865D01*
X12939825Y-13351865D02*
X12920777Y-13361389D01*
X12920777Y-13361389D02*
X12892205Y-13361389D01*
X13073158Y-13361389D02*
X13054110Y-13351865D01*
X13054110Y-13351865D02*
X13044586Y-13332817D01*
X13044586Y-13332817D02*
X13044586Y-13161389D01*
X13225539Y-13351865D02*
X13206491Y-13361389D01*
X13206491Y-13361389D02*
X13168396Y-13361389D01*
X13168396Y-13361389D02*
X13149348Y-13351865D01*
X13149348Y-13351865D02*
X13139825Y-13332817D01*
X13139825Y-13332817D02*
X13139825Y-13256627D01*
X13139825Y-13256627D02*
X13149348Y-13237579D01*
X13149348Y-13237579D02*
X13168396Y-13228055D01*
X13168396Y-13228055D02*
X13206491Y-13228055D01*
X13206491Y-13228055D02*
X13225539Y-13237579D01*
X13225539Y-13237579D02*
X13235063Y-13256627D01*
X13235063Y-13256627D02*
X13235063Y-13275674D01*
X13235063Y-13275674D02*
X13139825Y-13294722D01*
X13311253Y-13351865D02*
X13330301Y-13361389D01*
X13330301Y-13361389D02*
X13368396Y-13361389D01*
X13368396Y-13361389D02*
X13387444Y-13351865D01*
X13387444Y-13351865D02*
X13396967Y-13332817D01*
X13396967Y-13332817D02*
X13396967Y-13323293D01*
X13396967Y-13323293D02*
X13387444Y-13304246D01*
X13387444Y-13304246D02*
X13368396Y-13294722D01*
X13368396Y-13294722D02*
X13339825Y-13294722D01*
X13339825Y-13294722D02*
X13320777Y-13285198D01*
X13320777Y-13285198D02*
X13311253Y-13266151D01*
X13311253Y-13266151D02*
X13311253Y-13256627D01*
X13311253Y-13256627D02*
X13320777Y-13237579D01*
X13320777Y-13237579D02*
X13339825Y-13228055D01*
X13339825Y-13228055D02*
X13368396Y-13228055D01*
X13368396Y-13228055D02*
X13387444Y-13237579D01*
X13463634Y-13437579D02*
X13473158Y-13428055D01*
X13473158Y-13428055D02*
X13492206Y-13399484D01*
X13492206Y-13399484D02*
X13501729Y-13380436D01*
X13501729Y-13380436D02*
X13511253Y-13351865D01*
X13511253Y-13351865D02*
X13520777Y-13304246D01*
X13520777Y-13304246D02*
X13520777Y-13266151D01*
X13520777Y-13266151D02*
X13511253Y-13218532D01*
X13511253Y-13218532D02*
X13501729Y-13189960D01*
X13501729Y-13189960D02*
X13492206Y-13170913D01*
X13492206Y-13170913D02*
X13473158Y-13142341D01*
X13473158Y-13142341D02*
X13463634Y-13132817D01*
D13*
X8481986Y-13572796D02*
X8481986Y-13495014D01*
X8404204Y-13495014D01*
X8404204Y-13572796D01*
X8481986Y-13572796D01*
D11*
X8863634Y-13625389D02*
X8749348Y-13625389D01*
X8806491Y-13625389D02*
X8806491Y-13425389D01*
X8806491Y-13425389D02*
X8787443Y-13453960D01*
X8787443Y-13453960D02*
X8768396Y-13473008D01*
X8768396Y-13473008D02*
X8749348Y-13482532D01*
X8949348Y-13606341D02*
X8958872Y-13615865D01*
X8958872Y-13615865D02*
X8949348Y-13625389D01*
X8949348Y-13625389D02*
X8939824Y-13615865D01*
X8939824Y-13615865D02*
X8949348Y-13606341D01*
X8949348Y-13606341D02*
X8949348Y-13625389D01*
X9149348Y-13625389D02*
X9035062Y-13625389D01*
X9092205Y-13625389D02*
X9092205Y-13425389D01*
X9092205Y-13425389D02*
X9073158Y-13453960D01*
X9073158Y-13453960D02*
X9054110Y-13473008D01*
X9054110Y-13473008D02*
X9035062Y-13482532D01*
X9273158Y-13425389D02*
X9292205Y-13425389D01*
X9292205Y-13425389D02*
X9311253Y-13434913D01*
X9311253Y-13434913D02*
X9320777Y-13444436D01*
X9320777Y-13444436D02*
X9330300Y-13463484D01*
X9330300Y-13463484D02*
X9339824Y-13501579D01*
X9339824Y-13501579D02*
X9339824Y-13549198D01*
X9339824Y-13549198D02*
X9330300Y-13587293D01*
X9330300Y-13587293D02*
X9320777Y-13606341D01*
X9320777Y-13606341D02*
X9311253Y-13615865D01*
X9311253Y-13615865D02*
X9292205Y-13625389D01*
X9292205Y-13625389D02*
X9273158Y-13625389D01*
X9273158Y-13625389D02*
X9254110Y-13615865D01*
X9254110Y-13615865D02*
X9244586Y-13606341D01*
X9244586Y-13606341D02*
X9235062Y-13587293D01*
X9235062Y-13587293D02*
X9225539Y-13549198D01*
X9225539Y-13549198D02*
X9225539Y-13501579D01*
X9225539Y-13501579D02*
X9235062Y-13463484D01*
X9235062Y-13463484D02*
X9244586Y-13444436D01*
X9244586Y-13444436D02*
X9254110Y-13434913D01*
X9254110Y-13434913D02*
X9273158Y-13425389D01*
X9463634Y-13425389D02*
X9482681Y-13425389D01*
X9482681Y-13425389D02*
X9501729Y-13434913D01*
X9501729Y-13434913D02*
X9511253Y-13444436D01*
X9511253Y-13444436D02*
X9520777Y-13463484D01*
X9520777Y-13463484D02*
X9530300Y-13501579D01*
X9530300Y-13501579D02*
X9530300Y-13549198D01*
X9530300Y-13549198D02*
X9520777Y-13587293D01*
X9520777Y-13587293D02*
X9511253Y-13606341D01*
X9511253Y-13606341D02*
X9501729Y-13615865D01*
X9501729Y-13615865D02*
X9482681Y-13625389D01*
X9482681Y-13625389D02*
X9463634Y-13625389D01*
X9463634Y-13625389D02*
X9444586Y-13615865D01*
X9444586Y-13615865D02*
X9435062Y-13606341D01*
X9435062Y-13606341D02*
X9425539Y-13587293D01*
X9425539Y-13587293D02*
X9416015Y-13549198D01*
X9416015Y-13549198D02*
X9416015Y-13501579D01*
X9416015Y-13501579D02*
X9425539Y-13463484D01*
X9425539Y-13463484D02*
X9435062Y-13444436D01*
X9435062Y-13444436D02*
X9444586Y-13434913D01*
X9444586Y-13434913D02*
X9463634Y-13425389D01*
X9616015Y-13625389D02*
X9616015Y-13492055D01*
X9616015Y-13511103D02*
X9625539Y-13501579D01*
X9625539Y-13501579D02*
X9644586Y-13492055D01*
X9644586Y-13492055D02*
X9673158Y-13492055D01*
X9673158Y-13492055D02*
X9692205Y-13501579D01*
X9692205Y-13501579D02*
X9701729Y-13520627D01*
X9701729Y-13520627D02*
X9701729Y-13625389D01*
X9701729Y-13520627D02*
X9711253Y-13501579D01*
X9711253Y-13501579D02*
X9730300Y-13492055D01*
X9730300Y-13492055D02*
X9758872Y-13492055D01*
X9758872Y-13492055D02*
X9777920Y-13501579D01*
X9777920Y-13501579D02*
X9787443Y-13520627D01*
X9787443Y-13520627D02*
X9787443Y-13625389D01*
X9882681Y-13625389D02*
X9882681Y-13492055D01*
X9882681Y-13511103D02*
X9892205Y-13501579D01*
X9892205Y-13501579D02*
X9911253Y-13492055D01*
X9911253Y-13492055D02*
X9939824Y-13492055D01*
X9939824Y-13492055D02*
X9958872Y-13501579D01*
X9958872Y-13501579D02*
X9968396Y-13520627D01*
X9968396Y-13520627D02*
X9968396Y-13625389D01*
X9968396Y-13520627D02*
X9977920Y-13501579D01*
X9977920Y-13501579D02*
X9996967Y-13492055D01*
X9996967Y-13492055D02*
X10025539Y-13492055D01*
X10025539Y-13492055D02*
X10044586Y-13501579D01*
X10044586Y-13501579D02*
X10054110Y-13520627D01*
X10054110Y-13520627D02*
X10054110Y-13625389D01*
X10444586Y-13415865D02*
X10273158Y-13673008D01*
X10701729Y-13425389D02*
X10720777Y-13425389D01*
X10720777Y-13425389D02*
X10739824Y-13434913D01*
X10739824Y-13434913D02*
X10749348Y-13444436D01*
X10749348Y-13444436D02*
X10758872Y-13463484D01*
X10758872Y-13463484D02*
X10768396Y-13501579D01*
X10768396Y-13501579D02*
X10768396Y-13549198D01*
X10768396Y-13549198D02*
X10758872Y-13587293D01*
X10758872Y-13587293D02*
X10749348Y-13606341D01*
X10749348Y-13606341D02*
X10739824Y-13615865D01*
X10739824Y-13615865D02*
X10720777Y-13625389D01*
X10720777Y-13625389D02*
X10701729Y-13625389D01*
X10701729Y-13625389D02*
X10682682Y-13615865D01*
X10682682Y-13615865D02*
X10673158Y-13606341D01*
X10673158Y-13606341D02*
X10663634Y-13587293D01*
X10663634Y-13587293D02*
X10654110Y-13549198D01*
X10654110Y-13549198D02*
X10654110Y-13501579D01*
X10654110Y-13501579D02*
X10663634Y-13463484D01*
X10663634Y-13463484D02*
X10673158Y-13444436D01*
X10673158Y-13444436D02*
X10682682Y-13434913D01*
X10682682Y-13434913D02*
X10701729Y-13425389D01*
X10854110Y-13606341D02*
X10863634Y-13615865D01*
X10863634Y-13615865D02*
X10854110Y-13625389D01*
X10854110Y-13625389D02*
X10844586Y-13615865D01*
X10844586Y-13615865D02*
X10854110Y-13606341D01*
X10854110Y-13606341D02*
X10854110Y-13625389D01*
X10987443Y-13425389D02*
X11006491Y-13425389D01*
X11006491Y-13425389D02*
X11025539Y-13434913D01*
X11025539Y-13434913D02*
X11035063Y-13444436D01*
X11035063Y-13444436D02*
X11044586Y-13463484D01*
X11044586Y-13463484D02*
X11054110Y-13501579D01*
X11054110Y-13501579D02*
X11054110Y-13549198D01*
X11054110Y-13549198D02*
X11044586Y-13587293D01*
X11044586Y-13587293D02*
X11035063Y-13606341D01*
X11035063Y-13606341D02*
X11025539Y-13615865D01*
X11025539Y-13615865D02*
X11006491Y-13625389D01*
X11006491Y-13625389D02*
X10987443Y-13625389D01*
X10987443Y-13625389D02*
X10968396Y-13615865D01*
X10968396Y-13615865D02*
X10958872Y-13606341D01*
X10958872Y-13606341D02*
X10949348Y-13587293D01*
X10949348Y-13587293D02*
X10939824Y-13549198D01*
X10939824Y-13549198D02*
X10939824Y-13501579D01*
X10939824Y-13501579D02*
X10949348Y-13463484D01*
X10949348Y-13463484D02*
X10958872Y-13444436D01*
X10958872Y-13444436D02*
X10968396Y-13434913D01*
X10968396Y-13434913D02*
X10987443Y-13425389D01*
X11225539Y-13492055D02*
X11225539Y-13625389D01*
X11177920Y-13415865D02*
X11130301Y-13558722D01*
X11130301Y-13558722D02*
X11254110Y-13558722D01*
X11311253Y-13425389D02*
X11435062Y-13425389D01*
X11435062Y-13425389D02*
X11368396Y-13501579D01*
X11368396Y-13501579D02*
X11396967Y-13501579D01*
X11396967Y-13501579D02*
X11416015Y-13511103D01*
X11416015Y-13511103D02*
X11425539Y-13520627D01*
X11425539Y-13520627D02*
X11435062Y-13539674D01*
X11435062Y-13539674D02*
X11435062Y-13587293D01*
X11435062Y-13587293D02*
X11425539Y-13606341D01*
X11425539Y-13606341D02*
X11416015Y-13615865D01*
X11416015Y-13615865D02*
X11396967Y-13625389D01*
X11396967Y-13625389D02*
X11339824Y-13625389D01*
X11339824Y-13625389D02*
X11320777Y-13615865D01*
X11320777Y-13615865D02*
X11311253Y-13606341D01*
X11501729Y-13425389D02*
X11625539Y-13425389D01*
X11625539Y-13425389D02*
X11558872Y-13501579D01*
X11558872Y-13501579D02*
X11587443Y-13501579D01*
X11587443Y-13501579D02*
X11606491Y-13511103D01*
X11606491Y-13511103D02*
X11616015Y-13520627D01*
X11616015Y-13520627D02*
X11625539Y-13539674D01*
X11625539Y-13539674D02*
X11625539Y-13587293D01*
X11625539Y-13587293D02*
X11616015Y-13606341D01*
X11616015Y-13606341D02*
X11606491Y-13615865D01*
X11606491Y-13615865D02*
X11587443Y-13625389D01*
X11587443Y-13625389D02*
X11530301Y-13625389D01*
X11530301Y-13625389D02*
X11511253Y-13615865D01*
X11511253Y-13615865D02*
X11501729Y-13606341D01*
X11701729Y-13425389D02*
X11701729Y-13463484D01*
X11777920Y-13425389D02*
X11777920Y-13463484D01*
X12073158Y-13701579D02*
X12063634Y-13692055D01*
X12063634Y-13692055D02*
X12044586Y-13663484D01*
X12044586Y-13663484D02*
X12035063Y-13644436D01*
X12035063Y-13644436D02*
X12025539Y-13615865D01*
X12025539Y-13615865D02*
X12016015Y-13568246D01*
X12016015Y-13568246D02*
X12016015Y-13530151D01*
X12016015Y-13530151D02*
X12025539Y-13482532D01*
X12025539Y-13482532D02*
X12035063Y-13453960D01*
X12035063Y-13453960D02*
X12044586Y-13434913D01*
X12044586Y-13434913D02*
X12063634Y-13406341D01*
X12063634Y-13406341D02*
X12073158Y-13396817D01*
X12235063Y-13492055D02*
X12235063Y-13625389D01*
X12187443Y-13415865D02*
X12139824Y-13558722D01*
X12139824Y-13558722D02*
X12263634Y-13558722D01*
X12492205Y-13625389D02*
X12492205Y-13425389D01*
X12577920Y-13625389D02*
X12577920Y-13520627D01*
X12577920Y-13520627D02*
X12568396Y-13501579D01*
X12568396Y-13501579D02*
X12549348Y-13492055D01*
X12549348Y-13492055D02*
X12520777Y-13492055D01*
X12520777Y-13492055D02*
X12501729Y-13501579D01*
X12501729Y-13501579D02*
X12492205Y-13511103D01*
X12701729Y-13625389D02*
X12682682Y-13615865D01*
X12682682Y-13615865D02*
X12673158Y-13606341D01*
X12673158Y-13606341D02*
X12663634Y-13587293D01*
X12663634Y-13587293D02*
X12663634Y-13530151D01*
X12663634Y-13530151D02*
X12673158Y-13511103D01*
X12673158Y-13511103D02*
X12682682Y-13501579D01*
X12682682Y-13501579D02*
X12701729Y-13492055D01*
X12701729Y-13492055D02*
X12730301Y-13492055D01*
X12730301Y-13492055D02*
X12749348Y-13501579D01*
X12749348Y-13501579D02*
X12758872Y-13511103D01*
X12758872Y-13511103D02*
X12768396Y-13530151D01*
X12768396Y-13530151D02*
X12768396Y-13587293D01*
X12768396Y-13587293D02*
X12758872Y-13606341D01*
X12758872Y-13606341D02*
X12749348Y-13615865D01*
X12749348Y-13615865D02*
X12730301Y-13625389D01*
X12730301Y-13625389D02*
X12701729Y-13625389D01*
X12882682Y-13625389D02*
X12863634Y-13615865D01*
X12863634Y-13615865D02*
X12854110Y-13596817D01*
X12854110Y-13596817D02*
X12854110Y-13425389D01*
X13035063Y-13615865D02*
X13016015Y-13625389D01*
X13016015Y-13625389D02*
X12977920Y-13625389D01*
X12977920Y-13625389D02*
X12958872Y-13615865D01*
X12958872Y-13615865D02*
X12949348Y-13596817D01*
X12949348Y-13596817D02*
X12949348Y-13520627D01*
X12949348Y-13520627D02*
X12958872Y-13501579D01*
X12958872Y-13501579D02*
X12977920Y-13492055D01*
X12977920Y-13492055D02*
X13016015Y-13492055D01*
X13016015Y-13492055D02*
X13035063Y-13501579D01*
X13035063Y-13501579D02*
X13044586Y-13520627D01*
X13044586Y-13520627D02*
X13044586Y-13539674D01*
X13044586Y-13539674D02*
X12949348Y-13558722D01*
X13120777Y-13615865D02*
X13139825Y-13625389D01*
X13139825Y-13625389D02*
X13177920Y-13625389D01*
X13177920Y-13625389D02*
X13196967Y-13615865D01*
X13196967Y-13615865D02*
X13206491Y-13596817D01*
X13206491Y-13596817D02*
X13206491Y-13587293D01*
X13206491Y-13587293D02*
X13196967Y-13568246D01*
X13196967Y-13568246D02*
X13177920Y-13558722D01*
X13177920Y-13558722D02*
X13149348Y-13558722D01*
X13149348Y-13558722D02*
X13130301Y-13549198D01*
X13130301Y-13549198D02*
X13120777Y-13530151D01*
X13120777Y-13530151D02*
X13120777Y-13520627D01*
X13120777Y-13520627D02*
X13130301Y-13501579D01*
X13130301Y-13501579D02*
X13149348Y-13492055D01*
X13149348Y-13492055D02*
X13177920Y-13492055D01*
X13177920Y-13492055D02*
X13196967Y-13501579D01*
X13273158Y-13701579D02*
X13282682Y-13692055D01*
X13282682Y-13692055D02*
X13301729Y-13663484D01*
X13301729Y-13663484D02*
X13311253Y-13644436D01*
X13311253Y-13644436D02*
X13320777Y-13615865D01*
X13320777Y-13615865D02*
X13330301Y-13568246D01*
X13330301Y-13568246D02*
X13330301Y-13530151D01*
X13330301Y-13530151D02*
X13320777Y-13482532D01*
X13320777Y-13482532D02*
X13311253Y-13453960D01*
X13311253Y-13453960D02*
X13301729Y-13434913D01*
X13301729Y-13434913D02*
X13282682Y-13406341D01*
X13282682Y-13406341D02*
X13273158Y-13396817D01*
X8398095Y-13897905D02*
X8498095Y-13797905D01*
X8398095Y-13697905D01*
X8298095Y-13797905D01*
X8398095Y-13897905D01*
X8739824Y-13689389D02*
X8863634Y-13689389D01*
X8863634Y-13689389D02*
X8796967Y-13765579D01*
X8796967Y-13765579D02*
X8825539Y-13765579D01*
X8825539Y-13765579D02*
X8844586Y-13775103D01*
X8844586Y-13775103D02*
X8854110Y-13784627D01*
X8854110Y-13784627D02*
X8863634Y-13803674D01*
X8863634Y-13803674D02*
X8863634Y-13851293D01*
X8863634Y-13851293D02*
X8854110Y-13870341D01*
X8854110Y-13870341D02*
X8844586Y-13879865D01*
X8844586Y-13879865D02*
X8825539Y-13889389D01*
X8825539Y-13889389D02*
X8768396Y-13889389D01*
X8768396Y-13889389D02*
X8749348Y-13879865D01*
X8749348Y-13879865D02*
X8739824Y-13870341D01*
X8949348Y-13870341D02*
X8958872Y-13879865D01*
X8958872Y-13879865D02*
X8949348Y-13889389D01*
X8949348Y-13889389D02*
X8939824Y-13879865D01*
X8939824Y-13879865D02*
X8949348Y-13870341D01*
X8949348Y-13870341D02*
X8949348Y-13889389D01*
X9149348Y-13889389D02*
X9035062Y-13889389D01*
X9092205Y-13889389D02*
X9092205Y-13689389D01*
X9092205Y-13689389D02*
X9073158Y-13717960D01*
X9073158Y-13717960D02*
X9054110Y-13737008D01*
X9054110Y-13737008D02*
X9035062Y-13746532D01*
X9273158Y-13689389D02*
X9292205Y-13689389D01*
X9292205Y-13689389D02*
X9311253Y-13698913D01*
X9311253Y-13698913D02*
X9320777Y-13708436D01*
X9320777Y-13708436D02*
X9330300Y-13727484D01*
X9330300Y-13727484D02*
X9339824Y-13765579D01*
X9339824Y-13765579D02*
X9339824Y-13813198D01*
X9339824Y-13813198D02*
X9330300Y-13851293D01*
X9330300Y-13851293D02*
X9320777Y-13870341D01*
X9320777Y-13870341D02*
X9311253Y-13879865D01*
X9311253Y-13879865D02*
X9292205Y-13889389D01*
X9292205Y-13889389D02*
X9273158Y-13889389D01*
X9273158Y-13889389D02*
X9254110Y-13879865D01*
X9254110Y-13879865D02*
X9244586Y-13870341D01*
X9244586Y-13870341D02*
X9235062Y-13851293D01*
X9235062Y-13851293D02*
X9225539Y-13813198D01*
X9225539Y-13813198D02*
X9225539Y-13765579D01*
X9225539Y-13765579D02*
X9235062Y-13727484D01*
X9235062Y-13727484D02*
X9244586Y-13708436D01*
X9244586Y-13708436D02*
X9254110Y-13698913D01*
X9254110Y-13698913D02*
X9273158Y-13689389D01*
X9463634Y-13689389D02*
X9482681Y-13689389D01*
X9482681Y-13689389D02*
X9501729Y-13698913D01*
X9501729Y-13698913D02*
X9511253Y-13708436D01*
X9511253Y-13708436D02*
X9520777Y-13727484D01*
X9520777Y-13727484D02*
X9530300Y-13765579D01*
X9530300Y-13765579D02*
X9530300Y-13813198D01*
X9530300Y-13813198D02*
X9520777Y-13851293D01*
X9520777Y-13851293D02*
X9511253Y-13870341D01*
X9511253Y-13870341D02*
X9501729Y-13879865D01*
X9501729Y-13879865D02*
X9482681Y-13889389D01*
X9482681Y-13889389D02*
X9463634Y-13889389D01*
X9463634Y-13889389D02*
X9444586Y-13879865D01*
X9444586Y-13879865D02*
X9435062Y-13870341D01*
X9435062Y-13870341D02*
X9425539Y-13851293D01*
X9425539Y-13851293D02*
X9416015Y-13813198D01*
X9416015Y-13813198D02*
X9416015Y-13765579D01*
X9416015Y-13765579D02*
X9425539Y-13727484D01*
X9425539Y-13727484D02*
X9435062Y-13708436D01*
X9435062Y-13708436D02*
X9444586Y-13698913D01*
X9444586Y-13698913D02*
X9463634Y-13689389D01*
X9616015Y-13889389D02*
X9616015Y-13756055D01*
X9616015Y-13775103D02*
X9625539Y-13765579D01*
X9625539Y-13765579D02*
X9644586Y-13756055D01*
X9644586Y-13756055D02*
X9673158Y-13756055D01*
X9673158Y-13756055D02*
X9692205Y-13765579D01*
X9692205Y-13765579D02*
X9701729Y-13784627D01*
X9701729Y-13784627D02*
X9701729Y-13889389D01*
X9701729Y-13784627D02*
X9711253Y-13765579D01*
X9711253Y-13765579D02*
X9730300Y-13756055D01*
X9730300Y-13756055D02*
X9758872Y-13756055D01*
X9758872Y-13756055D02*
X9777920Y-13765579D01*
X9777920Y-13765579D02*
X9787443Y-13784627D01*
X9787443Y-13784627D02*
X9787443Y-13889389D01*
X9882681Y-13889389D02*
X9882681Y-13756055D01*
X9882681Y-13775103D02*
X9892205Y-13765579D01*
X9892205Y-13765579D02*
X9911253Y-13756055D01*
X9911253Y-13756055D02*
X9939824Y-13756055D01*
X9939824Y-13756055D02*
X9958872Y-13765579D01*
X9958872Y-13765579D02*
X9968396Y-13784627D01*
X9968396Y-13784627D02*
X9968396Y-13889389D01*
X9968396Y-13784627D02*
X9977920Y-13765579D01*
X9977920Y-13765579D02*
X9996967Y-13756055D01*
X9996967Y-13756055D02*
X10025539Y-13756055D01*
X10025539Y-13756055D02*
X10044586Y-13765579D01*
X10044586Y-13765579D02*
X10054110Y-13784627D01*
X10054110Y-13784627D02*
X10054110Y-13889389D01*
X10444586Y-13679865D02*
X10273158Y-13937008D01*
X10701729Y-13689389D02*
X10720777Y-13689389D01*
X10720777Y-13689389D02*
X10739824Y-13698913D01*
X10739824Y-13698913D02*
X10749348Y-13708436D01*
X10749348Y-13708436D02*
X10758872Y-13727484D01*
X10758872Y-13727484D02*
X10768396Y-13765579D01*
X10768396Y-13765579D02*
X10768396Y-13813198D01*
X10768396Y-13813198D02*
X10758872Y-13851293D01*
X10758872Y-13851293D02*
X10749348Y-13870341D01*
X10749348Y-13870341D02*
X10739824Y-13879865D01*
X10739824Y-13879865D02*
X10720777Y-13889389D01*
X10720777Y-13889389D02*
X10701729Y-13889389D01*
X10701729Y-13889389D02*
X10682682Y-13879865D01*
X10682682Y-13879865D02*
X10673158Y-13870341D01*
X10673158Y-13870341D02*
X10663634Y-13851293D01*
X10663634Y-13851293D02*
X10654110Y-13813198D01*
X10654110Y-13813198D02*
X10654110Y-13765579D01*
X10654110Y-13765579D02*
X10663634Y-13727484D01*
X10663634Y-13727484D02*
X10673158Y-13708436D01*
X10673158Y-13708436D02*
X10682682Y-13698913D01*
X10682682Y-13698913D02*
X10701729Y-13689389D01*
X10854110Y-13870341D02*
X10863634Y-13879865D01*
X10863634Y-13879865D02*
X10854110Y-13889389D01*
X10854110Y-13889389D02*
X10844586Y-13879865D01*
X10844586Y-13879865D02*
X10854110Y-13870341D01*
X10854110Y-13870341D02*
X10854110Y-13889389D01*
X11054110Y-13889389D02*
X10939824Y-13889389D01*
X10996967Y-13889389D02*
X10996967Y-13689389D01*
X10996967Y-13689389D02*
X10977920Y-13717960D01*
X10977920Y-13717960D02*
X10958872Y-13737008D01*
X10958872Y-13737008D02*
X10939824Y-13746532D01*
X11130301Y-13708436D02*
X11139824Y-13698913D01*
X11139824Y-13698913D02*
X11158872Y-13689389D01*
X11158872Y-13689389D02*
X11206491Y-13689389D01*
X11206491Y-13689389D02*
X11225539Y-13698913D01*
X11225539Y-13698913D02*
X11235062Y-13708436D01*
X11235062Y-13708436D02*
X11244586Y-13727484D01*
X11244586Y-13727484D02*
X11244586Y-13746532D01*
X11244586Y-13746532D02*
X11235062Y-13775103D01*
X11235062Y-13775103D02*
X11120777Y-13889389D01*
X11120777Y-13889389D02*
X11244586Y-13889389D01*
X11320777Y-13708436D02*
X11330301Y-13698913D01*
X11330301Y-13698913D02*
X11349348Y-13689389D01*
X11349348Y-13689389D02*
X11396967Y-13689389D01*
X11396967Y-13689389D02*
X11416015Y-13698913D01*
X11416015Y-13698913D02*
X11425539Y-13708436D01*
X11425539Y-13708436D02*
X11435062Y-13727484D01*
X11435062Y-13727484D02*
X11435062Y-13746532D01*
X11435062Y-13746532D02*
X11425539Y-13775103D01*
X11425539Y-13775103D02*
X11311253Y-13889389D01*
X11311253Y-13889389D02*
X11435062Y-13889389D01*
X11558872Y-13689389D02*
X11577920Y-13689389D01*
X11577920Y-13689389D02*
X11596967Y-13698913D01*
X11596967Y-13698913D02*
X11606491Y-13708436D01*
X11606491Y-13708436D02*
X11616015Y-13727484D01*
X11616015Y-13727484D02*
X11625539Y-13765579D01*
X11625539Y-13765579D02*
X11625539Y-13813198D01*
X11625539Y-13813198D02*
X11616015Y-13851293D01*
X11616015Y-13851293D02*
X11606491Y-13870341D01*
X11606491Y-13870341D02*
X11596967Y-13879865D01*
X11596967Y-13879865D02*
X11577920Y-13889389D01*
X11577920Y-13889389D02*
X11558872Y-13889389D01*
X11558872Y-13889389D02*
X11539824Y-13879865D01*
X11539824Y-13879865D02*
X11530301Y-13870341D01*
X11530301Y-13870341D02*
X11520777Y-13851293D01*
X11520777Y-13851293D02*
X11511253Y-13813198D01*
X11511253Y-13813198D02*
X11511253Y-13765579D01*
X11511253Y-13765579D02*
X11520777Y-13727484D01*
X11520777Y-13727484D02*
X11530301Y-13708436D01*
X11530301Y-13708436D02*
X11539824Y-13698913D01*
X11539824Y-13698913D02*
X11558872Y-13689389D01*
X11701729Y-13689389D02*
X11701729Y-13727484D01*
X11777920Y-13689389D02*
X11777920Y-13727484D01*
X12073158Y-13965579D02*
X12063634Y-13956055D01*
X12063634Y-13956055D02*
X12044586Y-13927484D01*
X12044586Y-13927484D02*
X12035063Y-13908436D01*
X12035063Y-13908436D02*
X12025539Y-13879865D01*
X12025539Y-13879865D02*
X12016015Y-13832246D01*
X12016015Y-13832246D02*
X12016015Y-13794151D01*
X12016015Y-13794151D02*
X12025539Y-13746532D01*
X12025539Y-13746532D02*
X12035063Y-13717960D01*
X12035063Y-13717960D02*
X12044586Y-13698913D01*
X12044586Y-13698913D02*
X12063634Y-13670341D01*
X12063634Y-13670341D02*
X12073158Y-13660817D01*
X12130301Y-13689389D02*
X12254110Y-13689389D01*
X12254110Y-13689389D02*
X12187443Y-13765579D01*
X12187443Y-13765579D02*
X12216015Y-13765579D01*
X12216015Y-13765579D02*
X12235063Y-13775103D01*
X12235063Y-13775103D02*
X12244586Y-13784627D01*
X12244586Y-13784627D02*
X12254110Y-13803674D01*
X12254110Y-13803674D02*
X12254110Y-13851293D01*
X12254110Y-13851293D02*
X12244586Y-13870341D01*
X12244586Y-13870341D02*
X12235063Y-13879865D01*
X12235063Y-13879865D02*
X12216015Y-13889389D01*
X12216015Y-13889389D02*
X12158872Y-13889389D01*
X12158872Y-13889389D02*
X12139824Y-13879865D01*
X12139824Y-13879865D02*
X12130301Y-13870341D01*
X12492205Y-13889389D02*
X12492205Y-13689389D01*
X12577920Y-13889389D02*
X12577920Y-13784627D01*
X12577920Y-13784627D02*
X12568396Y-13765579D01*
X12568396Y-13765579D02*
X12549348Y-13756055D01*
X12549348Y-13756055D02*
X12520777Y-13756055D01*
X12520777Y-13756055D02*
X12501729Y-13765579D01*
X12501729Y-13765579D02*
X12492205Y-13775103D01*
X12701729Y-13889389D02*
X12682682Y-13879865D01*
X12682682Y-13879865D02*
X12673158Y-13870341D01*
X12673158Y-13870341D02*
X12663634Y-13851293D01*
X12663634Y-13851293D02*
X12663634Y-13794151D01*
X12663634Y-13794151D02*
X12673158Y-13775103D01*
X12673158Y-13775103D02*
X12682682Y-13765579D01*
X12682682Y-13765579D02*
X12701729Y-13756055D01*
X12701729Y-13756055D02*
X12730301Y-13756055D01*
X12730301Y-13756055D02*
X12749348Y-13765579D01*
X12749348Y-13765579D02*
X12758872Y-13775103D01*
X12758872Y-13775103D02*
X12768396Y-13794151D01*
X12768396Y-13794151D02*
X12768396Y-13851293D01*
X12768396Y-13851293D02*
X12758872Y-13870341D01*
X12758872Y-13870341D02*
X12749348Y-13879865D01*
X12749348Y-13879865D02*
X12730301Y-13889389D01*
X12730301Y-13889389D02*
X12701729Y-13889389D01*
X12882682Y-13889389D02*
X12863634Y-13879865D01*
X12863634Y-13879865D02*
X12854110Y-13860817D01*
X12854110Y-13860817D02*
X12854110Y-13689389D01*
X13035063Y-13879865D02*
X13016015Y-13889389D01*
X13016015Y-13889389D02*
X12977920Y-13889389D01*
X12977920Y-13889389D02*
X12958872Y-13879865D01*
X12958872Y-13879865D02*
X12949348Y-13860817D01*
X12949348Y-13860817D02*
X12949348Y-13784627D01*
X12949348Y-13784627D02*
X12958872Y-13765579D01*
X12958872Y-13765579D02*
X12977920Y-13756055D01*
X12977920Y-13756055D02*
X13016015Y-13756055D01*
X13016015Y-13756055D02*
X13035063Y-13765579D01*
X13035063Y-13765579D02*
X13044586Y-13784627D01*
X13044586Y-13784627D02*
X13044586Y-13803674D01*
X13044586Y-13803674D02*
X12949348Y-13822722D01*
X13120777Y-13879865D02*
X13139825Y-13889389D01*
X13139825Y-13889389D02*
X13177920Y-13889389D01*
X13177920Y-13889389D02*
X13196967Y-13879865D01*
X13196967Y-13879865D02*
X13206491Y-13860817D01*
X13206491Y-13860817D02*
X13206491Y-13851293D01*
X13206491Y-13851293D02*
X13196967Y-13832246D01*
X13196967Y-13832246D02*
X13177920Y-13822722D01*
X13177920Y-13822722D02*
X13149348Y-13822722D01*
X13149348Y-13822722D02*
X13130301Y-13813198D01*
X13130301Y-13813198D02*
X13120777Y-13794151D01*
X13120777Y-13794151D02*
X13120777Y-13784627D01*
X13120777Y-13784627D02*
X13130301Y-13765579D01*
X13130301Y-13765579D02*
X13149348Y-13756055D01*
X13149348Y-13756055D02*
X13177920Y-13756055D01*
X13177920Y-13756055D02*
X13196967Y-13765579D01*
X13273158Y-13965579D02*
X13282682Y-13956055D01*
X13282682Y-13956055D02*
X13301729Y-13927484D01*
X13301729Y-13927484D02*
X13311253Y-13908436D01*
X13311253Y-13908436D02*
X13320777Y-13879865D01*
X13320777Y-13879865D02*
X13330301Y-13832246D01*
X13330301Y-13832246D02*
X13330301Y-13794151D01*
X13330301Y-13794151D02*
X13320777Y-13746532D01*
X13320777Y-13746532D02*
X13311253Y-13717960D01*
X13311253Y-13717960D02*
X13301729Y-13698913D01*
X13301729Y-13698913D02*
X13282682Y-13670341D01*
X13282682Y-13670341D02*
X13273158Y-13660817D01*
M02*
